<svg xmlns:vectornator="http://vectornator.io" preserveAspectRatio="none" xml:space="preserve" style="fill-rule:nonzero;clip-rule:evenodd;stroke-linecap:round;stroke-linejoin:round" xmlns="http://www.w3.org/2000/svg" viewBox="0 0 52.91 54"><g vectornator:layerName="Layer 1"><path stroke="#000" d="M50.302 28.298c.048.497.187.973.187 1.48 0 10.663-10.748 19.317-24.033 19.317-13.285 0-24.065-8.654-24.065-19.317 0-.507.14-.984.187-1.48h-.967c-.137.746-.312 1.485-.312 2.259 0 10.976 11.248 19.9 25.126 19.9 13.878 0 25.125-8.924 25.125-19.9 0-.773-.153-1.513-.28-2.26h-.968Z" stroke-width=".42"/><path stroke-width=".18" d="M2.564 28.194c-.047.726-.187 1.413-.187 2.153 0 .35.083.68.094 1.028.03-.263.045-.537.062-.803h1.688c1.406.821 2.897 1.426 4.437 1.927 5.228 1.085 11.171 1.028 17.594 1.028 6.314 0 12.155.07 17.312-.964 1.618-.51 3.184-1.133 4.657-1.992h2.093c.026.382.052.75.094 1.125.02-.462.125-.882.125-1.35 0-.74-.14-1.425-.187-2.152h-2.094c-6.166 3.595-13.675 3.727-21.969 3.727-8.314 0-15.852-.116-22.031-3.727H2.564Z" stroke="#000"/><path stroke="#000" fill="#c4c4c4" stroke-width=".1" d="M43.594 31.534C38.436 33.18 32.595 33.29 26.28 33.29c-6.422 0-12.366-.1-17.593-1.82-1.54-.323-3.032-.703-4.438-1.267H2.562c-.017.183-.031.372-.062.552.471 10.355 10.999 18.652 24 18.652 12.901 0 23.318-8.181 23.938-18.424a11.696 11.696 0 0 1-.094-.78H48.25c-1.472.589-3.039 1.004-4.656 1.332Z"/><path stroke="#000" stroke-width=".724" d="M29.718 10.432h0c.046 0 .083.07.083.157v20.936c0 .087-.037.157-.083.157h0c-.046 0-.083-.07-.083-.157V10.589c0-.087.037-.157.083-.157Z" fill="#d4d4d4"/><path stroke="#000" stroke-width=".724" d="M17.695 23.896 29.453 4.718l-.044 19.08-11.714.098ZM47.218 21.003l-15.705.009.011-18.704 15.694 18.695Z"/><path stroke="#c4c4c4" d="m45.657 20.026-13.694.008.043-16.242 13.651 16.234ZM19.434 22.664l9.355.041V7.292l-9.355 15.372Z" stroke-width=".22"/><path d="M3.619 28.474h0c.048 0 .087.04.087.087v1.19c0 .047-.04.086-.087.086h0a.087.087 0 0 1-.088-.087v-1.189c0-.048.04-.087.088-.087ZM6.395 29.665h0c.022 0 .04.029.04.063v.737c0 .034-.018.062-.04.062h0c-.022 0-.04-.028-.04-.062v-.737c0-.035.018-.063.04-.063ZM29.661 31.04h0c.013 0 .024.01.024.023v1.058c0 .013-.01.023-.024.023h0a.024.024 0 0 1-.024-.023v-1.058c0-.013.011-.024.024-.024ZM47.37 29.048h0c.012 0 .022.01.022.021v1.005c0 .012-.01.021-.022.021h0c-.013 0-.023-.01-.023-.02v-1.006c0-.011.01-.02.023-.02ZM49.039 28.596h0v.956h0v-.956Z" stroke-width=".724" stroke="#000"/><path stroke="#000" stroke-width=".62" fill="#c4c4c4" d="M30.754 2.78c-.034.068-.116.14-.163.202l-.952 1.45.014 27.245c0 .056.316.091.69.091.374 0 .662-.035.662-.09V2.527c0-.03-.11.27-.25.252Z"/></g></svg>