<svg viewBox="0 0 39.58 53.73" xmlns:vectornator="http://vectornator.io" style="fill-rule:nonzero;clip-rule:evenodd;stroke-linecap:round;stroke-linejoin:round" xmlns="http://www.w3.org/2000/svg" xml:space="preserve"><g vectornator:layerName="Layer 1" stroke="#000"><path stroke-linecap="butt" stroke-linejoin="miter" stroke-width=".12" d="M58.57 116.597h11.94v.357H58.57v-.357Z"/><path fill="#d4d4d4" d="M-.02.617h39.492v52.898H-.02V.617Z" stroke-width="2.02"/><path stroke-width="1.52" fill="#d4d4d4" d="M.252 13.862h39.206v39.863H.252V13.862Z"/><path stroke-width=".62" d="M20.955 37.617V49.2h12.646V37.617H20.955Z" fill="#d4d4d4"/><path d="m33.715 47.021.405.139.003.409.012 1.623h-.487v-2.17h.067ZM20.807 47.01l-.41.14-.003.413-.013 1.638h.493v-2.19h-.067Z" stroke-width=".52"/><path fill="#d4d4d4" stroke-width=".52" stroke-linejoin="miter" d="M20.231 36.47v.839h.076v.105c0 .01.005.006.017.006h.081v.092c0 .01.011.017.023.017h.093v.071H34.042v-.071h.086c.012 0 .023-.007.023-.017v-.092h.081c.012 0 .023.004.023-.006v-.105h.07v-.838H20.232ZM19.373 35.596h15.658v.86H19.373v-.86Z" stroke-linecap="butt"/><path stroke-linejoin="miter" d="M19.104 35.229H35.3l.001.11-.136.001-.13.112-15.674-.005-.094-.1-.162-.002v-.116ZM18.886 35.035h16.633v.16H18.886v-.16Z" stroke-linecap="butt" stroke-width=".82"/><path stroke-linecap="butt" d="M27.022 36.454h.512v1.136h-.512v-1.136Z" stroke-width=".4" stroke-linejoin="miter"/><path fill="#e2e2e2" stroke-width=".4" stroke-linejoin="miter" stroke-linecap="butt" d="M27.046 37.005h.466v.585h-.466v-.585Z"/><path stroke-linecap="butt" stroke-linejoin="miter" stroke-width=".4" d="M32.306 36.468h.511v1.135h-.511v-1.135Z"/><path stroke-width=".4" stroke-linecap="butt" fill="#e2e2e2" d="M32.33 37.02h.466v.583h-.467v-.584Z" stroke-linejoin="miter"/><path d="M21.7 36.454h.511v1.136h-.512v-1.136Z" stroke-linecap="butt" stroke-width=".4" stroke-linejoin="miter"/><path fill="#e2e2e2" stroke-width=".4" d="M21.723 37.005h.466v.585h-.466v-.585Z" stroke-linecap="butt" stroke-linejoin="miter"/><path stroke-width=".42" stroke-linejoin="miter" stroke-linecap="butt" d="M19.33 49.191h15.769v.22h-15.77v-.22Z"/><path stroke-width=".52" stroke-linejoin="miter" stroke-linecap="butt" d="M19.357 49.415h15.709v1.672H19.357v-1.672Z" fill="#d4d4d4"/><path stroke-linejoin="miter" d="M20.395 50.156h6.32v.19h-6.32v-.19Z" stroke-linecap="butt" stroke-width=".12"/><path d="M22.346 38.233v1.527h2.329v-1.527h-2.329ZM25.218 38.247v1.527H29.363v-1.527h-4.144ZM29.895 38.208v1.527h2.329v-1.527h-2.329ZM22.346 40.194v4.038h2.33v-4.038h-2.33ZM22.346 44.267v4.325h2.33v-4.325h-2.33ZM29.895 40.194v4.082h2.329v-4.082h-2.329Z" fill="#d4d4d4" stroke-width=".38"/><path d="M29.895 44.26v4.332h2.329V44.26h-2.329ZM25.218 40.194v8.403H29.363v-8.403h-4.144Z" fill="#d4d4d4" stroke-width=".38"/><path stroke-width=".62" fill="#d4d4d4" d="M4.341 19.424v9.493h6.047v-9.493H4.341Z"/><path stroke-width=".38" fill="#d4d4d4" d="M5.244 24.487h4.242v3.708H5.244v-3.708ZM5.244 20.033h4.242v3.54H5.244v-3.54Z"/><path d="M3.995 18.48v.69h.036v.087c0 .008.003.005.009.005h.038v.076c0 .008.006.014.011.014h.045v.058H10.599v-.058h.041c.006 0 .011-.006.011-.014v-.076h.04c.005 0 .01.003.01-.005v-.087h.034v-.69h-6.74Z" stroke-linejoin="miter" stroke-width=".42" stroke-linecap="butt" fill="#d4d4d4"/><g stroke-linejoin="miter" stroke-linecap="butt"><path stroke-width=".8" d="M3.659 18.003v.348h.04v.044c0 .004.002.002.008.002h.043v.038c0 .005.006.008.012.008h.049v.03h7.111v-.03h.046c.006 0 .012-.003.012-.008v-.038h.043c.006 0 .012.002.012-.002v-.044h.036v-.348H3.66Z"/><path stroke-width=".52" d="M3.66 18.141h7.41v.11H3.66v-.11Z"/></g><path d="M16.845 19.424v9.493H22.892v-9.493H16.845Z" stroke-width=".62" fill="#d4d4d4"/><path fill="#d4d4d4" stroke-width=".38" d="M17.748 24.394h4.241v3.801h-4.241v-3.801ZM17.748 20.033h4.241v3.476h-4.241v-3.476Z"/><path stroke-width=".42" fill="#d4d4d4" stroke-linecap="butt" stroke-linejoin="miter" d="M16.499 18.48v.69h.036v.087c0 .008.003.005.008.005h.039v.076c0 .008.005.014.01.014h.045v.058H23.102v-.058h.042c.006 0 .011-.006.011-.014v-.076h.039c.005 0 .01.003.01-.005v-.087h.034v-.69h-6.739Z"/><path stroke-width=".8" stroke-linejoin="miter" d="M16.162 18.003v.348h.04v.044c0 .004.003.002.009.002h.042v.038c0 .005.006.008.013.008h.048v.03h7.112v-.03h.045c.006 0 .012-.003.012-.008v-.038h.043c.006 0 .012.002.012-.002v-.044h.037v-.348h-7.413Z" stroke-linecap="butt"/><path stroke-linecap="butt" stroke-width=".52" stroke-linejoin="miter" d="M16.163 18.14h7.41v.11h-7.41v-.11Z"/><path d="M29.279 19.424v9.493H35.326v-9.493H29.279Z" fill="#d4d4d4" stroke-width=".62"/><path fill="#d4d4d4" d="M30.181 24.49h4.242v3.705H30.18V24.49ZM30.181 20.033h4.242v3.646H30.18v-3.646Z" stroke-width=".38"/><path fill="#d4d4d4" stroke-linecap="butt" stroke-linejoin="miter" d="M28.933 18.48v.69h.035v.087c0 .008.003.005.009.005h.038v.076c0 .008.006.014.012.014h.044v.058H35.536v-.058h.042c.005 0 .01-.006.01-.014v-.076h.04c.005 0 .01.003.01-.005v-.087h.034v-.69h-6.739Z" stroke-width=".42"/><g stroke-linecap="butt" stroke-linejoin="miter"><path d="M28.596 18.003v.348h.04v.044c0 .004.002.002.008.002h.043v.038c0 .005.006.008.012.008h.049v.03H35.859v-.03h.046c.006 0 .012-.003.012-.008v-.038h.043c.006 0 .012.002.012-.002v-.044h.036v-.348h-7.412Z" stroke-width=".8"/><path stroke-width=".52" d="M28.615 18.19h7.411v.11h-7.411v-.11Z"/></g><path fill="#d4d4d4" stroke-width=".82" d="M11.251 5.09h6.3v6.359h-6.3v-6.36Z"/><path d="M12.547 6.101h3.708v4.336h-3.708V6.1Z" stroke-width=".38" fill="#d4d4d4"/><path d="m14.388 3.436 3.14 1.666h-6.28l3.14-1.666Z" stroke-width=".82" fill="#d4d4d4"/><path d="m14.398 2.53-2.549 1.343-1.69.889v.9l1.597-.84 2.642-1.388v-.903Z" stroke-width=".82"/><path d="m14.398 2.542-2.642 1.387-1.597.84v.17l1.597-.84 2.642-1.388v-.169Z" stroke-width=".52"/><path stroke-width=".82" d="m14.417 2.533 2.548 1.343 1.69.888v.9l-1.597-.84-2.641-1.387v-.904Z"/><path stroke-width=".52" d="m14.417 2.545 2.641 1.387 1.598.84v.169l-1.598-.84-2.641-1.388v-.168Z"/><path d="M11.251 11.229h6.3v.244h-6.3v-.245Z" stroke-width=".62"/><path d="M3.476 14.19h.645v2.03h-.645v-2.03Z" stroke-width=".48"/><path stroke-width=".48" fill="#d4d4d4" d="M3.476 15.205h.645v1.015h-.645v-1.015Z"/><path stroke-width=".48" d="M6.243 14.19h.629v2.03h-.63v-2.03Z"/><path stroke-width=".48" fill="#d4d4d4" d="M6.243 15.205h.629v1.015h-.63v-1.015Z"/><path stroke-width=".48" d="M8.907 14.19h.628v2.03h-.628v-2.03Z"/><path d="M8.907 15.205h.628v1.015h-.628v-1.015Z" fill="#d4d4d4" stroke-width=".48"/><path stroke-width=".48" d="M11.75 14.19h.646v2.03h-.646v-2.03Z"/><path fill="#d4d4d4" stroke-width=".38" d="M11.75 15.155h.646v1.016h-.646v-1.016Z"/><path stroke-width=".48" d="M14.505 14.19h.646v2.03h-.646v-2.03Z"/><path stroke-width=".48" d="M14.505 15.205h.646v1.015h-.646v-1.015Z" fill="#d4d4d4"/><path d="M17.273 14.19h.628v2.03h-.628v-2.03Z" stroke-width=".48"/><path fill="#d4d4d4" stroke-width=".48" d="M17.273 15.205h.628v1.015h-.628v-1.015Z"/><path stroke-width=".48" d="M19.936 14.19h.63v2.03h-.63v-2.03Z"/><path fill="#d4d4d4" d="M19.936 15.205h.63v1.015h-.63v-1.015Z" stroke-width=".48"/><path d="M22.684 14.19h.646v2.03h-.646v-2.03Z" stroke-width=".48"/><path d="M22.684 15.205h.646v1.015h-.646v-1.015Z" fill="#d4d4d4" stroke-width=".48"/><path stroke-width=".4" d="M25.44 14.19h.645v2.03h-.645v-2.03Z"/><path stroke-width=".4" fill="#d4d4d4" d="M25.44 15.205h.645v1.015h-.645v-1.015Z"/><path d="M28.207 14.19h.629v2.03h-.63v-2.03Z" stroke-width=".48"/><path d="M28.207 15.205h.629v1.015h-.63v-1.015Z" fill="#d4d4d4" stroke-width=".48"/><path d="M30.87 14.19h.63v2.03h-.63v-2.03Z" stroke-width=".48"/><path d="M30.87 15.205h.63v1.015h-.63v-1.015Z" stroke-width=".48" fill="#d4d4d4"/><path d="M33.714 14.19h.646v2.03h-.646v-2.03Z" stroke-width=".48"/><path fill="#d4d4d4" d="M33.714 15.205h.646v1.015h-.646v-1.015Z" stroke-width=".48"/><path stroke-width=".48" d="M36.47 14.19h.645v2.03h-.646v-2.03Z"/><path fill="#d4d4d4" d="M36.47 15.205h.645v1.015h-.646v-1.015Z" stroke-width=".48"/><path stroke-width=".52" stroke-linejoin="miter" d="M.008 13.857H.94v39.57H.008v-39.57Z" stroke-linecap="butt"/><path stroke-width=".52" stroke-linecap="butt" stroke-linejoin="miter" d="M39.417 52.548v.738H-.02v-.738h39.437Z"/><path stroke-linecap="butt" d="M1.225 37.572h7.408v15.943H1.225V37.572ZM.736 34.931h8.698v1.006H.736V34.93Z" fill="#d4d4d4" stroke-width=".42" stroke-linejoin="miter"/><path stroke-linejoin="miter" d="m-.104 33.943.05.066.264.347h.017l.364.48h8.684l.38-.48.009-.008.024-.025.298-.314.033-.05-1.208-.016H-.103Z" stroke-width=".62" stroke-linecap="butt"/><path fill="#d4d4d4" stroke-linecap="butt" stroke-width=".42" stroke-linejoin="miter" d="M1.227 35.934v1.664l7.401-.021.003-.477.002-.214.275-.42v-.532h-7.68Z"/><path stroke-width=".42" d="M6.828 35.967h.694v1.52h-.694v-1.52Z" stroke-linejoin="miter" stroke-linecap="butt"/><path stroke-linejoin="miter" d="M6.853 36.724h.633v.782h-.633v-.782Z" stroke-width=".42" stroke-linecap="butt" fill="#d4d4d4"/><path stroke-width=".42" stroke-linejoin="miter" stroke-linecap="butt" d="M2.419 35.997h.693v1.52H2.42v-1.52Z"/><path stroke-linecap="butt" d="M2.478 36.703h.632v.782h-.632v-.782ZM2.244 40.368h5.278v12.36H2.244v-12.36Z" stroke-linejoin="miter" stroke-width=".42" fill="#d4d4d4"/><path stroke-linecap="butt" stroke-width=".42" stroke-linejoin="miter" d="M2.303 38.377H7.58v1.287H2.303v-1.287ZM6.257 46.255c0-.16.13-.292.29-.292.16 0 .29.131.29.292 0 .162-.13.293-.29.293-.16 0-.29-.131-.29-.293Z"/><path stroke-width="1.72" d="M-.02 0h39.492v.694H-.02V0Z"/><path stroke-width=".82" fill="#d4d4d4" d="M25.822 5.09h6.3v6.359h-6.3v-6.36Z"/><path d="M27.117 6.101h3.71v4.336h-3.71V6.1Z" fill="#d4d4d4" stroke-width=".38"/><path stroke-width=".82" d="m28.959 3.436 3.14 1.666h-6.28l3.14-1.666Z" fill="#d4d4d4"/><path stroke-width=".1" d="m28.954 4.184.72.382h-1.44l.72-.382Z"/><path stroke-width=".82" d="M28.968 2.53 26.42 3.874l-1.69.889v.9l1.597-.84 2.641-1.388v-.903Z"/><path d="m28.968 2.542-2.641 1.387-1.598.84v.17l1.598-.84 2.641-1.388v-.169Z" stroke-width=".52"/><path d="m28.988 2.533 2.548 1.343 1.69.888v.9l-1.597-.84-2.641-1.387v-.904Z" stroke-width=".82"/><path stroke-width=".52" d="m28.988 2.545 2.641 1.387 1.598.84v.169l-1.598-.84-2.641-1.388v-.168Z"/><path d="M25.822 11.229h6.3v.244h-6.3v-.245Z" stroke-width=".62"/><path stroke-width=".1" d="m14.4 4.148.72.382h-1.44l.72-.382Z"/><path d="M29.003 28.96h6.593v.36h-6.593v-.36ZM35.385 27.021l.209.116.002.342.006 1.358h-.251V27.02h.034ZM29.232 27.014l-.22.117-.001.346-.007 1.372h.264v-1.835h-.036Z" stroke-width=".62" fill="#e2e2e2"/><path fill="#e2e2e2" d="M29.22 29.133h6.08c.047 0 .084.038.084.084h0a.083.083 0 0 1-.083.083h-6.082a.083.083 0 0 1-.083-.084h0c0-.045.037-.083.084-.083Z" stroke-width=".5"/><g fill="#e2e2e2"><path stroke-width=".62" d="M16.568 28.952h6.606v.36h-6.606v-.36ZM22.963 27.013l.21.116v.342l.007 1.357h-.251v-1.815h.034ZM16.797 27.006l-.22.117-.002.346-.006 1.371h.264v-1.834h-.036Z"/><path stroke-width=".5" d="M16.785 29.125h6.093c.046 0 .084.037.084.083h0a.083.083 0 0 1-.084.083h-6.093a.083.083 0 0 1-.084-.083h0c0-.046.037-.083.084-.083Z"/></g><g fill="#e2e2e2"><path stroke-width=".62" d="M4.023 28.952h6.6v.36h-6.6v-.36ZM10.412 27.013l.209.116.001.342.007 1.357h-.252v-1.815h.035ZM4.251 27.006l-.219.117-.002.346-.006 1.371h.264v-1.834H4.25Z"/><path d="M4.24 29.125h6.087c.046 0 .084.037.084.083h0a.083.083 0 0 1-.084.083H4.24a.083.083 0 0 1-.083-.083h0c0-.046.037-.083.083-.083Z" stroke-width=".5"/></g><path stroke-linejoin="miter" stroke-width=".62" d="m-.065 33.914.047.067.25.352h.015l.344.485h8.196l.36-.485.007-.009.023-.025.281-.318.032-.05-1.14-.017H-.065Z" stroke-linecap="butt"/><path d="M27.815 50.156h6.32v.19h-6.32v-.19Z" stroke-linecap="butt" stroke-linejoin="miter" stroke-width=".12"/></g></svg>