<svg xmlns:vectornator="http://vectornator.io" viewBox="0 0 39.74 56.87" xmlns="http://www.w3.org/2000/svg" xml:space="preserve" style="fill-rule:nonzero;clip-rule:evenodd;stroke-linecap:round;stroke-linejoin:round"><g vectornator:layerName="Layer 1" stroke="#000"><path fill="#d4d4d4" stroke-width="2.281" d="M.032 16.319h39.35v40.078H.032V16.319Z"/><path stroke-width=".72" d="M2.43 16.082h36.258V54.59H2.429V16.08Z" fill="#d4d4d4"/><path stroke-width=".724" d="M0 15.955h39.737v2.656H0v-2.656Z" fill="#e2e2e2"/><path stroke-width="2.605" d="M.178.786H39.31V17.91H.178V.786Z"/><path d="M.168.947h39.336V15.22H.168V.947Z" fill="#d4d4d4" stroke-width="1.02"/><path fill="#d4d4d4" d="M.129 14.698h39.483v2.555H.129v-2.555Z" stroke-width=".92"/><path d="m11.357 35.375-7.475 4.638h2.469l5.043-3.133 1.925 1.195 3.119 1.938h2.39l-7.47-4.638Z" stroke-width=".82" fill="#d4d4d4"/><path d="m11.355 36.83 4.985 3.183H6.37l4.985-3.183Z" fill="#d4d4d4" stroke-width=".82"/><path stroke-width=".82" d="m7.544 39.29-1.174.706h9.975l-1.174-.705H7.544Z"/><path fill="#d4d4d4" stroke-width=".8" d="M7.392 21.212h7.25v9.23h-7.25v-9.23Z"/><path d="M6.432 20.96h9.17v.557h-9.17v-.556Z" stroke-width=".9"/><path fill="#d4d4d4" stroke-width=".4" d="M9.03 22.69h3.975v2.963H9.03V22.69ZM9.03 26.26h3.975v2.962H9.03V26.26Z"/><path fill="#d4d4d4" d="M21.19 21.212h7.25v9.23h-7.25v-9.23Z" stroke-width=".8"/><path stroke-width=".9" d="M20.23 20.96h9.17v.557h-9.17v-.556Z"/><path d="M22.828 22.69h3.974v2.963h-3.974V22.69ZM22.828 26.26h3.974v2.962h-3.974V26.26Z" fill="#d4d4d4" stroke-width=".4"/><path fill="#d4d4d4" d="M21.23 41.047h7.252v9.23H21.23v-9.23Z" stroke-width=".8"/><path fill="#d4d4d4" stroke-width=".4" d="M22.869 42.526h3.975v2.962h-3.975v-2.962ZM22.869 46.095h3.975v2.962h-3.975v-2.962Z"/><path fill="#d4d4d4" stroke-width=".8" d="M28.575 41.047h7.25v9.23h-7.25v-9.23Z"/><path fill="#d4d4d4" stroke-width=".4" d="M30.213 42.526h3.975v2.962h-3.975v-2.962ZM30.213 46.095h3.975v2.962h-3.975v-2.962Z"/><path stroke-width="1.02" d="M20.23 41.01h16.597v.532H20.23v-.532Z" fill="#e2e2e2"/><path fill="#d4d4d4" stroke-width=".6" d="m11.4 4.994 3.152-1.076 3.163 1.076v7.751H11.4v-7.75Z"/><path stroke-width=".4" fill="#d4d4d4" d="M12.776 9.16h3.562v2.81h-3.562V9.16ZM12.776 5.77h3.562v2.81h-3.562V5.77Z"/><path d="m14.512 3.01-4.52 2.493h1.493l3.049-1.684 3.05 1.684h1.444L14.512 3.01Z" stroke-width=".82"/><path fill="#d4d4d4" stroke-width=".6" d="m25.274 4.94 3.151-1.077 3.163 1.076v7.751h-6.314V4.94Z"/><path fill="#d4d4d4" stroke-width=".4" d="M26.65 9.105h3.562v2.81H26.65v-2.81ZM26.65 5.715h3.562v2.81H26.65v-2.81Z"/><path stroke-width=".82" d="m28.465 3.03-4.572 2.492h1.51l3.084-1.684 3.085 1.684h1.461L28.465 3.03Z"/><path fill="#d4d4d4" d="m6.258 41.612 10.594-.006-1.019.554v14.36h-8.48l-.009-14.455-1.086-.453Z" stroke-width=".9"/><path d="M9.084 42.977h4.941v5.304H9.084v-5.304Z" fill="#d4d4d4" stroke-width=".5"/><path d="M8.08 49.05a.3.3 0 0 1 .297-.302.3.3 0 0 1 .296.302.3.3 0 0 1-.296.302.3.3 0 0 1-.297-.302Z" stroke-width=".4"/><path stroke-width=".5" fill="#d4d4d4" d="M9.084 49.845h4.941v5.304H9.084v-5.304Z"/><path stroke-width="1.52" d="M39.395 18.163h.208v38.304h-.209V18.163ZM39.61 56.615v.259H.184v-.26H39.61Z" fill="#e2e2e2"/><path stroke-width=".724" fill="#e2e2e2" d="M.03.247h.41v17.311H.03V.247ZM39.396 0h.105v17.76h-.105V0Z"/><path d="M20.856 49.94h15.343v.503H20.857v-.502Z" stroke-width=".72"/><path stroke-width="1.52" d="M.084 18.287H.36v37.919H.084v-37.92ZM.368.568h.014v34.74H.368V.568ZM39.264.86h.115v32.165h-.115V.86Z"/></g></svg>