<svg xmlns="http://www.w3.org/2000/svg" viewBox="0 0 31.74 61.9" xmlns:vectornator="http://vectornator.io" xml:space="preserve" style="fill-rule:nonzero;clip-rule:evenodd;stroke-linecap:round;stroke-linejoin:round"><g vectornator:layerName="Layer 1"><path stroke-width="1.28" stroke="gray" d="M380.543 155.569h-63.524v87.97h63.524v-87.97Z"/><path stroke-width="1.72" d="M380.538 241.617h-63.321v3.733h63.321v-3.733ZM380.324 121.081v.996h-63.333v2.526h-.039v-3.522h63.372Z" fill="#acacac" stroke="#acacac"/><path d="M316.948 123.921h63.629v31.964h-63.629v-31.964Z" stroke-width=".72" stroke="#acacac"/><path fill="#071017" stroke-width="1.72" d="M380.337 122.178v2.524h-63.389v-2.524h63.389Z" stroke="#acacac"/><path fill="none" stroke-width=".82" stroke="gray" d="M347.768 211.338v24.747H330.775v-24.747H347.768Z"/><path stroke="#a0a0a0" fill="#a0a0a0" stroke-width="1.22" d="M349.191 211.336v5.001h.566v.348h-1.866v-4.211H330.648v4.211h-1.867v-.348h.559v-3.885h.008v-1.116h19.843Z"/><g stroke-width=".724" fill="none" stroke="gray"><path d="M338.494 224.285h-6.203v9.194h6.203v-9.194ZM338.494 213.843h-6.203v9.871h6.203v-9.871Z"/></g><g stroke-width=".724" fill="none" stroke="gray"><path d="M346.169 224.285h-6.203v9.194h6.203v-9.194ZM346.169 213.843h-6.203v9.871h6.203v-9.871Z"/></g><path fill="none" stroke-width="1.22" stroke="gray" d="M349.591 236.098h-20.637l.459 1.041.553.925 18.797-.001.389-.93.439-1.035Z"/><path stroke-width=".92" stroke="#a0a0a0" d="m347.906 230.468.716.355.006 1.048.022 4.163h-.863v-5.566h.119ZM330.665 230.525l-.717.355-.006 1.048-.022 4.163h.863v-5.566h-.118Z" fill="#a0a0a0"/><path stroke="gray" d="M345.63 165.147v24.708h-12.079v-24.708h12.079Z" fill="none" stroke-width=".82"/><path stroke-width="1.22" fill="#a0a0a0" d="M346.702 165.145v4.993h.406v.347h-1.336V166.281H333.434v4.204h-1.336v-.347h.399V166.259h.006v-1.114h14.199Z" stroke="#a0a0a0"/><path d="M344.06 167.734h-8.843v9.783h8.843v-9.783Z" fill="none" stroke-width=".724" stroke="gray"/><path stroke-width=".92" stroke="#a0a0a0" d="m345.756 184.246.659.355.006 1.047.02 4.156h-.794v-5.558h.109ZM333.404 184.303l-.66.355-.005 1.047-.02 4.156h.793v-5.558h-.108Z" fill="#a0a0a0"/><path fill="none" stroke-width=".724" stroke="gray" d="M344.06 178.602h-8.843v9.782h8.843v-9.782Z"/><path stroke="gray" d="M374.722 165.147v24.708h-12.078v-24.708h12.078Z" stroke-width=".82" fill="none"/><path fill="#a0a0a0" stroke="#a0a0a0" stroke-width="1.22" d="M375.754 165.145v4.993h.405v.347h-1.332V166.281H362.523v4.204h-1.332v-.347h.398V166.259h.006v-1.114H375.754Z"/><path fill="none" d="M373.153 167.734h-8.843v9.783h8.843v-9.783Z" stroke-width=".724" stroke="gray"/><path stroke-width="1.22" stroke="gray" fill="none" d="M376.394 189.858h-15.577l.499 1.016.542.946H375.6l.377-.907.417-1.055Z"/><path stroke="#a0a0a0" fill="#a0a0a0" stroke-width=".92" d="m374.849 184.246.659.355.005 1.047.021 4.156h-.794v-5.558h.109ZM362.496 184.303l-.659.355-.005 1.047-.021 4.156h.794v-5.558h-.109Z"/><path stroke="gray" fill="none" stroke-width=".724" d="M373.153 178.602h-8.843v9.782h8.843v-9.782Z"/><path stroke="#acacac" stroke-width="1.28" d="M375.367 210.107h-14.859v33.534h14.859v-33.534Z"/><path d="m377.5 208.016-1.982 2.068h-15.027l-1.982-2.068H377.5Z" stroke-width="1.28" stroke="#acacac" fill="#acacac"/><g stroke="#a0a0a0" stroke-width=".724" fill="none"><path d="M340.812 155.956v3.86h-7.917v-3.86h7.917Z"/><path d="M348.722 155.956v3.86h-7.91v-3.86h7.91ZM324.996 155.956v3.86h-7.917v-3.86h7.917ZM332.907 155.956v3.86h-7.911v-3.86h7.911Z"/></g><path stroke-width=".82" fill="none" stroke="#acacac" d="M372.216 221.053h-8.557v15.741h8.557v-15.741ZM372.191 213.194h-8.557v6.1h8.557v-6.1Z"/><path stroke-width=".52" stroke="#acacac" fill="none" d="M370.356 228.854c0-2.926-1.103-5.297-2.464-5.297s-2.464 2.371-2.464 5.297c0 2.925 1.103 5.297 2.464 5.297s2.464-2.372 2.464-5.297Z"/><g stroke="#a0a0a0" fill="none" stroke-width=".724"><path d="M372.682 155.956v3.86h-7.984v-3.86h7.984ZM380.66 155.956v3.86h-7.978v-3.86h7.978ZM356.732 155.956v3.86h-7.984v-3.86h7.984Z"/><path d="M364.71 155.956v3.86h-7.978v-3.86h7.978Z"/></g><path fill="#acacac" stroke-width="1.72" d="M380.378 156.053h-.767v89.204h.767v-89.204Z" stroke="#acacac"/><path stroke="#acacac" d="M372.216 238.952h-8.557v2.291h8.557v-2.291Z" fill="none" stroke-width=".82"/><path stroke="#acacac" fill="#070b17" stroke-linejoin="miter" d="M368.282 136.261c.101 0 .18.068.18.154v.019h.439c.025 0 .045.023.045.049v.375c0 .025-.02.048-.045.048h-.225v.183c0 .025-.02.048-.045.048h-.225v.173c0 .025-.02.048-.045.048h-.225v.193c0 .025-.02.038-.045.038h-.461c-.025 0-.045-.013-.045-.038v-.376h-.438c-.1 0-.18-.067-.18-.154v-.606c0-.086.08-.154.18-.154h1.135ZM357.502 136.456c.1 0 .18-.069.18.017v.597c0 .086-.08.163-.18.163h-.45v.385c0 .021-.026.038-.056.038h-.438c-.03 0-.056-.017-.056-.038v-.192h-.225c-.03 0-.056-.018-.056-.039v-.192h-.203c-.029 0-.056-.017-.056-.039v-.192h-.214c-.029 0-.056-.017-.056-.039v-.394c0-.022.027-.039.056-.039h.428v-.019c0-.086.09.08.191.08l1.135-.097Z" stroke-width=".42" stroke-linecap="butt"/><path stroke-width="1.52" stroke="#acacac" fill="#acacac" d="M362.324 128.727c4.018 0 7.289 2.62 7.701 5.966h.674c.059 0 .113.036.113.086v.77c0 .05-.054.087-.113.087h-.888l-.165.003c-.015-.007-.018-.002-.037-.002l-.663-.01c.007-.065-.012-.175-.012-.241 0-3.127-2.945-5.668-6.598-5.668s-6.621 2.541-6.621 5.668c0 .083-.014.158-.012.24l-.574.009a.14.14 0 0 0-.021.001H354.006c-.059 0-.112-.037-.112-.087v-.77c0-.05.053-.086.112-.086h.618c.412-3.346 3.683-5.966 7.7-5.966Z"/><path d="M362.336 129.797c3.653 0 6.598 2.582 6.598 5.709 0 .047.009.101.012.154l.697.004c.029.014.068-.018.068.015l-.001.728a.1.1 0 0 1-.101.096h-1.765c-.059 0-.197.091-.197.041l-.022-.83H357.041l-.054-.026-.002.78c0 .05.018.093-.04.093h-1.826c-.059 0-.113-.046-.113-.096v-.744c0-.045.05-.079.102-.087l.595-.016c.004-.05.012-.1.012-.154 0-3.127 2.968-5.667 6.621-5.667Z" stroke-width="1.12" stroke="#acacac" fill="#070b17"/><path d="M362.321 130.928c2.977 0 5.391 2.101 5.391 4.693v15.668h-10.781v-15.668c0-2.592 2.413-4.693 5.39-4.693Z" stroke-width=".82" stroke="#acacac"/><path stroke="#acacac" stroke-width=".52" d="M362.317 132.229c2.197 0 3.998 1.487 4.088 3.348v4.066h-8.168v-3.921l.001-.147h.002c.09-1.861 1.88-3.346 4.077-3.346ZM366.301 140.821h-7.96v7.459h7.96v-7.459Z"/><path stroke-width=".42" d="M340.17 136.261c.101 0 .18.068.18.154v.019h.438c.026 0 .045.023.045.049v.375c0 .025-.019.048-.045.048h-.224v.183c0 .025-.02.048-.045.048h-.225v.173c0 .025-.02.048-.045.048h-.225v.193c0 .025-.02.038-.045.038h-.461c-.025 0-.045-.013-.045-.038v-.376h-.438c-.101 0-.18-.067-.18-.154v-.606c0-.086.079-.154.18-.154h1.135ZM329.39 136.456c.1 0 .18-.069.18.017v.597c0 .086-.08.163-.18.163h-.45v.385c0 .021-.026.038-.056.038h-.438c-.03 0-.057-.017-.057-.038v-.192h-.224c-.03 0-.057-.018-.057-.039v-.192h-.202c-.03 0-.056-.017-.056-.039v-.192h-.214c-.029 0-.056-.017-.056-.039v-.394c0-.022.027-.039.056-.039h.427v-.019c0-.086.091.08.192.08l1.135-.097Z" fill="#070b17" stroke="#acacac" stroke-linecap="butt" stroke-linejoin="miter"/><path d="M334.212 128.727c4.018 0 7.289 2.62 7.701 5.966h.674c.059 0 .112.036.112.086v.77c0 .05-.053.087-.112.087h-.888l-.165.003c-.015-.007-.018-.002-.037-.002l-.664-.01c.007-.065-.011-.175-.011-.241 0-3.127-2.945-5.668-6.598-5.668s-6.621 2.541-6.621 5.668c0 .083-.014.158-.012.24l-.574.009a.14.14 0 0 0-.021.001H325.894c-.059 0-.113-.037-.113-.087v-.77c0-.05.054-.086.113-.086h.618c.411-3.346 3.683-5.966 7.7-5.966Z" stroke="#acacac" stroke-width="1.52" fill="#acacac"/><path d="M334.224 129.797c3.653 0 6.598 2.582 6.598 5.709 0 .047.008.101.011.154l.697.004c.03.014.069-.018.069.015l-.001.728a.1.1 0 0 1-.101.096h-1.765c-.059 0-.197.091-.197.041l-.022-.83H328.929l-.054-.026-.002.78c0 .05.018.093-.04.093h-1.826c-.059 0-.113-.046-.113-.096v-.744c0-.045.05-.079.102-.087l.595-.016c.004-.05.012-.1.012-.154 0-3.127 2.968-5.667 6.621-5.667Z" stroke="#acacac" fill="#070b17" stroke-width="1.12"/><path stroke="#acacac" stroke-width=".82" d="M334.209 130.928c2.977 0 5.391 2.101 5.391 4.693v15.668h-10.781v-15.668c0-2.592 2.413-4.693 5.39-4.693Z"/><path d="M334.205 132.229c2.197 0 3.998 1.487 4.088 3.348v4.066h-8.168v-3.921l.001-.147h.002c.09-1.861 1.88-3.346 4.077-3.346ZM338.189 140.821h-7.96v7.459h7.96v-7.459Z" stroke-width=".52" stroke="#acacac"/><path fill="#acacac" stroke-width=".724" d="M380.656 155.059h-63.714v1.715h63.714v-1.715Z" stroke="#acacac"/><path d="M317.247 157.088h-.304v2.946h.304v-2.946Z" stroke-width=".724" fill="#fff" stroke="#fff"/><path stroke="gray" stroke-width="1.22" d="M347.376 189.818h-15.577l.498 1.015.543.947h13.741l.378-.907.417-1.055Z" fill="none"/><path stroke-width=".82" fill="#acacac" d="M328.98 150.95h10.399v.011H328.98v-.011ZM357.097 150.943h10.399v.01h-10.399v-.01Z" stroke="#acacac"/><path stroke-width="1.52" fill="#d4d4d4" d="M31.691 16.885H.05v43.819H31.69v-43.82Z" stroke="#000"/><path d="M31.678 60.04H.137v1.86h31.54v-1.86Z" stroke="#000" stroke-width="1.72"/><path stroke-width="1.72" stroke="#000" fill="#e2e2e2" d="M31.571 0v.496H.024v1.258H.005V0h31.566Z"/><path fill="#d4d4d4" d="M.003 1.414h31.695v15.923H.003V1.414Z" stroke="#000" stroke-width="1.32"/><path stroke="#000" d="M31.578.546v1.258H.003V.546h31.575Z" stroke-width="1.72"/><path fill="#d4d4d4" stroke-width=".62" d="M15.355 44.958v12.327H6.89V44.958H15.355Z" stroke="#000"/><path stroke-width=".52" d="M15.915 44.451v2.491h.275v.173h-.906v-2.098H6.92V47.117h-.905v-.174h.27v-1.935h.004v-.556H15.915Z" stroke="#000"/><path fill="#d4d4d4" d="M10.82 51.683H7.923v4.297h2.899v-4.297ZM10.82 46.26H7.922v4.295h2.898v-4.294ZM14.408 51.683h-2.899v4.297h2.899v-4.297ZM14.406 46.238H11.51v4.295h2.897v-4.295Z" stroke-width=".38" stroke="#000"/><path d="M16.263 57.292H5.983l.229.518.275.461h9.363l.194-.464.219-.515Z" stroke="#000" stroke-width=".72"/><path d="m15.39 54.294.356.176.003.523.011 2.073h-.43v-2.773h.06ZM6.868 54.343l-.356.177-.003.523-.011 2.073h.43v-2.773h-.06Z" stroke-width=".52" stroke="#000"/><path stroke-width=".78" d="M29.102 44.345h-7.4V61.05h7.4V44.345Z" fill="#d4d4d4" stroke="#000"/><path stroke-width=".78" stroke="#000" d="m30.165 43.304-.987 1.03h-7.486l-.987-1.03h9.46Z"/><g fill="#d4d4d4" stroke-width=".724" stroke="#000"><path d="M11.935 17.371v1.923H8.036v-1.923h3.9Z"/><path d="M15.83 17.371v1.923h-3.895v-1.923h3.895ZM4.147 17.371v1.923H.248v-1.923h3.899ZM8.042 17.371v1.923H4.147v-1.923h3.895Z"/></g><path stroke="#000" fill="#d4d4d4" d="M27.533 49.797H23.27v7.841h4.263v-7.84ZM27.52 45.883h-4.262v3.038h4.263v-3.038Z" stroke-width=".52"/><path stroke="#000" d="M26.607 53.683c0-1.457-.55-2.638-1.228-2.638-.678 0-1.228 1.18-1.228 2.638 0 1.457.55 2.639 1.228 2.639.678 0 1.227-1.182 1.227-2.639Z" fill="#d4d4d4" stroke-width=".32"/><g stroke-width=".724" fill="#d4d4d4" stroke="#000"><path d="M27.571 17.371v1.923h-3.913v-1.923h3.913ZM31.48 17.371v1.923h-3.909v-1.923h3.909ZM19.755 17.371v1.923h-3.912v-1.923h3.912Z"/><path d="M23.664 17.371v1.923h-3.909v-1.923h3.91Z"/></g><path d="M27.533 58.713H23.27v1.141h4.263v-1.14Z" stroke="#000" stroke-width=".52" fill="#d4d4d4"/><path stroke="#000" stroke-width=".32" stroke-linejoin="miter" stroke-linecap="butt" d="M11.57 7.564c.05 0 .09.033.09.076v.01h.218c.013 0 .023.011.023.024v.187c0 .013-.01.024-.023.024h-.112v.09c0 .014-.01.025-.022.025h-.112v.086c0 .013-.01.024-.022.024h-.112v.096c0 .013-.01.02-.023.02h-.23c-.012 0-.022-.007-.022-.02v-.187h-.218c-.05 0-.09-.034-.09-.077V7.64c0-.043.04-.076.09-.076h.565ZM6.2 7.66c.05 0 .09-.034.09.01v.296c0 .043-.04.082-.09.082h-.223v.192c0 .01-.014.019-.028.019H5.73c-.015 0-.028-.009-.028-.02v-.095H5.59c-.015 0-.028-.009-.028-.02V8.03h-.1c-.015 0-.029-.009-.029-.02v-.095h-.106c-.015 0-.028-.009-.028-.02v-.196c0-.01.013-.02.028-.02h.213V7.67c0-.043.045.04.095.04L6.2 7.66Z"/><path stroke-width=".82" d="M8.603 3.81c2 0 3.63 1.306 3.835 2.972h.336c.03 0 .056.019.056.044v.383c0 .025-.027.043-.056.043h-.443l-.081.002c-.008-.004-.01-.001-.019-.001l-.33-.005c.003-.032-.006-.087-.006-.12 0-1.558-1.467-2.824-3.287-2.824-1.82 0-3.298 1.266-3.298 2.824 0 .041-.007.078-.005.12l-.287.004H4.46c-.03 0-.056-.018-.056-.043v-.383c0-.025.027-.044.056-.044h.308c.205-1.666 1.835-2.971 3.836-2.971Z" stroke="#000"/><path stroke-width=".62" stroke="#000" fill="#e2e2e2" d="M8.608 4.344c1.82 0 3.287 1.286 3.287 2.844 0 .023.004.05.006.076l.347.002c.015.007.034-.009.034.008v.362a.05.05 0 0 1-.05.048H11.351c-.03 0-.098.045-.098.02l-.011-.413H5.971l-.027-.013-.001.389c0 .024.01.046-.02.046h-.91c-.029 0-.056-.023-.056-.048v-.37c0-.023.025-.04.05-.044l.298-.008c.001-.025.005-.05.005-.076 0-1.558 1.479-2.823 3.298-2.823Z"/><path stroke-width=".6" d="M8.601 4.907c1.483 0 2.685 1.047 2.685 2.338v7.804h-5.37V7.245c0-1.291 1.202-2.338 2.685-2.338Z" fill="#d4d4d4" stroke="#000"/><path stroke-width=".4" fill="#d4d4d4" stroke="#000" d="M8.616 5.938c1.02 0 1.858.69 1.9 1.556h0v1.889H6.72V7.493h.001c.042-.865.874-1.555 1.895-1.555ZM10.485 10.064H6.786v3.466h3.699v-3.466Z"/><path stroke-width=".724" d="M31.737 16.925H0v.854h31.737v-.854Z" stroke="#000"/><path stroke="#000" fill="#e2e2e2" d="M.152 17.936H0v1.467h.15v-1.467Z" stroke-width=".724"/><path d="M14.29 21.95v12.307H8.273V21.95h6.016Z" stroke="#000" stroke-width=".62" fill="#d4d4d4"/><path stroke-width=".52" d="M14.72 21.38v2.488h.196v.173h-.647v-2.094H8.292v2.094h-.648v-.173h.194v-1.932h.003v-.555h6.878Z" stroke="#000"/><path stroke-width=".38" fill="#d4d4d4" stroke="#000" d="M13.294 23.274H9.278v4.442h4.016v-4.442Z"/><path stroke="#000" stroke-width=".52" d="m14.353 31.463.328.177.003.521.01 2.07h-.396v-2.768h.055ZM8.2 31.492l-.329.176-.002.522-.01 2.07h.395v-2.768H8.2Z"/><path stroke="#000" d="M13.294 28.564H9.278v4.443h4.016v-4.442Z" fill="#d4d4d4" stroke-width=".38"/><path d="M15.16 34.239H7.4l.249.506.27.471h6.845l.188-.452.208-.525Z" stroke="#000" stroke-width=".62" fill="#d4d4d4"/><path stroke-width=".82" stroke="#000" d="M5.996 14.878h5.18v.005h-5.18v-.005Z"/><path d="M20.002 14.874h5.18v.006h-5.18v-.006Z" fill="#e2e2e2" stroke-width=".82" stroke="#acacac"/><path stroke-linejoin="miter" stroke-width=".32" d="M25.573 7.564c.05 0 .09.033.09.076v.01h.218c.013 0 .023.011.023.024v.187c0 .013-.01.024-.023.024h-.112v.09c0 .014-.01.025-.022.025h-.112v.086c0 .013-.01.024-.022.024H25.5v.096c0 .013-.01.02-.023.02h-.23c-.012 0-.022-.007-.022-.02v-.187h-.218c-.05 0-.09-.034-.09-.077V7.64c0-.043.04-.076.09-.076h.565ZM20.204 7.66c.05 0 .09-.034.09.01v.296c0 .043-.04.082-.09.082h-.224v.192c0 .01-.014.019-.028.019h-.219c-.015 0-.028-.009-.028-.02v-.095h-.112c-.015 0-.028-.009-.028-.02V8.03h-.1c-.015 0-.029-.009-.029-.02v-.095h-.106c-.015 0-.028-.009-.028-.02v-.196c0-.01.013-.02.028-.02h.213V7.67c0-.043.045.04.095.04l.566-.048Z" stroke-linecap="butt" stroke="#000"/><path stroke-width=".82" stroke="#000" d="M22.606 3.81c2 0 3.63 1.306 3.835 2.972h.336c.03 0 .056.019.056.044v.383c0 .025-.026.043-.056.043h-.443l-.081.002c-.008-.004-.01-.001-.019-.001l-.33-.005c.003-.032-.006-.087-.006-.12 0-1.558-1.467-2.824-3.287-2.824-1.82 0-3.298 1.266-3.298 2.824 0 .041-.007.078-.005.12l-.287.004H18.462c-.03 0-.056-.018-.056-.043v-.383c0-.025.027-.044.056-.044h.308c.205-1.666 1.835-2.971 3.836-2.971Z"/><path d="M22.611 4.344c1.82 0 3.287 1.286 3.287 2.844 0 .023.004.05.006.076l.347.002c.015.007.034-.009.034.008v.362a.05.05 0 0 1-.05.048H25.354c-.03 0-.098.045-.098.02l-.01-.413h-5.273l-.027-.013-.001.389c0 .024.01.046-.02.046h-.91c-.029 0-.055-.023-.055-.048v-.37c0-.023.024-.04.05-.044l.297-.008c.001-.025.005-.05.005-.076 0-1.558 1.479-2.823 3.298-2.823Z" stroke-width=".62" fill="#e2e2e2" stroke="#000"/><path stroke="#000" stroke-width=".6" d="M22.604 4.907c1.483 0 2.685 1.047 2.685 2.338v7.804h-5.37V7.245c0-1.291 1.202-2.338 2.685-2.338Z" fill="#d4d4d4"/><path fill="#d4d4d4" d="M22.614 6.03c1.021 0 1.858.692 1.9 1.557h0v1.889h-3.796V7.586h.002c.042-.865.873-1.555 1.894-1.555ZM24.443 10.15h-3.699v3.466h3.7V10.15Z" stroke="#000" stroke-width=".4"/><path stroke-width=".62" d="M28.232 21.95v12.307h-6.016V21.95h6.016Z" fill="#d4d4d4" stroke="#000"/><path d="M28.662 21.38v2.488h.197v.173h-.647v-2.094h-5.977v2.094h-.648v-.173h.194v-1.932h.003v-.555h6.878ZM28.295 31.463l.329.177.003.521.01 2.07h-.396v-2.768h.054ZM22.142 31.492l-.328.176-.003.522-.01 2.07h.396v-2.768h-.055Z" stroke-width=".52" stroke="#000"/><path fill="#d4d4d4" d="M29.102 34.239h-7.759l.248.506.27.471h6.845l.189-.452.207-.525Z" stroke="#000" stroke-width=".62"/><path d="M20.03 14.844h5.18v.005h-5.18v-.005Z" stroke-width=".82" stroke="#000"/><path stroke-width=".38" d="M27.283 23.363h-4.016v4.443h4.016v-4.443ZM27.283 28.654h-4.016v4.442h4.016v-4.442Z" fill="#d4d4d4" stroke="#000"/></g></svg>