<svg viewBox="0 0 40.06 56.79" style="fill-rule:nonzero;clip-rule:evenodd;stroke-linecap:round;stroke-linejoin:round" xmlns="http://www.w3.org/2000/svg" xmlns:vectornator="http://vectornator.io" xml:space="preserve"><g vectornator:layerName="Layer 1" stroke="#000"><path stroke-width="1.42" fill="#d4d4d4" d="M.18 16.433h39.688v39.992H.18V16.433Z"/><path stroke-width="1.52" d="M.155 0H39.9v15.142H.155V0Z" fill="#d4d4d4"/><path fill="#e2e2e2" d="M.349.648h39.352v1.105H.349V.648Z" stroke-width="1.28"/><path d="M.128 15.181h39.78v1.253H.128v-1.253Z" fill="#e2e2e2" stroke-width="1.22"/><path d="M.043.075H39.97v.551H.043V.075Z" stroke-width="1.02" fill="#e2e2e2"/><path fill="#e2e2e2" stroke-width="1.42" d="M.112 15.24h39.785v.094H.112v-.094Z"/><path fill="#e2e2e2" stroke-width=".52" d="M0 14.818h.218v1.81H0v-1.81ZM39.796 14.818h.262v1.824h-.262v-1.824Z" stroke-linecap="butt" stroke-linejoin="miter"/><path d="M29.504 42.076h7.313v14.716h-7.313V42.076Z" stroke-width="1.22" fill="#e2e2e2" stroke-linecap="butt" stroke-linejoin="miter"/><path stroke-linecap="butt" stroke-width=".32" stroke-linejoin="miter" d="M28.628 41.505h9.024l.005.23-.146.183-8.733-.011-.149-.212-.001-.19Z"/><path d="M28.609 40.416h9.039v.946h-9.04v-.946Z" stroke-width=".32" stroke-linecap="butt" stroke-linejoin="miter" fill="#d4d4d4"/><path stroke-linejoin="miter" stroke-linecap="butt" stroke-width=".32" d="M28.256 39.864h9.74l-.19.31-.122.212-9.134-.02-.14-.239-.154-.263Z"/><path d="M29.708 42.305h6.747v14.086h-6.747V42.305Z" fill="#d4d4d4" stroke-linejoin="miter" stroke-width=".82" stroke-linecap="butt"/><path stroke-linejoin="miter" d="M30.76 50.974h1.903v4.559H30.76v-4.559ZM33.482 50.974h1.902v4.559h-1.902v-4.559ZM30.76 43.222h4.624v5.934H30.76v-5.934Z" stroke-linecap="butt" fill="#d4d4d4" stroke-width=".4"/><path fill="#d4d4d4" stroke-width=".92" d="M7.604 40.178v11.63H21.285v-11.63H7.604Z"/><path stroke-width=".22" stroke-linejoin="miter" stroke-linecap="butt" d="m6.041 37.302.312.212v.077h.088v.036c0 .004.006.003.02.003h.094v.031c0 .004.013.006.027.006h.107v.025H22.38v-.025h.1c.014 0 .027-.002.027-.006v-.031h.094c.014 0 .027.001.027-.003v-.036h.08v-.077l.359-.195-8.523-.017H6.041ZM5.888 37.074h17.386v.153H5.888v-.153Z"/><path fill="#d4d4d4" stroke-width=".4" d="M11.9 41.409h5.09v9.354H11.9v-9.354Z"/><path fill="#d4d4d4" stroke-linecap="butt" stroke-linejoin="miter" d="M7.06 38.708v1.037h.078v.13c0 .012.006.008.018.008h.085v.113c0 .013.012.021.025.021h.097v.088h14.181v-.088h.091c.012 0 .024-.008.024-.02v-.114h.085c.013 0 .024.004.024-.008v-.13h.073v-1.037H7.06Z" stroke-width=".62"/><path stroke-width=".5" stroke-linejoin="miter" stroke-linecap="butt" d="M6.777 37.86h15.44v.835H6.778v-.835Z" fill="#d4d4d4"/><path stroke-linecap="butt" fill="#d4d4d4" stroke-linejoin="miter" d="M8.004 38.842h.86v1.197h-.86v-1.197ZM14.02 38.842h.86v1.197h-.86v-1.197ZM19.991 38.842h.86v1.197h-.86v-1.197ZM20.003 39.43h.84-.84Z" stroke-width=".25"/><path stroke-width=".25" fill="#d4d4d4" stroke-linecap="butt" stroke-linejoin="miter" d="M14.025 39.43h.846v.001h-.846v-.002ZM8.004 39.42h.844v.002h-.844v-.001Z"/><path fill="#e2e2e2" stroke-width="1.82" d="M.237 55.57h29.01v.891H.237v-.892ZM36.947 55.495h2.963v.933h-2.963v-.933Z"/><path d="M29.42 20.323v11.11h7.173v-11.11H29.42Z" fill="#d4d4d4" stroke-width=".92"/><path d="M30.644 26.209h4.733v4.318h-4.733V26.21Z" stroke-width=".4" fill="#d4d4d4"/><path stroke-linecap="butt" d="M29.01 19.424v.655h.042v.082c0 .008.003.005.01.005h.046v.072c0 .008.006.013.013.013h.052v.056h7.669v-.056h.05a.013.013 0 0 0 .013-.013v-.072h.046c.006 0 .013.003.013-.005v-.082h.04v-.655H29.008Z" fill="#d4d4d4" stroke-width=".42" stroke-linejoin="miter"/><path stroke-width=".22" stroke-linejoin="miter" d="m28.442 18.99.168.203v.074h.047v.035c0 .003.003.002.01.002h.05v.03c0 .003.008.006.015.006h.058v.023h8.436v-.023h.054c.007 0 .014-.003.014-.006v-.03h.051c.007 0 .014 0 .014-.002v-.035h.044v-.074l.192-.186-4.582-.016h-4.571ZM28.357 18.77h9.33v.149h-9.33v-.15Z" stroke-linecap="butt"/><path fill="#d4d4d4" d="M7.873 20.32v11.113h13.073V20.32H7.873Z" stroke-width=".92"/><path stroke-linejoin="miter" fill="#d4d4d4" stroke-width=".42" stroke-linecap="butt" d="M7.462 19.42v.655h.074v.083c0 .008.006.005.017.005h.08v.072c0 .008.011.013.023.013h.091v.055H21.061v-.055h.085c.012 0 .023-.006.023-.014v-.071h.08c.012 0 .023.003.023-.005v-.083h.068v-.655H7.462Z"/><path d="m6.95 18.987.275.203v.073h.077v.035c0 .003.005.002.017.002h.083v.03c0 .004.012.006.024.006h.095v.024H21.371v-.024h.088c.013 0 .024-.002.024-.005v-.03h.083c.012 0 .024 0 .024-.003v-.035h.07v-.073l.317-.187-7.522-.016H6.949ZM6.814 18.77H22.16v.145H6.814v-.146Z" stroke-linecap="butt" stroke-linejoin="miter" stroke-width=".22"/><path fill="#d4d4d4" stroke-width=".4" d="M17.732 21.305h2.156v4.404h-2.156v-4.404ZM11.973 21.305h4.865v9.311h-4.865v-9.31Z"/><path fill="#e2e2e2" stroke-width="1.82" d="M39.912 55.427V16.872 55.43v-.002ZM.46 55.318.448 16.77l.17.002.013 38.548-.17-.002Z"/><path stroke-width=".32" d="M28.86 41.88h8.589l.004.228-.139.183-8.312-.011-.142-.212v-.188Z" stroke-linecap="butt" stroke-linejoin="miter"/><path fill="#d4d4d4" d="M12.862 4.579h5.987v7.846h-5.987V4.579Z" stroke-width=".62"/><path stroke-width=".52" d="M12.479 3.96h6.765v.598H12.48v-.597Z"/><path stroke-width=".2" fill="#e2e2e2" d="M18.212 4.648h.054v7.827h-.054V4.648ZM13.43 4.724h.06v7.637h-.06V4.724Z"/><path fill="#e2e2e2" stroke-width=".4" d="M12.796 4.662h.06v7.79h-.06v-7.79ZM18.88 4.658h.107v7.79h-.107v-7.79ZM12.665 4.684h.108v7.79h-.108v-7.79Z"/><path fill="#d4d4d4" stroke-width=".62" d="M26.215 4.579h5.987v7.846h-5.987V4.579Z"/><path stroke-width=".52" d="M25.832 3.96h6.765v.598h-6.765v-.597Z"/><path fill="#e2e2e2" stroke-width=".2" d="M31.468 4.648h.054v7.827h-.054V4.648ZM26.783 4.724h.06v7.637h-.06V4.724Z"/><path stroke-width=".4" fill="#e2e2e2" d="M26.149 4.662h.06v7.79h-.06v-7.79ZM32.233 4.658h.107v7.79h-.107v-7.79Z"/><path d="M27.414 5.73h1.456v5.558h-1.456V5.731ZM29.406 5.723h1.456v5.557h-1.456V5.723Z" stroke-width=".3" fill="#d4d4d4"/><path fill="#e2e2e2" d="M26.018 4.684h.107v7.79h-.107v-7.79Z" stroke-width=".4"/><path stroke-linejoin="miter" stroke-width=".3" d="M30.63 50.132a.266.266 0 1 1 .532 0 .266.266 0 0 1-.532 0Z" stroke-linecap="butt"/><path d="M30.72 21.267h4.732v4.319H30.72v-4.319ZM17.714 26.213h2.155v4.404h-2.155v-4.404ZM8.923 21.305h2.156v4.404H8.923v-4.404ZM8.923 26.213h2.156v4.404H8.923v-4.404ZM17.948 41.38h2.156v4.403h-2.156V41.38ZM17.93 46.288h2.155v4.403h-2.156v-4.403ZM8.817 41.453h2.156v4.404H8.817v-4.404ZM8.798 46.361h2.156v4.404H8.798v-4.404Z" fill="#d4d4d4" stroke-width=".4"/><path d="M14.146 5.73h1.456v5.558h-1.456V5.731ZM16.138 5.73h1.456v5.558h-1.456V5.73Z" stroke-width=".3" fill="#d4d4d4"/></g></svg>