<svg preserveAspectRatio="none" xmlns:vectornator="http://vectornator.io" xml:space="preserve" xmlns="http://www.w3.org/2000/svg" style="fill-rule:nonzero;clip-rule:evenodd;stroke-linecap:round;stroke-linejoin:round" viewBox="0 0 196.21 19.28"><g vectornator:layerName="Layer 2"><path d="M247.281 3.844V19.28h51.313V3.844h-51.313Z" fill="#18283b"/><path stroke-width=".32" fill="#6c7e93" stroke="#000" d="M247.875.625v4c5.1.35 8.688 1.063 8.687 1.063v-.063c.556.114 13.188 2.701 24.844 0 5.887-1.364 12.209-1.39 17.188-1.094V.563c-4.808-.441-10.946-.43-16.813 1.468-11.709 3.79-24.442.223-25 .063 0 0-3.695-.984-8.906-1.469Z"/><path stroke-width=".724" stroke="#000" d="M247.875.156v.469c5.292.481 9.094 1.5 9.094 1.5.556.16 13.207 3.746 24.875-.063 5.711-1.864 11.811-1.905 16.75-1.5V.156h-42.125v.032l-8.594-.032Z"/><path d="M196.082 19.115v.406h-.258c.141 0 .258-.185.258-.406Z" fill="#383f2e"/><path d="m98.003 4.283.199.013c.036 0 .037.039.037.128v2.162c0 .058-.034-.081-.067-.185-.018-.056-.035-.101-.048-.101l.139.35c-.036 0-.197.022-.197-.067l.045-2.16c0-.088-.144-.14-.108-.14Z" fill="#6c7e93" stroke-width=".32" stroke="#6c7e93"/><path fill="#383f2e" d="M-.128 11.575v.135h.086c-.047 0-.086-.062-.086-.135Z"/><path d="M51.223.768c.074 0 .135.095.135.213v3.398c0 .057.022.142-.001.18-.024.04-.096.032-.134.032-.037 0-.09-.005-.114-.042-.025-.04-.021-.11-.021-.17L51.067.957c0-.068-.04-.156-.002-.188.028-.024.126-.001.158-.001ZM98.106 3.813l-.014-.003c.06 0 .17-.008.194.01.052.037.074.162.074.268l-.043 2.302-.002.168c0 .075.1.14-.005.14h-.25c-.186 0-.22-.141-.22-.3V4.083c0-.158.08-.269.266-.269Z" fill="#6c7e93"/><path stroke-width=".724" d="m51.194.344-.006.26c-4.431.282-7.556 1.6-7.556 1.6l-.021-.033c-.183.08-9.053 3.907-17.15-.032-8.331-4.051-18.11 0-18.11 0-.235.102-3.558 1.207-7.999 1.374L.373.16h7.978v.063h35.046V.32l7.797.025Z" fill="#d4d4d4" stroke="#d4d4d4"/><path d="m51.232.857-.004.023c-.08 0-.128-.017-.128.1V4.38c0 .057-.024.142.001.18.027.04.104.032.145.032.04 0 .14 0 .166-.036.027-.04-.02-.116-.02-.176l.024-3.422c0-.068.104-.1.064-.132-.03-.024-.214.032-.248.032Z" fill="#6c7e93"/><path d="M51.336 4.646h.039c.044 0 .08.06.08.135 0 .075-.036.135-.08.135h-.04c-.044 0-.08-.06-.08-.135 0-.075.036-.135.08-.135Z"/><path d="m98.244 4.283-.199.013c-.035 0-.037.039-.037.128v2.162c0 .058.034-.081.067-.185.018-.056.035-.101.048-.101l-.139.35c.036 0 .197.022.197-.067l-.044-2.16c0-.088.143-.14.107-.14Z" stroke-width=".32" stroke="#6c7e93" fill="#6c7e93"/><path d="M145.024.768c-.074 0-.135.095-.135.213v3.398c0 .057-.022.142.001.18.025.04.096.032.134.032.037 0 .089-.005.114-.042.025-.04.021-.11.021-.17l.021-3.422c0-.068.039-.156.002-.188-.027-.024-.126-.001-.158-.001Z" fill="#6c7e93"/><path stroke-width=".724" fill="#d4d4d4" stroke="#d4d4d4" d="M90.722-.176v.07h-32.29v.104L51.23.033l.037.278c4.082.308 6.945 1.74 6.945 1.74l.037-.035c.168.086 8.316 4.255 15.775-.035 7.674-4.414 16.699 0 16.699 0 .214.109 3.31 1.32 7.315 1.53v.035c.028-.001.045.002.073 0 .028.002.046-.001.074 0v-.035c4.006-.21 7.138-1.421 7.352-1.53 0 0 8.988-4.414 16.662 0 7.458 4.29 15.643.121 15.811.035v.034S140.91.62 144.992.311L144.978 0l-7.19-.002v-.104h-32.252v-.07h-7.352l-.074 1.6-.037-1.6h-7.351Z"/><path d="m98.141 3.813.014-.003c-.06 0-.17-.008-.194.01-.052.037-.074.162-.074.268l.043 2.302.002.168c0 .075-.1.14.005.14h.25c.186 0 .22-.141.22-.3V4.083c0-.158-.08-.269-.266-.269Z" fill="#6c7e93"/><path d="M0 3.58v15.845H196.234V3.579H0Z"/><path fill="#d4d4d4" stroke="#d4d4d4" stroke-width=".724" d="m145.016.187.006.271c4.43.295 7.554 1.67 7.554 1.67l.022-.033c.182.083 9.05 4.077 17.145-.033 8.33-4.23 18.106 0 18.106 0 .235.106 3.557 1.259 7.997 1.433l-.021-3.5h-7.976v.067h-35.038v.1l-7.795.025Z"/><path d="M20.313.473C14.108.011 8.68 1.852 8.68 1.852c-.239.084-3.963 1.156-8.527 1.244L.15 5.78c4.486-.086 8.11-.876 8.346-.936v.026s9.681-2.343 17.91 0c7.999 2.277 16.77.046 16.95 0 0 0 3.338-.716 7.83-.832V4.01c4.09.126 7.127.858 7.127.858.166.046 8.237 2.277 15.62 0 7.597-2.343 16.545 0 16.545 0v-.026c.213.058 3.405.797 7.422.91v.026c.043 0 .069.002.111 0 .043.002.068 0 .111 0v-.026c4.017-.113 7.209-.852 7.423-.91v.026s8.947-2.343 16.544 0c7.383 2.277 15.454.046 15.621 0 0 0 3.037-.732 7.127-.858v.026c4.492.116 7.829.832 7.829.832.18.046 8.952 2.277 16.95 0 8.229-2.343 17.911 0 17.911 0v-.026c.236.06 3.845.835 8.331.922l.004-2.654c-4.563-.088-8.281-1.175-8.52-1.259 0 0-5.427-1.84-11.632-1.379-2.069.155-4.212.557-6.278 1.379-8.035 3.194-16.363.35-16.544.286l-.517-.208S149.305.87 144.985.604V.577c-.03.002-.022.008-.052.01l-.133-.01v.027c-3.979.268-6.795 1.326-6.795 1.326l-.48.208c-.167.065-7.871 2.908-15.288-.286-7.631-3.286-16.545 0-16.545 0-.218.083-3.527 1.142-7.68 1.248-4.154-.106-7.463-1.165-7.682-1.248 0 0-8.913-3.286-16.544 0-7.417 3.194-15.122.35-15.289.286l-.48-.208S55.202.872 51.222.604V.577c-.037.003-.073.024-.11.027-.03-.002-.044-.025-.074-.027v.027c-4.32.266-7.386 1.326-7.386 1.326l-.517.208c-.181.065-8.51 2.908-16.544-.286C24.524 1.03 22.38.628 20.313.473Z" stroke-width=".82" stroke="#000" fill="#2b9ddb"/><path d="m.387 3.496-.277.02c.072 0 .46-.027.49-.015.06.024.087.103.087.171l-.05 1.474c0 .044-.004.067-.003.107 0 .048.117.09-.006.09H.333c-.219 0-.26-.09-.26-.192L.036 3.683c0-.038-.034-.1-.006-.127.047-.046.22-.06.357-.06ZM145.016 1.043l.003.014c.081 0 .128-.01.128.062v2.076c0 .035.025.087-.001.11-.026.025-.104.02-.145.02-.04 0-.139 0-.166-.023-.027-.024.019-.07.019-.107l-.023-2.091c0-.042-.104-.061-.064-.08.03-.015.214.02.249.02Z" fill="#2b9ddb"/><path d="M.507 3.498H.502c-.11 0-.274-.005-.319.003-.092.017-.132.074-.132.122l.076 1.044c0 .031.005.048.004.076-.001.034-.179.064.009.064h.45c.332 0 .394-.064.394-.136v-1.05c0-.047-.122-.104-.168-.115-.046-.01-.193-.008-.309-.008ZM195.748 3.513l-.49.006c.107 0 .896-.051.94-.04.028.008-.001.028 0 .05.002.046 0 .114 0 .16v1.593c.001.036.024.058-.006.079-.009.006.05.035.006.035l-.53-.03c-.328 0-.389-.09-.389-.192V3.685c0-.038-.126-.104-.084-.131.07-.046.348-.041.553-.041Z" fill="#2b9ddb"/><path fill="#2b9ddb" d="m.245 3.519.363.006c-.08 0-.584-.046-.584-.012 0 .03-.02.21.028.215.048.006-.028-.05-.028-.023v1.558c0 .025-.053.087 0 .07.053-.015-.045.047.022.047l.258-.02c.11 0 .308.008.351-.022.052-.035-.063-.114-.063-.169V3.691c0-.038.094-.104.063-.131-.052-.046-.258-.041-.41-.041Z"/></g></svg>