<?xml version="1.0" encoding="UTF-8" standalone="no"?> <!-- Created with Vectornator for iOS (http://vectornator.io/) --><!DOCTYPE svg PUBLIC "-//W3C//DTD SVG 1.1//EN" "http://www.w3.org/Graphics/SVG/1.1/DTD/svg11.dtd">
<svg viewBox="0 0 39.58 53.73" xmlns:xlink="http://www.w3.org/1999/xlink" width="100%" xmlns:vectornator="http://vectornator.io" style="fill-rule:nonzero;clip-rule:evenodd;stroke-linecap:round;stroke-linejoin:round;" height="100%" version="1.1" xmlns="http://www.w3.org/2000/svg" xml:space="preserve">
<metadata>
<vectornator:setting value="false" key="WDDynamicGuides"/>
<vectornator:setting value="false" key="WDOutlineMode"/>
<vectornator:setting key="UndoHistoryDisabled" value="false"/>
<vectornator:setting key="WDRulersVisible" value="true"/>
<vectornator:setting key="VNDimensionsVisible" value="true"/>
<vectornator:setting key="IsTimeLapseWatermarkDisabled" value="false"/>
<vectornator:setting value="false" key="WDCMYKEnabledKey"/>
<vectornator:setting key="WDDisplayWhiteBackground" value="false"/>
<vectornator:setting key="WDSnapToPoints" value="false"/>
<vectornator:setting value="false" key="VNPencilOnly"/>
<vectornator:setting key="WDGuidesVisible" value="true"/>
<vectornator:setting key="WDIsolateActiveLayer" value="false"/>
<vectornator:setting value="Pixels" key="WDUnits"/>
<vectornator:setting key="WDSnapToEdges" value="false"/>
<vectornator:setting key="VNSnapToGuides" value="true"/>
<vectornator:setting value="false" key="WDSnapToGrid"/>
</metadata>
<defs/>
<g id="Layer 1" vectornator:layerName="Layer 1">
<path opacity="1" stroke-linecap="butt" stroke-linejoin="miter" stroke-width="0.12" d="M58.5698+116.597L70.5103+116.597L70.5103+116.954L58.5698+116.954L58.5698+116.597Z" stroke="#000000" fill="#000000"/>
<path stroke-linecap="round" fill="#d4d4d4" stroke-linejoin="round" d="M-0.0192568+0.617336L39.4718+0.617336L39.4718+53.5146L-0.0192568+53.5146L-0.0192568+0.617336Z" stroke-width="2.02" opacity="1" stroke="#000000"/>
<path stroke-width="1.52" stroke-linecap="round" fill="#d4d4d4" stroke="#000000" opacity="1" stroke-linejoin="round" d="M0.251668+13.8622L39.4582+13.8622L39.4582+53.7254L0.251668+53.7254L0.251668+13.8622Z"/>
<path stroke-width="0.62" opacity="1" d="M20.9551+37.617L20.9551+49.1996L26.9686+49.1996L27.583+49.1996L33.6012+49.1996L33.6012+37.617L27.583+37.617L26.9686+37.617L20.9551+37.617Z" fill="#d4d4d4" stroke="#000000" stroke-linecap="round" stroke-linejoin="round"/>
<path d="M33.7148+47.0214L34.1196+47.1598L34.123+47.5688L34.1353+49.1923L33.648+49.1923L33.648+47.0214L33.7148+47.0214Z" fill="#000000" stroke-width="0.52" stroke-linejoin="round" stroke-linecap="round" stroke="#000000" opacity="1"/>
<path opacity="1" fill="#000000" stroke-width="0.52" stroke-linejoin="round" d="M20.8067+47.0103L20.3973+47.15L20.3939+47.5628L20.3814+49.2013L20.8743+49.2013L20.8743+47.0103L20.8067+47.0103Z" stroke-linecap="round" stroke="#000000"/>
<path stroke="#000000" fill="#d4d4d4" stroke-width="0.52" opacity="1" stroke-linejoin="miter" d="M20.2314+36.4706L20.2314+37.0846L20.2314+37.3085L20.3066+37.3085L20.3066+37.4136C20.3066+37.4238+20.3121+37.4204+20.324+37.4204L20.405+37.4204L20.405+37.512C20.405+37.5222+20.4163+37.529+20.4281+37.529L20.5207+37.529L20.5207+37.6002L20.7405+37.6002L27.2724+37.6002L27.2897+37.6002L33.8216+37.6002L34.0415+37.6002L34.0415+37.529L34.1282+37.529C34.1401+37.529+34.1514+37.5222+34.1514+37.512L34.1514+37.4204L34.2324+37.4204C34.2442+37.4204+34.2555+37.4238+34.2555+37.4136L34.2555+37.3085L34.3249+37.3085L34.3249+37.0846L34.3249+36.4706L27.2897+36.4706L27.2724+36.4706L20.2314+36.4706Z" stroke-linecap="butt"/>
<path stroke-linejoin="miter" opacity="1" stroke-linecap="butt" fill="#d4d4d4" stroke-width="0.52" stroke="#000000" d="M19.3732+35.5955L35.0314+35.5955L35.0314+36.4554L19.3732+36.4554L19.3732+35.5955Z"/>
<path stroke="#000000" stroke-linejoin="miter" d="M19.1043+35.2289L35.3004+35.2289L35.3014+35.3387L35.1646+35.34L35.0347+35.4521L19.3611+35.4467L19.2674+35.3478L19.1047+35.3446L19.1043+35.2289Z" stroke-linecap="butt" opacity="1" fill="#000000" stroke-width="0.82"/>
<path stroke-width="0.82" fill="#000000" opacity="1" stroke="#000000" d="M18.8856+35.0349L35.5191+35.0349L35.5191+35.1947L18.8856+35.1947L18.8856+35.0349Z" stroke-linejoin="miter" stroke-linecap="butt"/>
<path fill="#000000" stroke="#000000" stroke-linecap="butt" d="M27.0224+36.454L27.534+36.454L27.534+37.5896L27.0224+37.5896L27.0224+36.454Z" stroke-width="0.4" opacity="1" stroke-linejoin="miter"/>
<path fill="#e2e2e2" stroke-width="0.4" stroke-linejoin="miter" stroke-linecap="butt" opacity="1" stroke="#000000" d="M27.0459+37.0053L27.5122+37.0053L27.5122+37.5896L27.0459+37.5896L27.0459+37.0053Z"/>
<path stroke-linecap="butt" fill="#000000" stroke-linejoin="miter" stroke-width="0.4" d="M32.3058+36.4678L32.8174+36.4678L32.8174+37.6034L32.3058+37.6034L32.3058+36.4678Z" opacity="1" stroke="#000000"/>
<path stroke-width="0.4" opacity="1" stroke-linecap="butt" fill="#e2e2e2" stroke="#000000" d="M32.3293+37.0191L32.7956+37.0191L32.7956+37.6034L32.3293+37.6034L32.3293+37.0191Z" stroke-linejoin="miter"/>
<path opacity="1" d="M21.6993+36.454L22.211+36.454L22.211+37.5896L21.6993+37.5896L21.6993+36.454Z" stroke-linecap="butt" stroke-width="0.4" stroke="#000000" stroke-linejoin="miter" fill="#000000"/>
<path fill="#e2e2e2" stroke-width="0.4" d="M21.7229+37.0053L22.1891+37.0053L22.1891+37.5896L21.7229+37.5896L21.7229+37.0053Z" stroke-linecap="butt" opacity="1" stroke="#000000" stroke-linejoin="miter"/>
<path stroke-width="0.42" stroke="#000000" opacity="1" fill="#000000" stroke-linejoin="miter" stroke-linecap="butt" d="M19.3292+49.1915L35.099+49.1915L35.099+49.4117L19.3292+49.4117L19.3292+49.1915Z"/>
<path stroke-width="0.52" stroke-linejoin="miter" opacity="1" stroke-linecap="butt" stroke="#000000" d="M19.3573+49.4147L35.066+49.4147L35.066+51.0869L19.3573+51.0869L19.3573+49.4147Z" fill="#d4d4d4"/>
<path stroke="#000000" fill="#000000" stroke-linejoin="miter" opacity="1" d="M20.3945+50.1562L26.7145+50.1562L26.7145+50.3455L20.3945+50.3455L20.3945+50.1562Z" stroke-linecap="butt" stroke-width="0.12"/>
<path opacity="1" stroke="#000000" stroke-linecap="round" d="M22.3465+38.2331L22.3465+39.76L23.454+39.76L23.5671+39.76L24.6755+39.76L24.6755+38.2331L23.5671+38.2331L23.454+38.2331L22.3465+38.2331Z" fill="#d4d4d4" stroke-width="0.38" stroke-linejoin="round"/>
<path stroke-linejoin="round" fill="#d4d4d4" stroke="#000000" stroke-width="0.38" stroke-linecap="round" opacity="1" d="M25.2183+38.2472L25.2183+39.7741L27.1889+39.7741L27.3903+39.7741L29.3625+39.7741L29.3625+38.2472L27.3903+38.2472L27.1889+38.2472L25.2183+38.2472Z"/>
<path stroke-linecap="round" stroke-width="0.38" fill="#d4d4d4" stroke-linejoin="round" d="M29.8954+38.2084L29.8954+39.7353L31.0029+39.7353L31.116+39.7353L32.2244+39.7353L32.2244+38.2084L31.116+38.2084L31.0029+38.2084L29.8954+38.2084Z" stroke="#000000" opacity="1"/>
<path stroke="#000000" stroke-linecap="round" stroke-width="0.38" fill="#d4d4d4" opacity="1" stroke-linejoin="round" d="M22.3465+40.1944L22.3465+44.2322L23.454+44.2322L23.5672+44.2322L24.6756+44.2322L24.6756+40.1944L23.5672+40.1944L23.454+40.1944L22.3465+40.1944Z"/>
<path opacity="1" stroke-linecap="round" d="M22.3465+44.2672L22.3465+48.5924L23.454+48.5924L23.5672+48.5924L24.6756+48.5924L24.6756+44.2672L23.5672+44.2672L23.454+44.2672L22.3465+44.2672Z" stroke-width="0.38" fill="#d4d4d4" stroke="#000000" stroke-linejoin="round"/>
<path opacity="1" stroke-linecap="round" stroke="#000000" d="M29.8953+40.1944L29.8953+44.2759L31.0028+44.2759L31.116+44.2759L32.2244+44.2759L32.2244+40.1944L31.116+40.1944L31.0028+40.1944L29.8953+40.1944Z" fill="#d4d4d4" stroke-linejoin="round" stroke-width="0.38"/>
<path stroke-linejoin="round" d="M29.8953+44.2591L29.8953+48.5924L31.0028+48.5924L31.116+48.5924L32.2244+48.5924L32.2244+44.2591L31.116+44.2591L31.0028+44.2591L29.8953+44.2591Z" stroke-linecap="round" opacity="1" fill="#d4d4d4" stroke-width="0.38" stroke="#000000"/>
<path opacity="1" stroke-linejoin="round" stroke="#000000" stroke-linecap="round" d="M25.2183+40.1944L25.2183+48.5971L27.1889+48.5971L27.3903+48.5971L29.3625+48.5971L29.3625+40.1944L27.3903+40.1944L27.1889+40.1944L25.2183+40.1944Z" fill="#d4d4d4" stroke-width="0.38"/>
<path opacity="1" stroke-width="0.62" fill="#d4d4d4" d="M4.34144+19.4241L4.34144+28.9167L7.21689+28.9167L7.51068+28.9167L10.3884+28.9167L10.3884+19.4241L7.51068+19.4241L7.21689+19.4241L4.34144+19.4241Z" stroke-linecap="round" stroke="#000000" stroke-linejoin="round"/>
<path stroke-width="0.38" fill="#d4d4d4" opacity="1" stroke-linejoin="round" stroke="#000000" d="M5.24416+24.4867L9.48573+24.4867L9.48573+28.195L5.24416+28.195L5.24416+24.4867Z" stroke-linecap="round"/>
<path d="M5.24416+20.0333L9.48573+20.0333L9.48573+23.5729L5.24416+23.5729L5.24416+20.0333Z" stroke-linecap="round" stroke-width="0.38" fill="#d4d4d4" stroke="#000000" opacity="1" stroke-linejoin="round"/>
<path d="M3.99538+18.4804L3.99538+18.9859L3.99538+19.1702L4.03134+19.1702L4.03134+19.2567C4.03134+19.2652+4.03399+19.2623+4.03964+19.2623L4.07837+19.2623L4.07837+19.3377C4.07837+19.3461+4.08378+19.3517+4.08944+19.3517L4.1337+19.3517L4.1337+19.4103L4.23883+19.4103L7.36218+19.4103L7.37048+19.4103L10.4938+19.4103L10.599+19.4103L10.599+19.3517L10.6404+19.3517C10.6461+19.3517+10.6515+19.3461+10.6515+19.3377L10.6515+19.2623L10.6902+19.2623C10.6959+19.2623+10.7013+19.2652+10.7013+19.2567L10.7013+19.1702L10.7345+19.1702L10.7345+18.9859L10.7345+18.4804L7.37048+18.4804L7.36218+18.4804L3.99538+18.4804Z" opacity="1" stroke-linejoin="miter" stroke-width="0.42" stroke="#000000" stroke-linecap="butt" fill="#d4d4d4"/>
<g opacity="1">
<path fill="#000000" stroke-width="0.8" stroke="#000000" stroke-linejoin="miter" d="M3.65861+18.003L3.65861+18.2579L3.65861+18.3509L3.69817+18.3509L3.69817+18.3946C3.69817+18.3988+3.70108+18.3974+3.7073+18.3974L3.7499+18.3974L3.7499+18.4354C3.7499+18.4397+3.75585+18.4425+3.76207+18.4425L3.81076+18.4425L3.81076+18.4721L3.92639+18.4721L7.3619+18.4721L7.37103+18.4721L10.8065+18.4721L10.9222+18.4721L10.9222+18.4425L10.9678+18.4425C10.974+18.4425+10.98+18.4397+10.98+18.4354L10.98+18.3974L11.0226+18.3974C11.0288+18.3974+11.0348+18.3988+11.0348+18.3946L11.0348+18.3509L11.0713+18.3509L11.0713+18.2579L11.0713+18.003L7.37103+18.003L7.3619+18.003L3.65861+18.003Z" stroke-linecap="butt" opacity="1"/>
<path opacity="1" stroke-width="0.52" stroke-linejoin="miter" stroke-linecap="butt" d="M3.65947+18.1414L11.0704+18.1414L11.0704+18.2517L3.65947+18.2517L3.65947+18.1414Z" fill="#000000" stroke="#000000"/>
</g>
<path stroke="#000000" d="M16.8449+19.4241L16.8449+28.9167L19.7204+28.9167L20.0142+28.9167L22.8919+28.9167L22.8919+19.4241L20.0142+19.4241L19.7204+19.4241L16.8449+19.4241Z" stroke-linecap="round" stroke-width="0.62" opacity="1" stroke-linejoin="round" fill="#d4d4d4"/>
<path opacity="1" fill="#d4d4d4" stroke-linejoin="round" stroke="#000000" stroke-linecap="round" stroke-width="0.38" d="M17.7476+24.394L21.9892+24.394L21.9892+28.195L17.7476+28.195L17.7476+24.394Z"/>
<path d="M17.7476+20.0333L21.9892+20.0333L21.9892+23.5088L17.7476+23.5088L17.7476+20.0333Z" stroke-linecap="round" stroke="#000000" stroke-width="0.38" opacity="1" fill="#d4d4d4" stroke-linejoin="round"/>
<path stroke-width="0.42" fill="#d4d4d4" opacity="1" stroke-linecap="butt" stroke-linejoin="miter" stroke="#000000" d="M16.4989+18.4804L16.4989+18.9859L16.4989+19.1702L16.5348+19.1702L16.5348+19.2567C16.5348+19.2652+16.5375+19.2623+16.5431+19.2623L16.5819+19.2623L16.5819+19.3377C16.5818+19.3461+16.5873+19.3517+16.5929+19.3517L16.6372+19.3517L16.6372+19.4103L16.7423+19.4103L19.8657+19.4103L19.874+19.4103L22.9973+19.4103L23.1024+19.4103L23.1024+19.3517L23.1439+19.3517C23.1496+19.3517+23.155+19.3461+23.155+19.3377L23.155+19.2623L23.1937+19.2623C23.1994+19.2623+23.2048+19.2652+23.2048+19.2567L23.2048+19.1702L23.238+19.1702L23.238+18.9859L23.238+18.4804L19.874+18.4804L19.8657+18.4804L16.4989+18.4804Z"/>
<path stroke-width="0.8" stroke="#000000" opacity="1" stroke-linejoin="miter" fill="#000000" d="M16.1621+18.003L16.1621+18.2579L16.1621+18.3509L16.2017+18.3509L16.2017+18.3946C16.2016+18.3988+16.2046+18.3974+16.2108+18.3974L16.2534+18.3974L16.2534+18.4354C16.2534+18.4397+16.2593+18.4425+16.2656+18.4425L16.3142+18.4425L16.3142+18.4721L16.4299+18.4721L19.8654+18.4721L19.8745+18.4721L23.31+18.4721L23.4256+18.4721L23.4256+18.4425L23.4713+18.4425C23.4775+18.4425+23.4835+18.4397+23.4835+18.4354L23.4835+18.3974L23.5261+18.3974C23.5323+18.3974+23.5382+18.3988+23.5382+18.3946L23.5382+18.3509L23.5748+18.3509L23.5748+18.2579L23.5748+18.003L19.8745+18.003L19.8654+18.003L16.1621+18.003Z" stroke-linecap="butt"/>
<path stroke-linecap="butt" fill="#000000" stroke="#000000" stroke-width="0.52" opacity="1" stroke-linejoin="miter" d="M16.1629+18.1394L23.5739+18.1394L23.5739+18.2496L16.1629+18.2496L16.1629+18.1394Z"/>
<path d="M29.2786+19.4241L29.2786+28.9167L32.154+28.9167L32.4478+28.9167L35.3256+28.9167L35.3256+19.4241L32.4478+19.4241L32.154+19.4241L29.2786+19.4241Z" fill="#d4d4d4" stroke-linejoin="round" stroke-linecap="round" stroke="#000000" opacity="1" stroke-width="0.62"/>
<path opacity="1" stroke-linecap="round" stroke-linejoin="round" stroke="#000000" fill="#d4d4d4" d="M30.1813+24.4902L34.4229+24.4902L34.4229+28.195L30.1813+28.195L30.1813+24.4902Z" stroke-width="0.38"/>
<path stroke="#000000" fill="#d4d4d4" stroke-linecap="round" stroke-linejoin="round" d="M30.1813+20.0333L34.4229+20.0333L34.4229+23.6792L30.1813+23.6792L30.1813+20.0333Z" stroke-width="0.38" opacity="1"/>
<path fill="#d4d4d4" stroke-linecap="butt" stroke-linejoin="miter" d="M28.9325+18.4804L28.9325+18.9859L28.9325+19.1702L28.9685+19.1702L28.9685+19.2567C28.9685+19.2652+28.9711+19.2623+28.9768+19.2623L29.0155+19.2623L29.0155+19.3377C29.0155+19.3461+29.0209+19.3517+29.0266+19.3517L29.0708+19.3517L29.0708+19.4103L29.176+19.4103L32.2993+19.4103L32.3076+19.4103L35.431+19.4103L35.5361+19.4103L35.5361+19.3517L35.5776+19.3517C35.5832+19.3517+35.5886+19.3461+35.5886+19.3377L35.5886+19.2623L35.6274+19.2623C35.633+19.2623+35.6384+19.2652+35.6384+19.2567L35.6384+19.1702L35.6716+19.1702L35.6716+18.9859L35.6716+18.4804L32.3076+18.4804L32.2993+18.4804L28.9325+18.4804Z" stroke-width="0.42" stroke="#000000" opacity="1"/>
<g opacity="1">
<path opacity="1" d="M28.5957+18.003L28.5957+18.2579L28.5957+18.3509L28.6353+18.3509L28.6353+18.3946C28.6353+18.3988+28.6382+18.3974+28.6444+18.3974L28.687+18.3974L28.687+18.4354C28.687+18.4397+28.693+18.4425+28.6992+18.4425L28.7479+18.4425L28.7479+18.4721L28.8635+18.4721L32.299+18.4721L32.3082+18.4721L35.7437+18.4721L35.8593+18.4721L35.8593+18.4425L35.9049+18.4425C35.9112+18.4425+35.9171+18.4397+35.9171+18.4354L35.9171+18.3974L35.9597+18.3974C35.9659+18.3974+35.9719+18.3988+35.9719+18.3946L35.9719+18.3509L36.0084+18.3509L36.0084+18.2579L36.0084+18.003L32.3082+18.003L32.299+18.003L28.5957+18.003Z" stroke-linecap="butt" stroke-linejoin="miter" stroke-width="0.8" fill="#000000" stroke="#000000"/>
<path stroke="#000000" stroke-linecap="butt" stroke-width="0.52" fill="#000000" opacity="1" stroke-linejoin="miter" d="M28.615+18.1899L36.026+18.1899L36.026+18.3002L28.615+18.3002L28.615+18.1899Z"/>
</g>
<path stroke-linecap="round" stroke="#000000" fill="#d4d4d4" stroke-linejoin="round" stroke-width="0.82" d="M11.251+5.08935L17.5509+5.08935L17.5509+11.4486L11.251+11.4486L11.251+5.08935Z" opacity="1"/>
<path stroke-linecap="round" d="M12.5466+6.10108L16.2553+6.10108L16.2553+10.4369L12.5466+10.4369L12.5466+6.10108Z" opacity="1" stroke-linejoin="round" stroke-width="0.38" fill="#d4d4d4" stroke="#000000"/>
<path opacity="1" d="M14.3881+3.43577L17.5279+5.10155L11.2484+5.10155L14.3881+3.43577Z" stroke-width="0.82" fill="#d4d4d4" stroke="#000000" stroke-linecap="round" stroke-linejoin="round"/>
<g opacity="1">
<path fill="#000000" stroke="#000000" d="M14.3975+2.53052L11.849+3.87304L10.1586+4.7618L10.1586+5.66181L11.7561+4.8218L14.3975+3.43428L14.3975+2.53052Z" opacity="1" stroke-width="0.82" stroke-linecap="round" stroke-linejoin="round"/>
<path d="M14.3975+2.54196L11.7561+3.92948L10.1586+4.76949L10.1586+4.93825L11.7561+4.09824L14.3975+2.71072L14.3975+2.54196Z" stroke="#000000" stroke-linejoin="round" opacity="1" stroke-width="0.52" fill="#000000" stroke-linecap="round"/>
</g>
<g opacity="1">
<path stroke-width="0.82" fill="#000000" opacity="1" stroke-linejoin="round" stroke-linecap="round" stroke="#000000" d="M14.4168+2.53315L16.9653+3.87567L18.6557+4.76443L18.6557+5.66444L17.0582+4.82443L14.4168+3.43691L14.4168+2.53315Z"/>
<path fill="#000000" stroke-linejoin="round" stroke-width="0.52" stroke="#000000" d="M14.4168+2.54459L17.0582+3.93211L18.6557+4.77212L18.6557+4.94088L17.0582+4.10086L14.4168+2.71335L14.4168+2.54459Z" stroke-linecap="round" opacity="1"/>
</g>
<path opacity="1" stroke-linejoin="round" d="M11.251+11.2285L17.5509+11.2285L17.5509+11.4731L11.251+11.4731L11.251+11.2285Z" stroke-width="0.62" stroke="#000000" stroke-linecap="round" fill="#000000"/>
<path d="M3.47566+14.1892L4.12124+14.1892L4.12124+16.2203L3.47566+16.2203L3.47566+14.1892Z" stroke-linecap="round" fill="#000000" opacity="1" stroke-linejoin="round" stroke-width="0.48" stroke="#000000"/>
<path stroke-width="0.48" fill="#d4d4d4" d="M3.47566+15.2046L4.12124+15.2046L4.12124+16.2203L3.47566+16.2203L3.47566+15.2046Z" stroke="#000000" opacity="1" stroke-linecap="round" stroke-linejoin="round"/>
<path stroke-linecap="round" fill="#000000" opacity="1" stroke="#000000" stroke-width="0.48" d="M6.2428+14.1892L6.87158+14.1892L6.87158+16.2203L6.2428+16.2203L6.2428+14.1892Z" stroke-linejoin="round"/>
<path stroke-linecap="round" stroke="#000000" stroke-width="0.48" fill="#d4d4d4" stroke-linejoin="round" opacity="1" d="M6.2428+15.2046L6.87158+15.2046L6.87158+16.2203L6.2428+16.2203L6.2428+15.2046Z"/>
<path stroke-width="0.48" opacity="1" d="M8.90655+14.1892L9.53533+14.1892L9.53533+16.2203L8.90655+16.2203L8.90655+14.1892Z" fill="#000000" stroke="#000000" stroke-linecap="round" stroke-linejoin="round"/>
<path opacity="1" stroke="#000000" d="M8.90655+15.2046L9.53533+15.2046L9.53533+16.2203L8.90655+16.2203L8.90655+15.2046Z" fill="#d4d4d4" stroke-linecap="round" stroke-width="0.48" stroke-linejoin="round"/>
<path stroke="#000000" fill="#000000" stroke-width="0.48" d="M11.7501+14.1892L12.3957+14.1892L12.3957+16.2203L11.7501+16.2203L11.7501+14.1892Z" stroke-linecap="round" stroke-linejoin="round" opacity="1"/>
<path stroke="#000000" fill="#d4d4d4" stroke-width="0.38" stroke-linecap="round" opacity="1" stroke-linejoin="round" d="M11.7501+15.1551L12.3957+15.1551L12.3957+16.1708L11.7501+16.1708L11.7501+15.1551Z"/>
<path opacity="1" stroke-linejoin="round" stroke-width="0.48" d="M14.5055+14.1892L15.1511+14.1892L15.1511+16.2203L14.5055+16.2203L14.5055+14.1892Z" stroke="#000000" stroke-linecap="round" fill="#000000"/>
<path stroke="#000000" stroke-width="0.48" d="M14.5055+15.2046L15.1511+15.2046L15.1511+16.2203L14.5055+16.2203L14.5055+15.2046Z" stroke-linecap="round" fill="#d4d4d4" opacity="1" stroke-linejoin="round"/>
<path d="M17.2727+14.1892L17.9014+14.1892L17.9014+16.2203L17.2727+16.2203L17.2727+14.1892Z" stroke-linecap="round" fill="#000000" stroke="#000000" stroke-linejoin="round" opacity="1" stroke-width="0.48"/>
<path stroke-linecap="round" fill="#d4d4d4" opacity="1" stroke-linejoin="round" stroke-width="0.48" stroke="#000000" d="M17.2727+15.2046L17.9014+15.2046L17.9014+16.2203L17.2727+16.2203L17.2727+15.2046Z"/>
<path stroke-width="0.48" fill="#000000" stroke-linejoin="round" stroke="#000000" opacity="1" d="M19.9364+14.1892L20.5652+14.1892L20.5652+16.2203L19.9364+16.2203L19.9364+14.1892Z" stroke-linecap="round"/>
<path fill="#d4d4d4" d="M19.9364+15.2046L20.5652+15.2046L20.5652+16.2203L19.9364+16.2203L19.9364+15.2046Z" opacity="1" stroke-linecap="round" stroke-width="0.48" stroke-linejoin="round" stroke="#000000"/>
<path d="M22.6843+14.1892L23.3299+14.1892L23.3299+16.2203L22.6843+16.2203L22.6843+14.1892Z" fill="#000000" opacity="1" stroke-linecap="round" stroke="#000000" stroke-linejoin="round" stroke-width="0.48"/>
<path opacity="1" stroke="#000000" stroke-linejoin="round" d="M22.6843+15.2046L23.3299+15.2046L23.3299+16.2203L22.6843+16.2203L22.6843+15.2046Z" fill="#d4d4d4" stroke-width="0.48" stroke-linecap="round"/>
<path stroke-width="0.4" stroke-linecap="round" stroke="#000000" stroke-linejoin="round" d="M25.4397+14.1892L26.0853+14.1892L26.0853+16.2203L25.4397+16.2203L25.4397+14.1892Z" fill="#000000" opacity="1"/>
<path stroke-linecap="round" stroke-linejoin="round" opacity="1" stroke="#000000" stroke-width="0.4" fill="#d4d4d4" d="M25.4397+15.2046L26.0853+15.2046L26.0853+16.2203L25.4397+16.2203L25.4397+15.2046Z"/>
<path stroke-linecap="round" d="M28.2068+14.1892L28.8356+14.1892L28.8356+16.2203L28.2068+16.2203L28.2068+14.1892Z" stroke-width="0.48" opacity="1" stroke="#000000" fill="#000000" stroke-linejoin="round"/>
<path stroke-linejoin="round" d="M28.2068+15.2046L28.8356+15.2046L28.8356+16.2203L28.2068+16.2203L28.2068+15.2046Z" fill="#d4d4d4" stroke-width="0.48" stroke="#000000" opacity="1" stroke-linecap="round"/>
<path d="M30.8706+14.1892L31.4994+14.1892L31.4994+16.2203L30.8706+16.2203L30.8706+14.1892Z" stroke-linejoin="round" stroke="#000000" stroke-linecap="round" stroke-width="0.48" opacity="1" fill="#000000"/>
<path d="M30.8706+15.2046L31.4994+15.2046L31.4994+16.2203L30.8706+16.2203L30.8706+15.2046Z" stroke="#000000" stroke-width="0.48" stroke-linejoin="round" fill="#d4d4d4" stroke-linecap="round" opacity="1"/>
<path stroke="#000000" opacity="1" d="M33.7141+14.1892L34.3597+14.1892L34.3597+16.2203L33.7141+16.2203L33.7141+14.1892Z" fill="#000000" stroke-width="0.48" stroke-linecap="round" stroke-linejoin="round"/>
<path opacity="1" stroke="#000000" fill="#d4d4d4" stroke-linejoin="round" d="M33.7141+15.2046L34.3597+15.2046L34.3597+16.2203L33.7141+16.2203L33.7141+15.2046Z" stroke-width="0.48" stroke-linecap="round"/>
<path stroke-linejoin="round" fill="#000000" stroke-linecap="round" stroke="#000000" stroke-width="0.48" d="M36.4695+14.1892L37.1151+14.1892L37.1151+16.2203L36.4695+16.2203L36.4695+14.1892Z" opacity="1"/>
<path stroke-linejoin="round" stroke-linecap="round" stroke="#000000" opacity="1" fill="#d4d4d4" d="M36.4695+15.2046L37.1151+15.2046L37.1151+16.2203L36.4695+16.2203L36.4695+15.2046Z" stroke-width="0.48"/>
<path stroke-width="0.52" stroke="#000000" stroke-linejoin="miter" opacity="1" fill="#000000" d="M0.00827278+13.8566L0.940307+13.8566L0.940307+53.4275L0.00827278+53.4275L0.00827278+13.8566Z" stroke-linecap="butt"/>
<path stroke-width="0.52" opacity="1" fill="#000000" stroke="#000000" stroke-linecap="butt" stroke-linejoin="miter" d="M39.4174+52.5485L39.4174+53.2861L-0.0200644+53.2861L-0.0200645+52.5485L39.4174+52.5485Z"/>
<path stroke-linecap="butt" d="M1.22484+37.5718L8.63322+37.5718L8.63322+53.5146L1.22484+53.5146L1.22484+37.5718Z" stroke="#000000" fill="#d4d4d4" stroke-width="0.42" stroke-linejoin="miter" opacity="1"/>
<path opacity="1" d="M0.735643+34.9313L9.43388+34.9313L9.43388+35.9368L0.735643+35.9368L0.735643+34.9313Z" stroke-linecap="butt" stroke="#000000" stroke-width="0.42" stroke-linejoin="miter" fill="#d4d4d4"/>
<path stroke-linejoin="miter" fill="#000000" d="M-0.103837+33.9429L-0.054216+34.009L0.210429+34.3564L0.226969+34.3564L0.590855+34.836L1.08706+34.836L8.7783+34.836L9.27451+34.836L9.65494+34.3564L9.66358+34.3479L9.68802+34.3233L9.98574+34.009L10.0188+33.9594L8.81138+33.9429L7.57086+33.9429L1.08706+33.9429L-0.103837+33.9429Z" stroke-width="0.62" stroke="#000000" stroke-linecap="butt" opacity="1"/>
<path fill="#d4d4d4" stroke-linecap="butt" opacity="1" stroke-width="0.42" stroke-linejoin="miter" d="M1.22749+35.9338L1.22749+37.5976L8.6281+37.5765L8.63141+37.0998L8.63307+36.8863L8.90838+36.4657L8.90838+35.9338L1.22749+35.9338Z" stroke="#000000"/>
<path stroke-width="0.42" d="M6.82838+35.967L7.52204+35.967L7.52204+37.4874L6.82838+37.4874L6.82838+35.967Z" opacity="1" fill="#000000" stroke="#000000" stroke-linejoin="miter" stroke-linecap="butt"/>
<path stroke-linejoin="miter" opacity="1" d="M6.85349+36.7238L7.4856+36.7238L7.4856+37.5061L6.85349+37.5061L6.85349+36.7238Z" stroke-width="0.42" stroke-linecap="butt" fill="#d4d4d4" stroke="#000000"/>
<path opacity="1" stroke-width="0.42" stroke="#000000" stroke-linejoin="miter" stroke-linecap="butt" d="M2.41883+35.9966L3.11249+35.9966L3.11249+37.517L2.41883+37.517L2.41883+35.9966Z" fill="#000000"/>
<path stroke-linecap="butt" stroke="#000000" d="M2.47817+36.7032L3.11028+36.7032L3.11028+37.4855L2.47817+37.4855L2.47817+36.7032Z" stroke-linejoin="miter" stroke-width="0.42" fill="#d4d4d4" opacity="1"/>
<path stroke-linecap="butt" stroke-width="0.42" stroke="#000000" opacity="1" fill="#d4d4d4" stroke-linejoin="miter" d="M2.24416+40.3681L7.52209+40.3681L7.52209+52.7275L2.24416+52.7275L2.24416+40.3681Z"/>
<path stroke-linecap="butt" stroke-width="0.42" fill="#000000" stroke-linejoin="miter" d="M2.30264+38.3768L7.58057+38.3768L7.58057+39.664L2.30264+39.664L2.30264+38.3768Z" stroke="#000000" opacity="1"/>
<path stroke-linecap="butt" stroke-width="0.42" opacity="1" fill="#000000" d="M6.25696+46.2555C6.25696+46.0941+6.38662+45.9632+6.54657+45.9632C6.70651+45.9632+6.83617+46.0941+6.83617+46.2555C6.83617+46.417+6.70651+46.5479+6.54657+46.5479C6.38662+46.5479+6.25696+46.417+6.25696+46.2555Z" stroke="#000000" stroke-linejoin="miter"/>
<path opacity="1" stroke-width="1.72" d="M-0.0192568+0L39.4718+0L39.4718+0.69388L-0.0192568+0.69388L-0.0192568+0Z" fill="#000000" stroke-linecap="round" stroke="#000000" stroke-linejoin="round"/>
<path stroke-width="0.82" fill="#d4d4d4" opacity="1" d="M25.8217+5.08935L32.1217+5.08935L32.1217+11.4486L25.8217+11.4486L25.8217+5.08935Z" stroke-linecap="round" stroke="#000000" stroke-linejoin="round"/>
<path opacity="1" d="M27.1173+6.10108L30.8261+6.10108L30.8261+10.4369L27.1173+10.4369L27.1173+6.10108Z" stroke="#000000" stroke-linecap="round" fill="#d4d4d4" stroke-width="0.38" stroke-linejoin="round"/>
<path opacity="1" stroke="#000000" stroke-linejoin="round" stroke-width="0.82" d="M28.9589+3.43577L32.0987+5.10155L25.8192+5.10155L28.9589+3.43577Z" fill="#d4d4d4" stroke-linecap="round"/>
<path fill="#000000" stroke-linecap="round" stroke="#000000" stroke-width="0.1" d="M28.9538+4.18424L29.6732+4.56591L28.2344+4.56591L28.9538+4.18424Z" opacity="1" stroke-linejoin="round"/>
<g opacity="1">
<path stroke-linecap="round" stroke-width="0.82" d="M28.9683+2.53052L26.4198+3.87304L24.7294+4.7618L24.7294+5.66181L26.3269+4.8218L28.9683+3.43428L28.9683+2.53052Z" fill="#000000" stroke="#000000" opacity="1" stroke-linejoin="round"/>
<path d="M28.9683+2.54196L26.3269+3.92948L24.7294+4.76949L24.7294+4.93825L26.3269+4.09824L28.9683+2.71072L28.9683+2.54196Z" stroke-linecap="round" fill="#000000" stroke="#000000" opacity="1" stroke-width="0.52" stroke-linejoin="round"/>
</g>
<path stroke="#000000" stroke-linecap="round" fill="#000000" opacity="1" stroke-linejoin="round" d="M28.9876+2.53315L31.5361+3.87567L33.2265+4.76443L33.2265+5.66444L31.629+4.82443L28.9876+3.43691L28.9876+2.53315Z" stroke-width="0.82"/>
<path stroke-width="0.52" stroke="#000000" opacity="1" stroke-linejoin="round" d="M28.9876+2.54459L31.629+3.93211L33.2265+4.77212L33.2265+4.94088L31.629+4.10086L28.9876+2.71335L28.9876+2.54459Z" stroke-linecap="round" fill="#000000"/>
<path stroke="#000000" d="M25.8217+11.2285L32.1217+11.2285L32.1217+11.4731L25.8217+11.4731L25.8217+11.2285Z" fill="#000000" opacity="1" stroke-linejoin="round" stroke-width="0.62" stroke-linecap="round"/>
<path stroke-linecap="round" stroke-width="0.1" stroke="#000000" opacity="1" stroke-linejoin="round" fill="#000000" d="M14.4003+4.14812L15.1197+4.5298L13.6809+4.5298L14.4003+4.14812Z"/>
<path d="M29.0032+28.9603L35.5956+28.9603L35.5956+29.3209L29.0032+29.3209L29.0032+28.9603Z" stroke-width="0.62" opacity="1" stroke="#000000" stroke-linejoin="round" fill="#e2e2e2" stroke-linecap="round"/>
<path stroke="#000000" stroke-linejoin="round" stroke-width="0.62" stroke-linecap="round" d="M35.3852+27.0212L35.5938+27.1369L35.5956+27.479L35.6019+28.8367L35.3508+28.8367L35.3508+27.0212L35.3852+27.0212Z" opacity="1" fill="#e2e2e2"/>
<path stroke-width="0.62" fill="#e2e2e2" stroke="#000000" d="M29.2316+27.0143L29.0128+27.1313L29.0109+27.4769L29.0043+28.8486L29.2678+28.8486L29.2678+27.0143L29.2316+27.0143Z" opacity="1" stroke-linejoin="round" stroke-linecap="round"/>
<path stroke="#000000" opacity="1" fill="#e2e2e2" stroke-linecap="round" stroke-linejoin="round" d="M29.2195+29.1333L35.3007+29.1333C35.3467+29.1333+35.3841+29.1706+35.3841+29.2165L35.3841+29.2165C35.3841+29.2624+35.3467+29.2996+35.3007+29.2996L29.2195+29.2996C29.1734+29.2996+29.1361+29.2624+29.1361+29.2165L29.1361+29.2165C29.1361+29.1706+29.1734+29.1333+29.2195+29.1333Z" stroke-width="0.5"/>
<g opacity="1">
<path stroke-width="0.62" stroke-linecap="round" stroke-linejoin="round" d="M16.5678+28.9521L23.1739+28.9521L23.1739+29.3128L16.5678+29.3128L16.5678+28.9521Z" fill="#e2e2e2" stroke="#000000" opacity="1"/>
<path stroke-linejoin="round" stroke-width="0.62" fill="#e2e2e2" stroke="#000000" d="M22.9631+27.013L23.1721+27.1288L23.1739+27.4708L23.1803+28.8285L22.9286+28.8285L22.9286+27.013L22.9631+27.013Z" opacity="1" stroke-linecap="round"/>
<path d="M16.7967+27.0062L16.5774+27.1231L16.5755+27.4687L16.5689+28.8404L16.8329+28.8404L16.8329+27.0062L16.7967+27.0062Z" fill="#e2e2e2" stroke="#000000" opacity="1" stroke-linejoin="round" stroke-linecap="round" stroke-width="0.62"/>
<path stroke-linecap="round" stroke-width="0.5" stroke="#000000" fill="#e2e2e2" stroke-linejoin="round" opacity="1" d="M16.7846+29.1252L22.8784+29.1252C22.9245+29.1252+22.962+29.1624+22.962+29.2083L22.962+29.2083C22.962+29.2542+22.9245+29.2914+22.8784+29.2914L16.7846+29.2914C16.7384+29.2914+16.701+29.2542+16.701+29.2083L16.701+29.2083C16.701+29.1624+16.7384+29.1252+16.7846+29.1252Z"/>
</g>
<g opacity="1">
<path stroke="#000000" fill="#e2e2e2" opacity="1" stroke-width="0.62" stroke-linejoin="round" d="M4.02271+28.952L10.6225+28.952L10.6225+29.3127L4.02271+29.3127L4.02271+28.952Z" stroke-linecap="round"/>
<path stroke="#000000" opacity="1" d="M10.4118+27.0129L10.6207+27.1287L10.6224+27.4708L10.6288+28.8285L10.3774+28.8285L10.3774+27.0129L10.4118+27.0129Z" stroke-linejoin="round" stroke-linecap="round" stroke-width="0.62" fill="#e2e2e2"/>
<path d="M4.2514+27.0061L4.03228+27.1231L4.03043+27.4687L4.02377+28.8404L4.28757+28.8404L4.28757+27.0061L4.2514+27.0061Z" opacity="1" stroke="#000000" stroke-linecap="round" stroke-width="0.62" stroke-linejoin="round" fill="#e2e2e2"/>
<path stroke="#000000" fill="#e2e2e2" d="M4.23927+29.1251L10.3272+29.1251C10.3733+29.1251+10.4107+29.1623+10.4107+29.2082L10.4107+29.2082C10.4107+29.2541+10.3733+29.2913+10.3272+29.2913L4.23927+29.2913C4.19314+29.2913+4.15575+29.2541+4.15575+29.2082L4.15575+29.2082C4.15575+29.1623+4.19314+29.1251+4.23927+29.1251Z" stroke-linecap="round" stroke-width="0.5" opacity="1" stroke-linejoin="round"/>
</g>
<path fill="#000000" stroke-linejoin="miter" stroke-width="0.62" opacity="1" d="M-0.0649401+33.9142L-0.0181045+33.9812L0.231686+34.3327L0.247298+34.3327L0.590759+34.8181L1.05912+34.8181L8.31864+34.8181L8.787+34.8181L9.14607+34.3327L9.15423+34.3241L9.1773+34.2992L9.45831+33.9812L9.48953+33.931L8.34987+33.9142L7.17897+33.9142L1.05912+33.9142L-0.0649401+33.9142Z" stroke="#000000" stroke-linecap="butt"/>
<path d="M27.8153+50.1562L34.1353+50.1562L34.1353+50.3455L27.8153+50.3455L27.8153+50.1562Z" fill="#000000" stroke-linecap="butt" opacity="1" stroke-linejoin="miter" stroke-width="0.12" stroke="#000000"/>
</g>
</svg>
