<?xml version="1.0" encoding="UTF-8" standalone="no"?> <!-- Created with Vectornator for iOS (http://vectornator.io/) --><!DOCTYPE svg PUBLIC "-//W3C//DTD SVG 1.1//EN" "http://www.w3.org/Graphics/SVG/1.1/DTD/svg11.dtd">
<svg height="100%" width="100%" xmlns:xlink="http://www.w3.org/1999/xlink" xmlns="http://www.w3.org/2000/svg" viewBox="0 0 31.74 61.9" xmlns:vectornator="http://vectornator.io" version="1.1" xml:space="preserve" style="fill-rule:nonzero;clip-rule:evenodd;stroke-linecap:round;stroke-linejoin:round;">
<metadata>
<vectornator:setting value="false" key="WDDynamicGuides"/>
<vectornator:setting value="false" key="WDOutlineMode"/>
<vectornator:setting value="false" key="UndoHistoryDisabled"/>
<vectornator:setting value="true" key="WDRulersVisible"/>
<vectornator:setting value="true" key="VNDimensionsVisible"/>
<vectornator:setting key="IsTimeLapseWatermarkDisabled" value="false"/>
<vectornator:setting key="WDCMYKEnabledKey" value="false"/>
<vectornator:setting key="WDDisplayWhiteBackground" value="false"/>
<vectornator:setting key="WDSnapToPoints" value="false"/>
<vectornator:setting key="VNPencilOnly" value="false"/>
<vectornator:setting key="WDGuidesVisible" value="true"/>
<vectornator:setting key="WDIsolateActiveLayer" value="false"/>
<vectornator:setting value="Pixels" key="WDUnits"/>
<vectornator:setting value="false" key="WDSnapToEdges"/>
<vectornator:setting value="true" key="VNSnapToGuides"/>
<vectornator:setting value="false" key="WDSnapToGrid"/>
</metadata>
<defs/>
<g vectornator:layerName="Layer 1" id="Layer 1">
<g opacity="1">
<path stroke-width="1.28" stroke-linecap="round" fill="#000000" stroke="#808080" opacity="1" stroke-linejoin="round" d="M380.543+155.569L317.019+155.569L317.019+243.539L380.543+243.539L380.543+155.569Z"/>
<path opacity="1" stroke-width="1.72" d="M380.538+241.617L317.217+241.617L317.217+245.35L380.538+245.35L380.538+241.617Z" fill="#acacac" stroke="#acacac" stroke-linecap="round" stroke-linejoin="round"/>
<path stroke-linecap="round" fill="#acacac" stroke-linejoin="round" d="M380.324+121.081L380.324+122.077L316.991+122.077L316.991+124.603L316.952+124.603L316.952+121.081L318.808+121.081L380.324+121.081Z" stroke-width="1.72" opacity="1" stroke="#acacac"/>
<path d="M316.948+123.921L380.577+123.921L380.577+155.885L316.948+155.885L316.948+123.921Z" fill="#000000" stroke-width="0.72" stroke-linejoin="round" stroke-linecap="round" stroke="#acacac" opacity="1"/>
<path opacity="1" fill="#071017" stroke-width="1.72" stroke-linejoin="round" d="M380.337+122.178L380.337+124.702L316.948+124.702L316.948+122.178L380.337+122.178Z" stroke-linecap="round" stroke="#acacac"/>
<path fill="none" stroke-width="0.82" opacity="1" stroke="#808080" d="M347.768+211.338L347.768+236.085L339.688+236.085L338.862+236.085L330.775+236.085L330.775+211.338L338.862+211.338L339.688+211.338L347.768+211.338Z" stroke-linecap="round" stroke-linejoin="round"/>
<path stroke="#a0a0a0" fill="#a0a0a0" opacity="1" stroke-width="1.22" stroke-linejoin="round" d="M349.191+211.336L349.191+212.452L349.191+212.474L349.191+214.199L349.191+214.88L349.191+216.337L349.757+216.337L349.757+216.685L348.974+216.685L348.666+216.685L347.891+216.685L347.891+216.627L347.891+216.337L347.891+214.88L347.891+214.199L347.891+212.474L340.899+212.474L337.632+212.474L330.648+212.474L330.648+214.199L330.648+214.88L330.648+216.337L330.648+216.627L330.648+216.685L329.865+216.685L329.556+216.685L328.781+216.685L328.781+216.337L329.34+216.337L329.34+214.88L329.34+214.199L329.34+212.452L329.348+212.452L329.348+211.336L337.632+211.336L340.899+211.336L349.191+211.336Z" stroke-linecap="round"/>
<g opacity="1">
<path stroke-width="0.724251" stroke-linecap="round" fill="none" stroke-linejoin="round" d="M338.494+224.285L332.291+224.285L332.291+233.479L338.494+233.479L338.494+224.285Z" stroke="#808080" opacity="1"/>
<path opacity="1" d="M338.494+213.843L332.291+213.843L332.291+223.714L338.494+223.714L338.494+213.843Z" stroke-width="0.724251" stroke-linecap="round" stroke="#808080" stroke-linejoin="round" fill="none"/>
</g>
<g opacity="1">
<path stroke-width="0.724251" opacity="1" stroke-linecap="round" fill="none" stroke="#808080" d="M346.169+224.285L339.966+224.285L339.966+233.479L346.169+233.479L346.169+224.285Z" stroke-linejoin="round"/>
<path stroke-linecap="round" opacity="1" stroke="#808080" fill="none" stroke-linejoin="round" stroke-width="0.724251" d="M346.169+213.843L339.966+213.843L339.966+223.714L346.169+223.714L346.169+213.843Z"/>
</g>
<path fill="none" stroke-width="1.22" stroke-linejoin="round" stroke-linecap="round" opacity="1" stroke="#808080" d="M349.591+236.098L328.954+236.098L329.413+237.139L329.966+238.064L348.763+238.063L349.152+237.133L349.591+236.098Z"/>
<path stroke-width="0.92" stroke-linejoin="round" opacity="1" stroke-linecap="round" stroke="#a0a0a0" d="M347.906+230.468L348.622+230.823L348.628+231.871L348.65+236.034L347.787+236.034L347.787+230.468L347.906+230.468Z" fill="#a0a0a0"/>
<path stroke="#a0a0a0" fill="#a0a0a0" stroke-linejoin="round" opacity="1" d="M330.665+230.525L329.948+230.88L329.942+231.928L329.92+236.091L330.783+236.091L330.783+230.525L330.665+230.525Z" stroke-width="0.92" stroke-linecap="round"/>
<path opacity="1" stroke="#808080" stroke-linecap="round" d="M345.63+165.147L345.63+189.855L339.886+189.855L339.299+189.855L333.551+189.855L333.551+165.147L339.299+165.147L339.886+165.147L345.63+165.147Z" fill="none" stroke-width="0.82" stroke-linejoin="round"/>
<path stroke-width="1.22" stroke-linecap="round" fill="#a0a0a0" stroke-linejoin="round" d="M346.702+165.145L346.702+166.259L346.702+166.281L346.702+168.003L346.702+168.683L346.702+170.138L347.108+170.138L347.108+170.485L346.547+170.485L346.327+170.485L345.772+170.485L345.772+170.427L345.772+170.138L345.772+168.683L345.772+168.003L345.772+166.281L340.769+166.281L338.431+166.281L333.434+166.281L333.434+168.003L333.434+168.683L333.434+170.138L333.434+170.427L333.434+170.485L332.873+170.485L332.653+170.485L332.098+170.485L332.098+170.138L332.497+170.138L332.497+168.683L332.497+168.003L332.497+166.259L332.503+166.259L332.503+165.145L338.431+165.145L340.769+165.145L346.702+165.145Z" stroke="#a0a0a0" opacity="1"/>
<path stroke-linejoin="round" d="M344.06+167.734L335.217+167.734L335.217+177.517L344.06+177.517L344.06+167.734Z" opacity="1" stroke-linecap="round" fill="none" stroke-width="0.724251" stroke="#808080"/>
<path stroke-width="0.92" stroke-linejoin="round" stroke="#a0a0a0" stroke-linecap="round" d="M345.756+184.246L346.415+184.601L346.421+185.648L346.441+189.804L345.647+189.804L345.647+184.246L345.756+184.246Z" fill="#a0a0a0" opacity="1"/>
<path stroke-width="0.92" fill="#a0a0a0" opacity="1" stroke-linejoin="round" stroke="#a0a0a0" d="M333.404+184.303L332.744+184.658L332.739+185.705L332.719+189.861L333.512+189.861L333.512+184.303L333.404+184.303Z" stroke-linecap="round"/>
<path stroke-linejoin="round" fill="none" stroke-width="0.724251" stroke="#808080" stroke-linecap="round" opacity="1" d="M344.06+178.602L335.217+178.602L335.217+188.384L344.06+188.384L344.06+178.602Z"/>
<path stroke="#808080" d="M374.722+165.147L374.722+189.855L368.979+189.855L368.392+189.855L362.644+189.855L362.644+165.147L368.392+165.147L368.979+165.147L374.722+165.147Z" opacity="1" stroke-width="0.82" stroke-linecap="round" stroke-linejoin="round" fill="none"/>
<path opacity="1" fill="#a0a0a0" stroke-linejoin="round" stroke="#a0a0a0" stroke-width="1.22" stroke-linecap="round" d="M375.754+165.145L375.754+166.259L375.754+166.281L375.754+168.003L375.754+168.683L375.754+170.138L376.159+170.138L376.159+170.485L375.6+170.485L375.38+170.485L374.827+170.485L374.827+170.427L374.827+170.138L374.827+168.683L374.827+168.003L374.827+166.281L369.837+166.281L367.506+166.281L362.523+166.281L362.523+168.003L362.523+168.683L362.523+170.138L362.523+170.427L362.523+170.485L361.964+170.485L361.744+170.485L361.191+170.485L361.191+170.138L361.589+170.138L361.589+168.683L361.589+168.003L361.589+166.259L361.595+166.259L361.595+165.145L367.506+165.145L369.837+165.145L375.754+165.145Z"/>
<path fill="none" stroke-linecap="round" d="M373.153+167.734L364.31+167.734L364.31+177.517L373.153+177.517L373.153+167.734Z" opacity="1" stroke-width="0.724251" stroke-linejoin="round" stroke="#808080"/>
<path stroke-width="1.22" opacity="1" stroke="#808080" stroke-linejoin="round" fill="none" d="M376.394+189.858L360.817+189.858L361.316+190.874L361.858+191.82L375.6+191.82L375.977+190.913L376.394+189.858Z" stroke-linecap="round"/>
<path stroke-linecap="round" stroke="#a0a0a0" fill="#a0a0a0" opacity="1" stroke-width="0.92" stroke-linejoin="round" d="M374.849+184.246L375.508+184.601L375.513+185.648L375.534+189.804L374.74+189.804L374.74+184.246L374.849+184.246Z"/>
<path fill="#a0a0a0" stroke-width="0.92" stroke="#a0a0a0" stroke-linejoin="round" d="M362.496+184.303L361.837+184.658L361.832+185.705L361.811+189.861L362.605+189.861L362.605+184.303L362.496+184.303Z" stroke-linecap="round" opacity="1"/>
<path stroke-linejoin="round" stroke-linecap="round" opacity="1" stroke="#808080" fill="none" stroke-width="0.724251" d="M373.153+178.602L364.31+178.602L364.31+188.384L373.153+188.384L373.153+178.602Z"/>
<path stroke="#acacac" fill="#000000" opacity="1" stroke-width="1.28" stroke-linecap="round" d="M375.367+210.107L360.508+210.107L360.508+243.641L375.367+243.641L375.367+210.107Z" stroke-linejoin="round"/>
<path d="M377.5+208.016L375.518+210.084L360.491+210.084L358.509+208.016L377.5+208.016Z" stroke-width="1.28" opacity="1" stroke="#acacac" stroke-linejoin="round" fill="#acacac" stroke-linecap="round"/>
<g opacity="1">
<path stroke="#a0a0a0" stroke-linejoin="round" stroke-width="0.724251" stroke-linecap="round" opacity="1" d="M340.812+155.956L340.812+159.816L332.895+159.816L332.895+155.956L340.812+155.956Z" fill="none"/>
<path stroke-linecap="round" fill="none" stroke="#a0a0a0" d="M348.722+155.956L348.722+159.816L340.812+159.816L340.812+155.956L348.722+155.956Z" opacity="1" stroke-linejoin="round" stroke-width="0.724251"/>
<g opacity="1">
<path opacity="1" stroke="#a0a0a0" fill="none" stroke-linecap="round" stroke-linejoin="round" stroke-width="0.724251" d="M324.996+155.956L324.996+159.816L317.079+159.816L317.079+155.956L324.996+155.956Z"/>
<path stroke-width="0.724251" stroke-linecap="round" stroke-linejoin="round" d="M332.907+155.956L332.907+159.816L324.996+159.816L324.996+155.956L332.907+155.956Z" opacity="1" fill="none" stroke="#a0a0a0"/>
</g>
</g>
<path stroke-linejoin="round" stroke-width="0.82" fill="none" stroke="#acacac" opacity="1" d="M372.216+221.053L363.659+221.053L363.659+236.794L372.216+236.794L372.216+221.053Z" stroke-linecap="round"/>
<path d="M372.191+213.194L363.634+213.194L363.634+219.294L372.191+219.294L372.191+213.194Z" fill="none" stroke="#acacac" opacity="1" stroke-linejoin="round" stroke-linecap="round" stroke-width="0.82"/>
<path stroke-width="0.52" stroke-linecap="round" stroke="#acacac" fill="none" stroke-linejoin="round" opacity="1" d="M370.356+228.854C370.356+225.928+369.253+223.557+367.892+223.557C366.531+223.557+365.428+225.928+365.428+228.854C365.428+231.779+366.531+234.151+367.892+234.151C369.253+234.151+370.356+231.779+370.356+228.854Z"/>
<g opacity="1">
<path stroke="#a0a0a0" fill="none" opacity="1" stroke-width="0.724251" stroke-linejoin="round" d="M372.682+155.956L372.682+159.816L364.698+159.816L364.698+155.956L372.682+155.956Z" stroke-linecap="round"/>
<path opacity="1" stroke="#a0a0a0" d="M380.66+155.956L380.66+159.816L372.682+159.816L372.682+155.956L380.66+155.956Z" stroke-linejoin="round" stroke-linecap="round" stroke-width="0.724251" fill="none"/>
<g opacity="1">
<path d="M356.732+155.956L356.732+159.816L348.748+159.816L348.748+155.956L356.732+155.956Z" opacity="1" stroke="#a0a0a0" stroke-linecap="round" stroke-width="0.724251" stroke-linejoin="round" fill="none"/>
<path stroke="#a0a0a0" fill="none" opacity="1" stroke-linecap="round" stroke-width="0.724251" d="M364.71+155.956L364.71+159.816L356.732+159.816L356.732+155.956L364.71+155.956Z" stroke-linejoin="round"/>
</g>
</g>
<path fill="#acacac" stroke-linejoin="round" stroke-width="1.72" opacity="1" d="M380.378+156.053L379.611+156.053L379.611+245.257L380.378+245.257L380.378+156.053Z" stroke="#acacac" stroke-linecap="round"/>
<path opacity="1" stroke="#acacac" d="M372.216+238.952L363.659+238.952L363.659+241.243L372.216+241.243L372.216+238.952Z" fill="none" stroke-width="0.82" stroke-linecap="round" stroke-linejoin="round"/>
<path opacity="1" stroke="#acacac" fill="#070b17" stroke-linejoin="miter" d="M368.282+136.261C368.383+136.261+368.462+136.329+368.462+136.415L368.462+136.434L368.901+136.434C368.926+136.434+368.946+136.457+368.946+136.483L368.946+136.858C368.946+136.883+368.926+136.906+368.901+136.906L368.676+136.906L368.676+137.089C368.676+137.114+368.656+137.137+368.631+137.137L368.406+137.137L368.406+137.31C368.406+137.335+368.386+137.358+368.361+137.358L368.136+137.358L368.136+137.551C368.136+137.576+368.116+137.589+368.091+137.589L367.63+137.589C367.605+137.589+367.585+137.576+367.585+137.551L367.585+137.175L367.147+137.175C367.047+137.175+366.967+137.108+366.967+137.021L366.967+136.415C366.967+136.329+367.047+136.261+367.147+136.261L368.282+136.261Z" stroke-width="0.42" stroke-linecap="butt"/>
<path stroke-linejoin="miter" stroke-linecap="butt" opacity="1" stroke="#acacac" fill="#070b17" d="M357.502+136.456C357.602+136.456+357.682+136.387+357.682+136.473L357.682+137.07C357.682+137.156+357.602+137.233+357.502+137.233L357.052+137.233L357.052+137.618C357.052+137.639+357.026+137.656+356.996+137.656L356.558+137.656C356.528+137.656+356.502+137.639+356.502+137.618L356.502+137.426L356.277+137.426C356.247+137.426+356.221+137.408+356.221+137.387L356.221+137.195L356.018+137.195C355.989+137.195+355.962+137.178+355.962+137.156L355.962+136.964L355.748+136.964C355.719+136.964+355.692+136.947+355.692+136.925L355.692+136.531C355.692+136.509+355.719+136.492+355.748+136.492L356.176+136.492L356.176+136.473C356.176+136.387+356.266+136.553+356.367+136.553L357.502+136.456Z" stroke-width="0.42"/>
<path stroke-width="1.52" stroke="#acacac" stroke-linejoin="round" opacity="1" fill="#acacac" stroke-linecap="round" d="M362.324+128.727C366.342+128.727+369.613+131.347+370.025+134.693L370.699+134.693C370.758+134.693+370.812+134.729+370.812+134.779L370.812+135.549C370.812+135.599+370.758+135.636+370.699+135.636L370.07+135.636L369.811+135.636L369.646+135.639C369.631+135.632+369.628+135.637+369.609+135.637L368.946+135.627C368.953+135.562+368.934+135.452+368.934+135.386C368.934+132.259+365.989+129.718+362.336+129.718C358.683+129.718+355.715+132.259+355.715+135.386C355.715+135.469+355.701+135.544+355.703+135.626L355.129+135.635C355.123+135.635+355.113+135.635+355.108+135.636L354.579+135.636L354.006+135.636C353.947+135.636+353.894+135.599+353.894+135.549L353.894+134.779C353.894+134.729+353.947+134.693+354.006+134.693L354.624+134.693C355.036+131.347+358.307+128.727+362.324+128.727Z"/>
<path stroke-linejoin="round" d="M362.336+129.797C365.989+129.797+368.934+132.379+368.934+135.506C368.934+135.553+368.943+135.607+368.946+135.66L369.643+135.664C369.672+135.678+369.711+135.646+369.711+135.679L369.71+136.407C369.71+136.457+369.667+136.503+369.609+136.503L368.901+136.503L368.721+136.503L367.844+136.503C367.785+136.503+367.647+136.594+367.647+136.544L367.625+135.714L367.61+135.714L357.041+135.714L356.987+135.688L356.985+136.468C356.985+136.518+357.003+136.561+356.945+136.561L355.816+136.561L355.119+136.561C355.06+136.561+355.006+136.515+355.006+136.465L355.006+135.721C355.006+135.676+355.056+135.642+355.108+135.634L355.703+135.618C355.707+135.568+355.715+135.518+355.715+135.464C355.715+132.337+358.683+129.797+362.336+129.797Z" stroke-width="1.12" stroke-linecap="round" opacity="1" stroke="#acacac" fill="#070b17"/>
<path d="M362.321+130.928C365.298+130.928+367.712+133.029+367.712+135.621L367.712+151.289L356.931+151.289L356.931+135.621C356.931+133.029+359.344+130.928+362.321+130.928Z" stroke-width="0.82" stroke="#acacac" opacity="1" fill="#000000" stroke-linecap="round" stroke-linejoin="round"/>
<path stroke-linecap="round" opacity="1" fill="#000000" stroke="#acacac" stroke-width="0.52" d="M362.317+132.229C364.514+132.229+366.315+133.716+366.405+135.577L366.405+135.579L366.405+135.722L366.405+139.643L358.237+139.643L358.237+135.722L358.238+135.575L358.24+135.575C358.33+133.714+360.12+132.229+362.317+132.229Z" stroke-linejoin="round"/>
<path stroke-linecap="round" stroke="#acacac" stroke-width="0.52" fill="#000000" stroke-linejoin="round" opacity="1" d="M366.301+140.821L358.341+140.821L358.341+148.28L366.301+148.28L366.301+140.821Z"/>
<path stroke-width="0.42" opacity="1" d="M340.17+136.261C340.271+136.261+340.35+136.329+340.35+136.415L340.35+136.434L340.788+136.434C340.814+136.434+340.833+136.457+340.833+136.483L340.833+136.858C340.833+136.883+340.814+136.906+340.788+136.906L340.564+136.906L340.564+137.089C340.564+137.114+340.544+137.137+340.519+137.137L340.294+137.137L340.294+137.31C340.294+137.335+340.274+137.358+340.249+137.358L340.024+137.358L340.024+137.551C340.024+137.576+340.004+137.589+339.979+137.589L339.518+137.589C339.493+137.589+339.473+137.576+339.473+137.551L339.473+137.175L339.035+137.175C338.934+137.175+338.855+137.108+338.855+137.021L338.855+136.415C338.855+136.329+338.934+136.261+339.035+136.261L340.17+136.261Z" fill="#070b17" stroke="#acacac" stroke-linecap="butt" stroke-linejoin="miter"/>
<path stroke-linecap="butt" stroke="#acacac" d="M329.39+136.456C329.49+136.456+329.57+136.387+329.57+136.473L329.57+137.07C329.57+137.156+329.49+137.233+329.39+137.233L328.94+137.233L328.94+137.618C328.94+137.639+328.914+137.656+328.884+137.656L328.446+137.656C328.416+137.656+328.389+137.639+328.389+137.618L328.389+137.426L328.165+137.426C328.135+137.426+328.108+137.408+328.108+137.387L328.108+137.195L327.906+137.195C327.876+137.195+327.85+137.178+327.85+137.156L327.85+136.964L327.636+136.964C327.607+136.964+327.58+136.947+327.58+136.925L327.58+136.531C327.58+136.509+327.607+136.492+327.636+136.492L328.063+136.492L328.063+136.473C328.063+136.387+328.154+136.553+328.255+136.553L329.39+136.456Z" stroke-linejoin="miter" stroke-width="0.42" fill="#070b17" opacity="1"/>
<path stroke-linecap="round" d="M334.212+128.727C338.23+128.727+341.501+131.347+341.913+134.693L342.587+134.693C342.646+134.693+342.699+134.729+342.699+134.779L342.699+135.549C342.699+135.599+342.646+135.636+342.587+135.636L341.958+135.636L341.699+135.636L341.534+135.639C341.519+135.632+341.516+135.637+341.497+135.637L340.833+135.627C340.84+135.562+340.822+135.452+340.822+135.386C340.822+132.259+337.877+129.718+334.224+129.718C330.571+129.718+327.603+132.259+327.603+135.386C327.603+135.469+327.589+135.544+327.591+135.626L327.017+135.635C327.011+135.635+327.001+135.635+326.996+135.636L326.467+135.636L325.894+135.636C325.835+135.636+325.781+135.599+325.781+135.549L325.781+134.779C325.781+134.729+325.835+134.693+325.894+134.693L326.512+134.693C326.923+131.347+330.195+128.727+334.212+128.727Z" stroke="#acacac" stroke-width="1.52" fill="#acacac" stroke-linejoin="round" opacity="1"/>
<path stroke-linecap="round" stroke-linejoin="round" d="M334.224+129.797C337.877+129.797+340.822+132.379+340.822+135.506C340.822+135.553+340.83+135.607+340.833+135.66L341.53+135.664C341.56+135.678+341.599+135.646+341.599+135.679L341.598+136.407C341.598+136.457+341.555+136.503+341.497+136.503L340.788+136.503L340.609+136.503L339.732+136.503C339.673+136.503+339.535+136.594+339.535+136.544L339.513+135.714L339.498+135.714L328.929+135.714L328.875+135.688L328.873+136.468C328.873+136.518+328.891+136.561+328.833+136.561L327.704+136.561L327.007+136.561C326.948+136.561+326.894+136.515+326.894+136.465L326.894+135.721C326.894+135.676+326.944+135.642+326.996+135.634L327.591+135.618C327.595+135.568+327.603+135.518+327.603+135.464C327.603+132.337+330.571+129.797+334.224+129.797Z" opacity="1" stroke="#acacac" fill="#070b17" stroke-width="1.12"/>
<path stroke-linecap="round" stroke-linejoin="round" opacity="1" stroke="#acacac" stroke-width="0.82" fill="#000000" d="M334.209+130.928C337.186+130.928+339.6+133.029+339.6+135.621L339.6+151.289L328.819+151.289L328.819+135.621C328.819+133.029+331.232+130.928+334.209+130.928Z"/>
<path stroke-linecap="round" d="M334.205+132.229C336.402+132.229+338.203+133.716+338.293+135.577L338.293+135.579L338.293+135.722L338.293+139.643L330.125+139.643L330.125+135.722L330.126+135.575L330.128+135.575C330.218+133.714+332.008+132.229+334.205+132.229Z" stroke-width="0.52" opacity="1" stroke="#acacac" fill="#000000" stroke-linejoin="round"/>
<path stroke="#acacac" fill="#000000" stroke-width="0.52" stroke-linecap="round" opacity="1" stroke-linejoin="round" d="M338.189+140.821L330.229+140.821L330.229+148.28L338.189+148.28L338.189+140.821Z"/>
<path fill="#acacac" stroke-linejoin="round" stroke-width="0.724251" d="M380.656+155.059L316.942+155.059L316.942+156.774L380.656+156.774L380.656+155.059Z" stroke="#acacac" stroke-linecap="round" opacity="1"/>
<path stroke-linecap="round" d="M317.247+157.088L316.943+157.088L316.943+160.034L317.247+160.034L317.247+157.088Z" stroke-width="0.724251" fill="#ffffff" stroke="#ffffff" opacity="1" stroke-linejoin="round"/>
<path stroke-linecap="round" stroke-linejoin="round" stroke="#808080" stroke-width="1.22" d="M347.376+189.818L331.799+189.818L332.297+190.833L332.84+191.78L346.581+191.78L346.959+190.873L347.376+189.818Z" fill="none" opacity="1"/>
<path stroke-width="0.82" fill="#acacac" d="M328.98+150.95L339.379+150.95L339.379+150.961L328.98+150.961L328.98+150.95Z" opacity="1" stroke="#acacac" stroke-linejoin="round" stroke-linecap="round"/>
<path stroke="#acacac" stroke-width="0.82" opacity="1" d="M357.097+150.943L367.496+150.943L367.496+150.953L357.097+150.953L357.097+150.943Z" stroke-linejoin="round" fill="#acacac" stroke-linecap="round"/>
</g>
<path opacity="1" stroke-width="1.52" fill="#d4d4d4" d="M31.6912+16.8847L0.0486941+16.8847L0.0486941+60.7037L31.6912+60.7037L31.6912+16.8847Z" stroke-linejoin="round" stroke-linecap="round" stroke="#000000"/>
<path fill="#000000" stroke-linejoin="round" d="M31.6779+60.0407L0.136754+60.0407L0.136754+61.9002L31.6779+61.9002L31.6779+60.0407Z" stroke-linecap="round" stroke="#000000" opacity="1" stroke-width="1.72"/>
<path stroke-width="1.72" stroke-linecap="round" stroke="#000000" stroke-linejoin="round" opacity="1" fill="#e2e2e2" d="M31.5714-1.30562e-13L31.5714+0.495865L0.0243897+0.495865L0.0243897+1.75403L0.00503863+1.75403L0.00503863-1.30562e-13L0.929579-1.30562e-13L31.5714-1.30562e-13Z"/>
<path opacity="1" fill="#d4d4d4" d="M0.00279578+1.41432L31.6976+1.41432L31.6976+17.3365L0.00279578+17.3365L0.00279578+1.41432Z" stroke-linecap="round" stroke="#000000" stroke-linejoin="round" stroke-width="1.32"/>
<path opacity="1" stroke="#000000" stroke-linejoin="round" fill="#000000" d="M31.5781+0.546422L31.5781+1.80363L0.00279578+1.80363L0.00279578+0.546422L31.5781+0.546422Z" stroke-width="1.72" stroke-linecap="round"/>
<path fill="#d4d4d4" stroke-width="0.62" stroke-linecap="round" stroke-linejoin="round" d="M15.3549+44.9583L15.3549+57.2852L11.33+57.2852L10.9188+57.2852L6.89063+57.2852L6.89063+44.9583L10.9188+44.9583L11.33+44.9583L15.3549+44.9583Z" stroke="#000000" opacity="1"/>
<path stroke-linejoin="round" opacity="1" stroke-width="0.52" fill="#000000" stroke-linecap="round" d="M15.9152+44.451L15.9152+45.007L15.9152+45.0178L15.9152+45.877L15.9152+46.2164L15.9152+46.942L16.1901+46.942L16.1901+47.1153L15.81+47.1153L15.6604+47.1153L15.2844+47.1153L15.2844+47.0864L15.2844+46.942L15.2844+46.2164L15.2844+45.877L15.2844+45.0178L11.8922+45.0178L10.3073+45.0178L6.91921+45.0178L6.91921+45.877L6.91921+46.2164L6.91921+46.942L6.91921+47.0864L6.91921+47.1153L6.53915+47.1153L6.38956+47.1153L6.01355+47.1153L6.01355+46.942L6.28444+46.942L6.28444+46.2164L6.28444+45.877L6.28444+45.007L6.28848+45.007L6.28848+44.451L10.3073+44.451L11.8922+44.451L15.9152+44.451Z" stroke="#000000"/>
<path stroke-linecap="round" fill="#d4d4d4" d="M10.8209+51.683L7.92222+51.683L7.92222+55.9795L10.8209+55.9795L10.8209+51.683Z" stroke-linejoin="round" stroke-width="0.38" stroke="#000000" opacity="1"/>
<path stroke-linecap="round" fill="#d4d4d4" stroke-linejoin="round" opacity="1" stroke="#000000" d="M10.8196+46.2607L7.92222+46.2607L7.92222+50.5553L10.8196+50.5553L10.8196+46.2607Z" stroke-width="0.38"/>
<path fill="#d4d4d4" d="M14.4077+51.683L11.509+51.683L11.509+55.9795L14.4077+55.9795L14.4077+51.683Z" opacity="1" stroke-linecap="round" stroke-width="0.38" stroke-linejoin="round" stroke="#000000"/>
<path stroke="#000000" stroke-width="0.38" d="M14.4063+46.2383L11.509+46.2383L11.509+50.5329L14.4063+50.5329L14.4063+46.2383Z" stroke-linecap="round" fill="#d4d4d4" opacity="1" stroke-linejoin="round"/>
<path d="M16.2628+57.2917L5.98313+57.2917L6.21179+57.81L6.48721+58.2711L15.8505+58.2705L16.0443+57.8071L16.2628+57.2917Z" stroke-linecap="round" fill="#000000" stroke="#000000" stroke-linejoin="round" opacity="1" stroke-width="0.72"/>
<path stroke-linejoin="round" fill="#000000" d="M15.3895+54.2935L15.7464+54.4703L15.7494+54.9927L15.7603+57.0661L15.3306+57.0661L15.3306+54.2935L15.3895+54.2935Z" stroke-width="0.52" stroke="#000000" stroke-linecap="round" opacity="1"/>
<path fill="#000000" stroke-linecap="round" opacity="1" stroke-width="0.52" stroke-linejoin="round" d="M6.86848+54.3435L6.51155+54.5203L6.50854+55.0426L6.49769+57.1161L6.92739+57.1161L6.92739+54.3435L6.86848+54.3435Z" stroke="#000000"/>
<path stroke-width="0.78" d="M29.1022+44.3452L21.7011+44.3452L21.7011+61.0491L29.1022+61.0491L29.1022+44.3452Z" opacity="1" fill="#d4d4d4" stroke="#000000" stroke-linejoin="round" stroke-linecap="round"/>
<path stroke-width="0.78" opacity="1" fill="#000000" stroke-linejoin="round" stroke-linecap="round" stroke="#000000" d="M30.1648+43.3036L29.1777+44.3336L21.6922+44.3336L20.7051+43.3036L30.1648+43.3036Z"/>
<g opacity="1">
<path fill="#d4d4d4" stroke-linejoin="round" stroke-width="0.724251" stroke="#000000" stroke-linecap="round" d="M11.9351+17.3714L11.9351+19.2942L8.03622+19.2942L8.03622+17.3714L11.9351+17.3714Z" opacity="1"/>
<path opacity="1" stroke="#000000" d="M15.8303+17.3714L15.8303+19.2942L11.9351+19.2942L11.9351+17.3714L15.8303+17.3714Z" stroke-linejoin="round" fill="#d4d4d4" stroke-width="0.724251" stroke-linecap="round"/>
<g opacity="1">
<path opacity="1" stroke-linecap="round" fill="#d4d4d4" stroke="#000000" d="M4.14683+17.3714L4.14683+19.2942L0.247972+19.2942L0.247972+17.3714L4.14683+17.3714Z" stroke-width="0.724251" stroke-linejoin="round"/>
<path stroke-linejoin="round" fill="#d4d4d4" d="M8.04207+17.3714L8.04207+19.2942L4.14683+19.2942L4.14683+17.3714L8.04207+17.3714Z" stroke="#000000" stroke-width="0.724251" stroke-linecap="round" opacity="1"/>
</g>
</g>
<path stroke="#000000" stroke-linecap="round" opacity="1" fill="#d4d4d4" stroke-linejoin="round" d="M27.5329+49.7973L23.2705+49.7973L23.2705+57.6383L27.5329+57.6383L27.5329+49.7973Z" stroke-width="0.52"/>
<path stroke-width="0.52" opacity="1" stroke="#000000" stroke-linejoin="round" d="M27.5206+45.883L23.2581+45.883L23.2581+48.9212L27.5206+48.9212L27.5206+45.883Z" stroke-linecap="round" fill="#d4d4d4"/>
<path stroke="#000000" d="M26.6065+53.6831C26.6065+52.2259+26.0569+51.0447+25.379+51.0447C24.701+51.0447+24.1514+52.2259+24.1514+53.6831C24.1514+55.1403+24.701+56.3216+25.379+56.3216C26.0569+56.3216+26.6065+55.1403+26.6065+53.6831Z" opacity="1" fill="#d4d4d4" stroke-linejoin="round" stroke-width="0.32" stroke-linecap="round"/>
<g opacity="1">
<path stroke-linecap="round" stroke-width="0.724251" opacity="1" fill="#d4d4d4" d="M27.5711+17.3714L27.5711+19.2942L23.6585+19.2942L23.6585+17.3714L27.5711+17.3714Z" stroke="#000000" stroke-linejoin="round"/>
<path stroke-linecap="round" d="M31.48+17.3714L31.48+19.2942L27.5711+19.2942L27.5711+17.3714L31.48+17.3714Z" fill="#d4d4d4" stroke="#000000" opacity="1" stroke-width="0.724251" stroke-linejoin="round"/>
<g opacity="1">
<path stroke-width="0.724251" opacity="1" fill="#d4d4d4" stroke="#000000" stroke-linecap="round" stroke-linejoin="round" d="M19.7554+17.3714L19.7554+19.2942L15.8429+19.2942L15.8429+17.3714L19.7554+17.3714Z"/>
<path stroke-linecap="round" d="M23.6644+17.3714L23.6644+19.2942L19.7554+19.2942L19.7554+17.3714L23.6644+17.3714Z" stroke="#000000" fill="#d4d4d4" stroke-width="0.724251" stroke-linejoin="round" opacity="1"/>
</g>
</g>
<path opacity="1" d="M27.5329+58.7134L23.2705+58.7134L23.2705+59.8544L27.5329+59.8544L27.5329+58.7134Z" stroke-linecap="round" stroke="#000000" stroke-width="0.52" stroke-linejoin="round" fill="#d4d4d4"/>
<path fill="#000000" stroke="#000000" stroke-width="0.32" opacity="1" stroke-linejoin="miter" stroke-linecap="butt" d="M11.5703+7.5637C11.6203+7.5637+11.6599+7.59745+11.6599+7.64039L11.6599+7.64998L11.8783+7.64998C11.8908+7.64998+11.9007+7.66132+11.9007+7.67395L11.9007+7.86088C11.9007+7.87351+11.8908+7.88485+11.8783+7.88485L11.7663+7.88485L11.7663+7.97591C11.7663+7.98854+11.7564+7.99988+11.7439+7.99988L11.6319+7.99988L11.6319+8.08616C11.6319+8.09878+11.622+8.11012+11.6095+8.11012L11.4975+8.11012L11.4975+8.20599C11.4975+8.21861+11.4876+8.22516+11.4751+8.22516L11.2456+8.22516C11.2331+8.22516+11.2232+8.21861+11.2232+8.20599L11.2232+8.01905L11.0048+8.01905C10.9548+8.01905+10.9152+7.98531+10.9152+7.94236L10.9152+7.64039C10.9152+7.59745+10.9548+7.5637+11.0048+7.5637L11.5703+7.5637Z"/>
<path fill="#000000" stroke-linecap="butt" stroke="#000000" stroke-width="0.32" opacity="1" d="M6.20049+7.66086C6.2505+7.66086+6.29008+7.62621+6.29008+7.66915L6.29008+7.96633C6.29008+8.00928+6.2505+8.04781+6.20049+8.04781L5.97651+8.04781L5.97651+8.23954C5.97651+8.25022+5.96327+8.25871+5.94851+8.25871L5.73014+8.25871C5.71539+8.25871+5.70214+8.25022+5.70214+8.23954L5.70214+8.14367L5.59015+8.14367C5.5754+8.14367+5.56215+8.13519+5.56215+8.1245L5.56215+8.02864L5.46137+8.02864C5.44661+8.02864+5.43337+8.02015+5.43337+8.00947L5.43337+7.9136L5.32698+7.9136C5.31223+7.9136+5.29898+7.90512+5.29898+7.89443L5.29898+7.69791C5.29898+7.68723+5.31223+7.67874+5.32698+7.67874L5.53976+7.67874L5.53976+7.66915C5.53976+7.62621+5.58493+7.70893+5.63495+7.70893L6.20049+7.66086Z" stroke-linejoin="miter"/>
<path stroke-linecap="round" stroke-width="0.82" d="M8.60264+3.81067C10.6037+3.81067+12.2334+5.11587+12.4382+6.78242L12.7742+6.78242C12.8034+6.78242+12.8302+6.80058+12.8302+6.82556L12.8302+7.20901C12.8302+7.234+12.8034+7.25215+12.7742+7.25215L12.4606+7.25215L12.3318+7.25215L12.2496+7.25368C12.2422+7.25006+12.2408+7.25298+12.2311+7.25298L11.9007+7.24787C11.9042+7.21551+11.8951+7.16082+11.8951+7.12753C11.8951+5.56994+10.4278+4.30437+8.60824+4.30437C6.78865+4.30437+5.31018+5.56994+5.31018+7.12753C5.31018+7.16919+5.30319+7.20634+5.30458+7.24736L5.0183+7.25154C5.01538+7.25154+5.01066+7.25171+5.00781+7.25215L4.74464+7.25215L4.45907+7.25215C4.42988+7.25215+4.40308+7.234+4.40308+7.20901L4.40308+6.82556C4.40308+6.80058+4.42988+6.78242+4.45907+6.78242L4.76704+6.78242C4.97191+5.11587+6.60159+3.81067+8.60264+3.81067Z" stroke="#000000" fill="#000000" stroke-linejoin="round" opacity="1"/>
<path stroke-linecap="round" stroke-width="0.62" opacity="1" stroke="#000000" stroke-linejoin="round" fill="#e2e2e2" d="M8.60824+4.34354C10.4278+4.34355+11.8951+5.62995+11.8951+7.18754C11.8951+7.21071+11.8992+7.23804+11.9007+7.26423L12.2479+7.26606C12.2628+7.27329+12.2821+7.25706+12.2821+7.27372L12.2815+7.63643C12.2815+7.66142+12.2602+7.68436+12.2311+7.68436L11.8783+7.68436L11.7887+7.68436L11.352+7.68436C11.3228+7.68436+11.2539+7.72938+11.2539+7.7044L11.243+7.29133L11.2355+7.29133L5.97091+7.29133L5.94414+7.27796L5.94285+7.66651C5.94285+7.6915+5.95211+7.71312+5.92292+7.71312L5.36058+7.71312L5.01341+7.71312C4.98422+7.71312+4.95742+7.69018+4.95742+7.66519L4.95742+7.29445C4.95742+7.27196+4.98219+7.25525+5.00781+7.25131L5.30458+7.2434C5.30628+7.21821+5.31018+7.19339+5.31018+7.1667C5.31018+5.60912+6.78865+4.34355+8.60824+4.34354Z"/>
<path stroke-width="0.6" d="M8.60101+4.90738C10.0838+4.90738+11.2861+5.95393+11.2861+7.24458L11.2861+15.0492L5.91592+15.0492L5.91592+7.24458C5.91592+5.95393+7.11825+4.90738+8.60101+4.90738Z" stroke-linejoin="round" opacity="1" fill="#d4d4d4" stroke="#000000" stroke-linecap="round"/>
<path stroke-linejoin="round" stroke-width="0.4" stroke-linecap="round" opacity="1" fill="#d4d4d4" stroke="#000000" d="M8.61599+5.93794C9.63687+5.93794+10.4736+6.62873+10.5153+7.49383L10.5155+7.49455L10.5155+7.56092L10.5155+9.383L6.72+9.383L6.72+7.56092L6.72044+7.49281L6.72141+7.49281C6.7631+6.6277+7.59512+5.93794+8.61599+5.93794Z"/>
<path fill="#d4d4d4" stroke-width="0.4" opacity="1" stroke="#000000" stroke-linejoin="round" stroke-linecap="round" d="M10.485+10.0638L6.78599+10.0638L6.78599+13.5302L10.485+13.5302L10.485+10.0638Z"/>
<path stroke-width="0.724251" stroke-linecap="round" opacity="1" d="M31.7369+16.9247L0+16.9247L0+17.7793L31.7369+17.7793L31.7369+16.9247Z" stroke="#000000" stroke-linejoin="round" fill="#000000"/>
<path stroke="#000000" fill="#e2e2e2" stroke-linejoin="round" opacity="1" stroke-linecap="round" d="M0.151695+17.9355L0.00073183+17.9355L0.00073183+19.4031L0.151695+19.4031L0.151695+17.9355Z" stroke-width="0.724251"/>
<path d="M14.2897+21.95L14.2897+34.2572L11.4288+34.2572L11.1365+34.2572L8.27332+34.2572L8.27332+21.95L11.1365+21.95L11.4288+21.95L14.2897+21.95Z" opacity="1" stroke="#000000" stroke-width="0.62" stroke-linecap="round" fill="#d4d4d4" stroke-linejoin="round"/>
<path stroke-linejoin="round" stroke-width="0.52" stroke-linecap="round" opacity="1" fill="#000000" d="M14.7195+21.3807L14.7195+21.9358L14.7195+21.9466L14.7195+22.8044L14.7195+23.1433L14.7195+23.8677L14.9159+23.8677L14.9159+24.0407L14.6444+24.0407L14.5375+24.0407L14.2688+24.0407L14.2688+24.0119L14.2688+23.8677L14.2688+23.1433L14.2688+22.8044L14.2688+21.9466L11.845+21.9466L10.7125+21.9466L8.29157+21.9466L8.29157+22.8044L8.29157+23.1433L8.29157+23.8677L8.29157+24.0119L8.29157+24.0407L8.02001+24.0407L7.91311+24.0407L7.64444+24.0407L7.64444+23.8677L7.838+23.8677L7.838+23.1433L7.838+22.8044L7.838+21.9358L7.84089+21.9358L7.84089+21.3807L10.7125+21.3807L11.845+21.3807L14.7195+21.3807Z" stroke="#000000"/>
<path opacity="1" stroke-width="0.38" stroke-linejoin="round" stroke-linecap="round" fill="#d4d4d4" stroke="#000000" d="M13.2941+23.2741L9.27807+23.2741L9.27807+27.7165L13.2941+27.7165L13.2941+23.2741Z"/>
<path opacity="1" stroke-linejoin="round" stroke="#000000" stroke-width="0.52" fill="#000000" stroke-linecap="round" d="M14.3527+31.4635L14.6811+31.64L14.6838+32.1615L14.6938+34.2316L14.2985+34.2316L14.2985+31.4635L14.3527+31.4635Z"/>
<path stroke-linecap="round" stroke="#000000" d="M8.19979+31.4919L7.87142+31.6684L7.86865+32.1899L7.85866+34.2601L8.25399+34.2601L8.25399+31.4919L8.19979+31.4919Z" stroke-width="0.52" fill="#000000" stroke-linejoin="round" opacity="1"/>
<path stroke-linejoin="round" stroke="#000000" d="M13.2941+28.5645L9.27807+28.5645L9.27807+33.0069L13.2941+33.0069L13.2941+28.5645Z" fill="#d4d4d4" stroke-width="0.38" opacity="1" stroke-linecap="round"/>
<path opacity="1" d="M15.1596+34.239L7.40036+34.239L7.64867+34.7446L7.91884+35.2163L14.7638+35.2163L14.9518+34.7644L15.1596+34.239Z" stroke-linejoin="round" stroke="#000000" stroke-linecap="round" stroke-width="0.62" fill="#d4d4d4"/>
<path stroke-width="0.82" stroke-linejoin="round" stroke="#000000" stroke-linecap="round" d="M5.99609+14.8781L11.1762+14.8781L11.1762+14.8834L5.99609+14.8834L5.99609+14.8781Z" fill="#000000" opacity="1"/>
<path d="M20.0017+14.8743L25.1818+14.8743L25.1818+14.8796L20.0017+14.8796L20.0017+14.8743Z" opacity="1" fill="#e2e2e2" stroke-width="0.82" stroke="#acacac" stroke-linejoin="round" stroke-linecap="round"/>
<path fill="#000000" stroke-linejoin="miter" opacity="1" stroke-width="0.32" d="M25.5734+7.5637C25.6234+7.5637+25.663+7.59745+25.663+7.64039L25.663+7.64998L25.8814+7.64998C25.8938+7.64998+25.9038+7.66132+25.9038+7.67395L25.9038+7.86088C25.9038+7.87351+25.8938+7.88485+25.8814+7.88485L25.7694+7.88485L25.7694+7.97591C25.7694+7.98854+25.7595+7.99988+25.747+7.99988L25.635+7.99988L25.635+8.08616C25.635+8.09878+25.6251+8.11012+25.6126+8.11012L25.5006+8.11012L25.5006+8.20599C25.5006+8.21861+25.4907+8.22516+25.4782+8.22516L25.2486+8.22516C25.2361+8.22516+25.2262+8.21861+25.2262+8.20599L25.2262+8.01905L25.0079+8.01905C24.9578+8.01905+24.9183+7.98531+24.9183+7.94236L24.9183+7.64039C24.9183+7.59745+24.9578+7.5637+25.0079+7.5637L25.5734+7.5637Z" stroke-linecap="butt" stroke="#000000"/>
<path opacity="1" stroke-width="0.32" fill="#000000" stroke-linecap="butt" stroke="#000000" d="M20.2036+7.66086C20.2536+7.66086+20.2931+7.62621+20.2931+7.66915L20.2931+7.96633C20.2931+8.00928+20.2536+8.04781+20.2036+8.04781L19.9796+8.04781L19.9796+8.23954C19.9796+8.25022+19.9663+8.25871+19.9516+8.25871L19.7332+8.25871C19.7185+8.25871+19.7052+8.25022+19.7052+8.23954L19.7052+8.14367L19.5932+8.14367C19.5785+8.14367+19.5652+8.13519+19.5652+8.1245L19.5652+8.02864L19.4644+8.02864C19.4497+8.02864+19.4364+8.02015+19.4364+8.00947L19.4364+7.9136L19.33+7.9136C19.3153+7.9136+19.302+7.90512+19.302+7.89443L19.302+7.69791C19.302+7.68723+19.3153+7.67874+19.33+7.67874L19.5428+7.67874L19.5428+7.66915C19.5428+7.62621+19.588+7.70893+19.638+7.70893L20.2036+7.66086Z" stroke-linejoin="miter"/>
<path stroke-width="0.82" stroke-linecap="round" stroke-linejoin="round" opacity="1" stroke="#000000" d="M22.6057+3.81067C24.6068+3.81067+26.2364+5.11587+26.4413+6.78242L26.7773+6.78242C26.8064+6.78242+26.8333+6.80058+26.8333+6.82556L26.8333+7.20901C26.8333+7.234+26.8065+7.25215+26.7773+7.25215L26.4637+7.25215L26.3349+7.25215L26.2527+7.25368C26.2452+7.25006+26.2439+7.25298+26.2341+7.25298L25.9038+7.24787C25.9073+7.21551+25.8982+7.16082+25.8982+7.12753C25.8982+5.56994+24.4309+4.30437+22.6113+4.30437C20.7917+4.30437+19.3132+5.56994+19.3132+7.12753C19.3132+7.16919+19.3063+7.20634+19.3076+7.24736L19.0214+7.25154C19.0184+7.25154+19.0137+7.25171+19.0109+7.25215L18.7477+7.25215L18.4621+7.25215C18.4329+7.25215+18.4061+7.234+18.4061+7.20901L18.4061+6.82556C18.4061+6.80058+18.4329+6.78242+18.4621+6.78242L18.7701+6.78242C18.975+5.11587+20.6047+3.81067+22.6057+3.81067Z" fill="#000000"/>
<path d="M22.6113+4.34354C24.4309+4.34355+25.8982+5.62995+25.8982+7.18754C25.8982+7.21071+25.9023+7.23804+25.9038+7.26423L26.2509+7.26606C26.2659+7.27329+26.2851+7.25706+26.2851+7.27372L26.2845+7.63643C26.2845+7.66142+26.2633+7.68436+26.2341+7.68436L25.8814+7.68436L25.7918+7.68436L25.355+7.68436C25.3258+7.68436+25.257+7.72938+25.257+7.7044L25.2461+7.29133L25.2386+7.29133L19.974+7.29133L19.9472+7.27796L19.9459+7.66651C19.9459+7.6915+19.9552+7.71312+19.926+7.71312L19.3636+7.71312L19.0165+7.71312C18.9873+7.71312+18.9605+7.69018+18.9605+7.66519L18.9605+7.29445C18.9605+7.27196+18.9853+7.25525+19.0109+7.25131L19.3076+7.2434C19.3093+7.21821+19.3132+7.19339+19.3132+7.1667C19.3132+5.60912+20.7917+4.34355+22.6113+4.34354Z" stroke-width="0.62" stroke-linejoin="round" stroke-linecap="round" opacity="1" fill="#e2e2e2" stroke="#000000"/>
<path stroke="#000000" stroke-width="0.6" d="M22.6041+4.90738C24.0868+4.90738+25.2892+5.95393+25.2892+7.24458L25.2892+15.0492L19.919+15.0492L19.919+7.24458C19.919+5.95393+21.1213+4.90738+22.6041+4.90738Z" fill="#d4d4d4" stroke-linejoin="round" stroke-linecap="round" opacity="1"/>
<path fill="#d4d4d4" d="M22.6144+6.03088C23.6353+6.03088+24.472+6.72167+24.5137+7.58678L24.5139+7.58749L24.5139+7.65386L24.5139+9.47595L20.7184+9.47595L20.7184+7.65386L20.7188+7.58575L20.7198+7.58575C20.7615+6.72064+21.5935+6.03088+22.6144+6.03088Z" stroke="#000000" opacity="1" stroke-linejoin="round" stroke-linecap="round" stroke-width="0.4"/>
<path d="M24.4431+10.15L20.7441+10.15L20.7441+13.6163L24.4431+13.6163L24.4431+10.15Z" opacity="1" fill="#d4d4d4" stroke="#000000" stroke-linecap="round" stroke-linejoin="round" stroke-width="0.4"/>
<path stroke-width="0.62" d="M28.2324+21.95L28.2324+34.2572L25.3715+34.2572L25.0792+34.2572L22.216+34.2572L22.216+21.95L25.0792+21.95L25.3715+21.95L28.2324+21.95Z" fill="#d4d4d4" opacity="1" stroke-linejoin="round" stroke="#000000" stroke-linecap="round"/>
<path d="M28.6622+21.3807L28.6622+21.9358L28.6622+21.9466L28.6622+22.8044L28.6622+23.1433L28.6622+23.8677L28.8586+23.8677L28.8586+24.0407L28.5871+24.0407L28.4802+24.0407L28.2115+24.0407L28.2115+24.0119L28.2115+23.8677L28.2115+23.1433L28.2115+22.8044L28.2115+21.9466L25.7877+21.9466L24.6552+21.9466L22.2343+21.9466L22.2343+22.8044L22.2343+23.1433L22.2343+23.8677L22.2343+24.0119L22.2343+24.0407L21.9627+24.0407L21.8558+24.0407L21.5871+24.0407L21.5871+23.8677L21.7807+23.8677L21.7807+23.1433L21.7807+22.8044L21.7807+21.9358L21.7836+21.9358L21.7836+21.3807L24.6552+21.3807L25.7877+21.3807L28.6622+21.3807Z" stroke-linecap="round" stroke-width="0.52" fill="#000000" opacity="1" stroke="#000000" stroke-linejoin="round"/>
<path d="M28.2954+31.4635L28.6238+31.64L28.6265+32.1615L28.6365+34.2316L28.2412+34.2316L28.2412+31.4635L28.2954+31.4635Z" stroke="#000000" stroke-width="0.52" stroke-linecap="round" fill="#000000" stroke-linejoin="round" opacity="1"/>
<path d="M22.1425+31.4919L21.8141+31.6684L21.8113+32.1899L21.8014+34.2601L22.1967+34.2601L22.1967+31.4919L22.1425+31.4919Z" stroke="#000000" stroke-linecap="round" fill="#000000" opacity="1" stroke-linejoin="round" stroke-width="0.52"/>
<path opacity="1" fill="#d4d4d4" stroke-linejoin="round" d="M29.1022+34.239L21.343+34.239L21.5914+34.7446L21.8615+35.2163L28.7065+35.2163L28.8945+34.7644L29.1022+34.239Z" stroke="#000000" stroke-linecap="round" stroke-width="0.62"/>
<path fill="#000000" stroke-linecap="round" opacity="1" d="M20.0303+14.8435L25.2105+14.8435L25.2105+14.8487L20.0303+14.8487L20.0303+14.8435Z" stroke-width="0.82" stroke-linejoin="round" stroke="#000000"/>
<path stroke-linecap="round" stroke-width="0.38" d="M27.2829+23.3633L23.2668+23.3633L23.2668+27.8057L27.2829+27.8057L27.2829+23.3633Z" stroke-linejoin="round" fill="#d4d4d4" opacity="1" stroke="#000000"/>
<path stroke="#000000" stroke-linecap="round" opacity="1" stroke-linejoin="round" fill="#d4d4d4" d="M27.2829+28.6537L23.2668+28.6537L23.2668+33.0961L27.2829+33.0961L27.2829+28.6537Z" stroke-width="0.38"/>
</g>
</svg>
