<?xml version="1.0" encoding="UTF-8" standalone="no"?> <!-- Created with Vectornator for iOS (http://vectornator.io/) --><!DOCTYPE svg PUBLIC "-//W3C//DTD SVG 1.1//EN" "http://www.w3.org/Graphics/SVG/1.1/DTD/svg11.dtd">
<svg version="1.1" viewBox="0 0 165.88 19.19" xmlns="http://www.w3.org/2000/svg" xml:space="preserve" height="100%" style="fill-rule:nonzero;clip-rule:evenodd;stroke-linecap:round;stroke-linejoin:round;" xmlns:vectornator="http://vectornator.io" xmlns:xlink="http://www.w3.org/1999/xlink" width="100%">
<metadata>
<vectornator:setting key="IsTimeLapseWatermarkDisabled" value="false"/>
<vectornator:setting value="true" key="WDGuidesVisible"/>
<vectornator:setting value="true" key="VNDimensionsVisible"/>
<vectornator:setting value="Pixels" key="WDUnits"/>
<vectornator:setting key="WDDisplayWhiteBackground" value="false"/>
<vectornator:setting value="false" key="VNPencilOnly"/>
<vectornator:setting value="false" key="WDSnapToPoints"/>
<vectornator:setting value="false" key="WDSnapToEdges"/>
<vectornator:setting key="UndoHistoryDisabled" value="false"/>
<vectornator:setting key="WDIsolateActiveLayer" value="false"/>
<vectornator:setting key="WDRulersVisible" value="true"/>
<vectornator:setting key="VNSnapToGuides" value="true"/>
<vectornator:setting key="WDDynamicGuides" value="false"/>
<vectornator:setting value="false" key="WDSnapToGrid"/>
<vectornator:setting value="false" key="WDCMYKEnabledKey"/>
<vectornator:setting value="false" key="WDOutlineMode"/>
</metadata>
<defs/>
<g vectornator:layerName="Layer 2" id="Layer 2">
<path fill="#18283b" opacity="1" d="M247.281+3.84375L247.281+19.2812L298.594+19.2812L298.594+3.84375L247.281+3.84375Z"/>
<path stroke="#000000" stroke-width="0.32" fill="#6c7e93" stroke-linejoin="round" d="M247.875+0.625L247.875+4.625C252.975+4.97521+256.563+5.6875+256.562+5.6875L256.562+5.625C257.118+5.73915+269.75+8.32643+281.406+5.625C287.293+4.26076+293.615+4.23516+298.594+4.53125L298.594+0.5625C293.786+0.121902+287.648+0.132611+281.781+2.03125C270.072+5.82041+257.339+2.25386+256.781+2.09375C256.781+2.09375+253.086+1.11029+247.875+0.625Z" opacity="1" stroke-linecap="round"/>
<path stroke="#000000" fill="#000000" stroke-width="0.724251" d="M247.875+0.15625L247.875+0.625C253.167+1.10622+256.969+2.125+256.969+2.125C257.525+2.28594+270.176+5.87134+281.844+2.0625C287.555+0.19819+293.655+0.15699+298.594+0.5625L298.594+0.15625L256.469+0.15625C256.469+0.15625+256.469+0.186915+256.469+0.1875L247.875+0.15625Z" stroke-linejoin="round" stroke-linecap="round" opacity="1"/>
<path stroke-width="0.32" stroke-linejoin="round" fill="#6c7e93" d="M82.8378+4.0431L83.0064+4.05607C83.0365+4.05607+83.0379+4.09477+83.0379+4.18381L83.0379+6.34627C83.0379+6.40435+83.0093+6.26477+82.9811+6.16067C82.9661+6.10518+82.9511+6.05977+82.9406+6.05977L83.0578+6.41032C83.0277+6.41032+82.8916+6.43244+82.8916+6.34341L82.929+4.18381C82.929+4.09477+82.8077+4.0431+82.8378+4.0431Z" stroke-linecap="round" stroke="#6c7e93" opacity="1"/>
<path opacity="1" d="M0.0603955+18.875L0.0603955+19.2812L0.279149+19.2812C0.159373+19.2812+0.0603955+19.0959+0.0603955+18.875Z" fill="#383f2e"/>
<path opacity="1" fill="#6c7e93" d="M43.2589+0.527829L43.2589+0.527829C43.3219+0.527829+43.373+0.623077+43.373+0.74057L43.373+4.13857C43.373+4.1958+43.3921+4.2811+43.3724+4.31934C43.3516+4.35961+43.2912+4.35131+43.2589+4.35131L43.2589+4.35131C43.228+4.35131+43.1834+4.34566+43.1628+4.30858C43.1414+4.26991+43.1447+4.19856+43.1447+4.13857L43.1266+0.716686C43.1266+0.648758+43.0937+0.561134+43.1254+0.52892C43.1486+0.505415+43.2323+0.527829+43.2589+0.527829Z"/>
<path fill="#6c7e93" d="M82.9249+3.57315L82.9136+3.57007C82.9649+3.57007+83.0565+3.56197+83.0776+3.58009C83.1211+3.6174+83.14+3.74177+83.14+3.84832L83.1039+6.15009C83.1039+6.21899+83.1016+6.25524+83.1021+6.31838C83.1027+6.39288+83.1866+6.45865+83.098+6.45865L82.8862+6.45812C82.7293+6.45812+82.7+6.31696+82.7+6.15869L82.7+3.84223C82.7+3.68397+82.768+3.57315+82.9249+3.57315Z" opacity="1"/>
<path stroke-width="0.724251" stroke-linecap="round" stroke="#000000" stroke-linejoin="round" fill="#000000" opacity="1" d="M43.2384+0.18054L43.2334+0.434408C39.468+0.710782+36.813+2+36.813+2L36.7949+1.96875C36.6399+2.04665+29.1031+5.79144+22.2226+1.9375C15.1436-2.0276+6.83469+1.9375+6.8347+1.9375C6.63457+2.03689+3.8118+3.11776+0.0379264+3.28125L0.0560511+0L6.8347+0C6.8347-8.12194e-08+6.8347+0.0619165+6.8347+0.0625L36.6137+0.0625C36.6137+0.0625002+36.6137+0.153036+36.6137+0.15625L43.2384+0.18054Z"/>
<path d="M43.2663+0.617081L43.2633+0.640286C43.1949+0.640286+43.1551+0.623077+43.1551+0.74057L43.1551+4.13857C43.1551+4.1958+43.1344+4.2811+43.1558+4.31934C43.1783+4.35961+43.2438+4.35131+43.2788+4.35131L43.2788+4.35131C43.3123+4.35131+43.3966+4.35167+43.4188+4.3146C43.4421+4.27592+43.4026+4.19856+43.4026+4.13857L43.4222+0.716686C43.4222+0.648758+43.5106+0.616835+43.4763+0.584621C43.4512+0.561116+43.2952+0.617081+43.2663+0.617081Z" opacity="1" fill="#6c7e93"/>
<path d="M43.3543+4.40598L43.3873+4.40598C43.4246+4.40598+43.4549+4.46647+43.4549+4.54108L43.4549+4.54108C43.4549+4.61569+43.4246+4.67618+43.3873+4.67618L43.3543+4.67618C43.317+4.67618+43.2867+4.61569+43.2867+4.54108L43.2867+4.54108C43.2867+4.46647+43.317+4.40598+43.3543+4.40598Z" opacity="1" fill="#000000"/>
<path stroke-width="0.32" stroke="#6c7e93" fill="#6c7e93" d="M83.0422+4.0431L82.8736+4.05607C82.8435+4.05607+82.8421+4.09477+82.8421+4.18381L82.8421+6.34627C82.8421+6.40435+82.8707+6.26477+82.8989+6.16067C82.9139+6.10518+82.9289+6.05977+82.9394+6.05977L82.8222+6.41032C82.8523+6.41032+82.9884+6.43244+82.9884+6.34341L82.951+4.18381C82.951+4.09477+83.0723+4.0431+83.0422+4.0431Z" stroke-linecap="round" stroke-linejoin="round" opacity="1"/>
<path fill="#383f2e" d="M165.82+18.875L165.82+19.2812L165.601+19.2812C165.721+19.2812+165.82+19.0959+165.82+18.875Z" opacity="1"/>
<path fill="#6c7e93" d="M122.621+0.527829L122.621+0.527829C122.558+0.527829+122.507+0.623077+122.507+0.74057L122.507+4.13857C122.507+4.1958+122.488+4.2811+122.508+4.31934C122.528+4.35961+122.589+4.35131+122.621+4.35131L122.621+4.35131C122.652+4.35131+122.697+4.34566+122.717+4.30858C122.739+4.26991+122.735+4.19856+122.735+4.13857L122.753+0.716686C122.753+0.648758+122.786+0.561134+122.755+0.52892C122.731+0.505415+122.648+0.527829+122.621+0.527829Z" opacity="1"/>
<path stroke-width="0.724251" fill="#000000" d="M76.6875+0C76.6875-8.12194e-08+76.6875+0.0619165+76.6875+0.0625L49.375+0.0625C49.375+0.0625002+49.375+0.153036+49.375+0.15625L43.2812+0.1875L43.3125+0.4375C46.7652+0.713873+49.1875+2+49.1875+2L49.2188+1.96875C49.3609+2.04665+56.2534+5.79144+62.5625+1.9375C69.0536-2.0276+76.6875+1.9375+76.6875+1.9375C76.8684+2.03546+79.4869+3.12421+82.875+3.3125L82.875+3.34375C82.8989+3.34262+82.9137+3.34497+82.9375+3.34375C82.9613+3.34497+82.9761+3.34262+83+3.34375L83+3.3125C86.3881+3.12421+89.0379+2.03546+89.2188+1.9375C89.2187+1.9375+96.8214-2.0276+103.312+1.9375C109.622+5.79144+116.545+2.04665+116.688+1.96875L116.688+2C116.687+2+119.141+0.713873+122.594+0.4375L122.594+0.1875L116.5+0.15625C116.5+0.153036+116.5+0.0625002+116.5+0.0625L89.2188+0.0625C89.2188+0.0619165+89.2188-8.12194e-08+89.2188+0L83+0L82.9375+1.4375L82.9062+0L76.6875+0Z" opacity="1" stroke-linejoin="round" stroke-linecap="round" stroke="#000000"/>
<path d="M82.9551+3.57315L82.9664+3.57007C82.9151+3.57007+82.8235+3.56197+82.8024+3.58009C82.7589+3.6174+82.74+3.74177+82.74+3.84832L82.7761+6.15009C82.7761+6.21899+82.7784+6.25524+82.7779+6.31838C82.7773+6.39288+82.6934+6.45865+82.782+6.45865L82.9938+6.45812C83.1507+6.45812+83.18+6.31696+83.18+6.15869L83.18+3.84223C83.18+3.68397+83.112+3.57315+82.9551+3.57315Z" opacity="1" fill="#6c7e93"/>
<path d="M-0.09375+3.75L-0.09375+19.1875L43.0625+19.1875L43.3125+19.1875L82.8125+19.1875L83.0625+19.1875L122.562+19.1875L122.812+19.1875L165.938+19.1875L165.938+3.75L122.812+3.75L122.562+3.75L83.0625+3.75L82.8125+3.75L43.3125+3.75L43.0625+3.75L-0.09375+3.75Z" fill="#18283b" opacity="1"/>
<path stroke-width="0.724251" stroke-linecap="round" d="M122.642+0.18054L122.647+0.434408C126.396+0.710782+129.04+2+129.04+2L129.058+1.96875C129.213+2.04665+136.718+5.79144+143.57+1.9375C150.62-2.0276+158.894+1.9375+158.894+1.9375C159.093+2.03689+161.904+3.11776+165.663+3.28125L165.645+0L158.894+0C158.894-8.12194e-08+158.894+0.0619165+158.894+0.0625L129.239+0.0625C129.239+0.0625002+129.239+0.153036+129.239+0.15625L122.642+0.18054Z" opacity="1" stroke="#000000" fill="#000000" stroke-linejoin="round"/>
<path stroke-linecap="round" stroke="#000000" stroke-width="0.32" stroke-linejoin="round" fill="#6c7e93" opacity="1" d="M17.1875+0.25C11.9366-0.305258+7.34375+1.90625+7.34375+1.90625C7.14137+2.00753+4.04923+3.30025+0.1875+3.40625L0.125+6.625C3.92112+6.52062+6.98776+5.57158+7.1875+5.5L7.1875+5.53125C7.18751+5.53125+15.3801+2.71622+22.3438+5.53125C29.1122+8.26736+36.535+5.58655+36.6875+5.53125C36.6875+5.53125+39.5117+4.67108+43.3125+4.53125L43.3125+4.5C46.7738+4.6517+49.3438+5.53125+49.3438+5.53125C49.4845+5.58655+56.3144+8.26736+62.5625+5.53125C68.9908+2.71622+76.5625+5.53125+76.5625+5.53125L76.5625+5.5C76.743+5.57008+79.4443+6.45798+82.8438+6.59375L82.8438+6.625C82.8799+6.62392+82.9015+6.62625+82.9375+6.625C82.9735+6.62625+82.9951+6.62392+83.0312+6.625L83.0312+6.59375C86.4307+6.45798+89.132+5.57008+89.3125+5.5L89.3125+5.53125C89.3125+5.53125+96.8842+2.71622+103.312+5.53125C109.561+8.26736+116.391+5.58655+116.531+5.53125C116.531+5.53125+119.101+4.6517+122.562+4.5L122.562+4.53125C126.363+4.67108+129.188+5.53125+129.188+5.53125C129.34+5.58655+136.763+8.26736+143.531+5.53125C150.495+2.71622+158.687+5.53125+158.688+5.53125L158.688+5.5C158.887+5.57158+161.941+6.50266+165.737+6.60704L165.688+3.40625C161.826+3.30025+158.734+2.00753+158.531+1.90625C158.531+1.90625+153.938-0.305258+148.688+0.25C146.937+0.435086+145.124+0.919125+143.375+1.90625C136.576+5.74405+129.528+2.32757+129.375+2.25L128.938+2C128.937+2+126.343+0.72653+122.688+0.40625C122.688+0.395152+122.688+0.387413+122.688+0.375C122.662+0.377137+122.65+0.404004+122.625+0.40625C122.594+0.403637+122.563+0.377467+122.531+0.375C122.531+0.387413+122.531+0.395152+122.531+0.40625C119.164+0.728647+116.781+2+116.781+2L116.375+2.25C116.234+2.32757+109.714+5.74405+103.438+1.90625C96.9799-2.04225+89.4375+1.90625+89.4375+1.90625C89.2526+2.00652+86.4525+3.27804+82.9375+3.40625C79.4225+3.27804+76.6224+2.00652+76.4375+1.90625C76.4375+1.90625+68.8951-2.04225+62.4375+1.90625C56.161+5.74405+49.6414+2.32757+49.5+2.25L49.0938+2C49.0938+2+46.7114+0.728647+43.3438+0.40625C43.3437+0.395152+43.3439+0.387413+43.3438+0.375C43.3123+0.377467+43.2813+0.403637+43.25+0.40625C43.225+0.404004+43.2126+0.377137+43.1875+0.375C43.1874+0.387413+43.1875+0.395152+43.1875+0.40625C39.5318+0.72653+36.9375+2+36.9375+2L36.5+2.25C36.3469+2.32757+29.2993+5.74405+22.5+1.90625C20.7512+0.919125+18.9378+0.435086+17.1875+0.25Z"/>
<path d="M122.614+0.617081L122.617+0.640286C122.685+0.640286+122.725+0.623077+122.725+0.74057L122.725+4.13857C122.725+4.1958+122.746+4.2811+122.724+4.31934C122.702+4.35961+122.636+4.35131+122.601+4.35131L122.601+4.35131C122.568+4.35131+122.483+4.35167+122.461+4.3146C122.438+4.27592+122.477+4.19856+122.477+4.13857L122.458+0.716686C122.458+0.648758+122.369+0.616835+122.404+0.584621C122.429+0.561116+122.585+0.617081+122.614+0.617081Z" fill="#6c7e93" opacity="1"/>
<path fill="#000000" opacity="1" d="M122.526+4.40598L122.493+4.40598C122.455+4.40598+122.425+4.46647+122.425+4.54108L122.425+4.54108C122.425+4.61569+122.455+4.67618+122.493+4.67618L122.526+4.67618C122.563+4.67618+122.593+4.61569+122.593+4.54108L122.593+4.54108C122.593+4.46647+122.563+4.40598+122.526+4.40598Z"/>
<path d="M0.167743+3.56789L0.163175+3.56595C0.0726992+3.56595-0.0644893+3.55669-0.101765+3.57484C-0.178554+3.61225-0.211892+3.73692-0.211892+3.84372L-0.148181+6.15102C-0.148181+6.22009-0.144116+6.25642-0.145002+6.31972C-0.146048+6.39439-0.294177+6.46032-0.13785+6.46032L0.235963+6.45979C0.512823+6.45979+0.564611+6.3183+0.564611+6.15965L0.564611+3.83762C0.564611+3.73434+0.462772+3.60981+0.424517+3.58606C0.386262+3.56231+0.264374+3.56789+0.167743+3.56789Z" opacity="1" fill="#6c7e93"/>
<path d="M165.7+3.56166L165.408+3.57148C165.472+3.57148+165.863+3.55043+165.889+3.56862C165.943+3.60611+165.967+3.73105+165.967+3.83808L165.922+6.15035C165.922+6.21957+165.919+6.25598+165.92+6.31942C165.92+6.39425+166.025+6.46032+165.915+6.46032L165.652+6.45979C165.457+6.45979+165.421+6.31799+165.421+6.159L165.421+3.83197C165.421+3.77256+165.346+3.66904+165.371+3.62627C165.413+3.55456+165.578+3.56166+165.7+3.56166Z" opacity="1" fill="#6c7e93"/>
</g>
</svg>
