<?xml version="1.0" encoding="UTF-8" standalone="no"?> <!-- Created with Vectornator for iOS (http://vectornator.io/) --><!DOCTYPE svg PUBLIC "-//W3C//DTD SVG 1.1//EN" "http://www.w3.org/Graphics/SVG/1.1/DTD/svg11.dtd">
<svg height="100%" xmlns="http://www.w3.org/2000/svg" width="100%" version="1.1" xmlns:xlink="http://www.w3.org/1999/xlink" xml:space="preserve" style="fill-rule:nonzero;clip-rule:evenodd;stroke-linecap:round;stroke-linejoin:round;" viewBox="0 0 48.55 66.9848" xmlns:vectornator="http://vectornator.io">
<metadata>
<vectornator:setting value="false" key="WDDisplayWhiteBackground"/>
<vectornator:setting key="WDRulersVisible" value="true"/>
<vectornator:setting key="WDGuidesVisible" value="true"/>
<vectornator:setting key="WDOutlineMode" value="false"/>
<vectornator:setting key="VNSnapToGuides" value="true"/>
<vectornator:setting key="WDSnapToEdges" value="false"/>
<vectornator:setting key="WDSnapToGrid" value="false"/>
<vectornator:setting key="WDDynamicGuides" value="false"/>
<vectornator:setting key="WDIsolateActiveLayer" value="false"/>
<vectornator:setting key="WDCMYKEnabledKey" value="false"/>
<vectornator:setting key="WDUnits" value="Pixels"/>
<vectornator:setting key="IsTimeLapseWatermarkDisabled" value="false"/>
<vectornator:setting value="false" key="UndoHistoryDisabled"/>
<vectornator:setting key="VNDimensionsVisible" value="true"/>
<vectornator:setting key="WDSnapToPoints" value="false"/>
<vectornator:setting key="VNPencilOnly" value="false"/>
</metadata>
<defs/>
<g vectornator:layerName="Layer 1" id="Layer 1">
<path d="M58.5698+116.597L70.5103+116.597L70.5103+116.954L58.5698+116.954L58.5698+116.597Z" opacity="1" stroke="#000000" stroke-width="0.12" fill="#000000" stroke-linejoin="miter" stroke-linecap="butt"/>
<g opacity="1">
<path d="M0.000998954+1.96511L48.8473+1.96511L48.8473+67.3935L0.000998954+67.3935L0.000998954+1.96511Z" stroke="#000000" stroke-linecap="round" stroke-width="2.02" opacity="1" fill="#e2e2e2" stroke-linejoin="round"/>
<path d="M0.336105+18.3476L48.8305+18.3476L48.8305+67.6543L0.336105+67.6543L0.336105+18.3476Z" stroke="#000000" fill="#e2e2e2" stroke-linejoin="round" opacity="1" stroke-width="1.52" stroke-linecap="round"/>
<path stroke="#000000" stroke-linejoin="round" stroke-linecap="round" d="M25.9441+47.7298L25.9441+62.0563L33.3821+62.0563L34.1421+62.0563L41.586+62.0563L41.586+47.7298L34.1421+47.7298L33.3821+47.7298L25.9441+47.7298Z" opacity="1" stroke-width="0.62" fill="#e2e2e2"/>
<path d="M41.7265+59.3621L42.2272+59.5333L42.2314+60.0392L42.2466+62.0473L41.6439+62.0473L41.6439+59.3621L41.7265+59.3621Z" stroke="#000000" stroke-width="0.52" opacity="1" fill="#000000" stroke-linecap="round" stroke-linejoin="round"/>
<path d="M25.7606+59.3484L25.2542+59.5212L25.2499+60.0318L25.2345+62.0584L25.8442+62.0584L25.8442+59.3484L25.7606+59.3484Z" opacity="1" stroke="#000000" stroke-linejoin="round" fill="#000000" stroke-linecap="round" stroke-width="0.52"/>
<path stroke-linejoin="miter" d="M25.049+46.3119L25.049+47.0713L25.049+47.3482L25.142+47.3482L25.142+47.4783C25.142+47.4909+25.1488+47.4867+25.1635+47.4867L25.2637+47.4867L25.2637+47.6C25.2636+47.6126+25.2776+47.621+25.2923+47.621L25.4068+47.621L25.4068+47.7091L25.6787+47.7091L33.7579+47.7091L33.7794+47.7091L41.8586+47.7091L42.1306+47.7091L42.1306+47.621L42.2379+47.621C42.2525+47.621+42.2665+47.6126+42.2665+47.6L42.2665+47.4867L42.3667+47.4867C42.3813+47.4867+42.3953+47.4909+42.3953+47.4783L42.3953+47.3482L42.4812+47.3482L42.4812+47.0713L42.4812+46.3119L33.7794+46.3119L33.7579+46.3119L25.049+46.3119Z" stroke="#000000" fill="#e2e2e2" stroke-linecap="butt" stroke-width="0.52" opacity="1"/>
<path stroke="#000000" stroke-width="0.52" d="M23.9875+45.2295L43.3551+45.2295L43.3551+46.2931L23.9875+46.2931L23.9875+45.2295Z" fill="#e2e2e2" stroke-linejoin="miter" opacity="1" stroke-linecap="butt"/>
<path opacity="1" fill="#000000" d="M23.6548+44.7761L43.6877+44.7761L43.689+44.9118L43.5198+44.9134L43.3591+45.0521L23.9725+45.0454L23.8566+44.9231L23.6554+44.9191L23.6548+44.7761Z" stroke-linecap="butt" stroke="#000000" stroke-width="0.82" stroke-linejoin="miter"/>
<path stroke-linejoin="miter" d="M23.3843+44.536L43.9583+44.536L43.9583+44.7337L23.3843+44.7337L23.3843+44.536Z" opacity="1" fill="#000000" stroke-linecap="butt" stroke-width="0.82" stroke="#000000"/>
<path fill="#000000" stroke-width="0.4" opacity="1" d="M33.4487+46.2913L34.0815+46.2913L34.0815+47.6959L33.4487+47.6959L33.4487+46.2913Z" stroke-linejoin="miter" stroke="#000000" stroke-linecap="butt"/>
<path stroke-linejoin="miter" stroke-linecap="butt" fill="#e2e2e2" stroke-width="0.4" stroke="#000000" opacity="1" d="M33.4778+46.9732L34.0545+46.9732L34.0545+47.6959L33.4778+47.6959L33.4778+46.9732Z"/>
<path fill="#000000" stroke-linecap="butt" stroke-width="0.4" stroke-linejoin="miter" stroke="#000000" d="M39.9837+46.3084L40.6166+46.3084L40.6166+47.7131L39.9837+47.7131L39.9837+46.3084Z" opacity="1"/>
<path stroke-width="0.4" stroke-linejoin="miter" opacity="1" stroke="#000000" fill="#e2e2e2" stroke-linecap="butt" d="M40.0129+46.9903L40.5896+46.9903L40.5896+47.7131L40.0129+47.7131L40.0129+46.9903Z"/>
<path stroke-linejoin="miter" stroke-width="0.4" d="M26.8646+46.2913L27.4975+46.2913L27.4975+47.6959L26.8646+47.6959L26.8646+46.2913Z" fill="#000000" opacity="1" stroke-linecap="butt" stroke="#000000"/>
<path stroke-linecap="butt" d="M26.8938+46.9732L27.4705+46.9732L27.4705+47.6959L26.8938+47.6959L26.8938+46.9732Z" stroke="#000000" opacity="1" stroke-linejoin="miter" fill="#e2e2e2" stroke-width="0.4"/>
<path opacity="1" fill="#000000" stroke-linejoin="miter" stroke-width="0.42" d="M23.933+62.0463L43.4387+62.0463L43.4387+62.3186L23.933+62.3186L23.933+62.0463Z" stroke-linecap="butt" stroke="#000000"/>
<path d="M23.9678+62.3224L43.3978+62.3224L43.3978+64.3908L23.9678+64.3908L23.9678+62.3224Z" stroke="#000000" stroke-linejoin="miter" fill="#e2e2e2" opacity="1" stroke-width="0.52" stroke-linecap="butt"/>
<path d="M25.2507+63.2395L33.0679+63.2395L33.0679+63.4737L25.2507+63.4737L25.2507+63.2395Z" stroke-width="0.12" opacity="1" stroke-linejoin="miter" stroke="#000000" stroke-linecap="butt" fill="#000000"/>
<path stroke="#000000" stroke-linejoin="round" opacity="1" stroke-width="0.38" d="M27.6651+48.3302L27.6651+50.2188L29.035+50.2188L29.1749+50.2188L30.5459+50.2188L30.5459+48.3302L29.1749+48.3302L29.035+48.3302L27.6651+48.3302Z" stroke-linecap="round" fill="#e2e2e2"/>
<path stroke-linejoin="round" stroke-linecap="round" stroke="#000000" fill="#e2e2e2" d="M31.2172+48.3302L31.2172+50.2188L33.6547+50.2188L33.9038+50.2188L36.3432+50.2188L36.3432+48.3302L33.9038+48.3302L33.6547+48.3302L31.2172+48.3302Z" opacity="1" stroke-width="0.38"/>
<path d="M37.0023+48.3302L37.0023+50.2188L38.3722+50.2188L38.5121+50.2188L39.8831+50.2188L39.8831+48.3302L38.5121+48.3302L38.3722+48.3302L37.0023+48.3302Z" stroke-width="0.38" fill="#e2e2e2" stroke-linejoin="round" stroke-linecap="round" opacity="1" stroke="#000000"/>
<path stroke-width="0.38" stroke="#000000" stroke-linejoin="round" d="M27.6651+50.9179L27.6651+55.9122L29.035+55.9122L29.175+55.9122L30.546+55.9122L30.546+50.9179L29.175+50.9179L29.035+50.9179L27.6651+50.9179Z" stroke-linecap="round" opacity="1" fill="#e2e2e2"/>
<path stroke-linecap="round" stroke-width="0.38" stroke-linejoin="round" d="M27.6651+56.311L27.6651+61.3053L29.035+61.3053L29.175+61.3053L30.546+61.3053L30.546+56.311L29.175+56.311L29.035+56.311L27.6651+56.311Z" stroke="#000000" fill="#e2e2e2" opacity="1"/>
<path fill="#e2e2e2" stroke-width="0.38" d="M37.0023+50.9179L37.0023+55.9122L38.3721+55.9122L38.5121+55.9122L39.8831+55.9122L39.8831+50.9179L38.5121+50.9179L38.3721+50.9179L37.0023+50.9179Z" stroke-linecap="round" stroke-linejoin="round" stroke="#000000" opacity="1"/>
<path stroke="#000000" stroke-width="0.38" d="M37.0023+56.311L37.0023+61.3053L38.3721+61.3053L38.5121+61.3053L39.8831+61.3053L39.8831+56.311L38.5121+56.311L38.3721+56.311L37.0023+56.311Z" opacity="1" stroke-linejoin="round" stroke-linecap="round" fill="#e2e2e2"/>
<path fill="#e2e2e2" stroke-width="0.38" stroke-linejoin="round" opacity="1" d="M31.2172+50.9179L31.2172+61.311L33.6547+61.311L33.9038+61.311L36.3432+61.311L36.3432+50.9179L33.9038+50.9179L33.6547+50.9179L31.2172+50.9179Z" stroke-linecap="round" stroke="#000000"/>
<path fill="#e2e2e2" stroke-width="0.62" d="M5.39473+25.2272L5.39473+36.9685L8.95136+36.9685L9.31475+36.9685L12.8742+36.9685L12.8742+25.2272L9.31475+25.2272L8.95136+25.2272L5.39473+25.2272Z" opacity="1" stroke="#000000" stroke-linejoin="round" stroke-linecap="round"/>
<path stroke-linecap="round" stroke="#000000" fill="#e2e2e2" stroke-width="0.38" stroke-linejoin="round" d="M6.5113+31.2238L11.7577+31.2238L11.7577+36.0758L6.5113+36.0758L6.5113+31.2238Z" opacity="1"/>
<path opacity="1" stroke-linejoin="round" stroke-linecap="round" d="M6.5113+25.9806L11.7577+25.9806L11.7577+30.7833L6.5113+30.7833L6.5113+25.9806Z" fill="#e2e2e2" stroke="#000000" stroke-width="0.38"/>
<path stroke-width="0.42" stroke-linejoin="miter" stroke-linecap="butt" stroke="#000000" opacity="1" fill="#e2e2e2" d="M4.96669+24.0599L4.96669+24.6851L4.96669+24.913L5.01117+24.913L5.01117+25.0201C5.01117+25.0305+5.01444+25.027+5.02144+25.027L5.06934+25.027L5.06934+25.1203C5.06934+25.1307+5.07603+25.1376+5.08303+25.1376L5.13778+25.1376L5.13778+25.2101L5.26781+25.2101L9.13107+25.2101L9.14133+25.2101L13.0046+25.2101L13.1346+25.2101L13.1346+25.1376L13.1859+25.1376C13.1929+25.1376+13.1996+25.1307+13.1996+25.1203L13.1996+25.027L13.2475+25.027C13.2545+25.027+13.2612+25.0305+13.2612+25.0201L13.2612+24.913L13.3023+24.913L13.3023+24.6851L13.3023+24.0599L9.14133+24.0599L9.13107+24.0599L4.96669+24.0599Z"/>
<g opacity="1">
<path stroke="#000000" d="M4.55014+23.4693L4.55014+23.7847L4.55014+23.8997L4.59907+23.8997L4.59907+23.9537C4.59907+23.959+4.60267+23.9572+4.61036+23.9572L4.66306+23.9572L4.66306+24.0042C4.66305+24.0095+4.67041+24.013+4.67811+24.013L4.73833+24.013L4.73833+24.0495L4.88136+24.0495L9.13072+24.0495L9.14202+24.0495L13.3914+24.0495L13.5344+24.0495L13.5344+24.013L13.5909+24.013C13.5986+24.013+13.6059+24.0095+13.6059+24.0042L13.6059+23.9572L13.6586+23.9572C13.6663+23.9572+13.6737+23.959+13.6737+23.9537L13.6737+23.8997L13.7188+23.8997L13.7188+23.7847L13.7188+23.4693L9.14202+23.4693L9.13072+23.4693L4.55014+23.4693Z" stroke-width="0.8" stroke-linecap="butt" fill="#000000" stroke-linejoin="miter" opacity="1"/>
<path stroke-linejoin="miter" stroke-width="0.52" opacity="1" fill="#000000" d="M4.5512+23.6406L13.7178+23.6406L13.7178+23.7769L4.5512+23.7769L4.5512+23.6406Z" stroke-linecap="butt" stroke="#000000"/>
</g>
<path stroke="#000000" d="M20.8602+25.2272L20.8602+36.9685L24.4169+36.9685L24.7803+36.9685L28.3398+36.9685L28.3398+25.2272L24.7803+25.2272L24.4169+25.2272L20.8602+25.2272Z" stroke-width="0.62" stroke-linejoin="round" opacity="1" stroke-linecap="round" fill="#e2e2e2"/>
<path stroke="#000000" stroke-width="0.38" stroke-linecap="round" fill="#e2e2e2" stroke-linejoin="round" d="M21.9768+31.2238L27.2232+31.2238L27.2232+36.0758L21.9768+36.0758L21.9768+31.2238Z" opacity="1"/>
<path stroke-width="0.38" stroke-linejoin="round" d="M21.9768+25.9806L27.2232+25.9806L27.2232+30.7833L21.9768+30.7833L21.9768+25.9806Z" fill="#e2e2e2" stroke-linecap="round" opacity="1" stroke="#000000"/>
<path opacity="1" stroke-width="0.42" stroke-linecap="butt" stroke-linejoin="miter" fill="#e2e2e2" d="M20.4322+24.0599L20.4322+24.6851L20.4322+24.913L20.4767+24.913L20.4767+25.0201C20.4767+25.0305+20.4799+25.027+20.4869+25.027L20.5348+25.027L20.5348+25.1203C20.5348+25.1307+20.5415+25.1376+20.5485+25.1376L20.6033+25.1376L20.6033+25.2101L20.7333+25.2101L24.5966+25.2101L24.6068+25.2101L28.4701+25.2101L28.6001+25.2101L28.6001+25.1376L28.6515+25.1376C28.6585+25.1376+28.6651+25.1307+28.6651+25.1203L28.6651+25.027L28.713+25.027C28.72+25.027+28.7267+25.0305+28.7267+25.0201L28.7267+24.913L28.7678+24.913L28.7678+24.6851L28.7678+24.0599L24.6068+24.0599L24.5966+24.0599L20.4322+24.0599Z" stroke="#000000"/>
<path fill="#000000" stroke="#000000" d="M20.0156+23.4693L20.0156+23.7847L20.0156+23.8997L20.0646+23.8997L20.0646+23.9537C20.0646+23.959+20.0682+23.9572+20.0759+23.9572L20.1286+23.9572L20.1286+24.0042C20.1286+24.0095+20.1359+24.013+20.1436+24.013L20.2038+24.013L20.2038+24.0495L20.3469+24.0495L24.5962+24.0495L24.6075+24.0495L28.8569+24.0495L28.9999+24.0495L28.9999+24.013L29.0564+24.013C29.0641+24.013+29.0714+24.0095+29.0714+24.0042L29.0714+23.9572L29.1241+23.9572C29.1318+23.9572+29.1392+23.959+29.1392+23.9537L29.1392+23.8997L29.1843+23.8997L29.1843+23.7847L29.1843+23.4693L24.6075+23.4693L24.5962+23.4693L20.0156+23.4693Z" stroke-width="0.8" stroke-linejoin="miter" opacity="1" stroke-linecap="butt"/>
<path stroke="#000000" fill="#000000" d="M20.0167+23.6381L29.1833+23.6381L29.1833+23.7744L20.0167+23.7744L20.0167+23.6381Z" stroke-width="0.52" stroke-linecap="butt" stroke-linejoin="miter" opacity="1"/>
<path d="M36.2394+25.2272L36.2394+36.9685L39.796+36.9685L40.1594+36.9685L43.7189+36.9685L43.7189+25.2272L40.1594+25.2272L39.796+25.2272L36.2394+25.2272Z" opacity="1" stroke="#000000" fill="#e2e2e2" stroke-linecap="round" stroke-width="0.62" stroke-linejoin="round"/>
<path stroke-linejoin="round" opacity="1" stroke-width="0.38" stroke-linecap="round" d="M37.3559+31.2238L42.6023+31.2238L42.6023+36.0758L37.3559+36.0758L37.3559+31.2238Z" fill="#e2e2e2" stroke="#000000"/>
<path stroke="#000000" fill="#e2e2e2" d="M37.3559+25.9806L42.6023+25.9806L42.6023+30.7833L37.3559+30.7833L37.3559+25.9806Z" stroke-width="0.38" stroke-linejoin="round" stroke-linecap="round" opacity="1"/>
<path d="M35.8113+24.0599L35.8113+24.6851L35.8113+24.913L35.8558+24.913L35.8558+25.0201C35.8558+25.0305+35.8591+25.027+35.8661+25.027L35.914+25.027L35.914+25.1203C35.914+25.1307+35.9207+25.1376+35.9277+25.1376L35.9824+25.1376L35.9824+25.2101L36.1125+25.2101L39.9757+25.2101L39.986+25.2101L43.8492+25.2101L43.9793+25.2101L43.9793+25.1376L44.0306+25.1376C44.0376+25.1376+44.0443+25.1307+44.0443+25.1203L44.0443+25.027L44.0922+25.027C44.0992+25.027+44.1059+25.0305+44.1059+25.0201L44.1059+24.913L44.1469+24.913L44.1469+24.6851L44.1469+24.0599L39.986+24.0599L39.9757+24.0599L35.8113+24.0599Z" stroke-width="0.42" stroke-linecap="butt" fill="#e2e2e2" stroke="#000000" opacity="1" stroke-linejoin="miter"/>
<g opacity="1">
<path opacity="1" stroke-linejoin="miter" d="M35.3948+23.4693L35.3948+23.7847L35.3948+23.8997L35.4437+23.8997L35.4437+23.9537C35.4437+23.959+35.4473+23.9572+35.455+23.9572L35.5077+23.9572L35.5077+24.0042C35.5077+24.0095+35.5151+24.013+35.5228+24.013L35.583+24.013L35.583+24.0495L35.726+24.0495L39.9754+24.0495L39.9867+24.0495L44.236+24.0495L44.379+24.0495L44.379+24.013L44.4355+24.013C44.4432+24.013+44.4506+24.0095+44.4506+24.0042L44.4506+23.9572L44.5033+23.9572C44.511+23.9572+44.5183+23.959+44.5183+23.9537L44.5183+23.8997L44.5635+23.8997L44.5635+23.7847L44.5635+23.4693L39.9867+23.4693L39.9754+23.4693L35.3948+23.4693Z" stroke-width="0.8" stroke-linecap="butt" fill="#000000" stroke="#000000"/>
<path stroke="#000000" stroke-width="0.52" d="M35.4187+23.7006L44.5852+23.7006L44.5852+23.8369L35.4187+23.8369L35.4187+23.7006Z" stroke-linejoin="miter" stroke-linecap="butt" fill="#000000" opacity="1"/>
</g>
<path stroke-linecap="round" opacity="1" fill="#e2e2e2" stroke-linejoin="round" d="M10.318+6.87658L19.2655+6.87658L19.2655+15.9084L10.318+15.9084L10.318+6.87658Z" stroke-width="0.82" stroke="#000000"/>
<path fill="#e2e2e2" stroke-linecap="round" d="M12.1581+8.3135L17.4255+8.3135L17.4255+14.4715L12.1581+14.4715L12.1581+8.3135Z" stroke="#000000" stroke-linejoin="round" opacity="1" stroke-width="0.52"/>
<path fill="#e2e2e2" stroke="#000000" d="M14.7736+4.52807L19.2328+6.89391L10.3143+6.89391L14.7736+4.52807Z" stroke-linecap="round" opacity="1" stroke-linejoin="round" stroke-width="0.82"/>
<g opacity="1">
<path stroke="#000000" opacity="1" stroke-linecap="round" stroke-linejoin="round" fill="#000000" d="M14.7869+3.24238L11.1673+5.1491L8.7666+6.41138L8.7666+7.68963L11.0354+6.49659L14.7869+4.52596L14.7869+3.24238Z" stroke-width="0.82"/>
<path stroke-width="0.52" fill="#000000" stroke-linejoin="round" d="M14.7869+3.25863L11.0354+5.22927L8.7666+6.4223L8.7666+6.66197L11.0354+5.46894L14.7869+3.4983L14.7869+3.25863Z" opacity="1" stroke="#000000" stroke-linecap="round"/>
</g>
<g opacity="1">
<path stroke="#000000" stroke-width="0.82" fill="#000000" stroke-linejoin="round" opacity="1" stroke-linecap="round" d="M14.8143+3.24611L18.4339+5.15284L20.8346+6.41511L20.8346+7.69336L18.5658+6.50033L14.8143+4.52969L14.8143+3.24611Z"/>
<path d="M14.8143+3.26237L18.5658+5.233L20.8346+6.42604L20.8346+6.66571L18.5658+5.47267L14.8143+3.50204L14.8143+3.26237Z" fill="#000000" stroke-linecap="round" opacity="1" stroke-width="0.52" stroke="#000000" stroke-linejoin="round"/>
</g>
<path stroke-linecap="round" opacity="1" d="M10.318+15.5958L19.2655+15.5958L19.2655+15.9432L10.318+15.9432L10.318+15.5958Z" stroke-width="0.62" stroke-linejoin="round" fill="#000000" stroke="#000000"/>
<path stroke="#000000" stroke-linecap="round" stroke-width="0.48" fill="#000000" stroke-linejoin="round" d="M4.32384+18.752L5.12237+18.752L5.12237+21.2643L4.32384+21.2643L4.32384+18.752Z" opacity="1"/>
<path fill="#e2e2e2" stroke-width="0.48" d="M4.32384+20.0081L5.12237+20.0081L5.12237+21.2643L4.32384+21.2643L4.32384+20.0081Z" stroke-linejoin="round" opacity="1" stroke="#000000" stroke-linecap="round"/>
<path stroke-width="0.48" fill="#000000" stroke-linecap="round" d="M7.74651+18.752L8.52425+18.752L8.52425+21.2643L7.74651+21.2643L7.74651+18.752Z" opacity="1" stroke="#000000" stroke-linejoin="round"/>
<path stroke-width="0.48" opacity="1" d="M7.74651+20.0081L8.52425+20.0081L8.52425+21.2643L7.74651+21.2643L7.74651+20.0081Z" stroke="#000000" fill="#e2e2e2" stroke-linecap="round" stroke-linejoin="round"/>
<path stroke-linejoin="round" stroke-width="0.48" d="M11.0413+18.752L11.819+18.752L11.819+21.2643L11.0413+21.2643L11.0413+18.752Z" opacity="1" stroke="#000000" stroke-linecap="round" fill="#000000"/>
<path stroke-width="0.48" stroke-linecap="round" stroke="#000000" fill="#e2e2e2" opacity="1" d="M11.0413+20.0081L11.819+20.0081L11.819+21.2643L11.0413+21.2643L11.0413+20.0081Z" stroke-linejoin="round"/>
<path stroke-linecap="round" opacity="1" stroke-width="0.48" fill="#000000" d="M14.5585+18.752L15.357+18.752L15.357+21.2643L14.5585+21.2643L14.5585+18.752Z" stroke-linejoin="round" stroke="#000000"/>
<path fill="#e2e2e2" stroke-linecap="round" opacity="1" stroke="#000000" d="M14.5585+19.9468L15.357+19.9468L15.357+21.2031L14.5585+21.2031L14.5585+19.9468Z" stroke-width="0.38" stroke-linejoin="round"/>
<path stroke-linejoin="round" fill="#000000" stroke-width="0.48" d="M17.9666+18.752L18.7652+18.752L18.7652+21.2643L17.9666+21.2643L17.9666+18.752Z" stroke="#000000" opacity="1" stroke-linecap="round"/>
<path d="M17.9666+20.0081L18.7652+20.0081L18.7652+21.2643L17.9666+21.2643L17.9666+20.0081Z" stroke="#000000" fill="#e2e2e2" stroke-linecap="round" stroke-width="0.48" stroke-linejoin="round" opacity="1"/>
<path d="M21.3893+18.752L22.1671+18.752L22.1671+21.2643L21.3893+21.2643L21.3893+18.752Z" stroke-linecap="round" stroke="#000000" stroke-linejoin="round" stroke-width="0.48" fill="#000000" opacity="1"/>
<path stroke="#000000" stroke-width="0.48" stroke-linejoin="round" fill="#e2e2e2" d="M21.3893+20.0081L22.1671+20.0081L22.1671+21.2643L21.3893+21.2643L21.3893+20.0081Z" opacity="1" stroke-linecap="round"/>
<path stroke="#000000" stroke-linecap="round" opacity="1" fill="#000000" stroke-width="0.48" stroke-linejoin="round" d="M24.6841+18.752L25.4618+18.752L25.4618+21.2643L24.6841+21.2643L24.6841+18.752Z"/>
<path opacity="1" d="M24.6841+20.0081L25.4618+20.0081L25.4618+21.2643L24.6841+21.2643L24.6841+20.0081Z" stroke-width="0.48" fill="#e2e2e2" stroke-linejoin="round" stroke="#000000" stroke-linecap="round"/>
<path stroke-width="0.48" opacity="1" stroke-linecap="round" d="M28.0829+18.752L28.8814+18.752L28.8814+21.2643L28.0829+21.2643L28.0829+18.752Z" fill="#000000" stroke-linejoin="round" stroke="#000000"/>
<path fill="#e2e2e2" stroke-linejoin="round" opacity="1" d="M28.0829+20.0081L28.8814+20.0081L28.8814+21.2643L28.0829+21.2643L28.0829+20.0081Z" stroke-width="0.48" stroke="#000000" stroke-linecap="round"/>
<path d="M31.4911+18.752L32.2896+18.752L32.2896+21.2643L31.4911+21.2643L31.4911+18.752Z" opacity="1" stroke-linejoin="round" fill="#000000" stroke-width="0.4" stroke="#000000" stroke-linecap="round"/>
<path stroke="#000000" d="M31.4911+20.0081L32.2896+20.0081L32.2896+21.2643L31.4911+21.2643L31.4911+20.0081Z" stroke-linecap="round" opacity="1" fill="#e2e2e2" stroke-linejoin="round" stroke-width="0.4"/>
<path stroke-width="0.48" stroke-linecap="round" stroke="#000000" fill="#000000" stroke-linejoin="round" opacity="1" d="M34.9137+18.752L35.6915+18.752L35.6915+21.2643L34.9137+21.2643L34.9137+18.752Z"/>
<path stroke-linecap="round" fill="#e2e2e2" opacity="1" stroke-width="0.48" stroke-linejoin="round" stroke="#000000" d="M34.9137+20.0081L35.6915+20.0081L35.6915+21.2643L34.9137+21.2643L34.9137+20.0081Z"/>
<path opacity="1" stroke-width="0.48" d="M38.2085+18.752L38.9862+18.752L38.9862+21.2643L38.2085+21.2643L38.2085+18.752Z" stroke="#000000" fill="#000000" stroke-linejoin="round" stroke-linecap="round"/>
<path stroke="#000000" stroke-linecap="round" opacity="1" d="M38.2085+20.0081L38.9862+20.0081L38.9862+21.2643L38.2085+21.2643L38.2085+20.0081Z" stroke-linejoin="round" stroke-width="0.48" fill="#e2e2e2"/>
<path d="M41.7257+18.752L42.5242+18.752L42.5242+21.2643L41.7257+21.2643L41.7257+18.752Z" stroke-linejoin="round" stroke-width="0.48" opacity="1" stroke-linecap="round" fill="#000000" stroke="#000000"/>
<path opacity="1" stroke-linejoin="round" d="M41.7257+20.0081L42.5242+20.0081L42.5242+21.2643L41.7257+21.2643L41.7257+20.0081Z" stroke-width="0.48" stroke-linecap="round" stroke="#000000" fill="#e2e2e2"/>
<path fill="#000000" stroke="#000000" opacity="1" d="M45.1339+18.752L45.9324+18.752L45.9324+21.2643L45.1339+21.2643L45.1339+18.752Z" stroke-width="0.48" stroke-linejoin="round" stroke-linecap="round"/>
<path stroke-linejoin="round" opacity="1" stroke-linecap="round" stroke="#000000" stroke-width="0.48" d="M45.1339+20.0081L45.9324+20.0081L45.9324+21.2643L45.1339+21.2643L45.1339+20.0081Z" fill="#e2e2e2"/>
<path fill="#000000" stroke-linejoin="miter" stroke-width="0.52" stroke-linecap="butt" stroke="#000000" opacity="1" d="M0.0350502+18.3407L1.89958+18.3407L1.89958+67.2858L0.0350502+67.2858L0.0350502+18.3407Z"/>
<path d="M48.7801+66.1985L48.7801+67.1109L9.68729e-08+67.1109L0+66.1985L48.7801+66.1985Z" stroke="#000000" opacity="1" stroke-width="0.52" fill="#000000" stroke-linecap="butt" stroke-linejoin="miter"/>
<path d="M2.18927+47.6739L11.3527+47.6739L11.3527+67.3935L2.18927+67.3935L2.18927+47.6739Z" fill="#e2e2e2" stroke="#000000" stroke-linecap="butt" opacity="1" stroke-linejoin="miter" stroke-width="0.42"/>
<path stroke-width="0.42" stroke-linecap="butt" fill="#e2e2e2" stroke-linejoin="miter" stroke="#000000" d="M1.58419+44.4079L12.343+44.4079L12.343+45.6516L1.58419+45.6516L1.58419+44.4079Z" opacity="1"/>
<path d="M0.654676+43.27L0.716052+43.3518L1.04339+43.7815L1.06385+43.7815L1.51394+44.3748L2.1277+44.3748L11.641+44.3748L12.2547+44.3748L12.7253+43.7815L12.736+43.771L12.7662+43.7405L13.1344+43.3518L13.1754+43.2904L11.6819+43.27L10.1475+43.27L2.1277+43.27L0.654676+43.27Z" stroke-width="0.62" opacity="1" stroke-linecap="butt" stroke-linejoin="miter" stroke="#000000" fill="#000000"/>
<path d="M2.19255+45.6479L2.19255+47.7059L11.3463+47.6798L11.3504+47.0901L11.3525+46.826L11.693+46.3057L11.693+45.6479L2.19255+45.6479Z" stroke="#000000" stroke-width="0.42" stroke-linejoin="miter" fill="#e2e2e2" opacity="1" stroke-linecap="butt"/>
<path d="M9.77531+45.6914L10.6333+45.6914L10.6333+47.572L9.77531+47.572L9.77531+45.6914Z" fill="#000000" stroke="#000000" stroke-linejoin="miter" opacity="1" stroke-width="0.42" stroke-linecap="butt"/>
<path stroke-linejoin="miter" d="M9.81484+46.6043L10.5967+46.6043L10.5967+47.572L9.81484+47.572L9.81484+46.6043Z" stroke="#000000" stroke-width="0.42" stroke-linecap="butt" fill="#e2e2e2" opacity="1"/>
<path d="M2.92936+45.7256L3.78734+45.7256L3.78734+47.6061L2.92936+47.6061L2.92936+45.7256Z" opacity="1" stroke-linejoin="miter" fill="#000000" stroke-linecap="butt" stroke="#000000" stroke-width="0.42"/>
<path fill="#e2e2e2" stroke-width="0.42" d="M2.96889+46.6385L3.75074+46.6385L3.75074+47.6061L2.96889+47.6061L2.96889+46.6385Z" stroke-linejoin="miter" stroke="#000000" opacity="1" stroke-linecap="butt"/>
<path stroke="#000000" opacity="1" stroke-linecap="butt" stroke-width="0.42" fill="#e2e2e2" stroke-linejoin="miter" d="M3.50684+51.1326L10.0351+51.1326L10.0351+66.4199L3.50684+66.4199L3.50684+51.1326Z"/>
<path opacity="1" stroke="#000000" fill="#000000" stroke-linecap="butt" stroke-width="0.42" d="M3.50684+48.6406L10.0351+48.6406L10.0351+50.2327L3.50684+50.2327L3.50684+48.6406Z" stroke-linejoin="miter"/>
<path opacity="1" stroke-width="0.42" stroke-linecap="butt" stroke="#000000" d="M8.47026+58.4148C8.47026+58.2151+8.63064+58.0532+8.82847+58.0532C9.02631+58.0532+9.18668+58.2151+9.18668+58.4148C9.18668+58.6145+9.02631+58.7764+8.82847+58.7764C8.63064+58.7764+8.47026+58.6145+8.47026+58.4148Z" fill="#000000" stroke-linejoin="miter"/>
<path stroke-linecap="round" opacity="1" fill="#000000" d="M0.000998954+0L48.8473+0L48.8473+1.77934L0.000998954+1.77934L0.000998954+0Z" stroke-width="1.72" stroke-linejoin="round" stroke="#000000"/>
<path opacity="1" fill="#000000" d="M0.145067+0L48.6919+0L48.6919+0.476754L0.145067+0.476754L0.145067+0Z" stroke="#000000" stroke-width="2.72" stroke-linejoin="round" stroke-linecap="round"/>
<path opacity="1" stroke-width="0.82" stroke="#000000" d="M31.0123+6.87658L39.9598+6.87658L39.9598+15.9084L31.0123+15.9084L31.0123+6.87658Z" fill="#e2e2e2" stroke-linecap="round" stroke-linejoin="round"/>
<path stroke="#000000" stroke-linecap="round" d="M32.8524+8.3135L38.1198+8.3135L38.1198+14.4715L32.8524+14.4715L32.8524+8.3135Z" opacity="1" stroke-width="0.4" fill="#e2e2e2" stroke-linejoin="round"/>
<path fill="#e2e2e2" opacity="1" d="M35.4679+4.52807L39.9271+6.89391L31.0086+6.89391L35.4679+4.52807Z" stroke-width="0.82" stroke="#000000" stroke-linecap="round" stroke-linejoin="round"/>
<path stroke="#000000" fill="#000000" stroke-linejoin="round" stroke-width="0.3" stroke-linecap="round" d="M35.4606+5.59109L36.4824+6.13316L34.4389+6.13316L35.4606+5.59109Z" opacity="1"/>
<g opacity="1">
<path fill="#000000" stroke-linecap="round" d="M35.4812+3.24238L31.8616+5.1491L29.4609+6.41138L29.4609+7.68963L31.7297+6.49659L35.4812+4.52596L35.4812+3.24238Z" stroke-width="0.82" opacity="1" stroke="#000000" stroke-linejoin="round"/>
<path stroke="#000000" stroke-linecap="round" stroke-linejoin="round" d="M35.4812+3.25863L31.7297+5.22927L29.4609+6.4223L29.4609+6.66197L31.7297+5.46894L35.4812+3.4983L35.4812+3.25863Z" stroke-width="0.52" opacity="1" fill="#000000"/>
</g>
<path stroke-linejoin="round" opacity="1" stroke-width="0.82" d="M35.5086+3.24611L39.1281+5.15284L41.5289+6.41511L41.5289+7.69336L39.2601+6.50033L35.5086+4.52969L35.5086+3.24611Z" stroke="#000000" fill="#000000" stroke-linecap="round"/>
<path stroke="#000000" stroke-width="0.52" opacity="1" fill="#000000" stroke-linejoin="round" d="M35.5086+3.26237L39.2601+5.233L41.5289+6.42604L41.5289+6.66571L39.2601+5.47267L35.5086+3.50204L35.5086+3.26237Z" stroke-linecap="round"/>
<path opacity="1" stroke-linejoin="round" stroke-width="0.62" d="M31.0123+15.5958L39.9598+15.5958L39.9598+15.9432L31.0123+15.9432L31.0123+15.5958Z" fill="#000000" stroke="#000000" stroke-linecap="round"/>
<path fill="#000000" opacity="1" stroke="#000000" stroke-linecap="round" stroke-width="0.3" stroke-linejoin="round" d="M14.7908+5.5398L15.8125+6.08187L13.7691+6.08187L14.7908+5.5398Z"/>
<path d="M35.8988+37.0224L44.0529+37.0224L44.0529+37.4685L35.8988+37.4685L35.8988+37.0224Z" stroke-linejoin="round" stroke-width="0.62" stroke="#000000" opacity="1" stroke-linecap="round" fill="#e2e2e2"/>
<path stroke="#000000" stroke-width="0.62" opacity="1" stroke-linecap="round" d="M43.7926+34.6239L44.0507+34.7671L44.0528+35.1902L44.0607+36.8695L43.7501+36.8695L43.7501+34.6239L43.7926+34.6239Z" stroke-linejoin="round" fill="#e2e2e2"/>
<path opacity="1" stroke-width="0.62" d="M36.1813+34.6155L35.9106+34.7601L35.9083+35.1876L35.9001+36.8843L36.226+36.8843L36.226+34.6155L36.1813+34.6155Z" fill="#e2e2e2" stroke-linecap="round" stroke-linejoin="round" stroke="#000000"/>
<path stroke="#000000" d="M36.1663+37.2365L43.6881+37.2365C43.7451+37.2365+43.7912+37.2825+43.7912+37.3393L43.7912+37.3393C43.7912+37.396+43.7451+37.4421+43.6881+37.4421L36.1663+37.4421C36.1093+37.4421+36.0631+37.396+36.0631+37.3393L36.0631+37.3393C36.0631+37.2825+36.1093+37.2365+36.1663+37.2365Z" stroke-linecap="round" opacity="1" fill="#e2e2e2" stroke-width="0.5" stroke-linejoin="round"/>
<g opacity="1">
<path stroke-linecap="round" stroke-linejoin="round" d="M20.5175+37.0123L28.6885+37.0123L28.6885+37.4584L20.5175+37.4584L20.5175+37.0123Z" opacity="1" stroke="#000000" stroke-width="0.62" fill="#e2e2e2"/>
<path d="M28.4278+34.6138L28.6863+34.757L28.6885+35.1801L28.6964+36.8594L28.3851+36.8594L28.3851+34.6138L28.4278+34.6138Z" stroke-width="0.62" fill="#e2e2e2" stroke="#000000" stroke-linecap="round" opacity="1" stroke-linejoin="round"/>
<path stroke-linejoin="round" stroke-linecap="round" stroke="#000000" d="M20.8006+34.6054L20.5293+34.75L20.527+35.1775L20.5188+36.8742L20.8454+36.8742L20.8454+34.6054L20.8006+34.6054Z" fill="#e2e2e2" opacity="1" stroke-width="0.62"/>
<path d="M20.7856+37.2264L28.323+37.2264C28.3801+37.2264+28.4264+37.2724+28.4264+37.3291L28.4264+37.3291C28.4264+37.3859+28.3801+37.4319+28.323+37.4319L20.7856+37.4319C20.7285+37.4319+20.6822+37.3859+20.6822+37.3291L20.6822+37.3291C20.6822+37.2724+20.7285+37.2264+20.7856+37.2264Z" stroke-linecap="round" stroke-linejoin="round" stroke="#000000" stroke-width="0.5" fill="#e2e2e2" opacity="1"/>
</g>
<g opacity="1">
<path stroke-linecap="round" stroke-width="0.62" stroke-linejoin="round" d="M5.0005+37.0122L13.1637+37.0122L13.1637+37.4583L5.0005+37.4583L5.0005+37.0122Z" opacity="1" fill="#e2e2e2" stroke="#000000"/>
<path d="M12.9032+34.6137L13.1615+34.7569L13.1637+35.18L13.1715+36.8594L12.8606+36.8594L12.8606+34.6137L12.9032+34.6137Z" fill="#e2e2e2" stroke-linejoin="round" stroke-linecap="round" opacity="1" stroke-width="0.62" stroke="#000000"/>
<path stroke-width="0.62" stroke="#000000" fill="#e2e2e2" stroke-linejoin="round" d="M5.28336+34.6053L5.01233+34.75L5.01004+35.1774L5.0018+36.8741L5.32809+36.8741L5.32809+34.6053L5.28336+34.6053Z" opacity="1" stroke-linecap="round"/>
<path stroke-linejoin="round" opacity="1" stroke="#000000" stroke-width="0.5" fill="#e2e2e2" stroke-linecap="round" d="M5.26835+37.2263L12.7985+37.2263C12.8555+37.2263+12.9018+37.2723+12.9018+37.3291L12.9018+37.3291C12.9018+37.3859+12.8555+37.4319+12.7985+37.4319L5.26835+37.4319C5.2113+37.4319+5.16505+37.3859+5.16505+37.3291L5.16505+37.3291C5.16505+37.2723+5.2113+37.2263+5.26835+37.2263Z"/>
</g>
<path stroke="#000000" fill="#000000" opacity="1" stroke-linejoin="miter" d="M0.654676+43.27L0.716052+43.3518L1.04339+43.7815L1.06385+43.7815L1.51394+44.3748L2.1277+44.3748L11.641+44.3748L12.2547+44.3748L12.7253+43.7815L12.736+43.771L12.7662+43.7405L13.1344+43.3518L13.1754+43.2904L11.6819+43.27L10.1475+43.27L2.1277+43.27L0.654676+43.27Z" stroke-linecap="butt" stroke-width="0.62"/>
<path fill="#000000" d="M34.4295+63.2395L42.2466+63.2395L42.2466+63.4737L34.4295+63.4737L34.4295+63.2395Z" stroke="#000000" opacity="1" stroke-linecap="butt" stroke-linejoin="miter" stroke-width="0.12"/>
</g>
</g>
</svg>
