<?xml version="1.0" encoding="UTF-8" standalone="no"?> <!-- Created with Vectornator for iOS (http://vectornator.io/) --><!DOCTYPE svg PUBLIC "-//W3C//DTD SVG 1.1//EN" "http://www.w3.org/Graphics/SVG/1.1/DTD/svg11.dtd">
<svg version="1.1" style="fill-rule:nonzero;clip-rule:evenodd;stroke-linecap:round;stroke-linejoin:round;" xmlns="http://www.w3.org/2000/svg" viewBox="0 0 327.524 311.051" xmlns:vectornator="http://vectornator.io" height="100%" xmlns:xlink="http://www.w3.org/1999/xlink" width="100%" xml:space="preserve">
<metadata>
<vectornator:setting value="false" key="WDDynamicGuides"/>
<vectornator:setting key="WDCMYKEnabledKey" value="false"/>
<vectornator:setting value="false" key="VNPencilOnly"/>
<vectornator:setting value="false" key="WDSnapToPoints"/>
<vectornator:setting key="WDIsolateActiveLayer" value="false"/>
<vectornator:setting key="WDRulersVisible" value="true"/>
<vectornator:setting key="WDSnapToGrid" value="false"/>
<vectornator:setting value="true" key="VNDimensionsVisible"/>
<vectornator:setting key="IsTimeLapseWatermarkDisabled" value="false"/>
<vectornator:setting key="VNSnapToGuides" value="true"/>
<vectornator:setting key="WDUnits" value="Pixels"/>
<vectornator:setting key="WDSnapToEdges" value="false"/>
<vectornator:setting key="UndoHistoryDisabled" value="false"/>
<vectornator:setting key="WDGuidesVisible" value="true"/>
<vectornator:setting value="false" key="WDDisplayWhiteBackground"/>
<vectornator:setting value="false" key="WDOutlineMode"/>
</metadata>
<defs/>
<g vectornator:layerName="Layer 2" id="Layer 2">
<g opacity="1">
<path fill="#000000" stroke-linejoin="round" opacity="1" stroke-linecap="round" stroke="#acacac" stroke-width="1.72" d="M59.5907+53.5899L242.274+53.5899L242.274+296.007L59.5907+296.007L59.5907+53.5899Z"/>
<path stroke-linejoin="round" stroke="#a0a0a0" fill="#000000" opacity="1" stroke-linecap="round" stroke-width="1.02" d="M60.844+113.322L242.211+113.322L242.211+296.007L60.844+296.007L60.844+113.322Z"/>
<path stroke-linecap="round" d="M156.617+223.151L156.617+276.232L184.434+276.232L187.277+276.232L215.117+276.232L215.117+223.151L187.277+223.151L184.434+223.151L156.617+223.151Z" stroke-width="0.82" fill="#000000" stroke-linejoin="round" opacity="1" stroke="#909090"/>
<path fill="#000000" d="M215.642+266.25L217.515+266.884L217.53+268.758L217.587+276.198L215.333+276.198L215.333+266.25L215.642+266.25Z" stroke-linejoin="round" stroke-width="0.82" opacity="1" stroke-linecap="round" stroke="#909090"/>
<path d="M155.93+266.199L154.036+266.839L154.021+268.731L153.963+276.24L156.243+276.24L156.243+266.199L155.93+266.199Z" stroke="#909090" fill="#000000" stroke-linejoin="round" stroke-linecap="round" opacity="1" stroke-width="0.82"/>
<path fill="#000000" stroke-linejoin="miter" opacity="1" stroke-linecap="butt" stroke-width="0.42" stroke="#909090" d="M153.269+217.898L153.269+220.711L153.269+221.737L153.617+221.737L153.617+222.219C153.617+222.266+153.642+222.25+153.697+222.25L154.072+222.25L154.072+222.67C154.072+222.717+154.124+222.748+154.179+222.748L154.607+222.748L154.607+223.074L155.624+223.074L185.84+223.074L185.92+223.074L216.136+223.074L217.153+223.074L217.153+222.748L217.555+222.748C217.609+222.748+217.662+222.717+217.662+222.67L217.662+222.25L218.036+222.25C218.091+222.25+218.143+222.266+218.143+222.219L218.143+221.737L218.465+221.737L218.465+220.711L218.465+217.898L185.92+217.898L185.84+217.898L153.269+217.898Z"/>
<path opacity="1" stroke="#a0a0a0" stroke-linecap="butt" d="M149.299+213.887L221.733+213.887L221.733+217.828L149.299+217.828L149.299+213.887Z" fill="#000000" stroke-width="0.52" stroke-linejoin="miter"/>
<path opacity="1" stroke-linejoin="miter" d="M148.055+212.628L222.977+212.628L222.982+213.131L222.349+213.136L221.748+213.65L149.243+213.625L148.81+213.172L148.057+213.158L148.055+212.628Z" stroke-width="0.52" stroke-linecap="butt" stroke="#a0a0a0" fill="#000000"/>
<path fill="#000000" d="M147.043+211.738L223.989+211.738L223.989+212.471L147.043+212.471L147.043+211.738Z" stroke="#a0a0a0" stroke-linejoin="miter" stroke-width="0.52" stroke-linecap="butt" opacity="1"/>
<g opacity="1">
<path stroke-linecap="butt" stroke="#909090" opacity="1" fill="#000000" d="M184.683+217.822L187.05+217.822L187.05+223.026L184.683+223.026L184.683+217.822Z" stroke-linejoin="miter" stroke-width="0.52"/>
<path fill="#000000" stroke="#909090" stroke-linecap="butt" d="M184.792+220.348L186.949+220.348L186.949+223.026L184.792+223.026L184.792+220.348Z" stroke-linejoin="miter" stroke-width="0.22" opacity="1"/>
</g>
<g opacity="1">
<path stroke-linecap="butt" d="M209.124+217.885L211.491+217.885L211.491+223.089L209.124+223.089L209.124+217.885Z" stroke-linejoin="miter" stroke-width="0.52" stroke="#909090" opacity="1" fill="#000000"/>
<path fill="#000000" stroke-linecap="butt" stroke-width="0.22" stroke="#909090" d="M209.233+220.411L211.39+220.411L211.39+223.089L209.233+223.089L209.233+220.411Z" opacity="1" stroke-linejoin="miter"/>
</g>
<g opacity="1">
<path opacity="1" stroke-linecap="butt" d="M160.059+217.822L162.426+217.822L162.426+223.026L160.059+223.026L160.059+217.822Z" stroke-linejoin="miter" stroke-width="0.52" stroke="#909090" fill="#000000"/>
<path stroke-linecap="butt" opacity="1" stroke-width="0.22" stroke-linejoin="miter" d="M160.168+220.348L162.325+220.348L162.325+223.026L160.168+223.026L160.168+220.348Z" stroke="#909090" fill="#000000"/>
</g>
<path fill="#e3e3e3" stroke="#a0a0a0" opacity="1" stroke-width="1.02" d="M149.237+276.195L221.909+276.195L221.909+277.204L149.237+277.204L149.237+276.195Z" stroke-linecap="butt" stroke-linejoin="miter"/>
<path stroke-linecap="butt" d="M149.225+277.218L221.893+277.218L221.893+284.881L149.225+284.881L149.225+277.218Z" stroke="#a0a0a0" stroke-width="1.02" stroke-linejoin="miter" opacity="1" fill="#000000"/>
<path stroke="#a0a0a0" stroke-linecap="butt" fill="#808080" d="M188.495+279.792L217.813+279.792L217.813+282.307L188.495+282.307L188.495+279.792Z" stroke-width="0.22" stroke-linejoin="miter" opacity="1"/>
<path opacity="1" stroke-linecap="butt" stroke-linejoin="miter" d="M154.023+279.792L183.341+279.792L183.341+282.307L154.023+282.307L154.023+279.792Z" stroke="#a0a0a0" fill="#808080" stroke-width="0.22"/>
<path opacity="1" stroke-linecap="round" d="M163.053+225.376L163.053+232.373L168.176+232.373L168.7+232.373L173.827+232.373L173.827+225.376L168.7+225.376L168.176+225.376L163.053+225.376Z" stroke-linejoin="round" stroke-width="0.72" stroke="#808080" fill="#000000"/>
<path stroke-linecap="round" stroke="#808080" d="M176.338+225.376L176.338+232.373L185.454+232.373L186.385+232.373L195.509+232.373L195.509+225.376L186.385+225.376L185.454+225.376L176.338+225.376Z" stroke-width="0.72" fill="#000000" opacity="1" stroke-linejoin="round"/>
<path stroke-width="0.72" stroke-linecap="round" stroke-linejoin="round" stroke="#808080" fill="#000000" d="M197.974+225.376L197.974+232.373L203.097+232.373L203.62+232.373L208.748+232.373L208.748+225.376L203.62+225.376L203.097+225.376L197.974+225.376Z" opacity="1"/>
<path stroke-width="0.72" stroke-linejoin="round" stroke-linecap="round" stroke="#808080" opacity="1" fill="#000000" d="M163.053+234.963L163.053+253.467L168.176+253.467L168.7+253.467L173.827+253.467L173.827+234.963L168.7+234.963L168.176+234.963L163.053+234.963Z"/>
<path stroke-linecap="round" d="M163.053+254.945L163.053+273.449L168.176+273.449L168.7+273.449L173.827+273.449L173.827+254.945L168.7+254.945L168.176+254.945L163.053+254.945Z" opacity="1" fill="#000000" stroke="#808080" stroke-width="0.72" stroke-linejoin="round"/>
<path stroke-linecap="round" stroke="#808080" d="M197.974+234.963L197.974+253.467L203.097+253.467L203.62+253.467L208.748+253.467L208.748+234.963L203.62+234.963L203.097+234.963L197.974+234.963Z" fill="#000000" opacity="1" stroke-linejoin="round" stroke-width="0.72"/>
<path stroke-linecap="round" fill="#000000" opacity="1" d="M197.974+254.945L197.974+273.449L203.097+273.449L203.62+273.449L208.748+273.449L208.748+254.945L203.62+254.945L203.097+254.945L197.974+254.945Z" stroke-linejoin="round" stroke-width="0.72" stroke="#808080"/>
<path opacity="1" d="M176.338+234.963L176.338+273.471L185.454+273.471L186.385+273.471L195.509+273.471L195.509+234.963L186.385+234.963L185.454+234.963L176.338+234.963Z" stroke-linecap="round" stroke="#808080" stroke-linejoin="round" fill="#000000" stroke-width="0.72"/>
<path d="M78.7035+183.181L108.725+183.181L108.725+184.747L78.7035+184.747L78.7035+183.181Z" stroke="#a0a0a0" fill="#a0a0a0" stroke-linejoin="round" opacity="1" stroke-width="1.22" stroke-linecap="round"/>
<path stroke-linecap="round" stroke-width="0.82" d="M79.763+139.777L79.763+183.28L93.0646+183.28L94.4237+183.28L107.736+183.28L107.736+139.777L94.4237+139.777L93.0646+139.777L79.763+139.777Z" opacity="1" fill="#000000" stroke-linejoin="round" stroke="#909090"/>
<path stroke="#808080" stroke-width="0.724251" d="M83.8187+162.233L103.68+162.233L103.68+180.431L83.8187+180.431L83.8187+162.233Z" fill="#000000" stroke-linejoin="round" opacity="1" stroke-linecap="round"/>
<path stroke-width="0.82" fill="#a0a0a0" stroke="#a0a0a0" opacity="1" d="M107.962+175.257L108.882+175.776L108.889+177.31L108.917+183.4L107.811+183.4L107.811+175.257L107.962+175.257Z" stroke-linejoin="round" stroke-linecap="round"/>
<path stroke-width="0.724251" stroke-linecap="round" opacity="1" stroke="#808080" d="M83.8187+142.569L103.68+142.569L103.68+160.581L83.8187+160.581L83.8187+142.569Z" stroke-linejoin="round" fill="#000000"/>
<path stroke="#a0a0a0" fill="#a0a0a0" stroke-width="0.82" stroke-linecap="round" d="M79.5174+175.215L78.5323+175.739L78.524+177.288L78.494+183.435L79.68+183.435L79.68+175.215L79.5174+175.215Z" opacity="1" stroke-linejoin="round"/>
<path fill="#000000" stroke-linecap="butt" opacity="1" stroke="#909090" stroke-width="0.42" stroke-linejoin="miter" d="M78.1621+135.453L78.1621+137.769L78.1621+138.614L78.3285+138.614L78.3285+139.01C78.3285+139.049+78.3407+139.036+78.3669+139.036L78.5461+139.036L78.5461+139.381C78.546+139.42+78.5711+139.445+78.5973+139.445L78.802+139.445L78.802+139.714L79.2883+139.714L93.7367+139.714L93.7751+139.714L108.223+139.714L108.71+139.714L108.71+139.445L108.902+139.445C108.928+139.445+108.953+139.42+108.953+139.381L108.953+139.036L109.132+139.036C109.158+139.036+109.183+139.049+109.183+139.01L109.183+138.614L109.337+138.614L109.337+137.769L109.337+135.453L93.7751+135.453L93.7367+135.453L78.1621+135.453Z"/>
<path stroke-linecap="butt" opacity="1" fill="#a0a0a0" stroke="#a0a0a0" stroke-width="0.8" d="M76.6043+133.265L76.6043+134.433L76.6043+134.859L76.7873+134.859L76.7873+135.059C76.7873+135.079+76.8007+135.072+76.8295+135.072L77.0266+135.072L77.0266+135.246C77.0266+135.266+77.0541+135.279+77.0829+135.279L77.3081+135.279L77.3081+135.414L77.843+135.414L93.7354+135.414L93.7777+135.414L109.67+135.414L110.205+135.414L110.205+135.279L110.416+135.279C110.445+135.279+110.472+135.266+110.472+135.246L110.472+135.072L110.67+135.072C110.698+135.072+110.726+135.079+110.726+135.059L110.726+134.859L110.895+134.859L110.895+134.433L110.895+133.265L93.7777+133.265L93.7354+133.265L76.6043+133.265Z" stroke-linejoin="miter"/>
<path d="M76.6082+133.267L110.891+133.267L110.891+133.772L76.6082+133.772L76.6082+133.267Z" stroke="#a0a0a0" opacity="1" stroke-linejoin="miter" stroke-width="0.52" fill="#a0a0a0" stroke-linecap="butt"/>
<path stroke-width="1.22" stroke-linecap="round" d="M136.538+183.181L166.55+183.181L166.55+184.759L136.538+184.759L136.538+183.181Z" fill="#a0a0a0" opacity="1" stroke="#a0a0a0" stroke-linejoin="round"/>
<path stroke-width="0.82" d="M137.603+139.777L137.603+183.28L150.905+183.28L152.264+183.28L165.576+183.28L165.576+139.777L152.264+139.777L150.905+139.777L137.603+139.777Z" stroke="#909090" opacity="1" stroke-linejoin="round" fill="#000000" stroke-linecap="round"/>
<path stroke-linejoin="round" stroke-linecap="round" stroke="#808080" opacity="1" fill="#000000" stroke-width="0.724251" d="M141.659+162.233L161.521+162.233L161.521+180.431L141.659+180.431L141.659+162.233Z"/>
<path stroke="#a0a0a0" fill="#a0a0a0" stroke-linecap="round" stroke-linejoin="round" opacity="1" stroke-width="0.82" d="M165.789+175.257L166.721+175.786L166.729+177.349L166.758+183.554L165.635+183.554L165.635+175.257L165.789+175.257Z"/>
<path stroke="#808080" fill="#000000" d="M141.659+142.569L161.521+142.569L161.521+160.581L141.659+160.581L141.659+142.569Z" stroke-width="0.724251" stroke-linecap="round" stroke-linejoin="round" opacity="1"/>
<path stroke-linejoin="round" fill="#a0a0a0" stroke="#a0a0a0" opacity="1" stroke-linecap="round" d="M137.387+175.215L136.374+175.754L136.365+177.345L136.334+183.662L137.555+183.662L137.555+175.215L137.387+175.215Z" stroke-width="0.82"/>
<path fill="#000000" opacity="1" stroke="#909090" stroke-width="0.42" stroke-linecap="butt" stroke-linejoin="miter" d="M136.002+135.453L136.002+137.769L136.002+138.614L136.169+138.614L136.169+139.01C136.169+139.049+136.181+139.036+136.207+139.036L136.386+139.036L136.386+139.381C136.386+139.42+136.411+139.445+136.437+139.445L136.642+139.445L136.642+139.714L137.129+139.714L151.577+139.714L151.615+139.714L166.064+139.714L166.55+139.714L166.55+139.445L166.742+139.445C166.768+139.445+166.793+139.42+166.793+139.381L166.793+139.036L166.972+139.036C166.999+139.036+167.024+139.049+167.024+139.01L167.024+138.614L167.177+138.614L167.177+137.769L167.177+135.453L151.615+135.453L151.577+135.453L136.002+135.453Z"/>
<path stroke="#a0a0a0" fill="#a0a0a0" stroke-width="0.8" d="M134.445+133.265L134.445+134.433L134.445+134.859L134.627+134.859L134.627+135.059C134.627+135.079+134.641+135.072+134.67+135.072L134.867+135.072L134.867+135.246C134.867+135.266+134.894+135.279+134.923+135.279L135.148+135.279L135.148+135.414L135.683+135.414L151.576+135.414L151.618+135.414L167.51+135.414L168.045+135.414L168.045+135.279L168.256+135.279C168.285+135.279+168.313+135.266+168.313+135.246L168.313+135.072L168.51+135.072C168.539+135.072+168.566+135.079+168.566+135.059L168.566+134.859L168.735+134.859L168.735+134.433L168.735+133.265L151.618+133.265L151.576+133.265L134.445+133.265Z" stroke-linejoin="miter" stroke-linecap="butt" opacity="1"/>
<path stroke-linecap="butt" fill="#a0a0a0" stroke-linejoin="miter" d="M134.448+133.267L168.731+133.267L168.731+133.772L134.448+133.772L134.448+133.267Z" stroke="#a0a0a0" opacity="1" stroke-width="0.52"/>
<path opacity="1" stroke-linejoin="round" stroke="#a0a0a0" fill="#a0a0a0" stroke-width="1.22" stroke-linecap="round" d="M194.075+183.181L224.091+183.181L224.091+184.744L194.075+184.744L194.075+183.181Z"/>
<path stroke-width="0.82" stroke-linejoin="round" stroke="#909090" stroke-linecap="round" opacity="1" d="M195.12+139.777L195.12+183.28L208.422+183.28L209.781+183.28L223.093+183.28L223.093+139.777L209.781+139.777L208.422+139.777L195.12+139.777Z" fill="#000000"/>
<path stroke-width="0.724251" stroke-linejoin="round" d="M199.176+162.233L219.038+162.233L219.038+180.431L199.176+180.431L199.176+162.233Z" stroke="#808080" fill="#000000" opacity="1" stroke-linecap="round"/>
<path fill="#a0a0a0" stroke-linejoin="round" opacity="1" stroke="#a0a0a0" stroke-linecap="round" stroke-width="0.82" d="M223.276+175.257L224.237+175.788L224.246+177.355L224.275+183.577L223.117+183.577L223.117+175.257L223.276+175.257Z"/>
<path stroke-linejoin="round" d="M199.176+142.569L219.038+142.569L219.038+160.581L199.176+160.581L199.176+142.569Z" stroke="#808080" opacity="1" stroke-linecap="round" stroke-width="0.724251" fill="#000000"/>
<path stroke-linecap="round" opacity="1" d="M194.899+175.215L193.891+175.751L193.882+177.335L193.851+183.621L195.066+183.621L195.066+175.215L194.899+175.215Z" fill="#a0a0a0" stroke="#a0a0a0" stroke-linejoin="round" stroke-width="0.82"/>
<path opacity="1" stroke="#909090" stroke-linejoin="miter" d="M193.52+135.453L193.52+137.769L193.52+138.614L193.686+138.614L193.686+139.01C193.686+139.049+193.698+139.036+193.724+139.036L193.903+139.036L193.903+139.381C193.903+139.42+193.928+139.445+193.955+139.445L194.159+139.445L194.159+139.714L194.646+139.714L209.094+139.714L209.133+139.714L223.581+139.714L224.067+139.714L224.067+139.445L224.259+139.445C224.285+139.445+224.31+139.42+224.31+139.381L224.31+139.036L224.49+139.036C224.516+139.036+224.541+139.049+224.541+139.01L224.541+138.614L224.694+138.614L224.694+137.769L224.694+135.453L209.133+135.453L209.094+135.453L193.52+135.453Z" stroke-width="0.42" fill="#000000" stroke-linecap="butt"/>
<path d="M191.962+133.265L191.962+134.433L191.962+134.859L192.145+134.859L192.145+135.059C192.145+135.079+192.158+135.072+192.187+135.072L192.384+135.072L192.384+135.246C192.384+135.266+192.411+135.279+192.44+135.279L192.666+135.279L192.666+135.414L193.2+135.414L209.093+135.414L209.135+135.414L225.027+135.414L225.562+135.414L225.562+135.279L225.774+135.279C225.802+135.279+225.83+135.266+225.83+135.246L225.83+135.072L226.027+135.072C226.056+135.072+226.083+135.079+226.083+135.059L226.083+134.859L226.252+134.859L226.252+134.433L226.252+133.265L209.135+133.265L209.093+133.265L191.962+133.265Z" stroke="#a0a0a0" stroke-width="0.8" stroke-linejoin="miter" fill="#a0a0a0" stroke-linecap="butt" opacity="1"/>
<path fill="#a0a0a0" opacity="1" stroke-linejoin="miter" stroke-linecap="butt" stroke="#a0a0a0" stroke-width="0.52" d="M191.966+133.267L226.248+133.267L226.248+133.772L191.966+133.772L191.966+133.267Z"/>
<path stroke-linecap="round" opacity="1" stroke-linejoin="round" stroke-width="0.82" d="M98.1757+71.7873L131.639+71.7873L131.639+105.251L98.1757+105.251L98.1757+71.7873Z" fill="#000000" stroke="#acacac"/>
<path stroke-linecap="round" fill="#000000" stroke="#acacac" d="M105.058+77.0793L124.757+77.0793L124.757+99.8949L105.058+99.8949L105.058+77.0793Z" stroke-linejoin="round" stroke-width="0.72" opacity="1"/>
<path stroke="#acacac" opacity="1" stroke-linecap="round" d="M114.839+63.0859L131.517+71.8515L98.162+71.8515L114.839+63.0859Z" stroke-linejoin="round" stroke-width="0.82" fill="#000000"/>
<g opacity="1">
<path d="M114.889+58.3223L101.352+65.3869L92.3736+70.0637L92.3736+74.7997L100.859+70.3794L114.889+63.0781L114.889+58.3223Z" fill="#acacac" stroke-linecap="round" opacity="1" stroke="#acacac" stroke-width="0.82" stroke-linejoin="round"/>
<path stroke-width="0.52" stroke-linejoin="round" opacity="1" d="M114.889+58.3825L100.859+65.6839L92.3736+70.1042L92.3736+70.9922L100.859+66.5719L114.889+59.2705L114.889+58.3825Z" stroke-linecap="round" stroke="#acacac" fill="#acacac"/>
</g>
<g opacity="1">
<path stroke-width="0.82" d="M114.992+58.3362L128.529+65.4007L137.507+70.0775L137.507+74.8135L129.022+70.3932L114.992+63.0919L114.992+58.3362Z" stroke-linejoin="round" stroke="#acacac" opacity="1" fill="#acacac" stroke-linecap="round"/>
<path stroke-linejoin="round" stroke-linecap="round" d="M114.992+58.3964L129.022+65.6977L137.507+70.118L137.507+71.006L129.022+66.5857L114.992+59.2844L114.992+58.3964Z" stroke="#acacac" fill="#acacac" opacity="1" stroke-width="0.52"/>
</g>
<path opacity="1" stroke-linejoin="round" d="M98.1757+104.092L131.639+104.092L131.639+105.38L98.1757+105.38L98.1757+104.092Z" stroke-linecap="round" stroke-width="0.82" stroke="#acacac" fill="#acacac"/>
<g opacity="1">
<g opacity="1">
<path stroke-linejoin="round" d="M75.7579+114.472L78.7444+114.472L78.7444+123.78L75.7579+123.78L75.7579+114.472Z" opacity="1" stroke="#acacac" stroke-width="0.68" stroke-linecap="round" fill="#000000"/>
<path stroke-width="0.38" stroke="#acacac" fill="#000000" stroke-linejoin="round" stroke-linecap="round" opacity="1" d="M75.7579+119.126L78.7444+119.126L78.7444+123.78L75.7579+123.78L75.7579+119.126Z"/>
</g>
<g opacity="1">
<path opacity="1" d="M88.5586+114.472L91.4673+114.472L91.4673+123.78L88.5586+123.78L88.5586+114.472Z" fill="#000000" stroke-linecap="round" stroke="#acacac" stroke-linejoin="round" stroke-width="0.68"/>
<path stroke-width="0.38" stroke-linecap="round" stroke="#acacac" fill="#000000" stroke-linejoin="round" d="M88.5586+119.126L91.4673+119.126L91.4673+123.78L88.5586+123.78L88.5586+119.126Z" opacity="1"/>
</g>
<g opacity="1">
<path stroke-width="0.68" stroke="#acacac" d="M100.881+114.472L103.79+114.472L103.79+123.78L100.881+123.78L100.881+114.472Z" opacity="1" fill="#000000" stroke-linejoin="round" stroke-linecap="round"/>
<path d="M100.881+119.126L103.79+119.126L103.79+123.78L100.881+123.78L100.881+119.126Z" stroke-width="0.38" stroke-linejoin="round" stroke="#acacac" fill="#000000" opacity="1" stroke-linecap="round"/>
</g>
<g opacity="1">
<path stroke="#acacac" fill="#000000" stroke-linecap="round" stroke-width="0.68" opacity="1" d="M114.035+114.472L117.021+114.472L117.021+123.78L114.035+123.78L114.035+114.472Z" stroke-linejoin="round"/>
<path stroke-linejoin="round" stroke="#acacac" fill="#000000" d="M114.035+119.126L117.021+119.126L117.021+123.78L114.035+123.78L114.035+119.126Z" opacity="1" stroke-linecap="round" stroke-width="0.38"/>
</g>
<g opacity="1">
<path fill="#000000" stroke-linecap="round" d="M126.781+114.472L129.768+114.472L129.768+123.78L126.781+123.78L126.781+114.472Z" stroke-width="0.68" stroke-linejoin="round" stroke="#acacac" opacity="1"/>
<path stroke-linecap="round" fill="#000000" stroke-linejoin="round" opacity="1" stroke-width="0.38" d="M126.781+119.126L129.768+119.126L129.768+123.78L126.781+123.78L126.781+119.126Z" stroke="#acacac"/>
</g>
<g opacity="1">
<path stroke-linecap="round" fill="#000000" d="M139.582+114.472L142.491+114.472L142.491+123.78L139.582+123.78L139.582+114.472Z" opacity="1" stroke-width="0.68" stroke-linejoin="round" stroke="#acacac"/>
<path stroke-linejoin="round" opacity="1" d="M139.582+119.126L142.491+119.126L142.491+123.78L139.582+123.78L139.582+119.126Z" stroke-linecap="round" stroke-width="0.38" stroke="#acacac" fill="#000000"/>
</g>
<g opacity="1">
<path stroke-linecap="round" stroke-linejoin="round" opacity="1" stroke="#acacac" fill="#000000" d="M151.904+114.472L154.813+114.472L154.813+123.78L151.904+123.78L151.904+114.472Z" stroke-width="0.68"/>
<path stroke-linecap="round" stroke="#acacac" opacity="1" fill="#000000" stroke-linejoin="round" d="M151.904+119.126L154.813+119.126L154.813+123.78L151.904+123.78L151.904+119.126Z" stroke-width="0.38"/>
</g>
<g opacity="1">
<path stroke-width="0.68" stroke-linejoin="round" stroke-linecap="round" stroke="#acacac" opacity="1" fill="#000000" d="M164.616+114.472L167.602+114.472L167.602+123.78L164.616+123.78L164.616+114.472Z"/>
<path fill="#000000" stroke="#acacac" stroke-linecap="round" opacity="1" d="M164.616+119.126L167.602+119.126L167.602+123.78L164.616+123.78L164.616+119.126Z" stroke-width="0.38" stroke-linejoin="round"/>
</g>
<g opacity="1">
<path d="M177.362+114.472L180.348+114.472L180.348+123.78L177.362+123.78L177.362+114.472Z" stroke="#acacac" fill="#000000" stroke-linecap="round" opacity="1" stroke-width="0.68" stroke-linejoin="round"/>
<path stroke="#acacac" stroke-linejoin="round" d="M177.362+119.126L180.348+119.126L180.348+123.78L177.362+123.78L177.362+119.126Z" fill="#000000" stroke-width="0.38" opacity="1" stroke-linecap="round"/>
</g>
<g opacity="1">
<path stroke-linejoin="round" d="M190.163+114.472L193.071+114.472L193.071+123.78L190.163+123.78L190.163+114.472Z" stroke="#acacac" fill="#000000" opacity="1" stroke-linecap="round" stroke-width="0.68"/>
<path d="M190.163+119.126L193.071+119.126L193.071+123.78L190.163+123.78L190.163+119.126Z" stroke="#acacac" stroke-width="0.38" stroke-linecap="round" stroke-linejoin="round" opacity="1" fill="#000000"/>
</g>
<g opacity="1">
<path opacity="1" d="M202.485+114.472L205.394+114.472L205.394+123.78L202.485+123.78L202.485+114.472Z" stroke-linejoin="round" stroke-width="0.68" fill="#000000" stroke="#acacac" stroke-linecap="round"/>
<path fill="#000000" stroke="#acacac" d="M202.485+119.126L205.394+119.126L205.394+123.78L202.485+123.78L202.485+119.126Z" stroke-linecap="round" stroke-width="0.38" stroke-linejoin="round" opacity="1"/>
</g>
<g opacity="1">
<path fill="#000000" stroke-linecap="round" stroke-linejoin="round" d="M215.639+114.472L218.625+114.472L218.625+123.78L215.639+123.78L215.639+114.472Z" stroke-width="0.68" stroke="#acacac" opacity="1"/>
<path d="M215.639+119.126L218.625+119.126L218.625+123.78L215.639+123.78L215.639+119.126Z" stroke-linejoin="round" stroke="#acacac" opacity="1" fill="#000000" stroke-width="0.38" stroke-linecap="round"/>
</g>
<g opacity="1">
<path stroke-linecap="round" opacity="1" stroke-linejoin="round" stroke="#acacac" fill="#000000" stroke-width="0.68" d="M228.385+114.472L231.372+114.472L231.372+123.78L228.385+123.78L228.385+114.472Z"/>
<path fill="#000000" stroke-width="0.38" stroke-linejoin="round" stroke="#acacac" d="M228.385+119.126L231.372+119.126L231.372+123.78L228.385+123.78L228.385+119.126Z" stroke-linecap="round" opacity="1"/>
</g>
</g>
<path stroke-linecap="butt" opacity="1" stroke="#acacac" d="M59.7181+113.172L66.7418+113.172L66.7418+295.607L59.7181+295.607L59.7181+113.172Z" fill="#acacac" stroke-width="0.52" stroke-linejoin="miter"/>
<path opacity="1" stroke-linejoin="miter" d="M242.022+292.626L242.022+296.007L59.587+296.007L59.587+292.626L242.022+292.626Z" stroke-width="0.52" stroke="#acacac" fill="#acacac" stroke-linecap="butt"/>
<path stroke-linejoin="miter" fill="#000000" stroke-linecap="butt" stroke="#acacac" d="M66.2377+222.944L100.508+222.944L100.508+296.007L66.2377+296.007L66.2377+222.944Z" stroke-width="1.02" opacity="1"/>
<path stroke-linecap="butt" stroke-linejoin="miter" opacity="1" fill="#000000" d="M64.0267+210.843L104.264+210.843L104.264+215.451L64.0267+215.451L64.0267+210.843Z" stroke="#acacac" stroke-width="1.02"/>
<path fill="#000000" stroke-linejoin="miter" opacity="1" stroke="#acacac" stroke-width="1.02" stroke-linecap="butt" d="M105.842+208.375L61.875+208.375L63.7758+210.75L66.0505+210.75L101.667+210.75L103.942+210.75L105.842+208.375Z"/>
<path d="M61+206.526L61.0625+206.788L61.875+208.462L105.969+208.462L106.75+206.788L106.844+206.526L101.781+206.526L96.0625+206.526L66.0625+206.526L61+206.526Z" fill="#000000" stroke-linejoin="miter" opacity="1" stroke-width="1.02" stroke-linecap="butt" stroke="#acacac"/>
<path d="M66.25+215.438L66.25+223.062L100.485+222.966L100.5+220.781L100.508+219.803L101.781+217.875L101.781+215.438L66.25+215.438Z" stroke-linejoin="miter" opacity="1" stroke-linecap="butt" stroke-width="1.02" stroke="#acacac" fill="#000000"/>
<g opacity="1">
<path stroke-linecap="butt" stroke-linejoin="miter" stroke="#acacac" opacity="1" stroke-width="1.02" fill="#000000" d="M94.6091+215.599L97.8179+215.599L97.8179+222.566L94.6091+222.566L94.6091+215.599Z"/>
<path fill="#000000" stroke-width="1.02" stroke="#acacac" d="M94.757+218.981L97.6811+218.981L97.6811+222.566L94.757+222.566L94.757+218.981Z" stroke-linecap="butt" stroke-linejoin="miter" opacity="1"/>
</g>
<g opacity="1">
<path opacity="1" stroke-linecap="butt" stroke-width="1.02" fill="#000000" stroke-linejoin="miter" stroke="#acacac" d="M69.0056+215.725L72.2144+215.725L72.2144+222.693L69.0056+222.693L69.0056+215.725Z"/>
<path stroke="#acacac" stroke-width="1.02" d="M69.1535+219.108L72.0776+219.108L72.0776+222.693L69.1535+222.693L69.1535+219.108Z" stroke-linejoin="miter" stroke-linecap="butt" fill="#000000" opacity="1"/>
</g>
<path stroke-linejoin="miter" opacity="1" fill="#000000" stroke-width="0.82" stroke-linecap="butt" d="M71.1654+235.759L95.5807+235.759L95.5807+292.399L71.1654+292.399L71.1654+235.759Z" stroke="#acacac"/>
<path opacity="1" stroke="#acacac" stroke-width="0.82" stroke-linecap="butt" stroke-linejoin="miter" fill="#000000" d="M71.1654+226.526L95.5807+226.526L95.5807+232.425L71.1654+232.425L71.1654+226.526Z"/>
<path opacity="1" fill="#000000" stroke="#acacac" stroke-linejoin="miter" d="M90.2633+263.007C90.2633+262.415+90.7434+261.935+91.3355+261.935C91.9277+261.935+92.4077+262.415+92.4077+263.007C92.4077+263.6+91.9277+264.08+91.3355+264.08C90.7434+264.08+90.2633+263.6+90.2633+263.007Z" stroke-width="0.82" stroke-linecap="butt"/>
<path d="M59.5907+46.3091L242.274+46.3091L242.274+52.9017L59.5907+52.9017L59.5907+46.3091Z" fill="#000000" opacity="1" stroke="#acacac" stroke-linejoin="round" stroke-linecap="round" stroke-width="1.72"/>
<path d="M60.1295+46.3091L241.692+46.3091L241.692+48.0755L60.1295+48.0755L60.1295+46.3091Z" fill="#000000" stroke-width="2.72" stroke-linecap="round" stroke-linejoin="round" stroke="#acacac" opacity="1"/>
<path d="M175.571+71.7873L209.035+71.7873L209.035+105.251L175.571+105.251L175.571+71.7873Z" fill="#000000" stroke="#acacac" stroke-linejoin="round" stroke-linecap="round" opacity="1" stroke-width="0.82"/>
<path fill="#000000" stroke-linecap="round" stroke-linejoin="round" stroke-width="0.72" opacity="1" stroke="#acacac" d="M182.453+77.0793L202.153+77.0793L202.153+99.8949L182.453+99.8949L182.453+77.0793Z"/>
<path d="M192.235+63.0859L208.912+71.8515L175.558+71.8515L192.235+63.0859Z" stroke-width="0.82" stroke="#acacac" fill="#000000" opacity="1" stroke-linecap="round" stroke-linejoin="round"/>
<path stroke="#acacac" opacity="1" stroke-width="0.42" stroke-linejoin="round" fill="#acacac" d="M192.208+67.0244L196.029+69.0329L188.387+69.0329L192.208+67.0244Z" stroke-linecap="round"/>
<g opacity="1">
<path opacity="1" stroke-width="0.82" d="M192.285+58.3223L178.748+65.3869L169.769+70.0637L169.769+74.7997L178.255+70.3794L192.285+63.0781L192.285+58.3223Z" stroke-linejoin="round" fill="#acacac" stroke="#acacac" stroke-linecap="round"/>
<path stroke-linecap="round" d="M192.285+58.3825L178.255+65.6839L169.769+70.1042L169.769+70.9922L178.255+66.5719L192.285+59.2705L192.285+58.3825Z" stroke="#acacac" stroke-width="0.52" stroke-linejoin="round" fill="#acacac" opacity="1"/>
</g>
<g opacity="1">
<path stroke-linejoin="round" opacity="1" d="M192.387+58.3362L205.924+65.4007L214.903+70.0775L214.903+74.8135L206.418+70.3932L192.387+63.0919L192.387+58.3362Z" fill="#acacac" stroke-linecap="round" stroke="#acacac" stroke-width="0.82"/>
<path fill="#acacac" stroke-linejoin="round" d="M192.387+58.3964L206.418+65.6977L214.903+70.118L214.903+71.006L206.418+66.5857L192.387+59.2844L192.387+58.3964Z" stroke-linecap="round" stroke-width="0.52" stroke="#acacac" opacity="1"/>
</g>
<path fill="#acacac" stroke="#acacac" opacity="1" stroke-linecap="round" stroke-width="0.82" d="M175.571+104.092L209.035+104.092L209.035+105.38L175.571+105.38L175.571+104.092Z" stroke-linejoin="round"/>
<path stroke-linejoin="round" fill="#acacac" stroke-linecap="round" d="M114.904+66.8344L118.725+68.8428L111.083+68.8428L114.904+66.8344Z" stroke="#acacac" stroke-width="0.42" opacity="1"/>
</g>
</g>
</svg>
