<?xml version="1.0" encoding="UTF-8" standalone="no"?> <!-- Created with Vectornator for iOS (http://vectornator.io/) --><!DOCTYPE svg PUBLIC "-//W3C//DTD SVG 1.1//EN" "http://www.w3.org/Graphics/SVG/1.1/DTD/svg11.dtd">
<svg style="fill-rule:nonzero;clip-rule:evenodd;stroke-linecap:round;stroke-linejoin:round;" xmlns:vectornator="http://vectornator.io" width="100%" height="100%" viewBox="0 0 39.72 77.464" version="1.1" xmlns:xlink="http://www.w3.org/1999/xlink" xml:space="preserve" xmlns="http://www.w3.org/2000/svg">
<metadata>
<vectornator:setting key="WDSnapToPoints" value="false"/>
<vectornator:setting value="true" key="VNDimensionsVisible"/>
<vectornator:setting value="false" key="IsTimeLapseWatermarkDisabled"/>
<vectornator:setting value="false" key="WDCMYKEnabledKey"/>
<vectornator:setting value="true" key="WDGuidesVisible"/>
<vectornator:setting key="VNSnapToGuides" value="true"/>
<vectornator:setting value="false" key="WDDisplayWhiteBackground"/>
<vectornator:setting key="WDIsolateActiveLayer" value="false"/>
<vectornator:setting key="WDRulersVisible" value="true"/>
<vectornator:setting key="WDSnapToEdges" value="false"/>
<vectornator:setting value="false" key="UndoHistoryDisabled"/>
<vectornator:setting value="false" key="VNPencilOnly"/>
<vectornator:setting key="WDSnapToGrid" value="false"/>
<vectornator:setting key="WDUnits" value="Pixels"/>
<vectornator:setting value="false" key="WDDynamicGuides"/>
<vectornator:setting key="WDOutlineMode" value="false"/>
</metadata>
<defs/>
<g id="Layer 1" vectornator:layerName="Layer 1">
<g opacity="1">
<path stroke-linejoin="round" d="M380.543+155.569L317.019+155.569L317.019+243.539L380.543+243.539L380.543+155.569Z" fill="#000000" stroke="#808080" stroke-width="1.28" stroke-linecap="round" opacity="1"/>
<path stroke-width="1.72" d="M380.538+241.617L317.217+241.617L317.217+245.35L380.538+245.35L380.538+241.617Z" fill="#acacac" opacity="1" stroke-linecap="round" stroke-linejoin="round" stroke="#acacac"/>
<path stroke-width="1.72" stroke-linecap="round" stroke-linejoin="round" opacity="1" stroke="#acacac" d="M380.324+121.081L380.324+122.077L316.991+122.077L316.991+124.603L316.952+124.603L316.952+121.081L318.808+121.081L380.324+121.081Z" fill="#acacac"/>
<path fill="#000000" stroke-width="0.72" opacity="1" d="M316.948+123.921L380.577+123.921L380.577+155.885L316.948+155.885L316.948+123.921Z" stroke-linecap="round" stroke-linejoin="round" stroke="#acacac"/>
<path stroke-width="1.72" opacity="1" d="M380.337+122.178L380.337+124.702L316.948+124.702L316.948+122.178L380.337+122.178Z" fill="#071017" stroke-linecap="round" stroke="#acacac" stroke-linejoin="round"/>
<path d="M347.768+211.338L347.768+236.085L339.688+236.085L338.862+236.085L330.775+236.085L330.775+211.338L338.862+211.338L339.688+211.338L347.768+211.338Z" stroke-linecap="round" stroke-linejoin="round" stroke-width="0.82" opacity="1" fill="none" stroke="#808080"/>
<path fill="#a0a0a0" opacity="1" d="M349.191+211.336L349.191+212.452L349.191+212.474L349.191+214.199L349.191+214.88L349.191+216.337L349.757+216.337L349.757+216.685L348.974+216.685L348.666+216.685L347.891+216.685L347.891+216.627L347.891+216.337L347.891+214.88L347.891+214.199L347.891+212.474L340.899+212.474L337.632+212.474L330.648+212.474L330.648+214.199L330.648+214.88L330.648+216.337L330.648+216.627L330.648+216.685L329.865+216.685L329.556+216.685L328.781+216.685L328.781+216.337L329.34+216.337L329.34+214.88L329.34+214.199L329.34+212.452L329.348+212.452L329.348+211.336L337.632+211.336L340.899+211.336L349.191+211.336Z" stroke-linecap="round" stroke="#a0a0a0" stroke-width="1.22" stroke-linejoin="round"/>
<g opacity="1">
<path stroke-width="0.724251" stroke-linecap="round" fill="none" opacity="1" d="M338.494+224.285L332.291+224.285L332.291+233.479L338.494+233.479L338.494+224.285Z" stroke="#808080" stroke-linejoin="round"/>
<path stroke-width="0.724251" opacity="1" stroke-linejoin="round" fill="none" stroke-linecap="round" d="M338.494+213.843L332.291+213.843L332.291+223.714L338.494+223.714L338.494+213.843Z" stroke="#808080"/>
</g>
<g opacity="1">
<path stroke-linejoin="round" stroke-linecap="round" stroke="#808080" opacity="1" d="M346.169+224.285L339.966+224.285L339.966+233.479L346.169+233.479L346.169+224.285Z" stroke-width="0.724251" fill="none"/>
<path fill="none" stroke-linecap="round" stroke="#808080" opacity="1" d="M346.169+213.843L339.966+213.843L339.966+223.714L346.169+223.714L346.169+213.843Z" stroke-linejoin="round" stroke-width="0.724251"/>
</g>
<path stroke-width="1.22" stroke-linecap="round" d="M349.591+236.098L328.954+236.098L329.413+237.139L329.966+238.064L348.763+238.063L349.152+237.133L349.591+236.098Z" stroke="#808080" opacity="1" fill="none" stroke-linejoin="round"/>
<path opacity="1" stroke-width="0.92" fill="#a0a0a0" stroke-linejoin="round" stroke-linecap="round" d="M347.906+230.468L348.622+230.823L348.628+231.871L348.65+236.034L347.787+236.034L347.787+230.468L347.906+230.468Z" stroke="#a0a0a0"/>
<path fill="#a0a0a0" stroke-width="0.92" stroke-linecap="round" stroke="#a0a0a0" opacity="1" d="M330.665+230.525L329.948+230.88L329.942+231.928L329.92+236.091L330.783+236.091L330.783+230.525L330.665+230.525Z" stroke-linejoin="round"/>
<path stroke="#808080" stroke-linejoin="round" opacity="1" stroke-width="0.82" fill="none" stroke-linecap="round" d="M345.63+165.147L345.63+189.855L339.886+189.855L339.299+189.855L333.551+189.855L333.551+165.147L339.299+165.147L339.886+165.147L345.63+165.147Z"/>
<path opacity="1" stroke-width="1.22" stroke="#a0a0a0" stroke-linejoin="round" stroke-linecap="round" fill="#a0a0a0" d="M346.702+165.145L346.702+166.259L346.702+166.281L346.702+168.003L346.702+168.683L346.702+170.138L347.108+170.138L347.108+170.485L346.547+170.485L346.327+170.485L345.772+170.485L345.772+170.427L345.772+170.138L345.772+168.683L345.772+168.003L345.772+166.281L340.769+166.281L338.431+166.281L333.434+166.281L333.434+168.003L333.434+168.683L333.434+170.138L333.434+170.427L333.434+170.485L332.873+170.485L332.653+170.485L332.098+170.485L332.098+170.138L332.497+170.138L332.497+168.683L332.497+168.003L332.497+166.259L332.503+166.259L332.503+165.145L338.431+165.145L340.769+165.145L346.702+165.145Z"/>
<path opacity="1" d="M344.06+167.734L335.217+167.734L335.217+177.517L344.06+177.517L344.06+167.734Z" stroke-width="0.724251" fill="none" stroke="#808080" stroke-linejoin="round" stroke-linecap="round"/>
<path stroke-width="0.92" fill="#a0a0a0" opacity="1" d="M345.756+184.246L346.415+184.601L346.421+185.648L346.441+189.804L345.647+189.804L345.647+184.246L345.756+184.246Z" stroke-linecap="round" stroke-linejoin="round" stroke="#a0a0a0"/>
<path stroke-width="0.92" stroke-linecap="round" stroke-linejoin="round" d="M333.404+184.303L332.744+184.658L332.739+185.705L332.719+189.861L333.512+189.861L333.512+184.303L333.404+184.303Z" stroke="#a0a0a0" opacity="1" fill="#a0a0a0"/>
<path d="M344.06+178.602L335.217+178.602L335.217+188.384L344.06+188.384L344.06+178.602Z" opacity="1" stroke-linecap="round" stroke="#808080" stroke-linejoin="round" stroke-width="0.724251" fill="none"/>
<path stroke-linejoin="round" opacity="1" stroke-linecap="round" d="M374.722+165.147L374.722+189.855L368.979+189.855L368.392+189.855L362.644+189.855L362.644+165.147L368.392+165.147L368.979+165.147L374.722+165.147Z" stroke="#808080" fill="none" stroke-width="0.82"/>
<path fill="#a0a0a0" stroke-linejoin="round" stroke="#a0a0a0" opacity="1" stroke-width="1.22" stroke-linecap="round" d="M375.754+165.145L375.754+166.259L375.754+166.281L375.754+168.003L375.754+168.683L375.754+170.138L376.159+170.138L376.159+170.485L375.6+170.485L375.38+170.485L374.827+170.485L374.827+170.427L374.827+170.138L374.827+168.683L374.827+168.003L374.827+166.281L369.837+166.281L367.506+166.281L362.523+166.281L362.523+168.003L362.523+168.683L362.523+170.138L362.523+170.427L362.523+170.485L361.964+170.485L361.744+170.485L361.191+170.485L361.191+170.138L361.589+170.138L361.589+168.683L361.589+168.003L361.589+166.259L361.595+166.259L361.595+165.145L367.506+165.145L369.837+165.145L375.754+165.145Z"/>
<path fill="none" stroke-width="0.724251" d="M373.153+167.734L364.31+167.734L364.31+177.517L373.153+177.517L373.153+167.734Z" stroke-linejoin="round" stroke="#808080" stroke-linecap="round" opacity="1"/>
<path opacity="1" stroke-width="1.22" stroke="#808080" fill="none" d="M376.394+189.858L360.817+189.858L361.316+190.874L361.858+191.82L375.6+191.82L375.977+190.913L376.394+189.858Z" stroke-linecap="round" stroke-linejoin="round"/>
<path stroke-width="0.92" fill="#a0a0a0" d="M374.849+184.246L375.508+184.601L375.513+185.648L375.534+189.804L374.74+189.804L374.74+184.246L374.849+184.246Z" stroke-linecap="round" opacity="1" stroke="#a0a0a0" stroke-linejoin="round"/>
<path stroke-linecap="round" stroke="#a0a0a0" d="M362.496+184.303L361.837+184.658L361.832+185.705L361.811+189.861L362.605+189.861L362.605+184.303L362.496+184.303Z" stroke-width="0.92" opacity="1" stroke-linejoin="round" fill="#a0a0a0"/>
<path stroke-linejoin="round" fill="none" stroke-width="0.724251" d="M373.153+178.602L364.31+178.602L364.31+188.384L373.153+188.384L373.153+178.602Z" opacity="1" stroke-linecap="round" stroke="#808080"/>
<path stroke-linejoin="round" opacity="1" stroke-width="1.28" fill="#000000" stroke="#acacac" d="M375.367+210.107L360.508+210.107L360.508+243.641L375.367+243.641L375.367+210.107Z" stroke-linecap="round"/>
<path stroke="#acacac" stroke-width="1.28" stroke-linecap="round" stroke-linejoin="round" d="M377.5+208.016L375.518+210.084L360.491+210.084L358.509+208.016L377.5+208.016Z" opacity="1" fill="#acacac"/>
<g opacity="1">
<path stroke="#a0a0a0" stroke-linecap="round" opacity="1" d="M340.812+155.956L340.812+159.816L332.895+159.816L332.895+155.956L340.812+155.956Z" stroke-linejoin="round" fill="none" stroke-width="0.724251"/>
<path stroke-linecap="round" stroke-linejoin="round" fill="none" opacity="1" stroke="#a0a0a0" d="M348.722+155.956L348.722+159.816L340.812+159.816L340.812+155.956L348.722+155.956Z" stroke-width="0.724251"/>
<g opacity="1">
<path fill="none" d="M324.996+155.956L324.996+159.816L317.079+159.816L317.079+155.956L324.996+155.956Z" stroke="#a0a0a0" stroke-linejoin="round" stroke-linecap="round" stroke-width="0.724251" opacity="1"/>
<path stroke-linejoin="round" stroke-linecap="round" stroke-width="0.724251" fill="none" opacity="1" d="M332.907+155.956L332.907+159.816L324.996+159.816L324.996+155.956L332.907+155.956Z" stroke="#a0a0a0"/>
</g>
</g>
<path fill="none" stroke-width="0.82" opacity="1" d="M372.216+221.053L363.659+221.053L363.659+236.794L372.216+236.794L372.216+221.053Z" stroke-linecap="round" stroke-linejoin="round" stroke="#acacac"/>
<path stroke-linecap="round" stroke="#acacac" stroke-linejoin="round" fill="none" d="M372.191+213.194L363.634+213.194L363.634+219.294L372.191+219.294L372.191+213.194Z" opacity="1" stroke-width="0.82"/>
<path stroke="#acacac" stroke-width="0.52" stroke-linecap="round" stroke-linejoin="round" fill="none" d="M370.356+228.854C370.356+225.928+369.253+223.557+367.892+223.557C366.531+223.557+365.428+225.928+365.428+228.854C365.428+231.779+366.531+234.151+367.892+234.151C369.253+234.151+370.356+231.779+370.356+228.854Z" opacity="1"/>
<g opacity="1">
<path stroke="#a0a0a0" fill="none" stroke-width="0.724251" opacity="1" d="M372.682+155.956L372.682+159.816L364.698+159.816L364.698+155.956L372.682+155.956Z" stroke-linejoin="round" stroke-linecap="round"/>
<path fill="none" stroke="#a0a0a0" stroke-linecap="round" d="M380.66+155.956L380.66+159.816L372.682+159.816L372.682+155.956L380.66+155.956Z" opacity="1" stroke-linejoin="round" stroke-width="0.724251"/>
<g opacity="1">
<path stroke-width="0.724251" opacity="1" stroke="#a0a0a0" fill="none" d="M356.732+155.956L356.732+159.816L348.748+159.816L348.748+155.956L356.732+155.956Z" stroke-linecap="round" stroke-linejoin="round"/>
<path d="M364.71+155.956L364.71+159.816L356.732+159.816L356.732+155.956L364.71+155.956Z" stroke="#a0a0a0" opacity="1" fill="none" stroke-linejoin="round" stroke-width="0.724251" stroke-linecap="round"/>
</g>
</g>
<path opacity="1" d="M380.378+156.053L379.611+156.053L379.611+245.257L380.378+245.257L380.378+156.053Z" stroke-width="1.72" stroke-linecap="round" stroke="#acacac" fill="#acacac" stroke-linejoin="round"/>
<path d="M372.216+238.952L363.659+238.952L363.659+241.243L372.216+241.243L372.216+238.952Z" opacity="1" stroke-linejoin="round" fill="none" stroke-linecap="round" stroke-width="0.82" stroke="#acacac"/>
<path fill="#070b17" opacity="1" stroke-linecap="butt" stroke="#acacac" stroke-linejoin="miter" stroke-width="0.42" d="M368.282+136.261C368.383+136.261+368.462+136.329+368.462+136.415L368.462+136.434L368.901+136.434C368.926+136.434+368.946+136.457+368.946+136.483L368.946+136.858C368.946+136.883+368.926+136.906+368.901+136.906L368.676+136.906L368.676+137.089C368.676+137.114+368.656+137.137+368.631+137.137L368.406+137.137L368.406+137.31C368.406+137.335+368.386+137.358+368.361+137.358L368.136+137.358L368.136+137.551C368.136+137.576+368.116+137.589+368.091+137.589L367.63+137.589C367.605+137.589+367.585+137.576+367.585+137.551L367.585+137.175L367.147+137.175C367.047+137.175+366.967+137.108+366.967+137.021L366.967+136.415C366.967+136.329+367.047+136.261+367.147+136.261L368.282+136.261Z"/>
<path d="M357.502+136.456C357.602+136.456+357.682+136.387+357.682+136.473L357.682+137.07C357.682+137.156+357.602+137.233+357.502+137.233L357.052+137.233L357.052+137.618C357.052+137.639+357.026+137.656+356.996+137.656L356.558+137.656C356.528+137.656+356.502+137.639+356.502+137.618L356.502+137.426L356.277+137.426C356.247+137.426+356.221+137.408+356.221+137.387L356.221+137.195L356.018+137.195C355.989+137.195+355.962+137.178+355.962+137.156L355.962+136.964L355.748+136.964C355.719+136.964+355.692+136.947+355.692+136.925L355.692+136.531C355.692+136.509+355.719+136.492+355.748+136.492L356.176+136.492L356.176+136.473C356.176+136.387+356.266+136.553+356.367+136.553L357.502+136.456Z" fill="#070b17" stroke-linecap="butt" stroke-linejoin="miter" stroke-width="0.42" stroke="#acacac" opacity="1"/>
<path stroke="#acacac" stroke-linejoin="round" fill="#acacac" d="M362.324+128.727C366.342+128.727+369.613+131.347+370.025+134.693L370.699+134.693C370.758+134.693+370.812+134.729+370.812+134.779L370.812+135.549C370.812+135.599+370.758+135.636+370.699+135.636L370.07+135.636L369.811+135.636L369.646+135.639C369.631+135.632+369.628+135.637+369.609+135.637L368.946+135.627C368.953+135.562+368.934+135.452+368.934+135.386C368.934+132.259+365.989+129.718+362.336+129.718C358.683+129.718+355.715+132.259+355.715+135.386C355.715+135.469+355.701+135.544+355.703+135.626L355.129+135.635C355.123+135.635+355.113+135.635+355.108+135.636L354.579+135.636L354.006+135.636C353.947+135.636+353.894+135.599+353.894+135.549L353.894+134.779C353.894+134.729+353.947+134.693+354.006+134.693L354.624+134.693C355.036+131.347+358.307+128.727+362.324+128.727Z" stroke-width="1.52" stroke-linecap="round" opacity="1"/>
<path opacity="1" stroke-linejoin="round" stroke-linecap="round" fill="#070b17" d="M362.336+129.797C365.989+129.797+368.934+132.379+368.934+135.506C368.934+135.553+368.943+135.607+368.946+135.66L369.643+135.664C369.672+135.678+369.711+135.646+369.711+135.679L369.71+136.407C369.71+136.457+369.667+136.503+369.609+136.503L368.901+136.503L368.721+136.503L367.844+136.503C367.785+136.503+367.647+136.594+367.647+136.544L367.625+135.714L367.61+135.714L357.041+135.714L356.987+135.688L356.985+136.468C356.985+136.518+357.003+136.561+356.945+136.561L355.816+136.561L355.119+136.561C355.06+136.561+355.006+136.515+355.006+136.465L355.006+135.721C355.006+135.676+355.056+135.642+355.108+135.634L355.703+135.618C355.707+135.568+355.715+135.518+355.715+135.464C355.715+132.337+358.683+129.797+362.336+129.797Z" stroke="#acacac" stroke-width="1.12"/>
<path stroke="#acacac" stroke-width="0.82" stroke-linecap="round" fill="#000000" d="M362.321+130.928C365.298+130.928+367.712+133.029+367.712+135.621L367.712+151.289L356.931+151.289L356.931+135.621C356.931+133.029+359.344+130.928+362.321+130.928Z" stroke-linejoin="round" opacity="1"/>
<path stroke-width="0.52" fill="#000000" stroke-linejoin="round" stroke="#acacac" opacity="1" stroke-linecap="round" d="M362.317+132.229C364.514+132.229+366.315+133.716+366.405+135.577L366.405+135.579L366.405+135.722L366.405+139.643L358.237+139.643L358.237+135.722L358.238+135.575L358.24+135.575C358.33+133.714+360.12+132.229+362.317+132.229Z"/>
<path fill="#000000" opacity="1" stroke-linejoin="round" stroke-linecap="round" stroke-width="0.52" d="M366.301+140.821L358.341+140.821L358.341+148.28L366.301+148.28L366.301+140.821Z" stroke="#acacac"/>
<path d="M340.17+136.261C340.271+136.261+340.35+136.329+340.35+136.415L340.35+136.434L340.788+136.434C340.814+136.434+340.833+136.457+340.833+136.483L340.833+136.858C340.833+136.883+340.814+136.906+340.788+136.906L340.564+136.906L340.564+137.089C340.564+137.114+340.544+137.137+340.519+137.137L340.294+137.137L340.294+137.31C340.294+137.335+340.274+137.358+340.249+137.358L340.024+137.358L340.024+137.551C340.024+137.576+340.004+137.589+339.979+137.589L339.518+137.589C339.493+137.589+339.473+137.576+339.473+137.551L339.473+137.175L339.035+137.175C338.934+137.175+338.855+137.108+338.855+137.021L338.855+136.415C338.855+136.329+338.934+136.261+339.035+136.261L340.17+136.261Z" stroke-width="0.42" stroke-linejoin="miter" stroke="#acacac" opacity="1" stroke-linecap="butt" fill="#070b17"/>
<path stroke="#acacac" stroke-linejoin="miter" opacity="1" stroke-width="0.42" d="M329.39+136.456C329.49+136.456+329.57+136.387+329.57+136.473L329.57+137.07C329.57+137.156+329.49+137.233+329.39+137.233L328.94+137.233L328.94+137.618C328.94+137.639+328.914+137.656+328.884+137.656L328.446+137.656C328.416+137.656+328.389+137.639+328.389+137.618L328.389+137.426L328.165+137.426C328.135+137.426+328.108+137.408+328.108+137.387L328.108+137.195L327.906+137.195C327.876+137.195+327.85+137.178+327.85+137.156L327.85+136.964L327.636+136.964C327.607+136.964+327.58+136.947+327.58+136.925L327.58+136.531C327.58+136.509+327.607+136.492+327.636+136.492L328.063+136.492L328.063+136.473C328.063+136.387+328.154+136.553+328.255+136.553L329.39+136.456Z" fill="#070b17" stroke-linecap="butt"/>
<path stroke-width="1.52" fill="#acacac" stroke-linejoin="round" opacity="1" d="M334.212+128.727C338.23+128.727+341.501+131.347+341.913+134.693L342.587+134.693C342.646+134.693+342.699+134.729+342.699+134.779L342.699+135.549C342.699+135.599+342.646+135.636+342.587+135.636L341.958+135.636L341.699+135.636L341.534+135.639C341.519+135.632+341.516+135.637+341.497+135.637L340.833+135.627C340.84+135.562+340.822+135.452+340.822+135.386C340.822+132.259+337.877+129.718+334.224+129.718C330.571+129.718+327.603+132.259+327.603+135.386C327.603+135.469+327.589+135.544+327.591+135.626L327.017+135.635C327.011+135.635+327.001+135.635+326.996+135.636L326.467+135.636L325.894+135.636C325.835+135.636+325.781+135.599+325.781+135.549L325.781+134.779C325.781+134.729+325.835+134.693+325.894+134.693L326.512+134.693C326.923+131.347+330.195+128.727+334.212+128.727Z" stroke-linecap="round" stroke="#acacac"/>
<path stroke="#acacac" opacity="1" stroke-width="1.12" stroke-linecap="round" d="M334.224+129.797C337.877+129.797+340.822+132.379+340.822+135.506C340.822+135.553+340.83+135.607+340.833+135.66L341.53+135.664C341.56+135.678+341.599+135.646+341.599+135.679L341.598+136.407C341.598+136.457+341.555+136.503+341.497+136.503L340.788+136.503L340.609+136.503L339.732+136.503C339.673+136.503+339.535+136.594+339.535+136.544L339.513+135.714L339.498+135.714L328.929+135.714L328.875+135.688L328.873+136.468C328.873+136.518+328.891+136.561+328.833+136.561L327.704+136.561L327.007+136.561C326.948+136.561+326.894+136.515+326.894+136.465L326.894+135.721C326.894+135.676+326.944+135.642+326.996+135.634L327.591+135.618C327.595+135.568+327.603+135.518+327.603+135.464C327.603+132.337+330.571+129.797+334.224+129.797Z" fill="#070b17" stroke-linejoin="round"/>
<path stroke-linejoin="round" stroke-linecap="round" stroke="#acacac" fill="#000000" opacity="1" stroke-width="0.82" d="M334.209+130.928C337.186+130.928+339.6+133.029+339.6+135.621L339.6+151.289L328.819+151.289L328.819+135.621C328.819+133.029+331.232+130.928+334.209+130.928Z"/>
<path d="M334.205+132.229C336.402+132.229+338.203+133.716+338.293+135.577L338.293+135.579L338.293+135.722L338.293+139.643L330.125+139.643L330.125+135.722L330.126+135.575L330.128+135.575C330.218+133.714+332.008+132.229+334.205+132.229Z" stroke-width="0.52" fill="#000000" stroke-linecap="round" stroke-linejoin="round" opacity="1" stroke="#acacac"/>
<path fill="#000000" opacity="1" d="M338.189+140.821L330.229+140.821L330.229+148.28L338.189+148.28L338.189+140.821Z" stroke-linejoin="round" stroke-linecap="round" stroke-width="0.52" stroke="#acacac"/>
<path stroke-linejoin="round" fill="#acacac" d="M380.656+155.059L316.942+155.059L316.942+156.774L380.656+156.774L380.656+155.059Z" stroke-linecap="round" opacity="1" stroke="#acacac" stroke-width="0.724251"/>
<path stroke-width="0.724251" stroke-linecap="round" fill="#ffffff" d="M317.247+157.088L316.943+157.088L316.943+160.034L317.247+160.034L317.247+157.088Z" stroke="#ffffff" opacity="1" stroke-linejoin="round"/>
<path fill="none" d="M347.376+189.818L331.799+189.818L332.297+190.833L332.84+191.78L346.581+191.78L346.959+190.873L347.376+189.818Z" stroke="#808080" stroke-linejoin="round" stroke-width="1.22" stroke-linecap="round" opacity="1"/>
<path stroke="#acacac" opacity="1" stroke-linejoin="round" stroke-width="0.82" stroke-linecap="round" fill="#acacac" d="M328.98+150.95L339.379+150.95L339.379+150.961L328.98+150.961L328.98+150.95Z"/>
<path fill="#acacac" stroke="#acacac" stroke-width="0.82" stroke-linejoin="round" opacity="1" stroke-linecap="round" d="M357.097+150.943L367.496+150.943L367.496+150.953L357.097+150.953L357.097+150.943Z"/>
</g>
<g opacity="1">
<path opacity="1" stroke="#000000" stroke-linejoin="round" stroke-linecap="round" d="M39.6613+21.131L0.0609402+21.131L0.0609402+75.9701L39.6613+75.9701L39.6613+21.131Z" fill="#e2e2e2" stroke-width="1.52"/>
<path d="M39.6446+75.1404L0.171146+75.1404L0.171146+77.4675L39.6446+77.4675L39.6446+75.1404Z" fill="#000000" stroke-linecap="round" stroke="#000000" stroke-width="1.72" opacity="1" stroke-linejoin="round"/>
<path stroke="#000000" stroke-linecap="round" stroke-width="1.72" opacity="1" d="M39.5114+0L39.5114+0.620571L0.0305235+0.620571L0.0305235+2.19515L0.0063058+2.19515L0.0063058+0L1.16336+0L39.5114+0Z" stroke-linejoin="round" fill="#e2e2e2"/>
<path stroke-width="1.32" d="M0.0034989+1.77001L39.6693+1.77001L39.6693+21.6964L0.0034989+21.6964L0.0034989+1.77001Z" stroke="#000000" stroke-linecap="round" opacity="1" stroke-linejoin="round" fill="#e2e2e2"/>
<path stroke-linecap="round" d="M39.5197+0.683842L39.5197+2.25722L0.0034989+2.25722L0.0034989+0.683842L39.5197+0.683842Z" stroke-width="1.72" fill="#000000" stroke="#000000" stroke-linejoin="round" opacity="1"/>
<path opacity="1" stroke-linecap="round" stroke="#000000" d="M19.2165+56.265L19.2165+71.6919L14.1794+71.6919L13.6647+71.6919L8.62357+71.6919L8.62357+56.265L13.6647+56.265L14.1794+56.265L19.2165+56.265Z" stroke-linejoin="round" fill="#e2e2e2" stroke-width="0.62"/>
<path opacity="1" stroke-width="0.52" stroke-linejoin="round" stroke-linecap="round" fill="#000000" d="M19.9177+55.6301L19.9177+56.3258L19.9177+56.3394L19.9177+57.4147L19.9177+57.8394L19.9177+58.7475L20.2617+58.7475L20.2617+58.9644L19.7861+58.9644L19.5989+58.9644L19.1283+58.9644L19.1283+58.9283L19.1283+58.7475L19.1283+57.8394L19.1283+57.4147L19.1283+56.3394L14.883+56.3394L12.8995+56.3394L8.65933+56.3394L8.65933+57.4147L8.65933+57.8394L8.65933+58.7475L8.65933+58.9283L8.65933+58.9644L8.18369+58.9644L7.99648+58.9644L7.5259+58.9644L7.5259+58.7475L7.86492+58.7475L7.86492+57.8394L7.86492+57.4147L7.86492+56.3258L7.86998+56.3258L7.86998+55.6301L12.8995+55.6301L14.883+55.6301L19.9177+55.6301Z" stroke="#000000"/>
<path stroke-width="0.38" d="M13.4353+64.5894L9.56843+64.5894L9.56843+70.3209L13.4353+70.3209L13.4353+64.5894Z" fill="#e2e2e2" stroke-linecap="round" opacity="1" stroke="#000000" stroke-linejoin="round"/>
<path stroke="#000000" stroke-linejoin="round" opacity="1" stroke-linecap="round" fill="#e2e2e2" stroke-width="0.38" d="M13.4334+57.8801L9.56843+57.8801L9.56843+63.6091L13.4334+63.6091L13.4334+57.8801Z"/>
<path fill="#e2e2e2" opacity="1" stroke-linecap="round" stroke="#000000" stroke-linejoin="round" stroke-width="0.38" d="M18.2199+64.5894L14.3531+64.5894L14.3531+70.3209L18.2199+70.3209L18.2199+64.5894Z"/>
<path stroke="#000000" d="M18.2181+57.8502L14.3531+57.8502L14.3531+63.5791L18.2181+63.5791L18.2181+57.8502Z" stroke-linecap="round" stroke-width="0.38" fill="#e2e2e2" opacity="1" stroke-linejoin="round"/>
<path stroke="#000000" stroke-linejoin="round" opacity="1" d="M20.3528+71.7001L7.48783+71.7001L7.77399+72.3487L8.11869+72.9257L19.8368+72.9251L20.0792+72.345L20.3528+71.7001Z" fill="#000000" stroke-width="0.72" stroke-linecap="round"/>
<path d="M19.2598+67.9478L19.7065+68.1691L19.7103+68.8228L19.7238+71.4177L19.1861+71.4177L19.1861+67.9478L19.2598+67.9478Z" stroke-width="0.52" stroke-linejoin="round" stroke-linecap="round" stroke="#000000" fill="#000000" opacity="1"/>
<path stroke-linecap="round" fill="#000000" stroke="#000000" opacity="1" d="M8.59584+68.0104L8.14915+68.2316L8.14538+68.8854L8.1318+71.4803L8.66957+71.4803L8.66957+68.0104L8.59584+68.0104Z" stroke-linejoin="round" stroke-width="0.52"/>
<path d="M36.4212+55.4976L27.1588+55.4976L27.1588+76.4024L36.4212+76.4024L36.4212+55.4976Z" stroke-linejoin="round" opacity="1" stroke-width="0.78" stroke-linecap="round" fill="#e2e2e2" stroke="#000000"/>
<path stroke-width="0.78" fill="#000000" d="M37.751+54.1941L36.5157+55.483L27.1476+55.483L25.9122+54.1941L37.751+54.1941Z" stroke="#000000" stroke-linejoin="round" opacity="1" stroke-linecap="round"/>
<g opacity="1">
<path stroke-linecap="round" d="M14.9366+21.7402L14.9366+24.1465L10.0573+24.1465L10.0573+21.7402L14.9366+21.7402Z" stroke="#000000" stroke-width="0.724251" fill="#e2e2e2" opacity="1" stroke-linejoin="round"/>
<path stroke-linecap="round" opacity="1" d="M19.8115+21.7402L19.8115+24.1465L14.9366+24.1465L14.9366+21.7402L19.8115+21.7402Z" fill="#e2e2e2" stroke-linejoin="round" stroke-width="0.724251" stroke="#000000"/>
<g opacity="1">
<path fill="#e2e2e2" d="M5.18972+21.7402L5.18972+24.1465L0.310335+24.1465L0.310335+21.7402L5.18972+21.7402Z" stroke-width="0.724251" opacity="1" stroke-linecap="round" stroke="#000000" stroke-linejoin="round"/>
<path fill="#e2e2e2" stroke="#000000" stroke-width="0.724251" opacity="1" stroke-linejoin="round" stroke-linecap="round" d="M10.0646+21.7402L10.0646+24.1465L5.18972+24.1465L5.18972+21.7402L10.0646+21.7402Z"/>
</g>
</g>
<path stroke-linecap="round" fill="#e2e2e2" stroke="#000000" stroke-width="0.52" opacity="1" d="M34.4572+62.3209L29.1228+62.3209L29.1228+72.1339L34.4572+72.1339L34.4572+62.3209Z" stroke-linejoin="round"/>
<path opacity="1" d="M34.4417+57.4222L29.1073+57.4222L29.1073+61.2245L34.4417+61.2245L34.4417+57.4222Z" stroke-linecap="round" stroke="#000000" fill="#e2e2e2" stroke-width="0.52" stroke-linejoin="round"/>
<path stroke="#000000" fill="#e2e2e2" stroke-linecap="round" opacity="1" stroke-width="0.32" d="M33.2978+67.184C33.2978+65.3603+32.61+63.8819+31.7615+63.8819C30.9131+63.8819+30.2252+65.3603+30.2252+67.184C30.2252+69.0076+30.9131+70.486+31.7615+70.486C32.61+70.486+33.2978+69.0076+33.2978+67.184Z" stroke-linejoin="round"/>
<g opacity="1">
<path opacity="1" stroke-linejoin="round" stroke-width="0.724251" fill="#e2e2e2" stroke="#000000" stroke-linecap="round" d="M34.505+21.7402L34.505+24.1465L29.6084+24.1465L29.6084+21.7402L34.505+21.7402Z"/>
<path stroke-width="0.724251" stroke-linecap="round" opacity="1" stroke="#000000" stroke-linejoin="round" fill="#e2e2e2" d="M39.397+21.7402L39.397+24.1465L34.505+24.1465L34.505+21.7402L39.397+21.7402Z"/>
<g opacity="1">
<path opacity="1" d="M24.7238+21.7402L24.7238+24.1465L19.8272+24.1465L19.8272+21.7402L24.7238+21.7402Z" stroke="#000000" stroke-width="0.724251" stroke-linecap="round" stroke-linejoin="round" fill="#e2e2e2"/>
<path stroke-linejoin="round" fill="#e2e2e2" opacity="1" stroke="#000000" stroke-linecap="round" stroke-width="0.724251" d="M29.6158+21.7402L29.6158+24.1465L24.7238+24.1465L24.7238+21.7402L29.6158+21.7402Z"/>
</g>
</g>
<path stroke-width="0.52" stroke-linecap="round" d="M34.4572+73.4793L29.1228+73.4793L29.1228+74.9073L34.4572+74.9073L34.4572+73.4793Z" stroke="#000000" fill="#e2e2e2" opacity="1" stroke-linejoin="round"/>
<path stroke-linecap="butt" stroke="#000000" stroke-width="0.32" fill="#000000" stroke-linejoin="miter" opacity="1" d="M14.4802+9.46591C14.5428+9.46591+14.5923+9.50814+14.5923+9.56189L14.5923+9.57388L14.8656+9.57388C14.8812+9.57388+14.8936+9.58807+14.8936+9.60388L14.8936+9.83782C14.8936+9.85362+14.8812+9.86781+14.8656+9.86781L14.7254+9.86781L14.7254+9.98179C14.7254+9.99759+14.713+10.0118+14.6974+10.0118L14.5572+10.0118L14.5572+10.1198C14.5572+10.1356+14.5448+10.1497+14.5292+10.1497L14.3891+10.1497L14.3891+10.2697C14.3891+10.2855+14.3767+10.2937+14.361+10.2937L14.0737+10.2937C14.0581+10.2937+14.0457+10.2855+14.0457+10.2697L14.0457+10.0358L13.7724+10.0358C13.7098+10.0358+13.6603+9.99355+13.6603+9.9398L13.6603+9.56189C13.6603+9.50814+13.7098+9.46591+13.7724+9.46591L14.4802+9.46591Z"/>
<path stroke-linecap="butt" stroke-width="0.32" stroke-linejoin="miter" d="M7.75986+9.5875C7.82244+9.5875+7.87198+9.54413+7.87198+9.59788L7.87198+9.96979C7.87198+10.0235+7.82245+10.0718+7.75986+10.0718L7.47955+10.0718L7.47955+10.3117C7.47955+10.3251+7.46298+10.3357+7.44451+10.3357L7.17122+10.3357C7.15276+10.3357+7.13617+10.3251+7.13618+10.3117L7.13618+10.1917L6.99603+10.1917C6.97756+10.1917+6.96099+10.1811+6.96099+10.1677L6.96099+10.0478L6.83485+10.0478C6.81639+10.0478+6.79981+10.0372+6.79981+10.0238L6.79981+9.90381L6.66667+9.90381C6.64821+9.90381+6.63163+9.89318+6.63163+9.87981L6.63163+9.63387C6.63163+9.6205+6.64821+9.60987+6.66667+9.60988L6.93296+9.60988L6.93296+9.59788C6.93296+9.54413+6.98949+9.64765+7.05209+9.64765L7.75986+9.5875Z" opacity="1" fill="#000000" stroke="#000000"/>
<path stroke-linecap="round" d="M10.7661+4.76902C13.2704+4.76902+15.3099+6.40247+15.5663+8.48814L15.9868+8.48814C16.0233+8.48814+16.0569+8.51086+16.0569+8.54213L16.0569+9.02201C16.0569+9.05328+16.0233+9.076+15.9868+9.076L15.5944+9.076L15.4332+9.076L15.3303+9.07792C15.321+9.07339+15.3192+9.07704+15.3071+9.07704L14.8936+9.07065C14.898+9.03015+14.8866+8.9617+14.8866+8.92004C14.8866+6.97073+13.0503+5.38688+10.7731+5.38688C8.49593+5.38688+6.64564+6.97073+6.64564+8.92004C6.64565+8.97217+6.63689+9.01866+6.63864+9.07L6.28036+9.07524C6.2767+9.07524+6.2708+9.07545+6.26723+9.076L5.93787+9.076L5.58049+9.076C5.54396+9.076+5.51041+9.05328+5.51041+9.02201L5.51041+8.54213C5.51041+8.51086+5.54396+8.48814+5.58049+8.48814L5.96591+8.48814C6.22231+6.40247+8.26183+4.76903+10.7661+4.76902Z" opacity="1" stroke="#000000" stroke-linejoin="round" stroke-width="0.82" fill="#000000"/>
<path stroke-linecap="round" d="M10.7731+5.43591C13.0503+5.43591+14.8866+7.04583+14.8866+8.99514C14.8866+9.02414+14.8917+9.05834+14.8936+9.09112L15.3281+9.09341C15.3468+9.10246+15.3709+9.08215+15.3709+9.10299L15.3701+9.55693C15.3701+9.58819+15.3436+9.61691+15.3071+9.61691L14.8656+9.61691L14.7535+9.61691L14.2069+9.61691C14.1703+9.61691+14.0842+9.67325+14.0842+9.64199L14.0705+9.12503L14.0612+9.12503L7.47254+9.12503L7.43903+9.10831L7.43742+9.59457C7.43742+9.62584+7.44901+9.65291+7.41248+9.65291L6.70871+9.65291L6.27424+9.65291C6.23771+9.65291+6.20416+9.62419+6.20416+9.59292L6.20416+9.12893C6.20417+9.10079+6.23517+9.07989+6.26723+9.07495L6.63864+9.06504C6.64076+9.03352+6.64565+9.00246+6.64564+8.96907C6.64564+7.01976+8.49593+5.43591+10.7731+5.43591Z" stroke="#000000" fill="#e2e2e2" opacity="1" stroke-linejoin="round" stroke-width="0.62"/>
<path opacity="1" stroke-width="0.6" stroke-linecap="round" stroke="#000000" stroke-linejoin="round" d="M10.7641+6.14154C12.6198+6.14154+14.1245+7.45129+14.1245+9.06652L14.1245+18.8339L7.40372+18.8339L7.40372+9.06652C7.40372+7.45129+8.90843+6.14154+10.7641+6.14154Z" fill="#e2e2e2"/>
<path d="M10.7617+6.95236C12.1313+6.95236+13.2538+7.8791+13.3097+9.03969L13.31+9.04065L13.31+9.12969L13.31+11.5741L8.21815+11.5741L8.21815+9.12969L8.21874+9.03831L8.22004+9.03831C8.27596+7.87772+9.39217+6.95236+10.7617+6.95236Z" opacity="1" stroke-linejoin="round" stroke-linecap="round" fill="#e2e2e2" stroke="#000000" stroke-width="0.4"/>
<path opacity="1" stroke-linejoin="round" stroke-width="0.4" stroke-linecap="round" fill="#e2e2e2" stroke="#000000" d="M13.2453+12.3082L8.28289+12.3082L8.28289+16.9585L13.2453+16.9585L13.2453+12.3082Z"/>
<path stroke="#000000" stroke-linecap="round" stroke-linejoin="round" stroke-width="0.724251" opacity="1" fill="#000000" d="M39.7184+21.1812L0+21.1812L0+22.2506L39.7184+22.2506L39.7184+21.1812Z"/>
<path opacity="1" d="M0.189845+22.4461L0.000915878+22.4461L0.000915878+24.2828L0.189845+24.2828L0.189845+22.4461Z" stroke-width="0.724251" stroke-linejoin="round" stroke-linecap="round" fill="#e2e2e2" stroke="#000000"/>
<path d="M17.8834+27.4702L17.8834+42.8725L14.3031+42.8725L13.9372+42.8725L10.354+42.8725L10.354+27.4702L13.9372+27.4702L14.3031+27.4702L17.8834+27.4702Z" stroke-width="0.62" opacity="1" stroke-linecap="round" stroke="#000000" fill="#e2e2e2" stroke-linejoin="round"/>
<path stroke-linecap="round" opacity="1" stroke="#000000" fill="#000000" stroke-linejoin="round" stroke-width="0.52" d="M18.4213+26.7578L18.4213+27.4524L18.4213+27.466L18.4213+28.5396L18.4213+28.9636L18.4213+29.8703L18.6672+29.8703L18.6672+30.0868L18.3273+30.0868L18.1935+30.0868L17.8573+30.0868L17.8573+30.0507L17.8573+29.8703L17.8573+28.9636L17.8573+28.5396L17.8573+27.466L14.8239+27.466L13.4066+27.466L10.3768+27.466L10.3768+28.5396L10.3768+28.9636L10.3768+29.8703L10.3768+30.0507L10.3768+30.0868L10.037+30.0868L9.90319+30.0868L9.56695+30.0868L9.56695+29.8703L9.80919+29.8703L9.80919+28.9636L9.80919+28.5396L9.80919+27.4524L9.8128+27.4524L9.8128+26.7578L13.4066+26.7578L14.8239+26.7578L18.4213+26.7578Z"/>
<path stroke-linecap="round" stroke="#000000" stroke-linejoin="round" fill="#e2e2e2" d="M16.9052+29.0829L11.3923+29.0829L11.3923+35.1811L16.9052+35.1811L16.9052+29.0829Z" opacity="1" stroke-width="0.38"/>
<path stroke="#000000" stroke-width="0.52" opacity="1" stroke-linejoin="round" fill="#000000" stroke-linecap="round" d="M17.9623+39.3763L18.3732+39.5972L18.3767+40.2499L18.3892+42.8406L17.8945+42.8406L17.8945+39.3763L17.9623+39.3763Z"/>
<path stroke-width="0.52" stroke="#000000" stroke-linejoin="round" opacity="1" d="M10.262+39.4118L9.85101+39.6327L9.84754+40.2854L9.83505+42.8762L10.3298+42.8762L10.3298+39.4118L10.262+39.4118Z" fill="#000000" stroke-linecap="round"/>
<path d="M16.9052+35.8574L11.3923+35.8574L11.3923+41.9556L16.9052+41.9556L16.9052+35.8574Z" fill="#e2e2e2" opacity="1" stroke-linecap="round" stroke="#000000" stroke-width="0.38" stroke-linejoin="round"/>
<path stroke-width="0.62" fill="#e2e2e2" opacity="1" d="M18.9721+42.8498L9.26148+42.8498L9.57225+43.4826L9.91036+44.0729L18.4768+44.0729L18.7121+43.5073L18.9721+42.8498Z" stroke="#000000" stroke-linejoin="round" stroke-linecap="round"/>
<path stroke-width="0.82" stroke-linejoin="round" opacity="1" stroke="#000000" stroke-linecap="round" d="M7.50405+18.6199L13.9869+18.6199L13.9869+18.6264L7.50405+18.6264L7.50405+18.6199Z" fill="#000000"/>
<path d="M25.0319+18.6151L31.5148+18.6151L31.5148+18.6217L25.0319+18.6217L25.0319+18.6151Z" stroke-linejoin="round" fill="#e2e2e2" stroke-linecap="round" stroke-width="0.82" stroke="#acacac" opacity="1"/>
<path fill="#000000" stroke="#000000" stroke-width="0.32" stroke-linejoin="miter" stroke-linecap="butt" opacity="1" d="M32.0049+9.46591C32.0675+9.46591+32.117+9.50814+32.117+9.56189L32.117+9.57388L32.3903+9.57388C32.4059+9.57388+32.4183+9.58807+32.4183+9.60388L32.4183+9.83782C32.4183+9.85362+32.4059+9.86781+32.3903+9.86781L32.2501+9.86781L32.2501+9.98179C32.2501+9.99759+32.2377+10.0118+32.2221+10.0118L32.082+10.0118L32.082+10.1198C32.082+10.1356+32.0695+10.1497+32.0539+10.1497L31.9138+10.1497L31.9138+10.2697C31.9138+10.2855+31.9014+10.2937+31.8857+10.2937L31.5984+10.2937C31.5828+10.2937+31.5704+10.2855+31.5704+10.2697L31.5704+10.0358L31.2971+10.0358C31.2345+10.0358+31.185+9.99355+31.185+9.9398L31.185+9.56189C31.185+9.50814+31.2345+9.46591+31.2971+9.46591L32.0049+9.46591Z"/>
<path opacity="1" stroke-linecap="butt" stroke="#000000" stroke-width="0.32" d="M25.2846+9.5875C25.3472+9.5875+25.3967+9.54413+25.3967+9.59788L25.3967+9.96979C25.3967+10.0235+25.3472+10.0718+25.2846+10.0718L25.0043+10.0718L25.0043+10.3117C25.0043+10.3251+24.9877+10.3357+24.9692+10.3357L24.6959+10.3357C24.6775+10.3357+24.6609+10.3251+24.6609+10.3117L24.6609+10.1917L24.5207+10.1917C24.5023+10.1917+24.4857+10.1811+24.4857+10.1677L24.4857+10.0478L24.3596+10.0478C24.3411+10.0478+24.3245+10.0372+24.3245+10.0238L24.3245+9.90381L24.1914+9.90381C24.1729+9.90381+24.1563+9.89318+24.1563+9.87981L24.1563+9.63387C24.1563+9.6205+24.1729+9.60987+24.1914+9.60988L24.4577+9.60988L24.4577+9.59788C24.4577+9.54413+24.5142+9.64765+24.5768+9.64765L25.2846+9.5875Z" fill="#000000" stroke-linejoin="miter"/>
<path opacity="1" fill="#000000" stroke="#000000" stroke-linejoin="round" stroke-linecap="round" stroke-width="0.82" d="M28.2908+4.76902C30.7951+4.76902+32.8347+6.40247+33.0911+8.48814L33.5115+8.48814C33.548+8.48814+33.5816+8.51086+33.5816+8.54213L33.5816+9.02201C33.5816+9.05328+33.548+9.076+33.5115+9.076L33.1191+9.076L32.9579+9.076L32.855+9.07792C32.8457+9.07339+32.8439+9.07704+32.8318+9.07704L32.4183+9.07065C32.4227+9.03015+32.4113+8.9617+32.4113+8.92004C32.4113+6.97073+30.575+5.38688+28.2978+5.38688C26.0206+5.38688+24.1704+6.97073+24.1704+8.92004C24.1704+8.97217+24.1616+9.01866+24.1633+9.07L23.8051+9.07524C23.8014+9.07524+23.7955+9.07545+23.7919+9.076L23.4626+9.076L23.1052+9.076C23.0687+9.076+23.0351+9.05328+23.0351+9.02201L23.0351+8.54213C23.0351+8.51086+23.0687+8.48814+23.1052+8.48814L23.4906+8.48814C23.747+6.40247+25.7865+4.76903+28.2908+4.76902Z"/>
<path stroke-linejoin="round" stroke-linecap="round" fill="#e2e2e2" stroke-width="0.62" opacity="1" stroke="#000000" d="M28.2978+5.43591C30.575+5.43591+32.4113+7.04583+32.4113+8.99514C32.4113+9.02414+32.4164+9.05834+32.4183+9.09112L32.8528+9.09341C32.8715+9.10246+32.8956+9.08215+32.8956+9.10299L32.8948+9.55693C32.8948+9.58819+32.8683+9.61691+32.8318+9.61691L32.3903+9.61691L32.2782+9.61691L31.7316+9.61691C31.6951+9.61691+31.6089+9.67325+31.6089+9.64199L31.5952+9.12503L31.5859+9.12503L24.9973+9.12503L24.9637+9.10831L24.9621+9.59457C24.9621+9.62584+24.9737+9.65291+24.9372+9.65291L24.2334+9.65291L23.799+9.65291C23.7624+9.65291+23.7289+9.62419+23.7289+9.59292L23.7289+9.12893C23.7289+9.10079+23.7599+9.07989+23.7919+9.07495L24.1633+9.06504C24.1655+9.03352+24.1704+9.00246+24.1704+8.96907C24.1704+7.01976+26.0206+5.43591+28.2978+5.43591Z"/>
<path stroke-width="0.6" fill="#e2e2e2" stroke-linejoin="round" stroke="#000000" stroke-linecap="round" d="M28.2888+6.14154C30.1445+6.14154+31.6492+7.45129+31.6492+9.06652L31.6492+18.8339L24.9284+18.8339L24.9284+9.06652C24.9284+7.45129+26.4331+6.14154+28.2888+6.14154Z" opacity="1"/>
<path stroke-linecap="round" stroke="#000000" fill="#e2e2e2" stroke-width="0.4" stroke-linejoin="round" opacity="1" d="M28.2864+6.95236C29.656+6.95236+30.7785+7.8791+30.8344+9.03969L30.8347+9.04065L30.8347+9.12969L30.8347+11.5741L25.7429+11.5741L25.7429+9.12969L25.7434+9.03831L25.7447+9.03831C25.8007+7.87772+26.9169+6.95236+28.2864+6.95236Z"/>
<path fill="#e2e2e2" stroke-linejoin="round" stroke="#000000" d="M30.77+12.3082L25.8076+12.3082L25.8076+16.9585L30.77+16.9585L30.77+12.3082Z" opacity="1" stroke-linecap="round" stroke-width="0.4"/>
<g opacity="1">
<path fill="#e2e2e2" stroke-linecap="round" opacity="1" d="M35.3326+27.4702L35.3326+42.8725L31.7522+42.8725L31.3864+42.8725L27.8031+42.8725L27.8031+27.4702L31.3864+27.4702L31.7522+27.4702L35.3326+27.4702Z" stroke-width="0.62" stroke="#000000" stroke-linejoin="round"/>
<path stroke-linejoin="round" opacity="1" d="M35.8705+26.7578L35.8705+27.4524L35.8705+27.466L35.8705+28.5396L35.8705+28.9636L35.8705+29.8703L36.1163+29.8703L36.1163+30.0868L35.7765+30.0868L35.6427+30.0868L35.3065+30.0868L35.3065+30.0507L35.3065+29.8703L35.3065+28.9636L35.3065+28.5396L35.3065+27.466L32.273+27.466L30.8558+27.466L27.826+27.466L27.826+28.5396L27.826+28.9636L27.826+29.8703L27.826+30.0507L27.826+30.0868L27.4861+30.0868L27.3523+30.0868L27.0161+30.0868L27.0161+29.8703L27.2583+29.8703L27.2583+28.9636L27.2583+28.5396L27.2583+27.4524L27.262+27.4524L27.262+26.7578L30.8558+26.7578L32.273+26.7578L35.8705+26.7578Z" fill="#000000" stroke-width="0.52" stroke="#000000" stroke-linecap="round"/>
<path d="M34.3544+29.0829L28.8414+29.0829L28.8414+35.1811L34.3544+35.1811L34.3544+29.0829Z" stroke-width="0.38" opacity="1" stroke-linecap="round" stroke="#000000" stroke-linejoin="round" fill="#e2e2e2"/>
<path opacity="1" stroke-width="0.52" stroke-linecap="round" stroke="#000000" d="M35.4114+39.3763L35.8224+39.5972L35.8259+40.2499L35.8384+42.8406L35.3436+42.8406L35.3436+39.3763L35.4114+39.3763Z" fill="#000000" stroke-linejoin="round"/>
<path d="M27.7111+39.4118L27.3002+39.6327L27.2967+40.2854L27.2842+42.8762L27.7789+42.8762L27.7789+39.4118L27.7111+39.4118Z" stroke-linejoin="round" stroke="#000000" stroke-linecap="round" stroke-width="0.52" fill="#000000" opacity="1"/>
<path opacity="1" stroke="#000000" stroke-linecap="round" stroke-width="0.38" d="M34.3544+35.8574L28.8414+35.8574L28.8414+41.9556L34.3544+41.9556L34.3544+35.8574Z" stroke-linejoin="round" fill="#e2e2e2"/>
<path stroke-linecap="round" stroke-width="0.62" stroke-linejoin="round" fill="#e2e2e2" opacity="1" stroke="#000000" d="M36.4212+42.8498L26.7106+42.8498L27.0214+43.4826L27.3595+44.0729L35.9259+44.0729L36.1612+43.5073L36.4212+42.8498Z"/>
</g>
<path stroke-linejoin="round" stroke-width="0.82" stroke="#000000" opacity="1" d="M25.0678+18.5765L31.5507+18.5765L31.5507+18.5831L25.0678+18.5831L25.0678+18.5765Z" fill="#000000" stroke-linecap="round"/>
</g>
</g>
</svg>
