<?xml version="1.0" encoding="UTF-8" standalone="no"?> <!-- Created with Vectornator for iOS (http://vectornator.io/) --><!DOCTYPE svg PUBLIC "-//W3C//DTD SVG 1.1//EN" "http://www.w3.org/Graphics/SVG/1.1/DTD/svg11.dtd">
<svg width="100%" xmlns="http://www.w3.org/2000/svg" xmlns:vectornator="http://vectornator.io" xmlns:xlink="http://www.w3.org/1999/xlink" style="fill-rule:nonzero;clip-rule:evenodd;stroke-linecap:round;stroke-linejoin:round;" xml:space="preserve" viewBox="0 0 45.78 64.5304" height="100%" version="1.1">
<metadata>
<vectornator:setting value="false" key="WDDisplayWhiteBackground"/>
<vectornator:setting value="true" key="WDRulersVisible"/>
<vectornator:setting value="true" key="WDGuidesVisible"/>
<vectornator:setting key="WDOutlineMode" value="false"/>
<vectornator:setting key="VNSnapToGuides" value="true"/>
<vectornator:setting key="WDSnapToEdges" value="false"/>
<vectornator:setting value="false" key="WDSnapToGrid"/>
<vectornator:setting key="WDDynamicGuides" value="false"/>
<vectornator:setting key="WDIsolateActiveLayer" value="false"/>
<vectornator:setting key="WDCMYKEnabledKey" value="false"/>
<vectornator:setting value="Pixels" key="WDUnits"/>
<vectornator:setting value="false" key="IsTimeLapseWatermarkDisabled"/>
<vectornator:setting value="false" key="UndoHistoryDisabled"/>
<vectornator:setting value="true" key="VNDimensionsVisible"/>
<vectornator:setting key="WDSnapToPoints" value="false"/>
<vectornator:setting value="false" key="VNPencilOnly"/>
</metadata>
<defs/>
<g vectornator:layerName="Layer 1" id="Layer 1">
<path fill="#e2e2e2" d="M0.205299+18.7795L45.5591+18.7795L45.5591+64.4805L0.205299+64.4805L0.205299+18.7795Z" stroke-linecap="round" stroke="#000000" stroke-linejoin="round" opacity="1" stroke-width="1.82"/>
<path opacity="1" d="M0.177115+0L45.5965+0L45.5965+17.3035L0.177115+17.3035L0.177115+0Z" stroke="#000000" stroke-linecap="round" stroke-linejoin="round" stroke-width="1.52" fill="#e2e2e2"/>
<path stroke-linejoin="round" stroke-width="1.28" fill="#e2e2e2" stroke="#000000" opacity="1" d="M0.398783+0.74093L45.3685+0.74093L45.3685+2.00368L0.398783+2.00368L0.398783+0.74093Z" stroke-linecap="round"/>
<path fill="#e2e2e2" stroke-linecap="round" stroke="#000000" opacity="1" stroke-width="1.22" stroke-linejoin="round" d="M0.1461+17.3484L45.6059+17.3484L45.6059+18.7803L0.1461+18.7803L0.1461+17.3484Z"/>
<path fill="#e2e2e2" d="M0.0496435+0.0852369L45.6763+0.0852369L45.6763+0.715559L0.0496435+0.715559L0.0496435+0.0852369Z" stroke-linecap="round" stroke-linejoin="round" stroke="#000000" opacity="1" stroke-width="1.02"/>
<path stroke-linejoin="round" fill="#e2e2e2" stroke-width="1.42" stroke="#000000" d="M0.127854+17.4161L45.5925+17.4161L45.5925+17.5234L0.127854+17.5234L0.127854+17.4161Z" stroke-linecap="round" opacity="1"/>
<path opacity="1" stroke-width="0.52" d="M0+16.9335L0.249552+16.9335L0.249552+19.0021L0+19.0021L0+16.9335Z" fill="#e2e2e2" stroke-linejoin="miter" stroke-linecap="butt" stroke="#000000"/>
<path stroke="#000000" fill="#e2e2e2" opacity="1" stroke-linecap="butt" d="M45.4775+16.9335L45.7772+16.9335L45.7772+19.0175L45.4775+19.0175L45.4775+16.9335Z" stroke-width="0.52" stroke-linejoin="miter"/>
<path fill="#e2e2e2" d="M33.716+47.7123L42.0731+47.7123L42.0731+64.5291L33.716+64.5291L33.716+47.7123Z" stroke="#000000" stroke-linejoin="miter" opacity="1" stroke-width="1.22" stroke-linecap="butt"/>
<path fill="#000000" stroke-width="0.32" opacity="1" stroke-linecap="butt" stroke-linejoin="miter" stroke="#000000" d="M32.7148+47.0598L43.0277+47.0598L43.0333+47.3214L42.866+47.5314L32.8869+47.5183L32.7163+47.276L32.7148+47.0598Z"/>
<path stroke="#000000" stroke-linecap="butt" stroke-width="0.32" opacity="1" d="M32.6932+45.8152L43.0223+45.8152L43.0223+46.8961L32.6932+46.8961L32.6932+45.8152Z" stroke-linejoin="miter" fill="#e2e2e2"/>
<path stroke-linejoin="miter" fill="#000000" stroke-width="0.32" d="M32.2898+45.1837L43.4215+45.1837L43.2043+45.5377L43.0643+45.7805L32.6262+45.7584L32.4649+45.4848L32.2898+45.1837Z" opacity="1" stroke-linecap="butt" stroke="#000000"/>
<path stroke-width="0.82" stroke-linejoin="miter" opacity="1" d="M33.9491+47.9739L41.6599+47.9739L41.6599+64.0705L33.9491+64.0705L33.9491+47.9739Z" stroke="#000000" stroke-linecap="butt" fill="#e2e2e2"/>
<path stroke="#000000" stroke-linecap="butt" stroke-width="0.4" opacity="1" fill="#e2e2e2" d="M35.1519+57.8802L37.3259+57.8802L37.3259+63.0897L35.1519+63.0897L35.1519+57.8802Z" stroke-linejoin="miter"/>
<path fill="#e2e2e2" d="M38.2617+57.8802L40.436+57.8802L40.436+63.0897L38.2617+63.0897L38.2617+57.8802Z" stroke-linecap="butt" stroke="#000000" opacity="1" stroke-width="0.4" stroke-linejoin="miter"/>
<path d="M35.1519+49.0217L40.436+49.0217L40.436+55.8026L35.1519+55.8026L35.1519+49.0217Z" opacity="1" stroke-linecap="butt" stroke-linejoin="miter" fill="#e2e2e2" stroke-width="0.4" stroke="#000000"/>
<path fill="#e2e2e2" opacity="1" stroke-linejoin="round" d="M8.6901+45.9145L8.6901+59.2053L16.1243+59.2053L16.8839+59.2053L24.3241+59.2053L24.3241+45.9145L16.8839+45.9145L16.1243+45.9145L8.6901+45.9145Z" stroke-linecap="round" stroke-width="0.92" stroke="#000000"/>
<path fill="#e2e2e2" stroke-linecap="round" stroke-linejoin="round" opacity="1" d="M9.9342+52.7752L12.6811+52.7752L12.6811+58.3348L9.9342+58.3348L9.9342+52.7752Z" stroke-width="0.4" stroke="#000000"/>
<path fill="#e2e2e2" opacity="1" stroke-width="0.4" d="M9.9342+46.697L12.6551+46.697L12.6551+52.2557L9.9342+52.2557L9.9342+46.697Z" stroke="#000000" stroke-linejoin="round" stroke-linecap="round"/>
<path stroke-width="0.22" d="M6.90362+42.6273L7.26028+42.8697L7.26028+42.9579L7.36002+42.9579L7.36002+42.9993C7.36002+43.0034+7.36735+43.002+7.38304+43.002L7.49046+43.002L7.49046+43.0381C7.49044+43.0421+7.50545+43.0448+7.52115+43.0448L7.64391+43.0448L7.64391+43.0728L7.93546+43.0728L16.5977+43.0728L16.6207+43.0728L25.283+43.0728L25.5745+43.0728L25.5745+43.0448L25.6896+43.0448C25.7053+43.0448+25.7203+43.0421+25.7203+43.0381L25.7203+43.002L25.8277+43.002C25.8434+43.002+25.8584+43.0034+25.8584+42.9993L25.8584+42.9579L25.9505+42.9579L25.9505+42.8697L26.3599+42.6466L16.6207+42.6278L16.5977+42.6278L6.90362+42.6273Z" stroke-linecap="butt" stroke-linejoin="miter" stroke="#000000" opacity="1" fill="#000000"/>
<path opacity="1" stroke-width="0.22" stroke-linejoin="miter" stroke="#000000" stroke-linecap="butt" fill="#000000" d="M6.72824+42.3667L26.5966+42.3667L26.5966+42.5413L6.72824+42.5413L6.72824+42.3667Z"/>
<path stroke-width="0.4" opacity="1" fill="#e2e2e2" stroke-linecap="round" stroke-linejoin="round" stroke="#000000" d="M20.4451+46.697L23.166+46.697L23.166+52.2557L20.4451+52.2557L20.4451+46.697Z"/>
<path fill="#e2e2e2" stroke-linejoin="round" d="M20.3933+52.7752L23.1142+52.7752L23.1142+58.3339L20.3933+58.3339L20.3933+52.7752Z" stroke-linecap="round" stroke-width="0.4" opacity="1" stroke="#000000"/>
<path fill="#e2e2e2" stroke-linejoin="round" stroke-width="0.4" d="M13.5983+46.6951L19.4159+46.6951L19.4159+58.3427L13.5983+58.3427L13.5983+46.6951Z" stroke="#000000" opacity="1" stroke-linecap="round"/>
<path opacity="1" stroke-linecap="butt" stroke-width="0.62" stroke="#000000" fill="#e2e2e2" d="M8.06705+44.2345L8.06705+45.1023L8.06705+45.4187L8.1572+45.4187L8.1572+45.5673C8.1572+45.5817+8.16382+45.5769+8.178+45.5769L8.27509+45.5769L8.27509+45.7063C8.27507+45.7207+8.28864+45.7303+8.30283+45.7303L8.41378+45.7303L8.41378+45.831L8.67729+45.831L16.5063+45.831L16.5271+45.831L24.3562+45.831L24.6197+45.831L24.6197+45.7303L24.7237+45.7303C24.7379+45.7303+24.7515+45.7207+24.7514+45.7063L24.7514+45.5769L24.8485+45.5769C24.8627+45.5769+24.8763+45.5817+24.8763+45.5673L24.8763+45.4187L24.9595+45.4187L24.9595+45.1023L24.9595+44.2345L16.5271+44.2345L16.5063+44.2345L8.06705+44.2345Z" stroke-linejoin="miter"/>
<path opacity="1" stroke-linejoin="miter" stroke-width="0.5" d="M7.74448+43.2649L25.3894+43.2649L25.3894+44.2194L7.74448+44.2194L7.74448+43.2649Z" stroke="#000000" fill="#e2e2e2" stroke-linecap="butt"/>
<path stroke-linecap="butt" stroke="#000000" d="M9.14677+44.3873L10.1298+44.3873L10.1298+45.755L9.14677+45.755L9.14677+44.3873Z" stroke-linejoin="miter" fill="#e2e2e2" opacity="1" stroke-width="0.25"/>
<path stroke="#000000" d="M16.0218+44.3873L17.0048+44.3873L17.0048+45.755L16.0218+45.755L16.0218+44.3873Z" stroke-linejoin="miter" fill="#e2e2e2" stroke-linecap="butt" opacity="1" stroke-width="0.25"/>
<path stroke-linejoin="miter" stroke-width="0.25" fill="#e2e2e2" opacity="1" stroke="#000000" stroke-linecap="butt" d="M22.8454+44.3873L23.8284+44.3873L23.8284+45.755L22.8454+45.755L22.8454+44.3873Z"/>
<path stroke="#000000" stroke-width="0.25" opacity="1" d="M22.8581+45.0583L23.8175+45.0583L23.8175+45.0602L22.8581+45.0602L22.8581+45.0583Z" stroke-linecap="butt" stroke-linejoin="miter" fill="#e2e2e2"/>
<path stroke-width="0.25" stroke="#000000" stroke-linecap="butt" opacity="1" fill="#e2e2e2" stroke-linejoin="miter" d="M16.0279+45.0583L16.9947+45.0583L16.9947+45.0603L16.0279+45.0603L16.0279+45.0583Z"/>
<path stroke-linejoin="miter" stroke="#000000" stroke-linecap="butt" stroke-width="0.25" d="M9.14656+45.0484L10.1107+45.0484L10.1107+45.0506L9.14656+45.0506L9.14656+45.0484Z" opacity="1" fill="#e2e2e2"/>
<path stroke-width="1.82" stroke="#000000" stroke-linejoin="round" d="M0.270914+63.5024L33.4222+63.5024L33.4222+64.5217L0.270914+64.5217L0.270914+63.5024Z" stroke-linecap="round" fill="#e2e2e2" opacity="1"/>
<path d="M42.2217+63.4181L45.6072+63.4181L45.6072+64.4841L42.2217+64.4841L42.2217+63.4181Z" stroke="#000000" fill="#e2e2e2" stroke-linecap="round" opacity="1" stroke-linejoin="round" stroke-width="1.82"/>
<path opacity="1" d="M33.6196+23.2241L33.6196+35.9207L37.5175+35.9207L37.9158+35.9207L41.8168+35.9207L41.8168+23.2241L37.9158+23.2241L37.5175+23.2241L33.6196+23.2241Z" fill="#e2e2e2" stroke-linecap="round" stroke-linejoin="round" stroke-width="0.92" stroke="#000000"/>
<path stroke-linecap="round" stroke-width="0.4" d="M34.8081+29.7781L40.6283+29.7781L40.6283+35.0891L34.8081+35.0891L34.8081+29.7781Z" stroke-linejoin="round" fill="#e2e2e2" opacity="1" stroke="#000000"/>
<path stroke="#000000" stroke-linecap="round" stroke-width="0.4" opacity="1" d="M34.8081+23.9716L40.6283+23.9716L40.6283+29.2287L34.8081+29.2287L34.8081+23.9716Z" stroke-linejoin="round" fill="#e2e2e2"/>
<path stroke-linecap="butt" d="M33.1505+22.1964L33.1505+22.745L33.1505+22.945L33.1992+22.945L33.1992+23.039C33.1992+23.0481+33.2028+23.0451+33.2105+23.0451L33.263+23.0451L33.263+23.1269C33.263+23.136+33.2703+23.1421+33.278+23.1421L33.338+23.1421L33.338+23.2057L33.4805+23.2057L37.7145+23.2057L37.7257+23.2057L41.9597+23.2057L42.1022+23.2057L42.1022+23.1421L42.1584+23.1421C42.1661+23.1421+42.1734+23.136+42.1734+23.1269L42.1734+23.0451L42.2259+23.0451C42.2336+23.0451+42.2409+23.0481+42.2409+23.039L42.2409+22.945L42.2859+22.945L42.2859+22.745L42.2859+22.1964L37.7257+22.1964L37.7145+22.1964L33.1505+22.1964Z" fill="#e2e2e2" stroke-linejoin="miter" opacity="1" stroke-width="0.42" stroke="#000000"/>
<path stroke-linecap="butt" opacity="1" stroke="#000000" stroke-width="0.22" d="M32.5022+21.7017L32.694+21.9332L32.694+22.0175L32.7476+22.0175L32.7476+22.0571C32.7476+22.0609+32.7515+22.0596+32.76+22.0596L32.8177+22.0596L32.8177+22.0941C32.8177+22.0979+32.8258+22.1005+32.8342+22.1005L32.9002+22.1005L32.9002+22.1273L33.057+22.1273L37.7141+22.1273L37.7265+22.1273L42.3836+22.1273L42.5403+22.1273L42.5403+22.1005L42.6022+22.1005C42.6106+22.1005+42.6187+22.0979+42.6187+22.0941L42.6187+22.0596L42.6764+22.0596C42.6849+22.0596+42.6929+22.0609+42.6929+22.0571L42.6929+22.0175L42.7424+22.0175L42.7424+21.9332L42.9626+21.7202L37.7265+21.7021L37.7141+21.7021L32.5022+21.7017Z" fill="#000000" stroke-linejoin="miter"/>
<path stroke-linejoin="miter" stroke="#000000" opacity="1" d="M32.4052+21.4487L43.0672+21.4487L43.0672+21.6195L32.4052+21.6195L32.4052+21.4487Z" stroke-linecap="butt" stroke-width="0.22" fill="#000000"/>
<path fill="#e2e2e2" opacity="1" stroke="#000000" stroke-width="0.92" d="M8.99672+23.2205L8.99672+35.9207L16.1006+35.9207L16.8264+35.9207L23.936+35.9207L23.936+23.2205L16.8264+23.2205L16.1006+23.2205L8.99672+23.2205Z" stroke-linecap="round" stroke-linejoin="round"/>
<path opacity="1" fill="#e2e2e2" stroke-linecap="round" stroke-width="0.4" stroke="#000000" stroke-linejoin="round" d="M10.1855+29.7763L12.8104+29.7763L12.8104+35.0889L10.1855+35.0889L10.1855+29.7763Z"/>
<path stroke-linejoin="round" fill="#e2e2e2" stroke="#000000" d="M10.1855+23.9682L12.7855+23.9682L12.7855+29.2799L10.1855+29.2799L10.1855+23.9682Z" stroke-linecap="round" stroke-width="0.4" opacity="1"/>
<path stroke-linecap="butt" fill="#e2e2e2" stroke-width="0.42" opacity="1" stroke="#000000" stroke-linejoin="miter" d="M8.52747+22.1925L8.52747+22.7412L8.52747+22.9413L8.61211+22.9413L8.61211+23.0353C8.6121+23.0444+8.61833+23.0414+8.63164+23.0414L8.72278+23.0414L8.72278+23.1232C8.72277+23.1324+8.73551+23.1384+8.74882+23.1384L8.85299+23.1384L8.85299+23.2021L9.10038+23.2021L16.4505+23.2021L16.47+23.2021L23.8202+23.2021L24.0676+23.2021L24.0676+23.1384L24.1652+23.1384C24.1785+23.1384+24.1913+23.1324+24.1913+23.1232L24.1913+23.0414L24.2824+23.0414C24.2957+23.0414+24.3084+23.0444+24.3084+23.0353L24.3084+22.9413L24.3866+22.9413L24.3866+22.7412L24.3866+22.1925L16.47+22.1925L16.4505+22.1925L8.52747+22.1925Z"/>
<path stroke-linecap="butt" fill="#000000" stroke-linejoin="miter" opacity="1" stroke-width="0.22" d="M7.94127+21.6976L8.25609+21.9292L8.25609+22.0135L8.34412+22.0135L8.34412+22.0531C8.34412+22.0569+8.35059+22.0557+8.36444+22.0557L8.45925+22.0557L8.45925+22.0901C8.45924+22.094+8.47249+22.0965+8.48634+22.0965L8.5947+22.0965L8.5947+22.1233L8.85204+22.1233L16.4979+22.1233L16.5182+22.1233L24.1641+22.1233L24.4215+22.1233L24.4215+22.0965L24.523+22.0965C24.5369+22.0965+24.5501+22.094+24.5501+22.0901L24.5501+22.0557L24.6449+22.0557C24.6588+22.0557+24.672+22.0569+24.672+22.0531L24.672+22.0135L24.7533+22.0135L24.7533+21.9292L25.1147+21.7161L16.5182+21.6981L16.4979+21.6981L7.94127+21.6976Z" stroke="#000000"/>
<path d="M7.78647+21.4486L25.3236+21.4486L25.3236+21.6155L7.78647+21.6155L7.78647+21.4486Z" stroke-linecap="butt" stroke="#000000" stroke-linejoin="miter" fill="#000000" stroke-width="0.22" opacity="1"/>
<path stroke-width="0.4" stroke="#000000" opacity="1" stroke-linecap="round" fill="#e2e2e2" stroke-linejoin="round" d="M20.2294+23.9682L22.8294+23.9682L22.8294+29.2799L20.2294+29.2799L20.2294+23.9682Z"/>
<path opacity="1" stroke-linecap="round" stroke-linejoin="round" stroke="#000000" stroke-width="0.4" fill="#e2e2e2" d="M20.1799+29.7763L22.7799+29.7763L22.7799+35.088L20.1799+35.088L20.1799+29.7763Z"/>
<path stroke-width="0.4" opacity="1" d="M13.6869+23.9665L19.2459+23.9665L19.2459+35.0965L13.6869+35.0965L13.6869+23.9665Z" stroke-linejoin="round" fill="#e2e2e2" stroke="#000000" stroke-linecap="round"/>
<path d="M45.2071+63.2298L45.1974+19.1701L45.3358+19.1721L45.3455+63.2317L45.2071+63.2298Z" stroke-linejoin="round" opacity="1" stroke-linecap="round" stroke="#000000" fill="#e2e2e2" stroke-width="1.82"/>
<path fill="#e2e2e2" opacity="1" stroke-linecap="round" d="M0.553484+63.2157L0.512378+19.1643L1.09754+19.1663L1.13865+63.2176L0.553484+63.2157Z" stroke-linejoin="round" stroke-width="1.82" stroke="#000000"/>
<path stroke-linejoin="miter" fill="#000000" opacity="1" d="M32.9791+47.4873L42.795+47.4873L42.8003+47.7483L42.6411+47.9579L33.1429+47.9447L32.9806+47.703L32.9791+47.4873Z" stroke="#000000" stroke-linecap="butt" stroke-width="0.32"/>
<g opacity="1">
<path stroke="#000000" fill="#e2e2e2" d="M14.6986+5.23237L21.5403+5.23237L21.5403+14.1989L14.6986+14.1989L14.6986+5.23237Z" stroke-linejoin="round" stroke-width="0.62" stroke-linecap="round" opacity="1"/>
<path opacity="1" stroke-linejoin="round" d="M14.2604+4.52615L21.9917+4.52615L21.9917+5.20921L14.2604+5.20921L14.2604+4.52615Z" fill="#000000" stroke-linecap="round" stroke-width="0.52" stroke="#000000"/>
<path stroke-width="0.2" stroke-linecap="round" opacity="1" fill="#e2e2e2" d="M20.8123+5.31105L20.8738+5.31105L20.8738+14.2555L20.8123+14.2555L20.8123+5.31105Z" stroke="#000000" stroke-linejoin="round"/>
<path stroke-width="0.2" stroke="#000000" fill="#e2e2e2" d="M15.3474+5.39808L15.4148+5.39808L15.4148+14.1255L15.3474+14.1255L15.3474+5.39808Z" stroke-linecap="round" opacity="1" stroke-linejoin="round"/>
<path stroke-linecap="round" stroke-linejoin="round" d="M14.6225+5.32732L14.6904+5.32732L14.6904+14.2296L14.6225+14.2296L14.6225+5.32732Z" stroke-width="0.4" stroke="#000000" fill="#e2e2e2" opacity="1"/>
<path stroke-width="0.4" fill="#e2e2e2" d="M21.5753+5.32345L21.6978+5.32345L21.6978+14.2257L21.5753+14.2257L21.5753+5.32345Z" opacity="1" stroke="#000000" stroke-linecap="round" stroke-linejoin="round"/>
<path fill="#e2e2e2" stroke-width="0.3" d="M16.01+6.33712L17.7798+6.33712L17.7798+13.0941L16.01+13.0941L16.01+6.33712Z" stroke-linecap="round" stroke-linejoin="round" stroke="#000000" opacity="1"/>
<path d="M18.3204+6.3373L20.0901+6.3373L20.0901+13.0939L18.3204+13.0939L18.3204+6.3373Z" stroke-linejoin="round" fill="#e2e2e2" opacity="1" stroke-width="0.3" stroke-linecap="round" stroke="#000000"/>
<path fill="#e2e2e2" stroke-linecap="round" stroke="#000000" d="M14.4735+5.35319L14.596+5.35319L14.596+14.2555L14.4735+14.2555L14.4735+5.35319Z" stroke-linejoin="round" opacity="1" stroke-width="0.4"/>
</g>
<g opacity="1">
<path stroke-linecap="round" stroke-width="0.62" d="M29.958+5.23237L36.7996+5.23237L36.7996+14.1989L29.958+14.1989L29.958+5.23237Z" stroke="#000000" fill="#e2e2e2" opacity="1" stroke-linejoin="round"/>
<path stroke-linecap="round" stroke-linejoin="round" stroke-width="0.52" opacity="1" fill="#000000" d="M29.5197+4.52615L37.2511+4.52615L37.2511+5.20921L29.5197+5.20921L29.5197+4.52615Z" stroke="#000000"/>
<path stroke="#000000" stroke-linecap="round" stroke-width="0.2" d="M36.0716+5.31105L36.1331+5.31105L36.1331+14.2555L36.0716+14.2555L36.0716+5.31105Z" stroke-linejoin="round" fill="#e2e2e2" opacity="1"/>
<path stroke-linecap="round" d="M30.6067+5.39808L30.6742+5.39808L30.6742+14.1255L30.6067+14.1255L30.6067+5.39808Z" stroke-linejoin="round" opacity="1" fill="#e2e2e2" stroke="#000000" stroke-width="0.2"/>
<path stroke-linecap="round" fill="#e2e2e2" opacity="1" d="M29.8818+5.32732L29.9497+5.32732L29.9497+14.2296L29.8818+14.2296L29.8818+5.32732Z" stroke-width="0.4" stroke="#000000" stroke-linejoin="round"/>
<path fill="#e2e2e2" stroke="#000000" opacity="1" d="M36.8347+5.32345L36.9571+5.32345L36.9571+14.2257L36.8347+14.2257L36.8347+5.32345Z" stroke-linejoin="round" stroke-width="0.4" stroke-linecap="round"/>
<path opacity="1" fill="#e2e2e2" stroke-width="0.3" d="M31.2694+6.33712L33.0391+6.33712L33.0391+13.0941L31.2694+13.0941L31.2694+6.33712Z" stroke-linejoin="round" stroke="#000000" stroke-linecap="round"/>
<path fill="#e2e2e2" stroke-width="0.3" stroke="#000000" opacity="1" stroke-linecap="round" d="M33.5797+6.3373L35.3494+6.3373L35.3494+13.0939L33.5797+13.0939L33.5797+6.3373Z" stroke-linejoin="round"/>
<path stroke-width="0.4" stroke-linejoin="round" stroke="#000000" opacity="1" d="M29.7328+5.35319L29.8553+5.35319L29.8553+14.2555L29.7328+14.2555L29.7328+5.35319Z" stroke-linecap="round" fill="#e2e2e2"/>
</g>
<path opacity="1" stroke-linecap="butt" stroke-width="0.3" stroke="#000000" fill="#000000" d="M35.0026+56.9173C35.0026+56.7493+35.1388+56.6131+35.3068+56.6131C35.4748+56.6131+35.611+56.7493+35.611+56.9173C35.611+57.0854+35.4748+57.2216+35.3068+57.2216C35.1388+57.2216+35.0026+57.0854+35.0026+56.9173Z" stroke-linejoin="miter"/>
</g>
</svg>
