<?xml version="1.0" encoding="UTF-8" standalone="no"?> <!-- Created with Vectornator for iOS (http://vectornator.io/) --><!DOCTYPE svg PUBLIC "-//W3C//DTD SVG 1.1//EN" "http://www.w3.org/Graphics/SVG/1.1/DTD/svg11.dtd">
<svg viewBox="0 0 40.06 56.79" style="fill-rule:nonzero;clip-rule:evenodd;stroke-linecap:round;stroke-linejoin:round;" height="100%" xmlns="http://www.w3.org/2000/svg" width="100%" xmlns:vectornator="http://vectornator.io" xmlns:xlink="http://www.w3.org/1999/xlink" xml:space="preserve" version="1.1">
<metadata>
<vectornator:setting value="false" key="WDDynamicGuides"/>
<vectornator:setting value="false" key="WDOutlineMode"/>
<vectornator:setting value="false" key="UndoHistoryDisabled"/>
<vectornator:setting key="WDRulersVisible" value="true"/>
<vectornator:setting value="true" key="VNDimensionsVisible"/>
<vectornator:setting key="IsTimeLapseWatermarkDisabled" value="false"/>
<vectornator:setting key="WDCMYKEnabledKey" value="false"/>
<vectornator:setting value="false" key="WDDisplayWhiteBackground"/>
<vectornator:setting value="false" key="WDSnapToPoints"/>
<vectornator:setting value="false" key="VNPencilOnly"/>
<vectornator:setting value="true" key="WDGuidesVisible"/>
<vectornator:setting key="WDIsolateActiveLayer" value="false"/>
<vectornator:setting value="Pixels" key="WDUnits"/>
<vectornator:setting key="WDSnapToEdges" value="false"/>
<vectornator:setting value="true" key="VNSnapToGuides"/>
<vectornator:setting key="WDSnapToGrid" value="false"/>
</metadata>
<defs/>
<g vectornator:layerName="Layer 1" id="Layer 1">
<path stroke-width="1.42" fill="#d4d4d4" stroke="#000000" opacity="1" stroke-linejoin="round" stroke-linecap="round" d="M0.179652+16.4334L39.8675+16.4334L39.8675+56.4251L0.179652+56.4251L0.179652+16.4334Z"/>
<path stroke-width="1.52" opacity="1" d="M0.154989+0L39.9002+0L39.9002+15.1418L0.154989+15.1418L0.154989+0Z" fill="#d4d4d4" stroke="#000000" stroke-linecap="round" stroke-linejoin="round"/>
<path stroke-linecap="round" fill="#e2e2e2" stroke-linejoin="round" d="M0.348964+0.648367L39.7007+0.648367L39.7007+1.75336L0.348964+1.75336L0.348964+0.648367Z" stroke-width="1.28" opacity="1" stroke="#000000"/>
<path d="M0.127848+15.1811L39.9085+15.1811L39.9085+16.4341L0.127848+16.4341L0.127848+15.1811Z" fill="#e2e2e2" stroke-width="1.22" stroke-linejoin="round" stroke-linecap="round" stroke="#000000" opacity="1"/>
<path stroke-linecap="round" d="M0.0434417+0.0745885L39.9701+0.0745885L39.9701+0.626166L0.0434417+0.626166L0.0434417+0.0745885Z" stroke-width="1.02" opacity="1" stroke-linejoin="round" stroke="#000000" fill="#e2e2e2"/>
<path opacity="1" fill="#e2e2e2" stroke-width="1.42" stroke-linejoin="round" d="M0.111881+15.2404L39.8968+15.2404L39.8968+15.3342L0.111881+15.3342L0.111881+15.2404Z" stroke="#000000" stroke-linecap="round"/>
<path fill="#e2e2e2" stroke-width="0.52" opacity="1" stroke="#000000" d="M0+14.8181L0.218376+14.8181L0.218376+16.6282L0+16.6282L0+14.8181Z" stroke-linecap="butt" stroke-linejoin="miter"/>
<path d="M39.7961+14.8181L40.0584+14.8181L40.0584+16.6416L39.7961+16.6416L39.7961+14.8181Z" stroke-width="0.52" opacity="1" stroke="#000000" stroke-linejoin="miter" fill="#e2e2e2" stroke-linecap="butt"/>
<path d="M29.5039+42.0764L36.817+42.0764L36.817+56.7924L29.5039+56.7924L29.5039+42.0764Z" stroke="#000000" opacity="1" stroke-width="1.22" fill="#e2e2e2" stroke-linecap="butt" stroke-linejoin="miter"/>
<path stroke-linecap="butt" fill="#000000" stroke-width="0.32" opacity="1" stroke-linejoin="miter" d="M28.6278+41.5055L37.6523+41.5055L37.6572+41.7344L37.5109+41.9181L28.7784+41.9066L28.6292+41.6946L28.6278+41.5055Z" stroke="#000000"/>
<path stroke="#000000" d="M28.6089+40.4163L37.6476+40.4163L37.6476+41.3621L28.6089+41.3621L28.6089+40.4163Z" stroke-width="0.32" stroke-linecap="butt" stroke-linejoin="miter" fill="#d4d4d4" opacity="1"/>
<path stroke-linejoin="miter" opacity="1" fill="#000000" stroke-linecap="butt" stroke-width="0.32" stroke="#000000" d="M28.2559+39.8637L37.9969+39.8637L37.8069+40.1735L37.6843+40.3859L28.5502+40.3666L28.4091+40.1272L28.2559+39.8637Z"/>
<path d="M29.7079+42.3053L36.4554+42.3053L36.4554+56.391L29.7079+56.391L29.7079+42.3053Z" fill="#d4d4d4" stroke="#000000" opacity="1" stroke-linejoin="miter" stroke-width="0.82" stroke-linecap="butt"/>
<path stroke="#000000" stroke-linejoin="miter" d="M30.7604+50.974L32.6628+50.974L32.6628+55.5327L30.7604+55.5327L30.7604+50.974Z" stroke-linecap="butt" opacity="1" fill="#d4d4d4" stroke-width="0.4"/>
<path stroke-width="0.4" fill="#d4d4d4" opacity="1" stroke="#000000" d="M33.4818+50.974L35.3844+50.974L35.3844+55.5327L33.4818+55.5327L33.4818+50.974Z" stroke-linejoin="miter" stroke-linecap="butt"/>
<path fill="#d4d4d4" stroke="#000000" stroke-linecap="butt" d="M30.7604+43.2223L35.3844+43.2223L35.3844+49.156L30.7604+49.156L30.7604+43.2223Z" stroke-width="0.4" opacity="1" stroke-linejoin="miter"/>
<path fill="#d4d4d4" stroke-width="0.92" d="M7.60446+40.1785L7.60446+51.8089L14.11+51.8089L14.7746+51.8089L21.2854+51.8089L21.2854+40.1785L14.7746+40.1785L14.11+40.1785L7.60446+40.1785Z" stroke-linecap="round" opacity="1" stroke="#000000" stroke-linejoin="round"/>
<path fill="#000000" stroke-width="0.22" stroke-linejoin="miter" stroke-linecap="butt" opacity="1" stroke="#000000" d="M6.04117+37.302L6.35327+37.5141L6.35327+37.5913L6.44055+37.5913L6.44055+37.6275C6.44055+37.631+6.44697+37.6299+6.46069+37.6299L6.55469+37.6299L6.55469+37.6614C6.55468+37.665+6.56781+37.6673+6.58155+37.6673L6.68897+37.6673L6.68897+37.6918L6.9441+37.6918L14.5242+37.6918L14.5443+37.6918L22.1244+37.6918L22.3795+37.6918L22.3795+37.6673L22.4803+37.6673C22.494+37.6673+22.5071+37.665+22.5071+37.6614L22.5071+37.6299L22.6011+37.6299C22.6148+37.6299+22.628+37.631+22.628+37.6275L22.628+37.5913L22.7085+37.5913L22.7085+37.5141L23.0668+37.3189L14.5443+37.3024L14.5242+37.3024L6.04117+37.302Z"/>
<path opacity="1" d="M5.8877+37.0739L23.2739+37.0739L23.2739+37.2267L5.8877+37.2267L5.8877+37.0739Z" stroke="#000000" stroke-width="0.22" stroke-linecap="butt" stroke-linejoin="miter" fill="#000000"/>
<path fill="#d4d4d4" stroke-linecap="round" stroke-linejoin="round" stroke-width="0.4" d="M11.8995+41.4088L16.9903+41.4088L16.9903+50.7627L11.8995+50.7627L11.8995+41.4088Z" opacity="1" stroke="#000000"/>
<path stroke="#000000" fill="#d4d4d4" opacity="1" stroke-linecap="butt" stroke-linejoin="miter" d="M7.05925+38.7084L7.05925+39.4677L7.05925+39.7446L7.13814+39.7446L7.13814+39.8747C7.13814+39.8873+7.14394+39.8831+7.15634+39.8831L7.2413+39.8831L7.2413+39.9963C7.24129+40.009+7.25316+40.0173+7.26557+40.0173L7.36266+40.0173L7.36266+40.1054L7.59325+40.1054L14.4442+40.1054L14.4624+40.1054L21.3134+40.1054L21.544+40.1054L21.544+40.0173L21.635+40.0173C21.6474+40.0173+21.6593+40.009+21.6593+39.9963L21.6593+39.8831L21.7443+39.8831C21.7567+39.8831+21.7685+39.8873+21.7685+39.8747L21.7685+39.7446L21.8413+39.7446L21.8413+39.4677L21.8413+38.7084L14.4624+38.7084L14.4442+38.7084L7.05925+38.7084Z" stroke-width="0.62"/>
<path stroke-width="0.5" stroke-linejoin="miter" opacity="1" stroke-linecap="butt" stroke="#000000" d="M6.77698+37.8599L22.2176+37.8599L22.2176+38.6952L6.77698+38.6952L6.77698+37.8599Z" fill="#d4d4d4"/>
<path stroke-linecap="butt" fill="#d4d4d4" stroke-linejoin="miter" opacity="1" d="M8.00408+38.8421L8.86429+38.8421L8.86429+40.0389L8.00408+40.0389L8.00408+38.8421Z" stroke-width="0.25" stroke="#000000"/>
<path opacity="1" stroke="#000000" stroke-linecap="butt" d="M14.0202+38.8421L14.8804+38.8421L14.8804+40.0389L14.0202+40.0389L14.0202+38.8421Z" fill="#d4d4d4" stroke-width="0.25" stroke-linejoin="miter"/>
<path stroke-width="0.25" fill="#d4d4d4" stroke-linecap="butt" stroke-linejoin="miter" d="M19.9913+38.8421L20.8516+38.8421L20.8516+40.0389L19.9913+40.0389L19.9913+38.8421Z" stroke="#000000" opacity="1"/>
<path fill="#d4d4d4" stroke-width="0.25" stroke-linecap="butt" stroke="#000000" opacity="1" stroke-linejoin="miter" d="M20.0025+39.4293L20.8421+39.4293L20.8421+39.4309L20.0025+39.4309L20.0025+39.4293Z"/>
<path stroke-width="0.25" opacity="1" fill="#d4d4d4" stroke-linecap="butt" stroke="#000000" stroke-linejoin="miter" d="M14.0255+39.4293L14.8715+39.4293L14.8715+39.431L14.0255+39.431L14.0255+39.4293Z"/>
<path opacity="1" fill="#d4d4d4" stroke="#000000" d="M8.0039+39.4206L8.84761+39.4206L8.84761+39.4225L8.0039+39.4225L8.0039+39.4206Z" stroke-width="0.25" stroke-linecap="butt" stroke-linejoin="miter"/>
<path stroke-linecap="round" fill="#e2e2e2" stroke-linejoin="round" stroke-width="1.82" stroke="#000000" opacity="1" d="M0.237069+55.5692L29.2469+55.5692L29.2469+56.4612L0.237069+56.4612L0.237069+55.5692Z"/>
<path opacity="1" stroke-linecap="round" stroke="#000000" d="M36.9471+55.4954L39.9096+55.4954L39.9096+56.4282L36.9471+56.4282L36.9471+55.4954Z" fill="#e2e2e2" stroke-linejoin="round" stroke-width="1.82"/>
<path stroke-linejoin="round" d="M29.4196+20.3228L29.4196+31.4332L32.8305+31.4332L33.179+31.4332L36.5927+31.4332L36.5927+20.3228L33.179+20.3228L32.8305+20.3228L29.4196+20.3228Z" opacity="1" stroke-linecap="round" fill="#d4d4d4" stroke="#000000" stroke-width="0.92"/>
<path stroke="#000000" d="M30.6443+26.209L35.3766+26.209L35.3766+30.5273L30.6443+30.5273L30.6443+26.209Z" stroke-width="0.4" opacity="1" stroke-linecap="round" stroke-linejoin="round" fill="#d4d4d4"/>
<path opacity="1" stroke-linecap="butt" d="M29.0091+19.4235L29.0091+19.9035L29.0091+20.0786L29.0517+20.0786L29.0517+20.1608C29.0517+20.1688+29.0549+20.1661+29.0616+20.1661L29.1075+20.1661L29.1075+20.2377C29.1075+20.2457+29.1139+20.251+29.1207+20.251L29.1732+20.251L29.1732+20.3067L29.2979+20.3067L33.0029+20.3067L33.0127+20.3067L36.7177+20.3067L36.8424+20.3067L36.8424+20.251L36.8917+20.251C36.8984+20.251+36.9048+20.2457+36.9048+20.2377L36.9048+20.1661L36.9507+20.1661C36.9574+20.1661+36.9639+20.1688+36.9639+20.1608L36.9639+20.0786L37.0032+20.0786L37.0032+19.9035L37.0032+19.4235L33.0127+19.4235L33.0029+19.4235L29.0091+19.4235Z" fill="#d4d4d4" stroke-width="0.42" stroke="#000000" stroke-linejoin="miter"/>
<path stroke-width="0.22" fill="#000000" opacity="1" stroke-linejoin="miter" stroke="#000000" d="M28.4418+18.9905L28.6096+19.1932L28.6096+19.2669L28.6565+19.2669L28.6565+19.3015C28.6565+19.3049+28.66+19.3038+28.6673+19.3038L28.7179+19.3038L28.7179+19.3339C28.7179+19.3373+28.7249+19.3395+28.7323+19.3395L28.7901+19.3395L28.7901+19.363L28.9272+19.363L33.0025+19.363L33.0134+19.363L37.0887+19.363L37.2259+19.363L37.2259+19.3395L37.28+19.3395C37.2874+19.3395+37.2944+19.3373+37.2944+19.3339L37.2944+19.3038L37.345+19.3038C37.3524+19.3038+37.3594+19.3049+37.3594+19.3015L37.3594+19.2669L37.4027+19.2669L37.4027+19.1932L37.5954+19.0067L33.0134+18.9909L33.0025+18.9909L28.4418+18.9905Z" stroke-linecap="butt"/>
<path d="M28.3569+18.7692L37.6869+18.7692L37.6869+18.9187L28.3569+18.9187L28.3569+18.7692Z" stroke-linejoin="miter" stroke-linecap="butt" fill="#000000" stroke-width="0.22" opacity="1" stroke="#000000"/>
<path stroke="#000000" opacity="1" stroke-linejoin="round" fill="#d4d4d4" d="M7.87278+20.3196L7.87278+31.4332L14.0892+31.4332L14.7243+31.4332L20.9458+31.4332L20.9458+20.3196L14.7243+20.3196L14.0892+20.3196L7.87278+20.3196Z" stroke-linecap="round" stroke-width="0.92"/>
<path stroke-linejoin="miter" fill="#d4d4d4" stroke-width="0.42" stroke="#000000" stroke-linecap="butt" opacity="1" d="M7.46215+19.42L7.46215+19.9002L7.46215+20.0753L7.53622+20.0753L7.53622+20.1576C7.53621+20.1656+7.54166+20.1629+7.55331+20.1629L7.63306+20.1629L7.63306+20.2345C7.63305+20.2425+7.6442+20.2478+7.65585+20.2478L7.747+20.2478L7.747+20.3035L7.96349+20.3035L14.3954+20.3035L14.4125+20.3035L20.8444+20.3035L21.0609+20.3035L21.0609+20.2478L21.1463+20.2478C21.158+20.2478+21.1691+20.2425+21.1691+20.2345L21.1691+20.1629L21.2489+20.1629C21.2605+20.1629+21.2716+20.1656+21.2716+20.1576L21.2716+20.0753L21.34+20.0753L21.34+19.9002L21.34+19.42L14.4125+19.42L14.3954+19.42L7.46215+19.42Z"/>
<path opacity="1" d="M6.94919+18.987L7.22467+19.1897L7.22467+19.2634L7.30171+19.2634L7.30171+19.2981C7.30171+19.3014+7.30737+19.3003+7.31949+19.3003L7.40246+19.3003L7.40246+19.3305C7.40244+19.3338+7.41404+19.3361+7.42616+19.3361L7.52098+19.3361L7.52098+19.3595L7.74618+19.3595L14.4369+19.3595L14.4546+19.3595L21.1453+19.3595L21.3705+19.3595L21.3705+19.3361L21.4594+19.3361C21.4716+19.3361+21.4831+19.3338+21.4831+19.3305L21.4831+19.3003L21.5661+19.3003C21.5782+19.3003+21.5898+19.3014+21.5898+19.2981L21.5898+19.2634L21.6609+19.2634L21.6609+19.1897L21.9772+19.0031L14.4546+18.9874L14.4369+18.9874L6.94919+18.987Z" stroke-linecap="butt" stroke-linejoin="miter" stroke-width="0.22" fill="#000000" stroke="#000000"/>
<path stroke-width="0.22" stroke-linejoin="miter" stroke="#000000" stroke-linecap="butt" d="M6.81372+18.7691L22.16+18.7691L22.16+18.9151L6.81372+18.9151L6.81372+18.7691Z" opacity="1" fill="#000000"/>
<path fill="#d4d4d4" stroke-width="0.4" stroke-linejoin="round" opacity="1" d="M17.7324+21.3048L19.8879+21.3048L19.8879+25.7086L17.7324+25.7086L17.7324+21.3048Z" stroke="#000000" stroke-linecap="round"/>
<path stroke-linecap="round" stroke="#000000" stroke-width="0.4" stroke-linejoin="round" d="M11.9735+21.3055L16.838+21.3055L16.838+30.6163L11.9735+30.6163L11.9735+21.3055Z" fill="#d4d4d4" opacity="1"/>
<path stroke-linejoin="round" stroke-linecap="round" fill="#e2e2e2" stroke-width="1.82" opacity="1" stroke="#000000" d="M39.9117+55.4274L39.9117+16.8721L39.9116+16.8738L39.9116+55.4291L39.9117+55.4274Z"/>
<path opacity="1" stroke="#000000" stroke-width="1.82" stroke-linecap="round" stroke-linejoin="round" fill="#e2e2e2" d="M0.460328+55.3183L0.448367+16.7702L0.618637+16.7719L0.630597+55.32L0.460328+55.3183Z"/>
<path stroke="#000000" opacity="1" stroke-width="0.32" d="M28.8591+41.8795L37.4487+41.8795L37.4534+42.1079L37.314+42.2913L29.0024+42.2798L28.8604+42.0683L28.8591+41.8795Z" stroke-linecap="butt" fill="#000000" stroke-linejoin="miter"/>
<path fill="#d4d4d4" d="M12.8623+4.5787L18.8493+4.5787L18.8493+12.425L12.8623+12.425L12.8623+4.5787Z" stroke="#000000" stroke-linecap="round" stroke-linejoin="round" opacity="1" stroke-width="0.62"/>
<path stroke-width="0.52" fill="#000000" opacity="1" stroke="#000000" d="M12.4789+3.9607L19.2443+3.9607L19.2443+4.55843L12.4789+4.55843L12.4789+3.9607Z" stroke-linecap="round" stroke-linejoin="round"/>
<path stroke-width="0.2" fill="#e2e2e2" opacity="1" stroke-linecap="round" stroke-linejoin="round" stroke="#000000" d="M18.2123+4.64756L18.266+4.64756L18.266+12.4746L18.2123+12.4746L18.2123+4.64756Z"/>
<path fill="#e2e2e2" stroke="#000000" stroke-linecap="round" stroke-linejoin="round" stroke-width="0.2" opacity="1" d="M13.4301+4.72371L13.4891+4.72371L13.4891+12.3608L13.4301+12.3608L13.4301+4.72371Z"/>
<path opacity="1" fill="#e2e2e2" stroke-width="0.4" stroke-linejoin="round" d="M12.7957+4.66179L12.8551+4.66179L12.8551+12.4519L12.7957+12.4519L12.7957+4.66179Z" stroke-linecap="round" stroke="#000000"/>
<path opacity="1" stroke-linecap="round" stroke="#000000" stroke-width="0.4" stroke-linejoin="round" d="M18.88+4.6584L18.9871+4.6584L18.9871+12.4485L18.88+12.4485L18.88+4.6584Z" fill="#e2e2e2"/>
<path stroke="#000000" stroke-width="0.4" opacity="1" stroke-linejoin="round" fill="#e2e2e2" d="M12.6654+4.68443L12.7725+4.68443L12.7725+12.4746L12.6654+12.4746L12.6654+4.68443Z" stroke-linecap="round"/>
<path fill="#d4d4d4" stroke-width="0.62" stroke="#000000" stroke-linejoin="round" d="M26.2154+4.5787L32.2023+4.5787L32.2023+12.425L26.2154+12.425L26.2154+4.5787Z" stroke-linecap="round" opacity="1"/>
<path stroke-linejoin="round" stroke="#000000" opacity="1" stroke-linecap="round" fill="#000000" stroke-width="0.52" d="M25.8319+3.9607L32.5974+3.9607L32.5974+4.55843L25.8319+4.55843L25.8319+3.9607Z"/>
<path stroke="#000000" fill="#e2e2e2" opacity="1" stroke-width="0.2" d="M31.4682+4.64756L31.522+4.64756L31.522+12.4746L31.4682+12.4746L31.4682+4.64756Z" stroke-linecap="round" stroke-linejoin="round"/>
<path d="M26.7831+4.72371L26.8421+4.72371L26.8421+12.3608L26.7831+12.3608L26.7831+4.72371Z" fill="#e2e2e2" stroke="#000000" opacity="1" stroke-linejoin="round" stroke-linecap="round" stroke-width="0.2"/>
<path stroke-width="0.4" stroke="#000000" stroke-linecap="round" fill="#e2e2e2" stroke-linejoin="round" opacity="1" d="M26.1488+4.66179L26.2082+4.66179L26.2082+12.4519L26.1488+12.4519L26.1488+4.66179Z"/>
<path stroke-linecap="round" fill="#e2e2e2" opacity="1" stroke-width="0.4" stroke-linejoin="round" d="M32.233+4.6584L32.3401+4.6584L32.3401+12.4485L32.233+12.4485L32.233+4.6584Z" stroke="#000000"/>
<path stroke="#000000" opacity="1" d="M27.4141+5.73069L28.8697+5.73069L28.8697+11.2881L27.4141+11.2881L27.4141+5.73069Z" stroke-linejoin="round" stroke-linecap="round" stroke-width="0.3" fill="#d4d4d4"/>
<path d="M29.4062+5.72254L30.8617+5.72254L30.8617+11.2796L29.4062+11.2796L29.4062+5.72254Z" opacity="1" stroke="#000000" stroke-linecap="round" stroke-width="0.3" stroke-linejoin="round" fill="#d4d4d4"/>
<path stroke="#000000" fill="#e2e2e2" d="M26.0184+4.68443L26.1255+4.68443L26.1255+12.4746L26.0184+12.4746L26.0184+4.68443Z" opacity="1" stroke-width="0.4" stroke-linecap="round" stroke-linejoin="round"/>
<path fill="#000000" stroke-linejoin="miter" stroke-width="0.3" opacity="1" d="M30.6298+50.1315C30.6298+49.9845+30.749+49.8653+30.896+49.8653C31.043+49.8653+31.1622+49.9845+31.1622+50.1315C31.1622+50.2785+31.043+50.3977+30.896+50.3977C30.749+50.3977+30.6298+50.2785+30.6298+50.1315Z" stroke="#000000" stroke-linecap="butt"/>
<path stroke="#000000" opacity="1" d="M30.72+21.2675L35.4523+21.2675L35.4523+25.5858L30.72+25.5858L30.72+21.2675Z" fill="#d4d4d4" stroke-width="0.4" stroke-linecap="round" stroke-linejoin="round"/>
<path opacity="1" stroke="#000000" fill="#d4d4d4" stroke-linejoin="round" d="M17.7136+26.213L19.8691+26.213L19.8691+30.6167L17.7136+30.6167L17.7136+26.213Z" stroke-width="0.4" stroke-linecap="round"/>
<path stroke-linejoin="round" fill="#d4d4d4" stroke="#000000" stroke-linecap="round" stroke-width="0.4" d="M8.9232+21.3048L11.0788+21.3048L11.0788+25.7086L8.9232+25.7086L8.9232+21.3048Z" opacity="1"/>
<path stroke-linejoin="round" stroke-linecap="round" stroke="#000000" opacity="1" fill="#d4d4d4" d="M8.9232+26.213L11.0788+26.213L11.0788+30.6167L8.9232+30.6167L8.9232+26.213Z" stroke-width="0.4"/>
<path stroke="#000000" stroke-width="0.4" stroke-linejoin="round" opacity="1" fill="#d4d4d4" d="M17.9482+41.3795L20.1038+41.3795L20.1038+45.7833L17.9482+45.7833L17.9482+41.3795Z" stroke-linecap="round"/>
<path stroke-linecap="round" d="M17.9294+46.2877L20.085+46.2877L20.085+50.6914L17.9294+50.6914L17.9294+46.2877Z" opacity="1" stroke-linejoin="round" stroke-width="0.4" fill="#d4d4d4" stroke="#000000"/>
<path opacity="1" d="M8.81705+41.4532L10.9726+41.4532L10.9726+45.857L8.81705+45.857L8.81705+41.4532Z" stroke-width="0.4" fill="#d4d4d4" stroke="#000000" stroke-linecap="round" stroke-linejoin="round"/>
<path fill="#d4d4d4" stroke="#000000" d="M8.79825+46.3614L10.9538+46.3614L10.9538+50.7651L8.79825+50.7651L8.79825+46.3614Z" opacity="1" stroke-width="0.4" stroke-linecap="round" stroke-linejoin="round"/>
<path d="M14.1463+5.73069L15.6019+5.73069L15.6019+11.2881L14.1463+11.2881L14.1463+5.73069Z" stroke="#000000" stroke-linejoin="round" opacity="1" stroke-width="0.3" fill="#d4d4d4" stroke-linecap="round"/>
<path stroke-linejoin="round" d="M16.1384+5.73069L17.5939+5.73069L17.5939+11.2878L16.1384+11.2878L16.1384+5.73069Z" stroke-width="0.3" stroke-linecap="round" opacity="1" stroke="#000000" fill="#d4d4d4"/>
</g>
</svg>
