<?xml version="1.0" encoding="UTF-8" standalone="no"?> <!-- Created with Vectornator for iOS (http://vectornator.io/) --><!DOCTYPE svg PUBLIC "-//W3C//DTD SVG 1.1//EN" "http://www.w3.org/Graphics/SVG/1.1/DTD/svg11.dtd">
<svg height="100%" xml:space="preserve" xmlns:xlink="http://www.w3.org/1999/xlink" xmlns="http://www.w3.org/2000/svg" style="fill-rule:nonzero;clip-rule:evenodd;stroke-linecap:round;stroke-linejoin:round;" width="100%" version="1.1" xmlns:vectornator="http://vectornator.io" viewBox="0 0 387.411 312.669">
<metadata>
<vectornator:setting key="WDDynamicGuides" value="false"/>
<vectornator:setting key="WDCMYKEnabledKey" value="false"/>
<vectornator:setting key="VNPencilOnly" value="false"/>
<vectornator:setting key="WDSnapToPoints" value="false"/>
<vectornator:setting key="WDIsolateActiveLayer" value="false"/>
<vectornator:setting key="WDRulersVisible" value="true"/>
<vectornator:setting key="WDSnapToGrid" value="false"/>
<vectornator:setting key="VNDimensionsVisible" value="true"/>
<vectornator:setting value="false" key="IsTimeLapseWatermarkDisabled"/>
<vectornator:setting key="VNSnapToGuides" value="true"/>
<vectornator:setting value="Pixels" key="WDUnits"/>
<vectornator:setting key="WDSnapToEdges" value="false"/>
<vectornator:setting key="UndoHistoryDisabled" value="false"/>
<vectornator:setting key="WDGuidesVisible" value="true"/>
<vectornator:setting value="false" key="WDDisplayWhiteBackground"/>
<vectornator:setting value="false" key="WDOutlineMode"/>
</metadata>
<defs/>
<g id="Layer 2" vectornator:layerName="Layer 2">
<g opacity="1">
<path stroke-linejoin="miter" stroke="#d3d3d3" fill="#070b17" opacity="1" stroke-linecap="butt" stroke-width="0.42" d="M208.905+388.66C208.654+388.66+208.455+388.858+208.455+389.111L208.455+389.167L207.356+389.167C207.294+389.167+207.244+389.234+207.244+389.308L207.244+390.406C207.244+390.481+207.294+390.547+207.356+390.547L207.92+390.547L207.92+391.082C207.92+391.156+207.97+391.223+208.032+391.223L208.596+391.223L208.596+391.73C208.596+391.804+208.646+391.871+208.708+391.871L209.272+391.871L209.272+392.434C209.272+392.508+209.321+392.547+209.384+392.547L210.539+392.547C210.602+392.547+210.652+392.508+210.652+392.434L210.652+391.336L211.75+391.336C212.002+391.336+212.201+391.137+212.201+390.885L212.201+389.111C212.201+388.858+212.002+388.66+211.75+388.66L208.905+388.66Z"/>
<path opacity="1" stroke-linecap="butt" d="M235.915+389.231C235.663+389.231+235.464+389.027+235.464+389.28L235.464+391.026C235.464+391.278+235.663+391.505+235.915+391.505L237.041+391.505L237.041+392.631C237.041+392.694+237.108+392.744+237.182+392.744L238.28+392.744C238.355+392.744+238.421+392.694+238.421+392.631L238.421+392.068L238.985+392.068C239.059+392.068+239.125+392.018+239.125+391.955L239.125+391.392L239.632+391.392C239.707+391.392+239.773+391.342+239.773+391.279L239.773+390.716L240.308+390.716C240.382+390.716+240.449+390.666+240.449+390.603L240.449+389.449C240.449+389.386+240.382+389.336+240.308+389.336L239.238+389.336L239.238+389.28C239.238+389.027+239.011+389.513+238.759+389.513L235.915+389.231Z" stroke="#d3d3d3" fill="#070b17" stroke-linejoin="miter" stroke-width="0.42"/>
<path d="M223.832+366.608C213.767+366.608+205.57+374.277+204.54+384.069L202.85+384.069C202.703+384.069+202.569+384.176+202.569+384.323L202.569+386.576C202.569+386.723+202.703+386.829+202.85+386.829L204.427+386.829L205.075+386.829L205.489+386.838C205.526+386.817+205.533+386.834+205.582+386.834L207.244+386.804C207.226+386.614+207.272+386.293+207.272+386.097C207.272+376.945+214.652+369.509+223.804+369.509C232.956+369.509+240.393+376.945+240.393+386.097C240.393+386.342+240.428+386.56+240.421+386.801L241.861+386.826C241.876+386.826+241.899+386.827+241.914+386.829L243.237+386.829L244.674+386.829C244.82+386.829+244.955+386.723+244.955+386.576L244.955+384.323C244.955+384.176+244.82+384.069+244.674+384.069L243.125+384.069C242.094+374.277+233.897+366.608+223.832+366.608Z" opacity="1" stroke-width="1.52" fill="#070b17" stroke="#d3d3d3" stroke-linecap="round" stroke-linejoin="round"/>
<path d="M223.804+369.739C214.652+369.739+207.272+377.298+207.272+386.45C207.272+386.586+207.251+386.747+207.244+386.9L205.498+386.911C205.422+386.954+205.325+386.858+205.325+386.956L205.329+389.087C205.329+389.234+205.435+389.369+205.582+389.369L207.356+389.369L207.807+389.369L210.004+389.369C210.151+389.369+210.497+389.634+210.497+389.487L210.552+387.06L210.589+387.06L237.069+387.06L237.204+386.981L237.211+389.264C237.211+389.411+237.164+389.538+237.311+389.538L240.139+389.538L241.885+389.538C242.032+389.538+242.167+389.403+242.167+389.256L242.167+387.078C242.167+386.946+242.042+386.848+241.914+386.825L240.421+386.778C240.412+386.63+240.393+386.484+240.393+386.327C240.393+377.175+232.956+369.739+223.804+369.739Z" fill="#070b17" stroke="#d3d3d3" stroke-linejoin="round" stroke-linecap="round" stroke-width="1.12" opacity="1"/>
<path stroke-linejoin="round" stroke-linecap="round" stroke-width="0.82" stroke="#d3d3d3" opacity="1" fill="#070b17" d="M223.841+373.052C216.382+373.052+210.335+379.201+210.335+386.785L210.335+432.644L237.346+432.644L237.346+386.785C237.346+379.201+231.299+373.052+223.841+373.052Z"/>
<path opacity="1" stroke-linejoin="round" d="M223.827+375.872C217.69+375.872+212.713+380.848+212.713+386.985L212.713+426.044L234.941+426.044L234.941+386.985C234.941+380.848+229.964+375.872+223.827+375.872Z" stroke-width="0.42" stroke-linecap="round" stroke="#d3d3d3" fill="#070b17"/>
<path stroke-width="0.52" stroke="#d3d3d3" stroke-linejoin="round" opacity="1" stroke-linecap="round" fill="#070b17" d="M223.849+378.642C219.183+378.642+215.359+382.33+215.168+386.949L215.167+386.953L215.167+387.308L215.167+397.036L232.514+397.036L232.514+387.308L232.512+386.944L232.507+386.944C232.317+382.325+228.514+378.642+223.849+378.642Z"/>
<path d="M215.172+401.188L232.509+401.188L232.509+420.167L215.172+420.167L215.172+401.188Z" stroke-linejoin="round" opacity="1" stroke="#d3d3d3" stroke-width="0.52" fill="#070b17" stroke-linecap="round"/>
<path stroke="#d3d3d3" stroke-linecap="round" d="M216.705+399.218C216.705+398.724+217.106+398.323+217.6+398.323C218.094+398.323+218.495+398.724+218.495+399.218C218.495+399.713+218.094+400.113+217.6+400.113C217.106+400.113+216.705+399.713+216.705+399.218Z" opacity="1" stroke-linejoin="round" stroke-width="0.42" fill="#070b17"/>
<path stroke-linecap="round" d="M229.161+399.217C229.161+398.723+229.561+398.323+230.055+398.323C230.549+398.323+230.949+398.723+230.949+399.217C230.949+399.711+230.549+400.112+230.055+400.112C229.561+400.112+229.161+399.711+229.161+399.217Z" stroke-linejoin="round" stroke-width="0.42" stroke="#d3d3d3" opacity="1" fill="#070b17"/>
<path stroke-linecap="round" opacity="1" d="M210.322+427.696L237.359+427.696L237.359+429.289L210.322+429.289L210.322+427.696Z" fill="#070b17" stroke="#d3d3d3" stroke-linejoin="round" stroke-width="0.42"/>
</g>
<g opacity="1">
<path fill="#000000" stroke="#808080" stroke-linecap="round" d="M243.648+98.1429L109.938+98.1429L109.938+283.306L243.648+283.306L243.648+98.1429Z" stroke-linejoin="round" stroke-width="1.28" opacity="1"/>
<path opacity="1" stroke-linecap="round" d="M243.636+279.261L110.354+279.261L110.354+287.119L243.636+287.119L243.636+279.261Z" stroke-linejoin="round" stroke-width="1.72" stroke="#acacac" fill="#acacac"/>
<path fill="#acacac" stroke-linecap="round" stroke-width="1.72" stroke="#acacac" d="M243.186+25.5508L243.186+27.6461L109.879+27.6461L109.879+32.9627L109.798+32.9627L109.798+25.5508L113.704+25.5508L243.186+25.5508Z" opacity="1" stroke-linejoin="round"/>
<path opacity="1" fill="#000000" stroke-linecap="round" stroke="#acacac" d="M109.788+31.5272L243.719+31.5272L243.719+98.8084L109.788+98.8084L109.788+31.5272Z" stroke-width="0.72" stroke-linejoin="round"/>
<path stroke-linecap="round" opacity="1" stroke-width="1.72" stroke-linejoin="round" d="M243.214+27.8597L243.214+33.1722L109.788+33.1722L109.788+27.8597L243.214+27.8597Z" stroke="#acacac" fill="#071017"/>
<path stroke-width="0.82" stroke-linecap="round" stroke="#808080" fill="none" opacity="1" d="M174.661+215.529L174.661+267.618L157.653+267.618L155.915+267.618L138.894+267.618L138.894+215.529L155.915+215.529L157.653+215.529L174.661+215.529Z" stroke-linejoin="round"/>
<path d="M177.655+215.524L177.655+217.873L177.655+217.919L177.655+221.55L177.655+222.984L177.655+226.05L178.848+226.05L178.848+226.782L177.199+226.782L176.55+226.782L174.918+226.782L174.918+226.66L174.918+226.05L174.918+222.984L174.918+221.55L174.918+217.919L160.201+217.919L153.325+217.919L138.625+217.919L138.625+221.55L138.625+222.984L138.625+226.05L138.625+226.66L138.625+226.782L136.977+226.782L136.328+226.782L134.696+226.782L134.696+226.05L135.871+226.05L135.871+222.984L135.871+221.55L135.871+217.873L135.889+217.873L135.889+215.524L153.325+215.524L160.201+215.524L177.655+215.524Z" fill="#a0a0a0" stroke-linejoin="round" stroke-width="1.22" opacity="1" stroke="#a0a0a0" stroke-linecap="round"/>
<g opacity="1">
<path stroke="#808080" fill="none" opacity="1" stroke-width="0.724251" d="M155.14+242.78L142.084+242.78L142.084+262.133L155.14+262.133L155.14+242.78Z" stroke-linecap="round" stroke-linejoin="round"/>
<path fill="none" opacity="1" d="M155.14+220.802L142.084+220.802L142.084+241.577L155.14+241.577L155.14+220.802Z" stroke="#808080" stroke-width="0.724251" stroke-linecap="round" stroke-linejoin="round"/>
</g>
<g opacity="1">
<path opacity="1" stroke="#808080" stroke-width="0.724251" stroke-linejoin="round" fill="none" stroke-linecap="round" d="M171.296+242.78L158.239+242.78L158.239+262.133L171.296+262.133L171.296+242.78Z"/>
<path stroke-width="0.724251" stroke-linejoin="round" stroke="#808080" d="M171.296+220.802L158.239+220.802L158.239+241.577L171.296+241.577L171.296+220.802Z" fill="none" opacity="1" stroke-linecap="round"/>
</g>
<path stroke-linejoin="round" fill="none" stroke-linecap="round" stroke="#808080" d="M178.497+267.645L135.059+267.645L136.025+269.835L137.189+271.783L176.755+271.781L177.573+269.823L178.497+267.645Z" stroke-width="1.22" opacity="1"/>
<path stroke-linecap="round" stroke-linejoin="round" opacity="1" fill="#a0a0a0" d="M174.95+255.794L176.458+256.541L176.471+258.748L176.517+267.51L174.701+267.51L174.701+255.794L174.95+255.794Z" stroke="#a0a0a0" stroke-width="0.92"/>
<path stroke="#a0a0a0" stroke-linejoin="round" d="M138.661+255.914L137.152+256.661L137.14+258.868L137.094+267.63L138.91+267.63L138.91+255.914L138.661+255.914Z" fill="#a0a0a0" stroke-width="0.92" opacity="1" stroke-linecap="round"/>
<path stroke-linejoin="round" d="M170.159+118.304L170.159+170.309L158.07+170.309L156.835+170.309L144.736+170.309L144.736+118.304L156.835+118.304L158.07+118.304L170.159+118.304Z" stroke="#808080" fill="none" opacity="1" stroke-linecap="round" stroke-width="0.82"/>
<path fill="#a0a0a0" stroke-linecap="round" stroke-linejoin="round" stroke="#a0a0a0" stroke-width="1.22" d="M172.417+118.299L172.417+120.644L172.417+120.69L172.417+124.315L172.417+125.747L172.417+128.808L173.271+128.808L173.271+129.539L172.091+129.539L171.627+129.539L170.459+129.539L170.459+129.417L170.459+128.808L170.459+125.747L170.459+124.315L170.459+120.69L159.928+120.69L155.008+120.69L144.489+120.69L144.489+124.315L144.489+125.747L144.489+128.808L144.489+129.417L144.489+129.539L143.309+129.539L142.845+129.539L141.677+129.539L141.677+128.808L142.518+128.808L142.518+125.747L142.518+124.315L142.518+120.644L142.531+120.644L142.531+118.299L155.008+118.299L159.928+118.299L172.417+118.299Z" opacity="1"/>
<path stroke="#808080" fill="none" stroke-linecap="round" opacity="1" stroke-width="0.724251" stroke-linejoin="round" d="M166.856+123.749L148.242+123.749L148.242+144.339L166.856+144.339L166.856+123.749Z"/>
<path stroke="#a0a0a0" fill="#a0a0a0" stroke-linecap="round" stroke-linejoin="round" opacity="1" stroke-width="0.92" d="M170.426+158.504L171.813+159.25L171.825+161.454L171.867+170.201L170.197+170.201L170.197+158.504L170.426+158.504Z"/>
<path stroke="#a0a0a0" fill="#a0a0a0" d="M144.426+158.624L143.038+159.37L143.026+161.574L142.984+170.322L144.655+170.322L144.655+158.624L144.426+158.624Z" stroke-width="0.92" stroke-linecap="round" stroke-linejoin="round" opacity="1"/>
<path fill="none" stroke-linecap="round" opacity="1" stroke="#808080" stroke-width="0.724251" stroke-linejoin="round" d="M166.856+146.623L148.242+146.623L148.242+167.213L166.856+167.213L166.856+146.623Z"/>
<path d="M231.395+118.304L231.395+170.309L219.306+170.309L218.071+170.309L205.972+170.309L205.972+118.304L218.071+118.304L219.306+118.304L231.395+118.304Z" stroke="#808080" opacity="1" stroke-linejoin="round" stroke-width="0.82" fill="none" stroke-linecap="round"/>
<path fill="#a0a0a0" stroke-linejoin="round" d="M233.568+118.299L233.568+120.644L233.568+120.69L233.568+124.315L233.568+125.747L233.568+128.808L234.419+128.808L234.419+129.539L233.242+129.539L232.779+129.539L231.615+129.539L231.615+129.417L231.615+128.808L231.615+125.747L231.615+124.315L231.615+120.69L221.113+120.69L216.206+120.69L205.717+120.69L205.717+124.315L205.717+125.747L205.717+128.808L205.717+129.417L205.717+129.539L204.54+129.539L204.077+129.539L202.913+129.539L202.913+128.808L203.752+128.808L203.752+125.747L203.752+124.315L203.752+120.644L203.764+120.644L203.764+118.299L216.206+118.299L221.113+118.299L233.568+118.299Z" stroke-width="1.22" opacity="1" stroke="#a0a0a0" stroke-linecap="round"/>
<path fill="none" d="M228.092+123.749L209.478+123.749L209.478+144.339L228.092+144.339L228.092+123.749Z" stroke="#808080" opacity="1" stroke-linejoin="round" stroke-width="0.724251" stroke-linecap="round"/>
<path fill="none" stroke-linejoin="round" opacity="1" stroke="#808080" stroke-width="1.22" stroke-linecap="round" d="M234.915+170.317L202.127+170.317L203.176+172.453L204.318+174.446L233.242+174.446L234.037+172.537L234.915+170.317Z"/>
<path d="M231.662+158.504L233.049+159.25L233.061+161.454L233.103+170.201L231.432+170.201L231.432+158.504L231.662+158.504Z" fill="#a0a0a0" stroke-linejoin="round" opacity="1" stroke-width="0.92" stroke-linecap="round" stroke="#a0a0a0"/>
<path d="M205.661+158.624L204.274+159.37L204.262+161.574L204.22+170.322L205.89+170.322L205.89+158.624L205.661+158.624Z" stroke-linejoin="round" opacity="1" stroke-linecap="round" stroke-width="0.92" stroke="#a0a0a0" fill="#a0a0a0"/>
<path stroke-linecap="round" stroke-linejoin="round" stroke="#808080" opacity="1" stroke-width="0.724251" fill="none" d="M228.092+146.623L209.478+146.623L209.478+167.213L228.092+167.213L228.092+146.623Z"/>
<path fill="#000000" stroke-width="1.28" stroke="#acacac" d="M232.752+212.938L201.477+212.938L201.477+283.522L232.752+283.522L232.752+212.938Z" stroke-linecap="round" stroke-linejoin="round" opacity="1"/>
<path opacity="1" stroke-linecap="round" stroke-width="1.28" fill="#acacac" stroke-linejoin="round" stroke="#acacac" d="M237.242+208.536L233.071+212.888L201.44+212.888L197.269+208.536L237.242+208.536Z"/>
<g opacity="1">
<path stroke="#a0a0a0" stroke-width="0.724251" d="M160.02+98.9562L160.02+107.081L143.354+107.081L143.354+98.9562L160.02+98.9562Z" stroke-linejoin="round" stroke-linecap="round" fill="none" opacity="1"/>
<path stroke-linejoin="round" opacity="1" fill="none" stroke-width="0.724251" stroke-linecap="round" d="M176.669+98.9562L176.669+107.081L160.02+107.081L160.02+98.9562L176.669+98.9562Z" stroke="#a0a0a0"/>
<g opacity="1">
<path opacity="1" stroke="#a0a0a0" stroke-width="0.724251" stroke-linecap="round" stroke-linejoin="round" fill="none" d="M126.729+98.9562L126.729+107.081L110.064+107.081L110.064+98.9562L126.729+98.9562Z"/>
<path opacity="1" fill="none" stroke="#a0a0a0" stroke-linejoin="round" d="M143.379+98.9562L143.379+107.081L126.729+107.081L126.729+98.9562L143.379+98.9562Z" stroke-width="0.724251" stroke-linecap="round"/>
</g>
</g>
<path d="M226.12+235.976L208.109+235.976L208.109+269.11L226.12+269.11L226.12+235.976Z" fill="none" opacity="1" stroke="#acacac" stroke-linejoin="round" stroke-linecap="round" stroke-width="0.82"/>
<path stroke-linecap="round" stroke="#acacac" d="M226.068+219.436L208.057+219.436L208.057+232.274L226.068+232.274L226.068+219.436Z" stroke-width="0.82" fill="none" opacity="1" stroke-linejoin="round"/>
<path d="M222.206+252.396C222.206+246.239+219.883+241.247+217.019+241.247C214.154+241.247+211.831+246.239+211.831+252.396C211.831+258.554+214.154+263.546+217.019+263.546C219.883+263.546+222.206+258.554+222.206+252.396Z" fill="none" stroke-width="0.52" stroke-linecap="round" stroke-linejoin="round" stroke="#acacac" opacity="1"/>
<g opacity="1">
<path d="M227.101+98.9562L227.101+107.081L210.295+107.081L210.295+98.9562L227.101+98.9562Z" fill="none" stroke="#a0a0a0" stroke-linejoin="round" stroke-linecap="round" opacity="1" stroke-width="0.724251"/>
<path fill="none" stroke-linecap="round" stroke-linejoin="round" stroke-width="0.724251" opacity="1" stroke="#a0a0a0" d="M243.892+98.9562L243.892+107.081L227.101+107.081L227.101+98.9562L243.892+98.9562Z"/>
<g opacity="1">
<path d="M193.529+98.9562L193.529+107.081L176.722+107.081L176.722+98.9562L193.529+98.9562Z" stroke-width="0.724251" stroke="#a0a0a0" fill="none" opacity="1" stroke-linecap="round" stroke-linejoin="round"/>
<path stroke="#a0a0a0" opacity="1" stroke-width="0.724251" stroke-linejoin="round" fill="none" d="M210.32+98.9562L210.32+107.081L193.529+107.081L193.529+98.9562L210.32+98.9562Z" stroke-linecap="round"/>
</g>
</g>
<path opacity="1" stroke-width="1.72" d="M243.3+99.1609L241.685+99.1609L241.685+286.923L243.3+286.923L243.3+99.1609Z" stroke-linejoin="round" fill="#acacac" stroke="#acacac" stroke-linecap="round"/>
<path stroke-linecap="round" d="M226.12+273.653L208.109+273.653L208.109+278.474L226.12+278.474L226.12+273.653Z" stroke="#acacac" stroke-width="0.82" stroke-linejoin="round" fill="none" opacity="1"/>
<path stroke-width="0.42" stroke-linejoin="miter" stroke-linecap="butt" stroke="#acacac" opacity="1" fill="#070b17" d="M217.84+57.5023C218.052+57.5023+218.219+57.6449+218.219+57.8264L218.219+57.8669L219.142+57.8669C219.194+57.8669+219.236+57.9148+219.236+57.9682L219.236+58.7581C219.236+58.8115+219.194+58.8594+219.142+58.8594L218.668+58.8594L218.668+59.2442C218.668+59.2976+218.626+59.3455+218.574+59.3455L218.1+59.3455L218.1+59.71C218.1+59.7634+218.059+59.8113+218.006+59.8113L217.533+59.8113L217.533+60.2164C217.533+60.2698+217.491+60.2974+217.438+60.2974L216.468+60.2974C216.415+60.2974+216.373+60.2698+216.373+60.2164L216.373+59.4265L215.45+59.4265C215.239+59.4265+215.072+59.2839+215.072+59.1024L215.072+57.8264C215.072+57.6449+215.239+57.5023+215.45+57.5023L217.84+57.5023Z"/>
<path opacity="1" d="M195.149+57.9129C195.361+57.9129+195.528+57.7665+195.528+57.9479L195.528+59.2037C195.528+59.3852+195.361+59.548+195.149+59.548L194.203+59.548L194.203+60.3582C194.203+60.4033+194.147+60.4392+194.084+60.4392L193.162+60.4392C193.099+60.4392+193.043+60.4033+193.043+60.3582L193.043+59.9531L192.57+59.9531C192.508+59.9531+192.452+59.9172+192.452+59.8721L192.452+59.467L192.026+59.467C191.964+59.467+191.908+59.4311+191.908+59.386L191.908+58.9809L191.458+58.9809C191.396+58.9809+191.34+58.945+191.34+58.8999L191.34+58.0695C191.34+58.0243+191.396+57.9884+191.458+57.9884L192.357+57.9884L192.357+57.9479C192.357+57.7665+192.548+58.116+192.759+58.116L195.149+57.9129Z" stroke="#acacac" fill="#070b17" stroke-width="0.42" stroke-linecap="butt" stroke-linejoin="miter"/>
<path stroke-width="1.52" stroke="#acacac" stroke-linecap="round" opacity="1" stroke-linejoin="round" d="M205.3+41.6434C213.756+41.6434+220.642+47.1587+221.508+54.2009L222.927+54.2009C223.051+54.2009+223.164+54.2776+223.164+54.3832L223.164+56.0035C223.164+56.1091+223.051+56.1858+222.927+56.1858L221.602+56.1858L221.058+56.1858L220.711+56.1923C220.679+56.177+220.673+56.1894+220.632+56.1893L219.236+56.1678C219.251+56.031+219.213+55.7999+219.213+55.6592C219.213+49.0774+213.012+43.7296+205.323+43.7296C197.635+43.7296+191.387+49.0774+191.387+55.6592C191.387+55.8353+191.358+55.9922+191.363+56.1656L190.154+56.1833C190.141+56.1833+190.121+56.184+190.109+56.1858L188.997+56.1858L187.791+56.1858C187.667+56.1858+187.554+56.1091+187.554+56.0035L187.554+54.3832C187.554+54.2777+187.667+54.2009+187.791+54.2009L189.092+54.2009C189.958+47.1587+196.844+41.6434+205.3+41.6434Z" fill="#acacac"/>
<path opacity="1" fill="#070b17" stroke-width="1.12" stroke-linecap="round" stroke="#acacac" d="M205.323+43.8951C213.012+43.8951+219.213+49.331+219.213+55.9128C219.213+56.0107+219.23+56.1262+219.236+56.2369L220.703+56.2446C220.766+56.2752+220.848+56.2066+220.848+56.277L220.845+57.8097C220.845+57.9152+220.756+58.0122+220.632+58.0122L219.142+58.0122L218.763+58.0122L216.917+58.0122C216.794+58.0122+216.503+58.2024+216.503+58.0969L216.457+56.3514L216.426+56.3514L194.179+56.3514L194.066+56.2949L194.06+57.9368C194.06+58.0424+194.1+58.1337+193.976+58.1337L191.6+58.1337L190.133+58.1337C190.01+58.1337+189.896+58.0368+189.896+57.9312L189.896+56.3646C189.896+56.2695+190.001+56.1989+190.109+56.1823L191.363+56.1488C191.371+56.0424+191.387+55.9375+191.387+55.8248C191.387+49.243+197.635+43.8951+205.323+43.8951Z" stroke-linejoin="round"/>
<path stroke-linejoin="round" stroke-width="0.82" stroke-linecap="round" opacity="1" stroke="#acacac" d="M205.293+46.2777C211.559+46.2777+216.639+50.7+216.639+56.1538L216.639+89.1334L193.947+89.1334L193.947+56.1538C193.947+50.7+199.027+46.2777+205.293+46.2777Z" fill="#000000"/>
<path stroke-linejoin="round" fill="#000000" stroke="#acacac" opacity="1" stroke-linecap="round" d="M205.285+49.0154C209.909+49.0154+213.699+52.1445+213.888+56.0632L213.889+56.0665L213.889+56.3671L213.889+64.6207L196.697+64.6207L196.697+56.3671L196.699+56.0586L196.703+56.0586C196.892+52.1398+200.661+49.0154+205.285+49.0154Z" stroke-width="0.52"/>
<path fill="#000000" opacity="1" stroke="#acacac" stroke-width="0.52" stroke-linecap="round" stroke-linejoin="round" d="M213.671+67.0992L196.915+67.0992L196.915+82.801L213.671+82.801L213.671+67.0992Z"/>
<path stroke-width="0.42" fill="#070b17" stroke="#acacac" opacity="1" d="M158.668+57.5023C158.88+57.5023+159.047+57.6449+159.047+57.8264L159.047+57.8669L159.97+57.8669C160.022+57.8669+160.064+57.9148+160.064+57.9682L160.064+58.7581C160.064+58.8115+160.022+58.8594+159.97+58.8594L159.496+58.8594L159.496+59.2442C159.496+59.2976+159.455+59.3455+159.402+59.3455L158.929+59.3455L158.929+59.71C158.929+59.7634+158.887+59.8113+158.834+59.8113L158.361+59.8113L158.361+60.2164C158.361+60.2698+158.319+60.2974+158.266+60.2974L157.296+60.2974C157.243+60.2974+157.201+60.2698+157.201+60.2164L157.201+59.4265L156.279+59.4265C156.067+59.4265+155.9+59.2839+155.9+59.1024L155.9+57.8264C155.9+57.6449+156.067+57.5023+156.279+57.5023L158.668+57.5023Z" stroke-linejoin="miter" stroke-linecap="butt"/>
<path stroke-linecap="butt" stroke-linejoin="miter" fill="#070b17" stroke-width="0.42" opacity="1" d="M135.977+57.9129C136.189+57.9129+136.356+57.7665+136.356+57.9479L136.356+59.2037C136.356+59.3852+136.189+59.548+135.977+59.548L135.031+59.548L135.031+60.3582C135.031+60.4033+134.975+60.4392+134.913+60.4392L133.99+60.4392C133.927+60.4392+133.871+60.4033+133.871+60.3582L133.871+59.9531L133.398+59.9531C133.336+59.9531+133.28+59.9172+133.28+59.8721L133.28+59.467L132.854+59.467C132.792+59.467+132.736+59.4311+132.736+59.386L132.736+58.9809L132.286+58.9809C132.224+58.9809+132.168+58.945+132.168+58.8999L132.168+58.0695C132.168+58.0243+132.224+57.9884+132.286+57.9884L133.185+57.9884L133.185+57.9479C133.185+57.7665+133.376+58.116+133.587+58.116L135.977+57.9129Z" stroke="#acacac"/>
<path stroke="#acacac" opacity="1" fill="#acacac" d="M146.128+41.6434C154.584+41.6434+161.47+47.1587+162.336+54.2009L163.755+54.2009C163.879+54.2009+163.992+54.2776+163.992+54.3832L163.992+56.0035C163.992+56.1091+163.879+56.1858+163.755+56.1858L162.43+56.1858L161.886+56.1858L161.539+56.1923C161.507+56.177+161.501+56.1894+161.46+56.1893L160.064+56.1678C160.079+56.031+160.041+55.7999+160.041+55.6592C160.041+49.0774+153.84+43.7296+146.152+43.7296C138.463+43.7296+132.215+49.0774+132.215+55.6592C132.215+55.8353+132.186+55.9922+132.191+56.1656L130.982+56.1833C130.969+56.1833+130.949+56.184+130.937+56.1858L129.825+56.1858L128.619+56.1858C128.495+56.1858+128.382+56.1091+128.382+56.0035L128.382+54.3832C128.382+54.2777+128.495+54.2009+128.619+54.2009L129.92+54.2009C130.786+47.1587+137.672+41.6434+146.128+41.6434Z" stroke-width="1.52" stroke-linecap="round" stroke-linejoin="round"/>
<path opacity="1" stroke-width="1.12" stroke="#acacac" fill="#070b17" stroke-linecap="round" d="M146.152+43.8951C153.84+43.8951+160.041+49.331+160.041+55.9128C160.041+56.0107+160.058+56.1262+160.064+56.2369L161.531+56.2446C161.594+56.2752+161.676+56.2066+161.676+56.277L161.673+57.8097C161.673+57.9152+161.584+58.0122+161.46+58.0122L159.97+58.0122L159.591+58.0122L157.745+58.0122C157.622+58.0122+157.331+58.2024+157.331+58.0969L157.285+56.3514L157.254+56.3514L135.007+56.3514L134.894+56.2949L134.889+57.9368C134.889+58.0424+134.928+58.1337+134.804+58.1337L132.428+58.1337L130.961+58.1337C130.838+58.1337+130.724+58.0368+130.724+57.9312L130.724+56.3646C130.724+56.2695+130.829+56.1989+130.937+56.1823L132.191+56.1488C132.199+56.0424+132.215+55.9375+132.215+55.8248C132.215+49.243+138.463+43.8951+146.152+43.8951Z" stroke-linejoin="round"/>
<path stroke-linejoin="round" stroke-width="0.82" fill="#000000" opacity="1" stroke-linecap="round" stroke="#acacac" d="M146.121+46.2777C152.387+46.2777+157.467+50.7+157.467+56.1538L157.467+89.1334L134.775+89.1334L134.775+56.1538C134.775+50.7+139.855+46.2777+146.121+46.2777Z"/>
<path opacity="1" d="M146.113+49.0154C150.737+49.0154+154.527+52.1445+154.716+56.0632L154.717+56.0665L154.717+56.3671L154.717+64.6207L137.525+64.6207L137.525+56.3671L137.527+56.0586L137.531+56.0586C137.72+52.1398+141.489+49.0154+146.113+49.0154Z" fill="#000000" stroke-linecap="round" stroke="#acacac" stroke-linejoin="round" stroke-width="0.52"/>
<path fill="#000000" stroke-linecap="round" d="M154.499+67.0992L137.743+67.0992L137.743+82.801L154.499+82.801L154.499+67.0992Z" stroke-width="0.52" stroke-linejoin="round" stroke="#acacac" opacity="1"/>
<path stroke-linecap="round" fill="#acacac" stroke-linejoin="round" opacity="1" stroke-width="0.724251" d="M243.885+97.0687L109.776+97.0687L109.776+100.68L243.885+100.68L243.885+97.0687Z" stroke="#acacac"/>
<path stroke-width="0.724251" stroke-linecap="round" stroke-linejoin="round" opacity="1" fill="#ffffff" stroke="#ffffff" d="M110.417+101.34L109.779+101.34L109.779+107.541L110.417+107.541L110.417+101.34Z"/>
<path opacity="1" stroke="#808080" d="M173.835+170.233L141.047+170.233L142.097+172.369L143.238+174.362L172.163+174.362L172.957+172.453L173.835+170.233Z" stroke-width="1.22" stroke-linejoin="round" fill="none" stroke-linecap="round"/>
<path opacity="1" stroke-width="0.82" stroke-linecap="round" d="M135.114+88.4204L157.003+88.4204L157.003+88.4427L135.114+88.4427L135.114+88.4204Z" fill="#acacac" stroke-linejoin="round" stroke="#acacac"/>
<path d="M194.296+88.4044L216.186+88.4044L216.186+88.4266L194.296+88.4266L194.296+88.4044Z" opacity="1" stroke="#acacac" stroke-linecap="round" stroke-width="0.82" fill="#acacac" stroke-linejoin="round"/>
</g>
</g>
</svg>
