<?xml version="1.0" encoding="UTF-8" standalone="no"?> <!-- Created with Vectornator for iOS (http://vectornator.io/) --><!DOCTYPE svg PUBLIC "-//W3C//DTD SVG 1.1//EN" "http://www.w3.org/Graphics/SVG/1.1/DTD/svg11.dtd">
<svg xmlns:vectornator="http://vectornator.io" style="fill-rule:nonzero;clip-rule:evenodd;stroke-linecap:round;stroke-linejoin:round;" xmlns="http://www.w3.org/2000/svg" xmlns:xlink="http://www.w3.org/1999/xlink" width="100%" version="1.1" xml:space="preserve" viewBox="0 0 281.635 314.323" height="100%">
<metadata>
<vectornator:setting key="WDDynamicGuides" value="false"/>
<vectornator:setting key="WDCMYKEnabledKey" value="false"/>
<vectornator:setting key="VNPencilOnly" value="false"/>
<vectornator:setting value="false" key="WDSnapToPoints"/>
<vectornator:setting key="WDIsolateActiveLayer" value="false"/>
<vectornator:setting key="WDRulersVisible" value="true"/>
<vectornator:setting value="false" key="WDSnapToGrid"/>
<vectornator:setting key="VNDimensionsVisible" value="true"/>
<vectornator:setting key="IsTimeLapseWatermarkDisabled" value="false"/>
<vectornator:setting key="VNSnapToGuides" value="true"/>
<vectornator:setting key="WDUnits" value="Pixels"/>
<vectornator:setting value="false" key="WDSnapToEdges"/>
<vectornator:setting value="false" key="UndoHistoryDisabled"/>
<vectornator:setting value="true" key="WDGuidesVisible"/>
<vectornator:setting key="WDDisplayWhiteBackground" value="false"/>
<vectornator:setting value="false" key="WDOutlineMode"/>
</metadata>
<defs/>
<g vectornator:layerName="Layer 2" id="Layer 2">
<g opacity="1">
<path stroke-width="1.82" stroke="#acacac" fill="#000000" stroke-linejoin="round" stroke-linecap="round" opacity="1" d="M53.271+130.53L219.32+130.53L219.32+297.85L53.271+297.85L53.271+130.53Z"/>
<path opacity="1" stroke-linejoin="round" stroke-linecap="round" d="M53.1679+61.7749L219.457+61.7749L219.457+125.126L53.1679+125.126L53.1679+61.7749Z" stroke-width="1.82" stroke="#acacac" fill="#000000"/>
<path fill="#000000" stroke="#acacac" d="M107.446+82.759L130.152+82.759L130.152+112.517L107.446+112.517L107.446+82.759Z" stroke-linecap="round" opacity="1" stroke-linejoin="round" stroke-width="1.02"/>
<path stroke="#acacac" d="M111.962+85.9312L118.094+85.9312L118.094+109.345L111.962+109.345L111.962+85.9312Z" fill="#000000" stroke-width="0.65" stroke-linecap="round" opacity="1" stroke-linejoin="round"/>
<path stroke-linecap="round" d="M105.991+80.4152L131.65+80.4152L131.65+82.6821L105.991+82.6821L105.991+80.4152Z" stroke-width="1.82" fill="#acacac" stroke-linejoin="round" opacity="1" stroke="#acacac"/>
<path stroke="#acacac" d="M119.189+85.9312L125.321+85.9312L125.321+109.345L119.189+109.345L119.189+85.9312Z" stroke-width="0.65" fill="#000000" stroke-linecap="round" stroke-linejoin="round" opacity="1"/>
<path stroke-linecap="round" stroke="#acacac" stroke-width="0.62" fill="#070b17" stroke-linejoin="round" opacity="1" d="M127.736+83.0202L127.94+83.0202L127.94+112.705L127.736+112.705L127.736+83.0202Z"/>
<path stroke-linecap="round" stroke="#acacac" d="M109.44+83.2637L109.664+83.2637L109.664+112.228L109.44+112.228L109.44+83.2637Z" stroke-linejoin="round" stroke-width="0.62" opacity="1" fill="#070b17"/>
<path fill="#070b17" d="M107.193+83.0741L107.418+83.0741L107.418+112.619L107.193+112.619L107.193+83.0741Z" stroke-linejoin="round" stroke-linecap="round" stroke-width="0.62" opacity="1" stroke="#acacac"/>
<path fill="#070b17" stroke-width="0.62" opacity="1" stroke-linecap="round" stroke-linejoin="round" d="M130.268+83.0613L130.493+83.0613L130.493+112.606L130.268+112.606L130.268+83.0613Z" stroke="#acacac"/>
<path stroke-linecap="round" opacity="1" stroke-linejoin="round" fill="#070b17" d="M53.2297+64.4876L219.022+64.4876L219.022+68.9135L53.2297+68.9135L53.2297+64.4876Z" stroke-width="2.02" stroke="#acacac"/>
<path fill="#070b17" stroke="#808080" stroke-linecap="round" d="M53.0543+125.291L219.491+125.291L219.491+130.533L53.0543+130.533L53.0543+125.291Z" stroke-linejoin="round" stroke-width="1.52" opacity="1"/>
<path stroke-linecap="round" opacity="1" d="M52.7012+62.087L219.749+62.087L219.749+64.3947L52.7012+64.3947L52.7012+62.087Z" stroke-linejoin="round" stroke-width="1.02" stroke="#acacac" fill="#acacac"/>
<path stroke-linecap="round" opacity="1" stroke-width="1.42" stroke-linejoin="round" d="M52.9875+125.539L219.442+125.539L219.442+125.931L52.9875+125.931L52.9875+125.539Z" stroke="#808080" fill="#070b17"/>
<path stroke-linecap="butt" d="M52.5194+123.772L53.4331+123.772L53.4331+131.345L52.5194+131.345L52.5194+123.772Z" stroke-width="0.52" stroke="#acacac" stroke-linejoin="miter" opacity="1" fill="#acacac"/>
<path stroke="#acacac" fill="#acacac" opacity="1" stroke-width="0.52" d="M219.021+123.772L220.119+123.772L220.119+131.401L219.021+131.401L219.021+123.772Z" stroke-linecap="butt" stroke-linejoin="miter"/>
<path stroke="#acacac" stroke-linecap="round" fill="#070b17" d="M158.247+82.759L180.953+82.759L180.953+112.517L158.247+112.517L158.247+82.759Z" stroke-width="1.02" stroke-linejoin="round" opacity="1"/>
<path stroke-linecap="round" stroke-linejoin="round" fill="#000000" stroke-width="0.65" opacity="1" d="M162.764+85.9312L168.896+85.9312L168.896+109.345L162.764+109.345L162.764+85.9312Z" stroke="#acacac"/>
<path stroke-width="1.82" stroke-linecap="round" d="M156.793+80.4152L182.452+80.4152L182.452+82.6821L156.793+82.6821L156.793+80.4152Z" fill="#acacac" opacity="1" stroke="#acacac" stroke-linejoin="round"/>
<path fill="#000000" stroke="#acacac" opacity="1" stroke-linecap="round" stroke-width="0.65" d="M169.99+85.9312L176.123+85.9312L176.123+109.345L169.99+109.345L169.99+85.9312Z" stroke-linejoin="round"/>
<path stroke-linejoin="round" fill="#070b17" stroke-linecap="round" d="M178.537+83.3205L178.751+83.3205L178.751+112.099L178.537+112.099L178.537+83.3205Z" stroke="#acacac" stroke-width="0.62" opacity="1"/>
<path opacity="1" fill="#070b17" stroke-linecap="round" stroke-linejoin="round" stroke="#acacac" d="M160.241+83.1925L160.448+83.1925L160.448+112.356L160.241+112.356L160.241+83.1925Z" stroke-width="0.62"/>
<path d="M157.995+83.0741L158.22+83.0741L158.22+112.619L157.995+112.619L157.995+83.0741Z" opacity="1" stroke-width="0.62" stroke-linecap="round" stroke-linejoin="round" stroke="#acacac" fill="#070b17"/>
<path stroke-width="0.62" stroke-linecap="round" d="M181.07+83.0613L181.295+83.0613L181.295+112.606L181.07+112.606L181.07+83.0613Z" stroke="#acacac" opacity="1" stroke-linejoin="round" fill="#070b17"/>
<path fill="#000000" stroke-linejoin="round" stroke="#909090" d="M85.4581+146.79L85.4581+193.288L111.467+193.288L114.124+193.288L140.154+193.288L140.154+146.79L114.124+146.79L111.467+146.79L85.4581+146.79Z" stroke-linecap="round" opacity="1" stroke-width="0.82"/>
<path stroke-linejoin="round" d="M89.8106+170.792L99.4207+170.792L99.4207+190.242L89.8106+190.242L89.8106+170.792Z" stroke-width="0.724251" fill="#000000" opacity="1" stroke="#808080" stroke-linecap="round"/>
<path stroke-linejoin="round" fill="#000000" stroke-linecap="round" stroke="#808080" d="M89.8106+149.527L99.3297+149.527L99.3297+168.974L89.8106+168.974L89.8106+149.527Z" stroke-width="0.724251" opacity="1"/>
<path stroke-linecap="butt" stroke-linejoin="miter" opacity="1" fill="#a0a0a0" d="M83.7401+143.026L83.7401+145.035L83.7401+145.767L84.05+145.767L84.05+146.112C84.05+146.145+84.0727+146.134+84.1215+146.134L84.4552+146.134L84.4552+146.433C84.4551+146.467+84.5018+146.489+84.5505+146.489L84.9319+146.489L84.9319+146.722L85.8376+146.722L112.748+146.722L112.819+146.722L139.73+146.722L140.635+146.722L140.635+146.489L140.993+146.489C141.042+146.489+141.088+146.467+141.088+146.433L141.088+146.134L141.422+146.134C141.471+146.134+141.517+146.145+141.517+146.112L141.517+145.767L141.803+145.767L141.803+145.035L141.803+143.026L112.819+143.026L112.748+143.026L83.7401+143.026Z" stroke="#a0a0a0" stroke-width="0.42"/>
<path d="M81.5939+141.214L82.7465+142.062L82.7465+142.371L83.0688+142.371L83.0688+142.516C83.0688+142.53+83.0925+142.525+83.1432+142.525L83.4903+142.525L83.4903+142.651C83.4903+142.665+83.5388+142.674+83.5895+142.674L83.9862+142.674L83.9862+142.773L84.9284+142.773L112.921+142.773L112.996+142.773L140.989+142.773L141.931+142.773L141.931+142.674L142.303+142.674C142.354+142.674+142.402+142.665+142.402+142.651L142.402+142.525L142.749+142.525C142.8+142.525+142.848+142.53+142.848+142.516L142.848+142.371L143.146+142.371L143.146+142.062L144.469+141.282L112.996+141.216L112.921+141.216L81.5939+141.214Z" stroke="#909090" stroke-linejoin="miter" stroke-width="0.8" fill="#000000" stroke-linecap="butt" opacity="1"/>
<path opacity="1" stroke="#909090" stroke-width="0.52" stroke-linecap="butt" stroke-linejoin="miter" fill="#070b17" d="M81.0272+140.302L145.234+140.302L145.234+140.913L81.0272+140.913L81.0272+140.302Z"/>
<path opacity="1" fill="#000000" stroke="#808080" stroke-linejoin="round" d="M126.583+149.527L136.102+149.527L136.102+168.974L126.583+168.974L126.583+149.527Z" stroke-width="0.724251" stroke-linecap="round"/>
<path d="M126.402+170.792L135.921+170.792L135.921+190.239L126.402+190.239L126.402+170.792Z" fill="#000000" opacity="1" stroke="#808080" stroke-linejoin="round" stroke-linecap="round" stroke-width="0.724251"/>
<path d="M102.63+149.521L122.982+149.521L122.982+190.27L102.63+190.27L102.63+149.521Z" stroke="#808080" stroke-linecap="round" opacity="1" stroke-width="0.724251" stroke-linejoin="round" fill="#000000"/>
<path opacity="1" stroke-linejoin="round" stroke-linecap="round" stroke-width="0.82" d="M175.607+146.803L175.607+193.288L189.878+193.288L191.336+193.288L205.619+193.288L205.619+146.803L191.336+146.803L189.878+146.803L175.607+146.803Z" stroke="#909090" fill="#000000"/>
<path stroke-linejoin="round" stroke-linecap="round" d="M179.958+170.798L201.267+170.798L201.267+190.243L179.958+190.243L179.958+170.798Z" stroke="#808080" opacity="1" stroke-width="0.724251" fill="#000000"/>
<path d="M179.958+149.54L201.267+149.54L201.267+168.787L179.958+168.787L179.958+149.54Z" fill="#000000" stroke-linejoin="round" opacity="1" stroke-width="0.724251" stroke-linecap="round" stroke="#808080"/>
<path d="M173.89+143.04L173.89+145.049L173.89+145.781L174.068+145.781L174.068+146.125C174.068+146.159+174.081+146.147+174.109+146.147L174.302+146.147L174.302+146.447C174.302+146.48+174.328+146.502+174.356+146.502L174.576+146.502L174.576+146.735L175.098+146.735L190.599+146.735L190.64+146.735L206.142+146.735L206.663+146.735L206.663+146.502L206.869+146.502C206.897+146.502+206.924+146.48+206.924+146.447L206.924+146.147L207.117+146.147C207.145+146.147+207.171+146.159+207.171+146.125L207.171+145.781L207.336+145.781L207.336+145.049L207.336+143.04L190.64+143.04L190.599+143.04L173.89+143.04Z" stroke-linejoin="miter" opacity="1" stroke-linecap="butt" stroke-width="0.42" stroke="#a0a0a0" fill="#a0a0a0"/>
<path stroke-linejoin="miter" d="M171.516+141.229L172.218+142.077L172.218+142.385L172.415+142.385L172.415+142.53C172.415+142.544+172.429+142.539+172.46+142.539L172.671+142.539L172.671+142.666C172.671+142.68+172.701+142.689+172.732+142.689L172.973+142.689L172.973+142.787L173.547+142.787L190.598+142.787L190.643+142.787L207.694+142.787L208.268+142.787L208.268+142.689L208.494+142.689C208.525+142.689+208.555+142.68+208.555+142.666L208.555+142.539L208.766+142.539C208.797+142.539+208.826+142.544+208.826+142.53L208.826+142.385L209.008+142.385L209.008+142.077L209.814+141.297L190.643+141.231L190.598+141.231L171.516+141.229Z" stroke="#909090" stroke-linecap="butt" opacity="1" fill="#000000" stroke-width="0.8"/>
<path opacity="1" stroke-linejoin="miter" stroke="#909090" fill="#070b17" d="M171.161+140.303L210.197+140.303L210.197+140.928L171.161+140.928L171.161+140.303Z" stroke-linecap="butt" stroke-width="0.52"/>
<path opacity="1" stroke-linejoin="round" fill="#000000" stroke-width="0.82" d="M84.3355+229.877L84.3355+278.537L111.554+278.537L114.335+278.537L141.575+278.537L141.575+229.877L114.335+229.877L111.554+229.877L84.3355+229.877Z" stroke="#909090" stroke-linecap="round"/>
<path d="M88.8904+254.995L98.9474+254.995L98.9474+275.35L88.8904+275.35L88.8904+254.995Z" stroke-linejoin="round" stroke-linecap="round" stroke="#808080" stroke-width="0.724251" opacity="1" fill="#000000"/>
<path stroke-linecap="round" stroke-linejoin="round" opacity="1" d="M88.8904+232.741L98.8522+232.741L98.8522+253.093L88.8904+253.093L88.8904+232.741Z" fill="#000000" stroke="#808080" stroke-width="0.724251"/>
<path fill="#070b17" stroke-width="0.8" stroke-linecap="butt" opacity="1" d="M77.7949+218.576L79.1007+219.464L79.1007+219.787L79.4659+219.787L79.4659+219.939C79.4658+219.953+79.4927+219.948+79.5501+219.948L79.9434+219.948L79.9434+220.08C79.9433+220.095+79.9983+220.105+80.0558+220.105L80.5052+220.105L80.5052+220.208L81.5726+220.208L113.287+220.208L113.371+220.208L145.085+220.208L146.153+220.208L146.153+220.105L146.574+220.105C146.631+220.105+146.686+220.095+146.686+220.08L146.686+219.948L147.08+219.948C147.137+219.948+147.192+219.953+147.192+219.939L147.192+219.787L147.529+219.787L147.529+219.464L149.028+218.647L113.371+218.578L113.287+218.578L77.7949+218.576Z" stroke="#909090" stroke-linejoin="miter"/>
<path opacity="1" stroke="#909090" fill="#070b17" stroke-width="0.52" d="M77.1528+217.622L149.895+217.622L149.895+218.262L77.1528+218.262L77.1528+217.622Z" stroke-linecap="butt" stroke-linejoin="miter"/>
<path d="M127.373+232.741L137.335+232.741L137.335+253.093L127.373+253.093L127.373+232.741Z" stroke="#808080" stroke-linecap="round" opacity="1" fill="#000000" stroke-linejoin="round" stroke-width="0.724251"/>
<path fill="#000000" opacity="1" stroke-linejoin="round" d="M127.183+254.995L137.145+254.995L137.145+275.346L127.183+275.346L127.183+254.995Z" stroke-width="0.724251" stroke-linecap="round" stroke="#808080"/>
<path opacity="1" d="M102.305+232.735L123.605+232.735L123.605+275.379L102.305+275.379L102.305+232.735Z" fill="#000000" stroke="#808080" stroke-linecap="round" stroke-linejoin="round" stroke-width="0.724251"/>
<path stroke="#a0a0a0" d="M82.0544+223.726L82.0544+226.903L82.0544+228.061L82.3845+228.061L82.3845+228.605C82.3845+228.658+82.4087+228.641+82.4606+228.641L82.8161+228.641L82.8161+229.114C82.816+229.167+82.8657+229.202+82.9176+229.202L83.3238+229.202L83.3238+229.571L84.2886+229.571L112.952+229.571L113.028+229.571L141.692+229.571L142.657+229.571L142.657+229.202L143.038+229.202C143.09+229.202+143.139+229.167+143.139+229.114L143.139+228.641L143.495+228.641C143.547+228.641+143.596+228.658+143.596+228.605L143.596+228.061L143.901+228.061L143.901+226.903L143.901+223.726L113.028+223.726L112.952+223.726L82.0544+223.726Z" fill="#a0a0a0" stroke-linecap="butt" stroke-linejoin="miter" stroke-width="0.62" opacity="1"/>
<path stroke="#909090" stroke-linejoin="miter" opacity="1" stroke-width="0.8" stroke-linecap="butt" d="M80.8734+220.176L145.475+220.176L145.475+223.671L80.8734+223.671L80.8734+220.176Z" fill="#000000"/>
<g opacity="1">
<path d="M86.0075+223.85L89.6065+223.85L89.6065+229.471L86.0075+229.471L86.0075+223.85Z" stroke-linejoin="miter" opacity="1" stroke="#070b17" fill="#070b17" stroke-linecap="butt" stroke-width="0.52"/>
<path stroke-linecap="butt" fill="#070b17" stroke-linejoin="miter" stroke-width="0.22" d="M86.1733+226.579L89.4529+226.579L89.4529+229.471L86.1733+229.471L86.1733+226.579Z" opacity="1" stroke="#070b17"/>
</g>
<path fill="#070b17" stroke-width="0.52" d="M111.178+223.85L114.777+223.85L114.777+229.471L111.178+229.471L111.178+223.85Z" stroke-linecap="butt" opacity="1" stroke-linejoin="miter" stroke="#070b17"/>
<path stroke-linejoin="miter" stroke="#070b17" opacity="1" stroke-width="0.52" fill="#070b17" d="M136.161+223.85L139.76+223.85L139.76+229.471L136.161+229.471L136.161+223.85Z" stroke-linecap="butt"/>
<path stroke="#a0a0a0" fill="#070b17" d="M136.103+226.617L139.72+226.617L139.72+226.625L136.103+226.625L136.103+226.617Z" opacity="1" stroke-linejoin="miter" stroke-width="0.75" stroke-linecap="butt"/>
<path opacity="1" d="M110.968+226.617L114.866+226.617L114.866+226.625L110.968+226.625L110.968+226.617Z" stroke="#a0a0a0" stroke-linecap="butt" stroke-width="0.75" stroke-linejoin="miter" fill="#070b17"/>
<path d="M85.5195+226.581L89.7614+226.581L89.7614+226.589L85.5195+226.589L85.5195+226.581Z" stroke-linejoin="miter" stroke-linecap="butt" stroke-width="0.75" opacity="1" fill="#070b17" stroke="#a0a0a0"/>
<path stroke-linecap="butt" stroke-linejoin="miter" stroke="#acacac" stroke-width="1.72" d="M176.44+240.941L204.809+240.941L204.809+298.028L176.44+298.028L176.44+240.941Z" opacity="1" fill="#000000"/>
<path opacity="1" stroke="#acacac" stroke-width="0.72" stroke-linecap="butt" fill="#000000" stroke-linejoin="miter" d="M173.813+237.909L208.135+237.909L208.154+239.128L207.597+240.108L174.385+240.046L173.818+238.917L173.813+237.909Z"/>
<path fill="#acacac" opacity="1" stroke="#acacac" stroke-linejoin="miter" stroke-width="0.62" d="M173.959+234.395L208.054+234.395L208.054+237.833L173.959+237.833L173.959+234.395Z" stroke-linecap="butt"/>
<path d="M172.628+232.386L209.371+232.386L208.655+233.512L208.192+234.284L173.738+234.214L173.205+233.344L172.628+232.386Z" opacity="1" stroke-linejoin="miter" stroke="#acacac" stroke-width="1.06" fill="#000000" stroke-linecap="butt"/>
<path fill="#070b17" d="M174.653+240.303L175.884+241.449L175.885+240.308L174.653+240.303Z" stroke="#acacac" opacity="1" stroke-linecap="butt" stroke-width="0.42" stroke-linejoin="miter"/>
<path opacity="1" stroke="#acacac" stroke-linecap="butt" stroke-width="0.72" fill="#070b17" stroke-linejoin="miter" d="M207.229+240.364L205.614+241.584L205.613+240.443L207.229+240.364Z"/>
<path stroke-linejoin="miter" stroke="#acacac" fill="#000000" d="M181.676+245.981L199.573+245.981L199.573+292.988L181.676+292.988L181.676+245.981Z" stroke-linecap="butt" stroke-width="1.02" opacity="1"/>
<path opacity="1" d="M184.468+274.16L189.514+274.16L189.514+289.373L184.468+289.373L184.468+274.16Z" fill="#000000" stroke-width="0.52" stroke-linecap="butt" stroke="#acacac" stroke-linejoin="miter"/>
<path stroke-linecap="butt" d="M191.686+274.16L196.733+274.16L196.733+289.373L191.686+289.373L191.686+274.16Z" opacity="1" fill="#000000" stroke="#acacac" stroke-linejoin="miter" stroke-width="0.52"/>
<path fill="#000000" stroke="#acacac" stroke-linejoin="miter" stroke-width="0.52" d="M184.468+249.34L196.733+249.34L196.733+269.142L184.468+269.142L184.468+249.34Z" opacity="1" stroke-linecap="butt"/>
<path stroke-width="0.42" stroke-linejoin="miter" fill="#070b17" stroke-linecap="butt" opacity="1" d="M183.672+271.741C183.672+271.267+184.058+270.883+184.534+270.883C185.01+270.883+185.395+271.267+185.395+271.741C185.395+272.214+185.01+272.598+184.534+272.598C184.058+272.598+183.672+272.214+183.672+271.741Z" stroke="#acacac"/>
<path stroke-linecap="round" stroke-linejoin="round" opacity="1" fill="#acacac" d="M53.5113+294.269L174.885+294.269L174.885+298.001L53.5113+298.001L53.5113+294.269Z" stroke-width="1.82" stroke="#acacac"/>
<path opacity="1" fill="#acacac" d="M206.368+294.128L219.496+294.128L219.496+297.863L206.368+297.863L206.368+294.128Z" stroke-width="1.82" stroke-linejoin="round" stroke="#acacac" stroke-linecap="round"/>
<path d="M218.031+293.271L217.996+131.96L218.502+131.968L218.538+293.278L218.031+293.271Z" opacity="1" stroke="#acacac" fill="#acacac" stroke-linecap="round" stroke-linejoin="round" stroke-width="1.82"/>
<path fill="#acacac" stroke-linejoin="round" d="M54.5458+293.22L54.3953+131.939L56.5377+131.946L56.6882+293.227L54.5458+293.22Z" stroke-linecap="round" stroke-width="1.82" opacity="1" stroke="#acacac"/>
</g>
<g opacity="1">
<path stroke="#acacac" fill="#000000" stroke-linejoin="round" d="M456.797+317.682L529.622+317.682L529.622+403.889L456.797+403.889L456.797+317.682Z" opacity="1" stroke-width="2.28083" stroke-linecap="round"/>
<path stroke-width="0.72" stroke="#ffffff" stroke-linejoin="round" opacity="1" stroke-linecap="round" d="M460.627+317.172L527.231+317.172L527.231+400.003L460.627+400.003L460.627+317.172Z" fill="#000000"/>
<path stroke="#acacac" stroke-linecap="round" stroke-width="0.724251" opacity="1" fill="#000000" stroke-linejoin="round" d="M456.369+316.9L530.283+316.9L530.283+321.769L456.369+321.769L456.369+316.9Z"/>
<path opacity="1" stroke-linecap="round" fill="#000000" stroke="#acacac" stroke-width="2.60511" stroke-linejoin="round" d="M456.7+278.693L529.868+278.693L529.868+321.106L456.7+321.106L456.7+278.693Z"/>
<path stroke-linejoin="round" stroke="#000000" opacity="1" stroke-linecap="round" d="M456.682+286.376L529.851+286.376L529.851+315.321L456.682+315.321L456.682+286.376Z" stroke-width="0.724251" fill="#000000"/>
<path stroke-width="0.72" stroke="#acacac" stroke-linejoin="round" stroke-linecap="round" d="M456.7+279.189L529.868+279.189L529.868+286.183L456.7+286.183L456.7+279.189Z" opacity="1" fill="#000000"/>
<path stroke-width="0.92" d="M456.608+314.197L530.05+314.197L530.05+320.591L456.608+320.591L456.608+314.197Z" stroke="#acacac" opacity="1" stroke-linecap="round" fill="#000000" stroke-linejoin="round"/>
<g opacity="1">
<path stroke-width="1.52" stroke-linecap="round" opacity="1" d="M476.867+360.604L462.334+370.58L467.134+370.58L476.939+363.841L480.681+366.413L486.744+370.58L491.39+370.58L476.867+360.604Z" fill="#000000" stroke="#acacac" stroke-linejoin="round"/>
<path d="M476.862+363.734L486.554+370.58L467.17+370.58L476.862+363.734Z" opacity="1" stroke-linecap="round" stroke-width="0.724251" stroke="#acacac" stroke-linejoin="round" fill="#000000"/>
<path opacity="1" stroke="#acacac" d="M469.454+369.027L467.171+370.544L486.563+370.544L484.281+369.027L469.454+369.027Z" stroke-width="0.724251" fill="#000000" stroke-linejoin="round" stroke-linecap="round"/>
</g>
<path stroke-linecap="round" d="M470.118+328.208L483.606+328.208L483.606+348.059L470.118+348.059L470.118+328.208Z" stroke="#909090" fill="#000000" opacity="1" stroke-linejoin="round" stroke-width="1.22"/>
<path stroke-width="1.52" opacity="1" stroke-linecap="round" stroke="#a0a0a0" d="M468.333+328.208L485.39+328.208L485.39+329.405L468.333+329.405L468.333+328.208Z" fill="#000000" stroke-linejoin="round"/>
<path opacity="1" fill="#000000" stroke="#808080" stroke-linejoin="round" stroke-linecap="round" d="M473.165+331.388L480.559+331.388L480.559+337.759L473.165+337.759L473.165+331.388Z" stroke-width="0.724251"/>
<path stroke-linecap="round" stroke-linejoin="round" stroke="#808080" opacity="1" d="M473.165+339.065L480.559+339.065L480.559+345.437L473.165+345.437L473.165+339.065Z" fill="#000000" stroke-width="0.724251"/>
<path d="M495.783+328.208L509.271+328.208L509.271+348.059L495.783+348.059L495.783+328.208Z" stroke-width="1.22" stroke="#909090" fill="#000000" stroke-linejoin="round" opacity="1" stroke-linecap="round"/>
<path opacity="1" stroke-linejoin="round" d="M493.998+328.208L511.055+328.208L511.055+329.405L493.998+329.405L493.998+328.208Z" stroke="#a0a0a0" stroke-width="1.52" fill="#000000" stroke-linecap="round"/>
<path stroke-linejoin="round" stroke="#808080" stroke-width="0.72" fill="#000000" stroke-linecap="round" opacity="1" d="M498.83+331.388L506.224+331.388L506.224+337.759L498.83+337.759L498.83+331.388Z"/>
<path fill="#000000" stroke-linecap="round" stroke-linejoin="round" stroke="#808080" d="M498.83+339.065L506.224+339.065L506.224+345.437L498.83+345.437L498.83+339.065Z" stroke-width="0.72" opacity="1"/>
<path stroke-linejoin="round" stroke="#909090" stroke-width="1.22" stroke-linecap="round" fill="#000000" d="M495.86+370.872L509.347+370.872L509.347+390.724L495.86+390.724L495.86+385.27L495.86+370.872Z" opacity="1"/>
<path stroke-width="0.724251" opacity="1" stroke="#808080" stroke-linejoin="round" d="M498.907+374.053L506.301+374.053L506.301+380.424L498.907+380.424L498.907+374.053Z" stroke-linecap="round" fill="#000000"/>
<path fill="#000000" stroke-linejoin="round" stroke-width="0.724251" stroke-linecap="round" opacity="1" stroke="#808080" d="M498.907+381.73L506.301+381.73L506.301+388.102L498.907+388.102L498.907+381.73Z"/>
<path stroke="#909090" stroke-width="1.22" fill="#000000" stroke-linecap="round" stroke-linejoin="round" d="M509.52+370.872L523.008+370.872L523.008+390.724L509.52+390.724L509.52+370.872Z" opacity="1"/>
<path fill="#000000" opacity="1" stroke-linecap="round" d="M512.567+374.053L519.961+374.053L519.961+380.424L512.567+380.424L512.567+374.053Z" stroke-width="0.724251" stroke-linejoin="round" stroke="#808080"/>
<path fill="#000000" opacity="1" stroke-width="0.724251" stroke="#808080" stroke-linejoin="round" d="M512.567+381.73L519.961+381.73L519.961+388.102L512.567+388.102L512.567+381.73Z" stroke-linecap="round"/>
<path stroke-width="1.52" fill="#000000" stroke="#a0a0a0" d="M493.998+370.792L524.87+370.792L524.87+371.936L493.998+371.936L493.998+370.792Z" opacity="1" stroke-linecap="round" stroke-linejoin="round"/>
<path fill="#000000" d="M477.988+294.724L483.619+292.501L489.27+294.724L489.27+310.737L477.988+310.737L477.988+294.724Z" stroke-linejoin="round" opacity="1" stroke-linecap="round" stroke="#acacac" stroke-width="0.82"/>
<path fill="#000000" stroke-linejoin="round" opacity="1" d="M480.448+303.329L486.811+303.329L486.811+309.136L480.448+309.136L480.448+303.329Z" stroke-linecap="round" stroke-width="0.82" stroke="#acacac"/>
<path stroke-linecap="round" stroke-width="0.82" fill="#000000" stroke-linejoin="round" d="M480.448+296.326L486.811+296.326L486.811+302.132L480.448+302.132L480.448+296.326Z" stroke="#acacac" opacity="1"/>
<path stroke-width="1.52" stroke-linejoin="round" opacity="1" d="M483.474+290.733L475.973+295.882L478.45+295.882L483.511+292.404L488.572+295.882L490.97+295.882L483.474+290.733Z" stroke-linecap="round" fill="#000000" stroke="#acacac"/>
<path stroke="#acacac" fill="#000000" stroke-linejoin="round" stroke-width="0.82" stroke-linecap="round" opacity="1" d="M502.776+294.611L508.406+292.388L514.057+294.611L514.057+310.624L502.776+310.624L502.776+294.611Z"/>
<path stroke-linejoin="round" d="M505.235+303.216L511.598+303.216L511.598+309.022L505.235+309.022L505.235+303.216Z" fill="#000000" opacity="1" stroke-linecap="round" stroke="#acacac" stroke-width="0.82"/>
<path opacity="1" stroke-width="0.82" stroke-linejoin="round" stroke="#acacac" fill="#000000" d="M505.235+296.213L511.598+296.213L511.598+302.019L505.235+302.019L505.235+296.213Z" stroke-linecap="round"/>
<path d="M508.261+290.62L500.76+295.769L503.238+295.769L508.298+292.29L513.359+295.769L515.757+295.769L508.261+290.62Z" stroke-linecap="round" stroke="#acacac" stroke-width="1.52" fill="#000000" stroke-linejoin="round" opacity="1"/>
<g opacity="1">
<path d="M467.009+372.087L486.715+372.075L484.821+373.265L484.821+404.152L469.047+404.152L469.03+373.061L467.009+372.087Z" opacity="1" stroke="#acacac" fill="#000000" stroke-linecap="round" stroke-linejoin="round" stroke-width="1.22"/>
<path opacity="1" stroke-width="1.22" fill="#000000" stroke-linejoin="round" d="M472.266+375.023L481.458+375.023L481.458+386.432L472.266+386.432L472.266+375.023Z" stroke="#acacac" stroke-linecap="round"/>
<path fill="#000000" stroke="#acacac" opacity="1" stroke-linecap="round" stroke-linejoin="round" d="M470.399+388.213C470.399+387.924+470.597+387.69+470.842+387.69C471.087+387.69+471.286+387.924+471.286+388.213C471.286+388.502+471.087+388.736+470.842+388.736C470.597+388.736+470.399+388.502+470.399+388.213Z" stroke-width="1.22"/>
<path opacity="1" d="M472.266+389.795L481.458+389.795L481.458+401.205L472.266+401.205L472.266+389.795Z" fill="#000000" stroke="#acacac" stroke-width="1.22" stroke-linecap="round" stroke-linejoin="round"/>
</g>
<path d="M528.886+321.649L530.034+321.649L530.034+404.04L528.886+404.04L528.886+321.649Z" stroke-width="1.52" stroke="#acacac" fill="#000000" stroke-linecap="round" opacity="1" stroke-linejoin="round"/>
<path stroke-linecap="round" d="M530.048+404.357L530.048+404.914L456.709+404.914L456.709+404.357L530.048+404.357Z" opacity="1" stroke-linejoin="round" stroke-width="1.52" stroke="#acacac" fill="#000000"/>
<path opacity="1" stroke-linecap="round" stroke-width="0.724251" stroke="#acacac" fill="#000000" d="M456.424+278.689L457.174+278.689L457.174+320.348L456.424+320.348L456.424+278.689Z" stroke-linejoin="round"/>
<path stroke-width="0.724251" stroke-linejoin="round" stroke="#acacac" opacity="1" d="M529.649+279.125L529.851+279.125L529.851+320.784L529.649+320.784L529.649+279.125Z" stroke-linecap="round" fill="#000000"/>
<path d="M495.162+390.002L523.703+390.002L523.703+391.083L495.162+391.083L495.162+390.002Z" stroke-linecap="round" stroke="#a0a0a0" opacity="1" fill="#000000" stroke-linejoin="round" stroke-width="0.72"/>
<path fill="#000000" stroke-linecap="round" d="M456.525+321.915L458.857+321.915L458.857+403.477L456.525+403.477L456.525+321.915Z" stroke-linejoin="round" stroke="#acacac" opacity="1" stroke-width="1.52"/>
</g>
</g>
</svg>
