<?xml version="1.0" encoding="UTF-8" standalone="no"?> <!-- Created with Vectornator for iOS (http://vectornator.io/) --><!DOCTYPE svg PUBLIC "-//W3C//DTD SVG 1.1//EN" "http://www.w3.org/Graphics/SVG/1.1/DTD/svg11.dtd">
<svg version="1.1" preserveAspectRatio="none" style="fill-rule:nonzero;clip-rule:evenodd;stroke-linecap:round;stroke-linejoin:round;" xml:space="preserve" xmlns="http://www.w3.org/2000/svg" xmlns:vectornator="http://vectornator.io" viewBox="0 0 200 19.19" height="100%" xmlns:xlink="http://www.w3.org/1999/xlink" width="100%">
<metadata>
<vectornator:setting key="WDDynamicGuides" value="false"/>
<vectornator:setting key="VNPencilOnly" value="false"/>
<vectornator:setting value="true" key="WDGuidesVisible"/>
<vectornator:setting key="WDSnapToPoints" value="false"/>
<vectornator:setting key="IsTimeLapseWatermarkDisabled" value="false"/>
<vectornator:setting key="VNSnapToGuides" value="true"/>
<vectornator:setting key="UndoHistoryDisabled" value="false"/>
<vectornator:setting value="false" key="WDOutlineMode"/>
<vectornator:setting key="WDCMYKEnabledKey" value="false"/>
<vectornator:setting value="false" key="WDDisplayWhiteBackground"/>
<vectornator:setting value="Pixels" key="WDUnits"/>
<vectornator:setting key="WDRulersVisible" value="true"/>
<vectornator:setting key="WDSnapToEdges" value="false"/>
<vectornator:setting key="WDSnapToGrid" value="false"/>
<vectornator:setting value="false" key="WDIsolateActiveLayer"/>
<vectornator:setting value="true" key="VNDimensionsVisible"/>
</metadata>
<defs/>
<g id="Layer 2" vectornator:layerName="Layer 2">
<path opacity="1" d="M247.281+3.84375L247.281+19.2812L298.594+19.2812L298.594+3.84375L247.281+3.84375Z" fill="#18283b"/>
<path fill="#6c7e93" stroke="#000000" d="M247.875+0.625L247.875+4.625C252.975+4.97521+256.563+5.6875+256.562+5.6875L256.562+5.625C257.118+5.73915+269.75+8.32643+281.406+5.625C287.293+4.26076+293.615+4.23516+298.594+4.53125L298.594+0.5625C293.786+0.121902+287.648+0.132611+281.781+2.03125C270.072+5.82041+257.339+2.25386+256.781+2.09375C256.781+2.09375+253.086+1.11029+247.875+0.625Z" opacity="1" stroke-linecap="round" stroke-linejoin="round" stroke-width="0.32"/>
<path fill="#000000" opacity="1" stroke-linejoin="round" stroke-linecap="round" stroke="#000000" stroke-width="0.724251" d="M247.875+0.15625L247.875+0.625C253.167+1.10622+256.969+2.125+256.969+2.125C257.525+2.28594+270.176+5.87134+281.844+2.0625C287.555+0.19819+293.655+0.15699+298.594+0.5625L298.594+0.15625L256.469+0.15625C256.469+0.15625+256.469+0.186915+256.469+0.1875L247.875+0.15625Z"/>
<path fill="#6c7e93" stroke-width="0.32" d="M99.8903+4.0431L100.094+4.05607C100.13+4.05607+100.132+4.09477+100.132+4.18381L100.132+6.34627C100.132+6.40435+100.097+6.26477+100.063+6.16067C100.045+6.10518+100.027+6.05977+100.014+6.05977L100.156+6.41032C100.119+6.41032+99.9552+6.43244+99.9552+6.34341L100+4.18381C100+4.09477+99.854+4.0431+99.8903+4.0431Z" stroke="#6c7e93" stroke-linecap="round" stroke-linejoin="round" opacity="1"/>
<path d="M0.116304+18.875L0.116304+19.2812L0.379974+19.2812C0.235605+19.2812+0.116304+19.0959+0.116304+18.875Z" opacity="1" fill="#383f2e"/>
<path d="M52.1847+0.527829L52.1847+0.527829C52.2607+0.527829+52.3223+0.623077+52.3223+0.74057L52.3223+4.13857C52.3223+4.1958+52.3453+4.2811+52.3215+4.31934C52.2965+4.35961+52.2237+4.35131+52.1847+4.35131L52.1847+4.35131C52.1475+4.35131+52.0937+4.34566+52.0689+4.30858C52.0431+4.26991+52.0471+4.19856+52.0471+4.13857L52.0253+0.716686C52.0253+0.648758+51.9857+0.561134+52.0239+0.52892C52.0517+0.505415+52.1526+0.527829+52.1847+0.527829Z" opacity="1" fill="#6c7e93"/>
<path fill="#6c7e93" d="M99.9953+3.57315L99.9817+3.57007C100.044+3.57007+100.154+3.56197+100.179+3.58009C100.232+3.6174+100.255+3.74177+100.255+3.84832L100.211+6.15009C100.211+6.21899+100.208+6.25524+100.209+6.31838C100.21+6.39288+100.311+6.45865+100.204+6.45865L99.9487+6.45812C99.7596+6.45812+99.7242+6.31696+99.7242+6.15869L99.7242+3.84223C99.7242+3.68397+99.8062+3.57315+99.9953+3.57315Z" opacity="1"/>
<path stroke-linecap="round" d="M52.16+0.18054L52.1541+0.434408C47.6155+0.710782+44.4153+2+44.4153+2L44.3935+1.96875C44.2067+2.04665+35.1224+5.79144+26.8291+1.9375C18.2966-2.0276+8.28156+1.9375+8.28158+1.9375C8.04035+2.03689+4.63798+3.11776+0.0892215+3.28125L0.111068+0L8.28158+0C8.28158-8.12194e-08+8.28158+0.0619165+8.28158+0.0625L44.175+0.0625C44.175+0.0625002+44.175+0.153036+44.175+0.15625L52.16+0.18054Z" stroke="#e2e2e2" opacity="1" stroke-linejoin="round" stroke-width="0.724251" fill="#e2e2e2"/>
<path fill="#6c7e93" d="M52.1937+0.617081L52.19+0.640286C52.1076+0.640286+52.0596+0.623077+52.0596+0.74057L52.0596+4.13857C52.0596+4.1958+52.0346+4.2811+52.0604+4.31934C52.0876+4.35961+52.1665+4.35131+52.2088+4.35131L52.2088+4.35131C52.2491+4.35131+52.3507+4.35167+52.3775+4.3146C52.4055+4.27592+52.358+4.19856+52.358+4.13857L52.3816+0.716686C52.3816+0.648758+52.4882+0.616835+52.4467+0.584621C52.4165+0.561116+52.2285+0.617081+52.1937+0.617081Z" opacity="1"/>
<path fill="#000000" opacity="1" d="M52.2997+4.40598L52.3395+4.40598C52.3845+4.40598+52.421+4.46647+52.421+4.54108L52.421+4.54108C52.421+4.61569+52.3845+4.67618+52.3395+4.67618L52.2997+4.67618C52.2547+4.67618+52.2183+4.61569+52.2183+4.54108L52.2183+4.54108C52.2183+4.46647+52.2547+4.40598+52.2997+4.40598Z"/>
<path opacity="1" fill="#6c7e93" stroke="#6c7e93" stroke-linejoin="round" d="M100.137+4.0431L99.9335+4.05607C99.8972+4.05607+99.8955+4.09477+99.8955+4.18381L99.8955+6.34627C99.8955+6.40435+99.93+6.26477+99.964+6.16067C99.9821+6.10518+100+6.05977+100.013+6.05977L99.8716+6.41032C99.9078+6.41032+100.072+6.43244+100.072+6.34341L100.027+4.18381C100.027+4.09477+100.173+4.0431+100.137+4.0431Z" stroke-linecap="round" stroke-width="0.32"/>
<path d="M199.911+18.875L199.911+19.2812L199.647+19.2812C199.791+19.2812+199.911+19.0959+199.911+18.875Z" opacity="1" fill="#383f2e"/>
<path d="M147.842+0.527829L147.842+0.527829C147.766+0.527829+147.705+0.623077+147.705+0.74057L147.705+4.13857C147.705+4.1958+147.682+4.2811+147.706+4.31934C147.731+4.35961+147.803+4.35131+147.842+4.35131L147.842+4.35131C147.88+4.35131+147.933+4.34566+147.958+4.30858C147.984+4.26991+147.98+4.19856+147.98+4.13857L148.002+0.716686C148.002+0.648758+148.041+0.561134+148.003+0.52892C147.975+0.505415+147.874+0.527829+147.842+0.527829Z" opacity="1" fill="#6c7e93"/>
<path stroke-linejoin="round" stroke-linecap="round" stroke="#e2e2e2" stroke-width="0.724251" d="M92.4772+0C92.4772-8.12194e-08+92.4772+0.0619165+92.4772+0.0625L59.5567+0.0625C59.5567+0.0625002+59.5567+0.153036+59.5567+0.15625L52.2117+0.1875L52.2493+0.4375C56.411+0.713873+59.3307+2+59.3307+2L59.3683+1.96875C59.5396+2.04665+67.8473+5.79144+75.4519+1.9375C83.2759-2.0276+92.4772+1.9375+92.4772+1.9375C92.6952+2.03546+95.8514+3.12421+99.9352+3.3125L99.9352+3.34375C99.964+3.34262+99.9818+3.34497+100.011+3.34375C100.039+3.34497+100.057+3.34262+100.086+3.34375L100.086+3.3125C104.17+3.12421+107.363+2.03546+107.581+1.9375C107.581+1.9375+116.745-2.0276+124.569+1.9375C132.174+5.79144+140.519+2.04665+140.69+1.96875L140.69+2C140.69+2+143.648+0.713873+147.809+0.4375L147.809+0.1875L140.464+0.15625C140.464+0.153036+140.464+0.0625002+140.464+0.0625L107.581+0.0625C107.581+0.0619165+107.581-8.12194e-08+107.581+0L100.086+0L100.011+1.4375L99.9729+0L92.4772+0Z" fill="#e2e2e2" opacity="1"/>
<path opacity="1" fill="#6c7e93" d="M100.032+3.57315L100.045+3.57007C99.9836+3.57007+99.8731+3.56197+99.8477+3.58009C99.7952+3.6174+99.7725+3.74177+99.7725+3.84832L99.816+6.15009C99.816+6.21899+99.8188+6.25524+99.8182+6.31838C99.8174+6.39288+99.7163+6.45865+99.823+6.45865L100.078+6.45812C100.267+6.45812+100.303+6.31696+100.303+6.15869L100.303+3.84223C100.303+3.68397+100.221+3.57315+100.032+3.57315Z"/>
<path opacity="1" fill="#e2e2e2" d="M-0.0694919+2.19203L-0.0694919+19.1875L51.948+19.1875L52.2493+19.1875L99.8599+19.1875L100.161+19.1875L147.772+19.1875L148.073+19.1875L200.053+19.1875L200.053+2.19203L148.073+2.19203L147.772+2.19203L100.161+2.19203L99.8599+2.19203L52.2493+2.19203L51.948+2.19203L-0.0694919+2.19203Z"/>
<path opacity="1" stroke="#e2e2e2" d="M147.867+0.18054L147.873+0.434408C152.393+0.710782+155.58+2+155.58+2L155.601+1.96875C155.787+2.04665+164.834+5.79144+173.093+1.9375C181.59-2.0276+191.563+1.9375+191.563+1.9375C191.803+2.03689+195.192+3.11776+199.722+3.28125L199.7+0L191.563+0C191.563-8.12194e-08+191.563+0.0619165+191.563+0.0625L155.819+0.0625C155.819+0.0625002+155.819+0.153036+155.819+0.15625L147.867+0.18054Z" stroke-linecap="round" stroke-width="0.724251" stroke-linejoin="round" fill="#e2e2e2"/>
<path fill="#000000" opacity="1" stroke-linecap="round" stroke-linejoin="round" d="M20.609+0.236796C14.2636-0.244134+8.71342+1.67133+8.71342+1.67133C8.46885+1.75906+4.7322+2.87873+0.0655264+2.97054L-0.010001+5.75842C4.57738+5.66801+8.28322+4.84602+8.5246+4.78401L8.5246+4.81108C8.52462+4.81108+18.4248+2.37288+26.84+4.81108C35.0193+7.18092+43.9893+4.85898+44.1735+4.81108C44.1735+4.81108+47.5864+4.06605+52.1794+3.94494L52.1794+3.91788C56.3622+4.04927+59.4679+4.81108+59.4678+4.81108C59.6379+4.85898+67.8915+7.18092+75.4419+4.81108C83.2101+2.37288+92.36+4.81108+92.36+4.81108L92.36+4.78401C92.5782+4.84471+95.8425+5.61376+99.9505+5.73135L99.9505+5.75842C99.9942+5.75749+100.02+5.7595+100.064+5.75842C100.107+5.7595+100.133+5.75749+100.177+5.75842L100.177+5.73135C104.285+5.61376+107.55+4.84471+107.768+4.78401L107.768+4.81108C107.768+4.81108+116.918+2.37288+124.686+4.81108C132.236+7.18092+140.49+4.85898+140.66+4.81108C140.66+4.81108+143.765+4.04927+147.948+3.91788L147.948+3.94494C152.541+4.06605+155.954+4.81108+155.954+4.81108C156.138+4.85898+165.108+7.18092+173.288+4.81108C181.703+2.37288+191.603+4.81108+191.603+4.81108L191.603+4.78401C191.844+4.84601+195.535+5.65245+200.122+5.74286L200.062+2.97054C195.395+2.87873+191.659+1.75906+191.414+1.67133C191.414+1.67133+185.864-0.244134+179.519+0.236796C177.404+0.397106+175.212+0.81635+173.099+1.67133C164.882+4.9954+156.366+2.03626+156.181+1.96907L155.652+1.75253C155.652+1.75254+152.517+0.649536+148.099+0.37213C148.099+0.362517+148.099+0.355814+148.099+0.345063C148.069+0.346914+148.054+0.370184+148.024+0.37213C147.986+0.369867+147.948+0.347199+147.91+0.345063C147.91+0.355814+147.91+0.362517+147.91+0.37213C143.841+0.65137+140.962+1.75254+140.962+1.75253L140.471+1.96907C140.3+2.03626+132.422+4.9954+124.837+1.67133C117.033-1.74861+107.919+1.67133+107.919+1.67133C107.695+1.75818+104.311+2.85949+100.064+2.97054C95.8162+2.85949+92.4325+1.75818+92.209+1.67133C92.209+1.67133+83.0944-1.74861+75.2908+1.67133C67.706+4.9954+59.8275+2.03626+59.6567+1.96907L59.1657+1.75253C59.1657+1.75254+56.2868+0.65137+52.2172+0.37213C52.2172+0.362517+52.2173+0.355814+52.2172+0.345063C52.1792+0.347199+52.1417+0.369867+52.1039+0.37213C52.0737+0.370184+52.0588+0.346914+52.0284+0.345063C52.0283+0.355814+52.0284+0.362517+52.0284+0.37213C47.6108+0.649536+44.4756+1.75254+44.4756+1.75253L43.947+1.96907C43.7619+2.03626+35.2453+4.9954+27.0288+1.67133C24.9154+0.81635+22.7241+0.397106+20.609+0.236796Z" stroke="#000000" stroke-width="0.32"/>
<path d="M147.834+0.604245L147.837+0.619657C147.92+0.619657+147.968+0.608227+147.968+0.686265L147.968+2.94319C147.968+2.9812+147.993+3.03786+147.967+3.06325C147.94+3.09+147.861+3.08449+147.819+3.08449L147.819+3.08449C147.778+3.08449+147.677+3.08473+147.65+3.0601C147.622+3.03442+147.669+2.98303+147.669+2.94319L147.646+0.670402C147.646+0.625284+147.539+0.604082+147.58+0.582685C147.611+0.567073+147.799+0.604245+147.834+0.604245Z" opacity="1" fill="#000000"/>
<path opacity="1" d="M-0.0103862+2.85634L-0.0158914+2.85519C-0.124945+2.85519-0.290302+2.84968-0.335232+2.86047C-0.427787+2.8827-0.467971+2.95679-0.467971+3.02026L-0.391179+4.39142C-0.391179+4.43246-0.386279+4.45406-0.387347+4.49167C-0.388607+4.53605-0.567152+4.57523-0.378726+4.57523L0.0718423+4.57491C0.40555+4.57491+0.467971+4.49083+0.467971+4.39655L0.467971+3.01663C0.467971+2.95526+0.345221+2.88125+0.299111+2.86714C0.253001+2.85303+0.106086+2.85634-0.0103862+2.85634Z" fill="#000000"/>
<path fill="#000000" opacity="1" d="M199.663+2.86518L199.295+2.87537C199.376+2.87537+199.869+2.85353+199.902+2.87241C199.97+2.91129+200+3.04087+200+3.15189L199.943+5.55016C199.943+5.62196+199.94+5.65972+199.941+5.72552C199.942+5.80314+200.073+5.87167+199.934+5.87167L199.603+5.87111C199.357+5.87111+199.311+5.72404+199.311+5.55913L199.311+3.14554C199.311+3.08393+199.216+2.97656+199.248+2.93219C199.301+2.85782+199.509+2.86518+199.663+2.86518Z"/>
<path fill="#000000" d="M0.0424625+2.89507L-0.325448+2.90525C-0.245176+2.90525+0.248502+2.88342+0.281573+2.90229C0.349702+2.94117+0.37928+3.07076+0.37928+3.18177L0.322755+5.58005C0.322755+5.65184+0.319148+5.68961+0.319934+5.7554C0.320862+5.83302+0.452285+5.90155+0.313589+5.90155L-0.018064+5.901C-0.263698+5.901-0.309645+5.75392-0.309645+5.58902L-0.309645+3.17543C-0.309645+3.11381-0.404322+3.00645-0.372884+2.96208C-0.320188+2.88771-0.111388+2.89507+0.0424625+2.89507Z" opacity="1"/>
</g>
</svg>
