<?xml version="1.0" encoding="UTF-8" standalone="no"?> <!-- Created with Vectornator for iOS (http://vectornator.io/) --><!DOCTYPE svg PUBLIC "-//W3C//DTD SVG 1.1//EN" "http://www.w3.org/Graphics/SVG/1.1/DTD/svg11.dtd">
<svg preserveAspectRatio="none" width="100%" height="100%" xmlns:vectornator="http://vectornator.io" xmlns:xlink="http://www.w3.org/1999/xlink" viewBox="195.885 0 195.885 19.28" xmlns="http://www.w3.org/2000/svg" version="1.1" style="fill-rule:nonzero;clip-rule:evenodd;stroke-linecap:round;stroke-linejoin:round;" xml:space="preserve">
<metadata>
<vectornator:setting key="WDGuidesVisible" value="true"/>
<vectornator:setting key="WDOutlineMode" value="false"/>
<vectornator:setting key="VNSnapToGuides" value="true"/>
<vectornator:setting key="VNPencilOnly" value="false"/>
<vectornator:setting value="false" key="WDCMYKEnabledKey"/>
<vectornator:setting value="false" key="WDSnapToGrid"/>
<vectornator:setting value="false" key="WDSnapToPoints"/>
<vectornator:setting key="WDSnapToEdges" value="false"/>
<vectornator:setting key="UndoHistoryDisabled" value="false"/>
<vectornator:setting key="WDUnits" value="Points"/>
<vectornator:setting value="true" key="WDRulersVisible"/>
<vectornator:setting value="false" key="WDDisplayWhiteBackground"/>
<vectornator:setting key="IsTimeLapseWatermarkDisabled" value="false"/>
<vectornator:setting value="false" key="WDDynamicGuides"/>
<vectornator:setting key="VNDimensionsVisible" value="true"/>
<vectornator:setting key="WDIsolateActiveLayer" value="false"/>
</metadata>
<defs/>
<style type="text/css">
<![CDATA[
    .wave {
      animation: move 18s linear infinite
    }


    @keyframes move {
      from {
        transform: translateX(0)
      } to {
        transform: translateX(100%)
      }
    }

    ]]>
</style>
<g class="wave" vectornator:layerName="Layer 2">
<path d="M196.082+19.115L196.082+19.5213L195.824+19.5213C195.965+19.5213+196.082+19.3359+196.082+19.115Z" fill-rule="evenodd" opacity="1" fill="#383f2e"/>
<path opacity="1" stroke-linecap="round" stroke-width="0.32" stroke-linejoin="round" d="M98.0027+4.2831L98.202+4.29607C98.2376+4.29607+98.2393+4.33477+98.2393+4.42381L98.2393+6.58627C98.2393+6.64435+98.2055+6.50477+98.1721+6.40067C98.1543+6.34518+98.1366+6.29977+98.1243+6.29977L98.2627+6.65032C98.2272+6.65032+98.0663+6.67244+98.0663+6.58341L98.1106+4.42381C98.1106+4.33477+97.9671+4.2831+98.0027+4.2831Z" fill="#6c7e93" fill-rule="evenodd" stroke="#6c7e93"/>
<path fill-rule="evenodd" opacity="1" fill="#383f2e" d="M-0.128168+11.5749L-0.128168+11.71L-0.0421692+11.71C-0.0892566+11.71-0.128168+11.6483-0.128168+11.5749Z"/>
<path fill-rule="evenodd" d="M51.2228+0.767829L51.2228+0.767829C51.2974+0.767829+51.3578+0.863077+51.3578+0.98057L51.3578+4.37857C51.3578+4.4358+51.3803+4.5211+51.357+4.55934C51.3325+4.59961+51.2611+4.59131+51.2228+4.59131L51.2228+4.59131C51.1864+4.59131+51.1336+4.58566+51.1093+4.54858C51.084+4.50991+51.0879+4.43856+51.0879+4.37857L51.0666+0.956686C51.0666+0.888758+51.0277+0.801134+51.0651+0.76892C51.0925+0.745415+51.1914+0.767829+51.2228+0.767829Z" fill="#6c7e93" opacity="1"/>
<path fill="#6c7e93" opacity="1" d="M98.1056+3.81315L98.0923+3.81007C98.1529+3.81007+98.2612+3.80197+98.2861+3.82009C98.3376+3.8574+98.3599+3.98177+98.3599+4.08832L98.3172+6.39009C98.3172+6.45899+98.3145+6.49524+98.3151+6.55838C98.3158+6.63288+98.415+6.69865+98.3103+6.69865L98.0599+6.69812C97.8745+6.69812+97.8398+6.55696+97.8398+6.39869L97.8398+4.08223C97.8398+3.92397+97.9202+3.81315+98.1056+3.81315Z" fill-rule="evenodd"/>
<path stroke="#d4d4d4" stroke-width="0.724251" d="M51.1937+0.344006L51.188+0.603433C46.7565+0.885857+43.6319+2.2033+43.6319+2.2033L43.6106+2.17137C43.4282+2.25097+34.5583+6.07775+26.4607+2.13943C18.1296-1.91248+8.35102+2.13943+8.35105+2.13943C8.11551+2.241+4.79345+3.34554+0.352059+3.51261L0.373389+0.159513L8.35105+0.159513C8.35105+0.159513+8.35105+0.222785+8.35105+0.223382L43.3973+0.223382C43.3973+0.223382+43.3973+0.3159+43.3973+0.319184L51.1937+0.344006Z" stroke-linejoin="round" opacity="1" fill-rule="evenodd" fill="#d4d4d4" stroke-linecap="round"/>
<path d="M51.2317+0.857081L51.2281+0.880286C51.1473+0.880286+51.1001+0.863077+51.1001+0.98057L51.1001+4.37857C51.1001+4.4358+51.0757+4.5211+51.101+4.55934C51.1276+4.59961+51.205+4.59131+51.2464+4.59131L51.2464+4.59131C51.286+4.59131+51.3856+4.59167+51.4119+4.5546C51.4394+4.51592+51.3927+4.43856+51.3927+4.37857L51.4159+0.956686C51.4159+0.888758+51.5204+0.856835+51.4798+0.824621C51.4502+0.801116+51.2658+0.857081+51.2317+0.857081Z" fill-rule="evenodd" opacity="1" fill="#6c7e93"/>
<path opacity="1" d="M51.3356+4.64598L51.3747+4.64598C51.4188+4.64598+51.4545+4.70647+51.4545+4.78108L51.4545+4.78108C51.4545+4.85569+51.4188+4.91618+51.3747+4.91618L51.3356+4.91618C51.2915+4.91618+51.2558+4.85569+51.2558+4.78108L51.2558+4.78108C51.2558+4.70647+51.2915+4.64598+51.3356+4.64598Z" fill-rule="evenodd" fill="#000000"/>
<path stroke-linejoin="round" d="M98.2444+4.2831L98.045+4.29607C98.0095+4.29607+98.0077+4.33477+98.0077+4.42381L98.0077+6.58627C98.0077+6.64435+98.0415+6.50477+98.0749+6.40067C98.0927+6.34518+98.1104+6.29977+98.1227+6.29977L97.9843+6.65032C98.0198+6.65032+98.1807+6.67244+98.1807+6.58341L98.1365+4.42381C98.1365+4.33477+98.2799+4.2831+98.2444+4.2831Z" stroke-width="0.32" fill="#6c7e93" opacity="1" stroke-linecap="round" stroke="#6c7e93" fill-rule="evenodd"/>
<path opacity="1" d="M145.024+0.767829L145.024+0.767829C144.95+0.767829+144.889+0.863077+144.889+0.98057L144.889+4.37857C144.889+4.4358+144.867+4.5211+144.89+4.55934C144.915+4.59961+144.986+4.59131+145.024+4.59131L145.024+4.59131C145.061+4.59131+145.113+4.58566+145.138+4.54858C145.163+4.50991+145.159+4.43856+145.159+4.37857L145.18+0.956686C145.18+0.888758+145.219+0.801134+145.182+0.76892C145.155+0.745415+145.056+0.767829+145.024+0.767829Z" fill-rule="evenodd" fill="#6c7e93"/>
<path opacity="1" fill="#d4d4d4" stroke-linecap="round" fill-rule="evenodd" stroke-linejoin="round" stroke="#d4d4d4" d="M90.7217-0.175893C90.7217-0.175893+90.7217-0.106972+90.7217-0.106322L58.4329-0.106322C58.4329-0.106322+58.4329-0.0055432+58.4329-0.0019658L51.2289+0.0328197L51.2659+0.311103C55.3477+0.618744+58.2113+2.05038+58.2113+2.05038L58.2482+2.01559C58.4162+2.1023+66.5645+6.27076+74.0231+1.98081C81.6969-2.43288+90.7217+1.98081+90.7217+1.98081C90.9355+2.08984+94.0311+3.30177+98.0365+3.51137L98.0365+3.54615C98.0647+3.54489+98.0822+3.54751+98.1104+3.54615C98.1385+3.54751+98.156+3.54489+98.1843+3.54615L98.1843+3.51137C102.19+3.30177+105.322+2.08984+105.536+1.98081C105.536+1.98081+114.524-2.43288+122.198+1.98081C129.656+6.27076+137.841+2.1023+138.009+2.01559L138.009+2.05038C138.009+2.05038+140.91+0.618744+144.992+0.311103L144.978+0L137.788-0.0019658C137.788-0.0055432+137.788-0.106322+137.788-0.106322L105.536-0.106322C105.536-0.106972+105.536-0.175893+105.536-0.175893L98.1843-0.175893L98.1104+1.42424L98.0734-0.175893L90.7217-0.175893Z" stroke-width="0.724251"/>
<path d="M98.1414+3.81315L98.1547+3.81007C98.0941+3.81007+97.9858+3.80197+97.9609+3.82009C97.9094+3.8574+97.8871+3.98177+97.8871+4.08832L97.9298+6.39009C97.9298+6.45899+97.9325+6.49524+97.9319+6.55838C97.9312+6.63288+97.832+6.69865+97.9367+6.69865L98.1871+6.69812C98.3725+6.69812+98.4072+6.55696+98.4072+6.39869L98.4072+4.08223C98.4072+3.92397+98.3268+3.81315+98.1414+3.81315Z" opacity="1" fill-rule="evenodd" fill="#6c7e93"/>
<path opacity="1" fill="#000000" d="M0+3.57915L0+19.4246L51.0068+19.4246L51.3023+19.4246L97.9878+19.4246L98.2832+19.4246L144.969+19.4246L145.264+19.4246L196.234+19.4246L196.234+3.57915L145.264+3.57915L144.969+3.57915L98.2832+3.57915L97.9878+3.57915L51.3023+3.57915L51.0068+3.57915L0+3.57915Z" fill-rule="evenodd"/>
<path opacity="1" fill-rule="evenodd" stroke="#d4d4d4" fill="#d4d4d4" d="M145.016+0.187466L145.022+0.458262C149.452+0.753063+152.576+2.12824+152.576+2.12824L152.598+2.09491C152.78+2.178+161.648+6.17248+169.743+2.06158C178.073-2.16791+187.849+2.06158+187.849+2.06158C188.084+2.16759+191.406+3.32054+195.846+3.49492L195.825-0.00511181L187.849-0.00511181C187.849-0.00511189+187.849+0.0609331+187.849+0.0615555L152.811+0.0615555C152.811+0.0615557+152.811+0.158128+152.811+0.161557L145.016+0.187466Z" stroke-linecap="round" stroke-width="0.724251" stroke-linejoin="round"/>
<path stroke="#000000" d="M20.313+0.47346C14.1079+0.0113107+8.68037+1.85198+8.68037+1.85198C8.44121+1.93627+4.7166+3.00798+0.153099+3.09621L0.149801+5.77946C4.63577+5.69258+8.25968+4.90269+8.49572+4.84311L8.49572+4.86911C8.49574+4.86911+18.1771+2.52613+26.4062+4.86911C34.4047+7.14642+43.1764+4.91514+43.3566+4.86911C43.3566+4.86911+46.6939+4.15318+51.1855+4.0368L51.1855+4.01079C55.2757+4.13706+58.3128+4.86911+58.3128+4.86911C58.4791+4.91514+66.5501+7.14642+73.9337+4.86911C81.5301+2.52613+90.4778+4.86911+90.4778+4.86911L90.4778+4.84311C90.6911+4.90143+93.8833+5.64045+97.9005+5.75345L97.9005+5.77946C97.9432+5.77856+97.9688+5.7805+98.0113+5.77946C98.0538+5.7805+98.0794+5.77856+98.1221+5.77946L98.1221+5.75345C102.139+5.64045+105.331+4.90143+105.545+4.84311L105.545+4.86911C105.545+4.86911+114.492+2.52613+122.089+4.86911C129.472+7.14642+137.543+4.91514+137.71+4.86911C137.71+4.86911+140.747+4.13706+144.837+4.01079L144.837+4.0368C149.329+4.15318+152.666+4.86911+152.666+4.86911C152.846+4.91514+161.618+7.14642+169.616+4.86911C177.845+2.52613+187.527+4.86911+187.527+4.86911L187.527+4.84311C187.763+4.90269+191.372+5.67763+195.858+5.76451L195.862+3.11122C191.299+3.02299+187.581+1.93627+187.342+1.85198C187.342+1.85198+181.915+0.0113107+175.71+0.47346C173.641+0.627509+171.498+1.03038+169.432+1.85198C161.397+5.04623+153.069+2.20265+152.888+2.13809L152.371+1.93001C152.371+1.93001+149.305+0.870082+144.985+0.603509C144.985+0.594271+144.985+0.58783+144.985+0.577499C144.955+0.579277+144.963+0.585143+144.933+0.587012C144.896+0.584838+144.837+0.579552+144.8+0.577499C144.8+0.58783+144.8+0.594271+144.8+0.603509C140.821+0.871844+138.005+1.93001+138.005+1.93001L137.525+2.13809C137.358+2.20265+129.654+5.04623+122.237+1.85198C114.606-1.43441+105.692+1.85198+105.692+1.85198C105.474+1.93543+102.165+2.99373+98.0113+3.10045C93.8575+2.99373+90.5486+1.93543+90.3301+1.85198C90.3301+1.85198+81.417-1.43441+73.7859+1.85198C66.3688+5.04623+58.6645+2.20265+58.4974+2.13809L58.0173+1.93001C58.0173+1.93001+55.202+0.871844+51.2224+0.603509C51.2224+0.594271+51.2225+0.58783+51.2224+0.577499C51.1853+0.579552+51.1486+0.601334+51.1116+0.603509C51.082+0.601639+51.0675+0.579277+51.0378+0.577499C51.0377+0.58783+51.0378+0.594271+51.0378+0.603509C46.7178+0.870082+43.652+1.93001+43.652+1.93001L43.135+2.13809C42.954+2.20265+34.6257+5.04623+26.5909+1.85198C24.5242+1.03038+22.3813+0.627509+20.313+0.47346Z" stroke-width="0.82" stroke-linecap="round" fill-rule="evenodd" stroke-linejoin="round" opacity="1" fill="#2b9ddb"/>
<path opacity="1" fill-rule="evenodd" d="M0.386767+3.49621L0.110331+3.51691C0.18177+3.51691+0.570135+3.48905+0.599567+3.50065C0.660199+3.52453+0.686523+3.60414+0.686523+3.67233L0.636217+5.1456C0.636217+5.1897+0.633007+5.2129+0.633707+5.25332C0.634533+5.301+0.751494+5.3431+0.62806+5.3431L0.332901+5.34276C0.114296+5.34276+0.0734046+5.25241+0.0734046+5.15111L0.0363552+3.68267C0.0363552+3.64482+0.00197836+3.58314+0.0299566+3.55589C0.0768544+3.5102+0.249846+3.49621+0.386767+3.49621Z" fill="#2b9ddb"/>
<path fill="#2b9ddb" opacity="1" d="M145.016+1.04315L145.019+1.05733C145.1+1.05733+145.147+1.04681+145.147+1.11859L145.147+3.19456C145.147+3.22952+145.172+3.28163+145.146+3.30499C145.12+3.3296+145.042+3.32453+145.001+3.32453L145.001+3.32453C144.961+3.32453+144.862+3.32475+144.835+3.3021C144.808+3.27847+144.854+3.2312+144.854+3.19456L144.831+1.104C144.831+1.0625+144.727+1.043+144.767+1.02332C144.797+1.00896+144.981+1.04315+145.016+1.04315Z" fill-rule="evenodd"/>
<path d="M0.507098+3.49821L0.501609+3.49733C0.392873+3.49733+0.227998+3.49314+0.1832+3.50135C0.0909138+3.51828+0.0508471+3.57469+0.0508471+3.62302L0.127416+4.66708C0.127416+4.69833+0.132302+4.71477+0.131236+4.74342C0.12998+4.77721-0.0480447+4.80704+0.139832+4.80704L0.589087+4.8068C0.921821+4.8068+0.984061+4.74277+0.984061+4.67098L0.984061+3.62026C0.984061+3.57353+0.861668+3.51718+0.815693+3.50643C0.769718+3.49569+0.623231+3.49821+0.507098+3.49821Z" fill-rule="evenodd" opacity="1" fill="#2b9ddb"/>
<path fill-rule="evenodd" fill="#2b9ddb" d="M195.748+3.51253L195.258+3.51881C195.365+3.51881+196.154+3.46794+196.198+3.47959C196.226+3.48716+196.197+3.50674+196.198+3.52845C196.2+3.5755+196.198+3.64253+196.198+3.68939L196.198+5.17893C196.198+5.22321+196.197+5.24146+196.198+5.28204C196.199+5.31837+196.222+5.34024+196.192+5.36058C196.183+5.36704+196.242+5.39552+196.198+5.39552L195.668+5.36685C195.34+5.36685+195.279+5.27612+195.279+5.17439L195.279+3.68548C195.279+3.64747+195.153+3.58123+195.195+3.55387C195.265+3.50799+195.543+3.51253+195.748+3.51253Z" opacity="1"/>
<path fill-rule="evenodd" opacity="1" fill="#2b9ddb" d="M0.244693+3.51898L0.60804+3.52522C0.528764+3.52522+0.0236289+3.47851+0.0236289+3.5125C0.0236289+3.54263+0.00325568+3.72253+0.0517587+3.72802C0.100262+3.73351+0.0236289+3.67833+0.0236289+3.70477L0.0236289+5.11196C0.0236289+5.15593+0.0244055+5.22286+0.0236289+5.26315C0.0231595+5.28751-0.0293006+5.34979+0.0236289+5.33394C0.0765584+5.3181-0.021012+5.37955+0.0457958+5.37955L0.304469+5.36011C0.414668+5.36011+0.612243+5.36801+0.655283+5.33825C0.70699+5.3025+0.592434+5.22414+0.592434+5.16902L0.592434+3.69071C0.592434+3.65297+0.685936+3.58721+0.654889+3.56003C0.602846+3.51448+0.396635+3.51898+0.244693+3.51898Z"/>
<path stroke="#d4d4d4" fill-rule="evenodd" stroke-linecap="round" stroke-linejoin="round" opacity="1" stroke-width="0.724251" fill="#d4d4d4" d="M287.064+0C287.064+0+287.064+0.068921+287.064+0.069571L254.775+0.069571C254.775+0.069571+254.775+0.17035+254.775+0.173927L247.571+0.208713L247.608+0.486996C251.69+0.794637+254.554+2.22627+254.554+2.22627L254.591+2.19148C254.759+2.27819+262.907+6.44665+270.365+2.1567C278.039-2.25699+287.064+2.1567+287.064+2.1567C287.278+2.26573+290.373+3.47766+294.379+3.68726L294.379+3.72204C294.407+3.72078+294.425+3.7234+294.453+3.72204C294.481+3.7234+294.498+3.72078+294.527+3.72204L294.527+3.68726C298.532+3.47766+301.664+2.26573+301.878+2.1567C301.878+2.1567+310.866-2.25699+318.54+2.1567C325.998+6.44665+334.183+2.27819+334.351+2.19148L334.351+2.22627C334.351+2.22627+337.252+0.794637+341.334+0.486996L341.32+0.175893L334.13+0.173927C334.13+0.17035+334.13+0.069571+334.13+0.069571L301.878+0.069571C301.878+0.068921+301.878+0+301.878+0L294.527+0L294.453+1.60013L294.416+0L287.064+0Z"/>
<g opacity="1">
<path d="M392.089+19.1201L392.089+19.5264L391.831+19.5264C391.972+19.5264+392.089+19.341+392.089+19.1201Z" fill-rule="evenodd" opacity="1" fill="#383f2e"/>
<path d="M294.01+4.28821L294.209+4.30118C294.244+4.30118+294.246+4.33988+294.246+4.42892L294.246+6.59138C294.246+6.64946+294.212+6.50988+294.179+6.40578C294.161+6.35029+294.143+6.30488+294.131+6.30488L294.27+6.65543C294.234+6.65543+294.073+6.67755+294.073+6.58852L294.117+4.42892C294.117+4.33988+293.974+4.28821+294.01+4.28821Z" stroke-linejoin="round" opacity="1" fill-rule="evenodd" fill="#6c7e93" stroke-width="0.32" stroke-linecap="round" stroke="#6c7e93"/>
<path fill-rule="evenodd" fill="#383f2e" d="M195.879+11.58L195.879+11.7151L195.965+11.7151C195.918+11.7151+195.879+11.6534+195.879+11.58Z" opacity="1"/>
<path d="M247.23+0.772941L247.23+0.772941C247.304+0.772941+247.365+0.868189+247.365+0.985682L247.365+4.38368C247.365+4.44091+247.387+4.52621+247.364+4.56445C247.339+4.60472+247.268+4.59642+247.23+4.59642L247.23+4.59642C247.193+4.59642+247.14+4.59077+247.116+4.55369C247.091+4.51502+247.095+4.44367+247.095+4.38368L247.073+0.961798C247.073+0.89387+247.035+0.806246+247.072+0.774032C247.099+0.750527+247.198+0.772941+247.23+0.772941Z" opacity="1" fill="#6c7e93" fill-rule="evenodd"/>
<path d="M294.112+3.81826L294.099+3.81518C294.16+3.81518+294.268+3.80708+294.293+3.8252C294.344+3.86251+294.367+3.98688+294.367+4.09343L294.324+6.3952C294.324+6.4641+294.321+6.50035+294.322+6.56349C294.323+6.63799+294.422+6.70376+294.317+6.70376L294.067+6.70323C293.881+6.70323+293.847+6.56207+293.847+6.4038L293.847+4.08734C293.847+3.92908+293.927+3.81826+294.112+3.81826Z" opacity="1" fill-rule="evenodd" fill="#6c7e93"/>
<path fill="#d4d4d4" stroke-width="0.724251" stroke="#d4d4d4" d="M247.201+0.349118L247.195+0.608545C242.763+0.890969+239.639+2.20841+239.639+2.20841L239.617+2.17648C239.435+2.25608+230.565+6.08286+222.468+2.14454C214.136-1.90737+204.358+2.14454+204.358+2.14454C204.122+2.24611+200.8+3.35065+196.359+3.51772L196.38+0.164625L204.358+0.164625C204.358+0.164625+204.358+0.227897+204.358+0.228494L239.404+0.228494C239.404+0.228494+239.404+0.321012+239.404+0.324296L247.201+0.349118Z" stroke-linecap="round" fill-rule="evenodd" opacity="1" stroke-linejoin="round"/>
<path d="M247.239+0.862193L247.235+0.885398C247.154+0.885398+247.107+0.868189+247.107+0.985682L247.107+4.38368C247.107+4.44091+247.083+4.52621+247.108+4.56445C247.134+4.60472+247.212+4.59642+247.253+4.59642L247.253+4.59642C247.293+4.59642+247.392+4.59678+247.419+4.55971C247.446+4.52103+247.4+4.44367+247.4+4.38368L247.423+0.961798C247.423+0.89387+247.527+0.861947+247.487+0.829733C247.457+0.806228+247.273+0.862193+247.239+0.862193Z" fill="#6c7e93" fill-rule="evenodd" opacity="1"/>
<path fill="#000000" opacity="1" fill-rule="evenodd" d="M247.342+4.65109L247.382+4.65109C247.426+4.65109+247.461+4.71158+247.461+4.78619L247.461+4.78619C247.461+4.8608+247.426+4.92129+247.382+4.92129L247.342+4.92129C247.298+4.92129+247.263+4.8608+247.263+4.78619L247.263+4.78619C247.263+4.71158+247.298+4.65109+247.342+4.65109Z"/>
<path stroke-width="0.32" stroke-linejoin="round" stroke="#6c7e93" opacity="1" stroke-linecap="round" d="M294.251+4.28821L294.052+4.30118C294.016+4.30118+294.015+4.33988+294.015+4.42892L294.015+6.59138C294.015+6.64946+294.048+6.50988+294.082+6.40578C294.1+6.35029+294.117+6.30488+294.13+6.30488L293.991+6.65543C294.027+6.65543+294.188+6.67755+294.188+6.58852L294.143+4.42892C294.143+4.33988+294.287+4.28821+294.251+4.28821Z" fill-rule="evenodd" fill="#6c7e93"/>
<path opacity="1" fill-rule="evenodd" d="M341.031+0.772941L341.031+0.772941C340.957+0.772941+340.896+0.868189+340.896+0.985682L340.896+4.38368C340.896+4.44091+340.874+4.52621+340.897+4.56445C340.922+4.60472+340.993+4.59642+341.031+4.59642L341.031+4.59642C341.068+4.59642+341.12+4.59077+341.145+4.55369C341.17+4.51502+341.166+4.44367+341.166+4.38368L341.187+0.961798C341.187+0.89387+341.226+0.806246+341.189+0.774032C341.162+0.750527+341.063+0.772941+341.031+0.772941Z" fill="#6c7e93"/>
<path d="M294.148+3.81826L294.162+3.81518C294.101+3.81518+293.993+3.80708+293.968+3.8252C293.916+3.86251+293.894+3.98688+293.894+4.09343L293.937+6.3952C293.937+6.4641+293.939+6.50035+293.939+6.56349C293.938+6.63799+293.839+6.70376+293.944+6.70376L294.194+6.70323C294.379+6.70323+294.414+6.56207+294.414+6.4038L294.414+4.08734C294.414+3.92908+294.334+3.81826+294.148+3.81826Z" fill-rule="evenodd" fill="#6c7e93" opacity="1"/>
<path fill="#000000" opacity="1" d="M196.007+3.58426L196.007+19.4297L247.014+19.4297L247.309+19.4297L293.995+19.4297L294.29+19.4297L340.976+19.4297L341.271+19.4297L392.241+19.4297L392.241+3.58426L341.271+3.58426L340.976+3.58426L294.29+3.58426L293.995+3.58426L247.309+3.58426L247.014+3.58426L196.007+3.58426Z" fill-rule="evenodd"/>
<path fill="#d4d4d4" stroke="#d4d4d4" opacity="1" stroke-width="0.724251" d="M341.023+0.192578L341.029+0.463374C345.459+0.758175+348.583+2.13335+348.583+2.13335L348.605+2.10002C348.787+2.18311+357.655+6.17759+365.75+2.06669C374.08-2.1628+383.856+2.06669+383.856+2.06669C384.091+2.1727+387.413+3.32565+391.853+3.50003L391.832-3.46945e-18L383.856-3.46945e-18C383.856-8.00937e-08+383.856+0.0660449+383.856+0.0666673L348.818+0.0666673C348.818+0.0666675+348.818+0.16324+348.818+0.166669L341.023+0.192578Z" fill-rule="evenodd" stroke-linecap="round" stroke-linejoin="round"/>
<path d="M216.32+0.478572C210.115+0.0164225+204.687+1.85709+204.687+1.85709C204.448+1.94138+200.723+3.01309+196.16+3.10132L196.157+5.78457C200.643+5.69769+204.267+4.9078+204.503+4.84822L204.503+4.87422C204.503+4.87422+214.184+2.53124+222.413+4.87422C230.412+7.15153+239.183+4.92025+239.363+4.87422C239.363+4.87422+242.701+4.15829+247.192+4.04191L247.192+4.0159C251.283+4.14217+254.32+4.87422+254.32+4.87422C254.486+4.92025+262.557+7.15153+269.941+4.87422C277.537+2.53124+286.485+4.87422+286.485+4.87422L286.485+4.84822C286.698+4.90654+289.89+5.64556+293.907+5.75856L293.907+5.78457C293.95+5.78367+293.976+5.78561+294.018+5.78457C294.061+5.78561+294.086+5.78367+294.129+5.78457L294.129+5.75856C298.146+5.64556+301.338+4.90654+301.552+4.84822L301.552+4.87422C301.552+4.87422+310.499+2.53124+318.096+4.87422C325.479+7.15153+333.55+4.92025+333.717+4.87422C333.717+4.87422+336.754+4.14217+340.844+4.0159L340.844+4.04191C345.336+4.15829+348.673+4.87422+348.673+4.87422C348.853+4.92025+357.625+7.15153+365.623+4.87422C373.852+2.53124+383.534+4.87422+383.534+4.87422L383.534+4.84822C383.77+4.9078+387.379+5.68274+391.865+5.76962L391.869+3.11633C387.306+3.0281+383.588+1.94138+383.349+1.85709C383.349+1.85709+377.922+0.0164225+371.717+0.478572C369.648+0.632621+367.505+1.03549+365.439+1.85709C357.404+5.05134+349.076+2.20776+348.895+2.1432L348.378+1.93512C348.378+1.93512+345.312+0.875194+340.992+0.608621C340.992+0.599383+340.992+0.592942+340.992+0.582611C340.962+0.584389+340.97+0.590255+340.94+0.592124C340.903+0.58995+340.844+0.584664+340.807+0.582611C340.807+0.592942+340.807+0.599383+340.807+0.608621C336.828+0.876956+334.012+1.93512+334.012+1.93512L333.532+2.1432C333.365+2.20776+325.661+5.05134+318.244+1.85709C310.613-1.4293+301.699+1.85709+301.699+1.85709C301.481+1.94054+298.172+2.99884+294.018+3.10556C289.864+2.99884+286.555+1.94054+286.337+1.85709C286.337+1.85709+277.424-1.4293+269.793+1.85709C262.376+5.05134+254.671+2.20776+254.504+2.1432L254.024+1.93512C254.024+1.93512+251.209+0.876956+247.229+0.608621C247.229+0.599383+247.229+0.592942+247.229+0.582611C247.192+0.584664+247.155+0.606446+247.118+0.608621C247.089+0.606751+247.074+0.584389+247.045+0.582611C247.045+0.592942+247.045+0.599383+247.045+0.608621C242.725+0.875194+239.659+1.93512+239.659+1.93512L239.142+2.1432C238.961+2.20776+230.633+5.05134+222.598+1.85709C220.531+1.03549+218.388+0.632621+216.32+0.478572Z" fill="#2b9ddb" opacity="1" fill-rule="evenodd" stroke-linecap="round" stroke-linejoin="round" stroke="#000000" stroke-width="0.82"/>
<path opacity="1" fill="#2b9ddb" fill-rule="evenodd" d="M196.394+3.50132L196.117+3.52202C196.189+3.52202+196.577+3.49416+196.606+3.50576C196.667+3.52964+196.693+3.60925+196.693+3.67744L196.643+5.15071C196.643+5.19481+196.64+5.21801+196.641+5.25843C196.641+5.30611+196.758+5.34821+196.635+5.34821L196.34+5.34787C196.121+5.34787+196.08+5.25752+196.08+5.15622L196.043+3.68778C196.043+3.64993+196.009+3.58825+196.037+3.561C196.084+3.51531+196.257+3.50132+196.394+3.50132Z"/>
<path fill-rule="evenodd" opacity="1" d="M341.023+1.04826L341.026+1.06244C341.107+1.06244+341.154+1.05192+341.154+1.1237L341.154+3.19967C341.154+3.23463+341.179+3.28674+341.153+3.3101C341.127+3.33471+341.049+3.32964+341.008+3.32964L341.008+3.32964C340.968+3.32964+340.869+3.32986+340.842+3.30721C340.815+3.28358+340.861+3.23631+340.861+3.19967L340.838+1.10911C340.838+1.06761+340.734+1.04811+340.774+1.02843C340.804+1.01407+340.988+1.04826+341.023+1.04826Z" fill="#2b9ddb"/>
<path fill-rule="evenodd" opacity="1" d="M196.514+3.50332L196.508+3.50244C196.4+3.50244+196.235+3.49825+196.19+3.50646C196.098+3.52339+196.058+3.5798+196.058+3.62813L196.134+4.67219C196.134+4.70344+196.139+4.71988+196.138+4.74853C196.137+4.78232+195.959+4.81215+196.147+4.81215L196.596+4.81191C196.929+4.81191+196.991+4.74788+196.991+4.67609L196.991+3.62537C196.991+3.57864+196.869+3.52229+196.823+3.51154C196.777+3.5008+196.63+3.50332+196.514+3.50332Z" fill="#2b9ddb"/>
<path fill-rule="evenodd" opacity="1" fill="#2b9ddb" d="M391.755+3.51764L391.265+3.52392C391.372+3.52392+392.161+3.47305+392.205+3.4847C392.233+3.49227+392.204+3.51185+392.205+3.53356C392.207+3.58061+392.205+3.64764+392.205+3.6945L392.205+5.18404C392.205+5.22832+392.204+5.24657+392.205+5.28715C392.206+5.32348+392.229+5.34535+392.199+5.36569C392.19+5.37215+392.249+5.40063+392.205+5.40063L391.675+5.37196C391.347+5.37196+391.286+5.28123+391.286+5.1795L391.286+3.69059C391.286+3.65258+391.16+3.58634+391.202+3.55898C391.272+3.5131+391.55+3.51764+391.755+3.51764Z"/>
<path fill="#2b9ddb" fill-rule="evenodd" opacity="1" d="M196.252+3.52409L196.615+3.53033C196.536+3.53033+196.031+3.48362+196.031+3.51761C196.031+3.54774+196.01+3.72764+196.059+3.73313C196.107+3.73862+196.031+3.68344+196.031+3.70988L196.031+5.11707C196.031+5.16104+196.031+5.22797+196.031+5.26826C196.03+5.29262+195.978+5.3549+196.031+5.33905C196.083+5.32321+195.986+5.38466+196.053+5.38466L196.311+5.36522C196.422+5.36522+196.619+5.37312+196.662+5.34336C196.714+5.30761+196.599+5.22925+196.599+5.17413L196.599+3.69582C196.599+3.65808+196.693+3.59232+196.662+3.56514C196.61+3.51959+196.404+3.52409+196.252+3.52409Z"/>
</g>
<path d="M195.99+3.50907L195.99+3.50907C196.086+3.50907+196.389+3.48787+196.448+3.54385C196.498+3.59142+196.311+3.7104+196.311+3.77885L196.311+5.0992C196.311+5.17101+196.327+5.29337+196.273+5.34171C196.214+5.39366+196.297+5.36961+196.205+5.36961L195.89+5.36734C195.807+5.36734+195.754+5.38126+195.697+5.33752C195.632+5.28818+195.668+5.17818+195.668+5.0992L195.668+3.77885C195.668+3.68726+195.53+3.56862+195.613+3.51985C195.665+3.48928+195.921+3.50907+195.99+3.50907Z" opacity="1" fill="#2b9ddb"/>
</g>
</svg>
