<?xml version="1.0" encoding="UTF-8" standalone="no"?> <!-- Created with Vectornator for iOS (http://vectornator.io/) --><!DOCTYPE svg PUBLIC "-//W3C//DTD SVG 1.1//EN" "http://www.w3.org/Graphics/SVG/1.1/DTD/svg11.dtd">
<svg preserveAspectRatio="none" height="100%" xmlns:vectornator="http://vectornator.io" xml:space="preserve" version="1.1" xmlns:xlink="http://www.w3.org/1999/xlink" width="100%" xmlns="http://www.w3.org/2000/svg" style="fill-rule:nonzero;clip-rule:evenodd;stroke-linecap:round;stroke-linejoin:round;" viewBox="0 0 196.21 19.28">
<metadata>
<vectornator:setting key="VNDimensionsVisible" value="true"/>
<vectornator:setting key="WDSnapToEdges" value="false"/>
<vectornator:setting key="WDOutlineMode" value="false"/>
<vectornator:setting key="WDDynamicGuides" value="false"/>
<vectornator:setting value="false" key="WDSnapToPoints"/>
<vectornator:setting key="WDUnits" value="Pixels"/>
<vectornator:setting value="false" key="IsTimeLapseWatermarkDisabled"/>
<vectornator:setting value="false" key="WDDisplayWhiteBackground"/>
<vectornator:setting value="false" key="WDIsolateActiveLayer"/>
<vectornator:setting key="WDGuidesVisible" value="true"/>
<vectornator:setting value="false" key="WDSnapToGrid"/>
<vectornator:setting value="false" key="UndoHistoryDisabled"/>
<vectornator:setting value="false" key="WDCMYKEnabledKey"/>
<vectornator:setting value="true" key="WDRulersVisible"/>
<vectornator:setting value="true" key="VNSnapToGuides"/>
<vectornator:setting value="false" key="VNPencilOnly"/>
</metadata>
<defs/>
<g id="Layer 2" vectornator:layerName="Layer 2">
<path opacity="1" d="M247.281+3.84375L247.281+19.2812L298.594+19.2812L298.594+3.84375L247.281+3.84375Z" fill="#18283b"/>
<path opacity="1" stroke-width="0.32" stroke-linejoin="round" fill="#6c7e93" stroke="#000000" d="M247.875+0.625L247.875+4.625C252.975+4.97521+256.563+5.6875+256.562+5.6875L256.562+5.625C257.118+5.73915+269.75+8.32643+281.406+5.625C287.293+4.26076+293.615+4.23516+298.594+4.53125L298.594+0.5625C293.786+0.121902+287.648+0.132611+281.781+2.03125C270.072+5.82041+257.339+2.25386+256.781+2.09375C256.781+2.09375+253.086+1.11029+247.875+0.625Z" stroke-linecap="round"/>
<path stroke-width="0.724251" stroke-linecap="round" opacity="1" stroke="#000000" d="M247.875+0.15625L247.875+0.625C253.167+1.10622+256.969+2.125+256.969+2.125C257.525+2.28594+270.176+5.87134+281.844+2.0625C287.555+0.19819+293.655+0.15699+298.594+0.5625L298.594+0.15625L256.469+0.15625C256.469+0.15625+256.469+0.186915+256.469+0.1875L247.875+0.15625Z" fill="#000000" stroke-linejoin="round"/>
<path opacity="1" d="M196.082+19.115L196.082+19.5213L195.824+19.5213C195.965+19.5213+196.082+19.3359+196.082+19.115Z" fill="#383f2e"/>
<path d="M98.0027+4.2831L98.202+4.29607C98.2376+4.29607+98.2393+4.33477+98.2393+4.42381L98.2393+6.58627C98.2393+6.64435+98.2055+6.50477+98.1721+6.40067C98.1543+6.34518+98.1366+6.29977+98.1243+6.29977L98.2627+6.65032C98.2272+6.65032+98.0663+6.67244+98.0663+6.58341L98.1106+4.42381C98.1106+4.33477+97.9671+4.2831+98.0027+4.2831Z" stroke-linecap="round" stroke-linejoin="round" fill="#6c7e93" stroke-width="0.32" stroke="#6c7e93" opacity="1"/>
<path fill="#383f2e" d="M-0.128168+11.5749L-0.128168+11.71L-0.0421692+11.71C-0.0892566+11.71-0.128168+11.6483-0.128168+11.5749Z" opacity="1"/>
<path d="M51.2228+0.767829L51.2228+0.767829C51.2974+0.767829+51.3578+0.863077+51.3578+0.98057L51.3578+4.37857C51.3578+4.4358+51.3803+4.5211+51.357+4.55934C51.3325+4.59961+51.2611+4.59131+51.2228+4.59131L51.2228+4.59131C51.1864+4.59131+51.1336+4.58566+51.1093+4.54858C51.084+4.50991+51.0879+4.43856+51.0879+4.37857L51.0666+0.956686C51.0666+0.888758+51.0277+0.801134+51.0651+0.76892C51.0925+0.745415+51.1914+0.767829+51.2228+0.767829Z" opacity="1" fill="#6c7e93"/>
<path d="M98.1056+3.81315L98.0923+3.81007C98.1529+3.81007+98.2612+3.80197+98.2861+3.82009C98.3376+3.8574+98.3599+3.98177+98.3599+4.08832L98.3172+6.39009C98.3172+6.45899+98.3145+6.49524+98.3151+6.55838C98.3158+6.63288+98.415+6.69865+98.3103+6.69865L98.0599+6.69812C97.8745+6.69812+97.8398+6.55696+97.8398+6.39869L97.8398+4.08223C97.8398+3.92397+97.9202+3.81315+98.1056+3.81315Z" opacity="1" fill="#6c7e93"/>
<path stroke-width="0.724251" stroke-linecap="round" d="M51.1937+0.344006L51.188+0.603433C46.7565+0.885857+43.6319+2.2033+43.6319+2.2033L43.6106+2.17137C43.4282+2.25097+34.5583+6.07775+26.4607+2.13943C18.1296-1.91248+8.35102+2.13943+8.35105+2.13943C8.11551+2.241+4.79345+3.34554+0.352059+3.51261L0.373389+0.159513L8.35105+0.159513C8.35105+0.159513+8.35105+0.222785+8.35105+0.223382L43.3973+0.223382C43.3973+0.223382+43.3973+0.3159+43.3973+0.319184L51.1937+0.344006Z" fill="#d4d4d4" stroke="#d4d4d4" stroke-linejoin="round" opacity="1"/>
<path d="M51.2317+0.857081L51.2281+0.880286C51.1473+0.880286+51.1001+0.863077+51.1001+0.98057L51.1001+4.37857C51.1001+4.4358+51.0757+4.5211+51.101+4.55934C51.1276+4.59961+51.205+4.59131+51.2464+4.59131L51.2464+4.59131C51.286+4.59131+51.3856+4.59167+51.4119+4.5546C51.4394+4.51592+51.3927+4.43856+51.3927+4.37857L51.4159+0.956686C51.4159+0.888758+51.5204+0.856835+51.4798+0.824621C51.4502+0.801116+51.2658+0.857081+51.2317+0.857081Z" fill="#6c7e93" opacity="1"/>
<path d="M51.3356+4.64598L51.3747+4.64598C51.4188+4.64598+51.4545+4.70647+51.4545+4.78108L51.4545+4.78108C51.4545+4.85569+51.4188+4.91618+51.3747+4.91618L51.3356+4.91618C51.2915+4.91618+51.2558+4.85569+51.2558+4.78108L51.2558+4.78108C51.2558+4.70647+51.2915+4.64598+51.3356+4.64598Z" opacity="1" fill="#000000"/>
<path d="M98.2444+4.2831L98.045+4.29607C98.0095+4.29607+98.0077+4.33477+98.0077+4.42381L98.0077+6.58627C98.0077+6.64435+98.0415+6.50477+98.0749+6.40067C98.0927+6.34518+98.1104+6.29977+98.1227+6.29977L97.9843+6.65032C98.0198+6.65032+98.1807+6.67244+98.1807+6.58341L98.1365+4.42381C98.1365+4.33477+98.2799+4.2831+98.2444+4.2831Z" stroke-width="0.32" stroke="#6c7e93" stroke-linejoin="round" stroke-linecap="round" opacity="1" fill="#6c7e93"/>
<path d="M145.024+0.767829L145.024+0.767829C144.95+0.767829+144.889+0.863077+144.889+0.98057L144.889+4.37857C144.889+4.4358+144.867+4.5211+144.89+4.55934C144.915+4.59961+144.986+4.59131+145.024+4.59131L145.024+4.59131C145.061+4.59131+145.113+4.58566+145.138+4.54858C145.163+4.50991+145.159+4.43856+145.159+4.37857L145.18+0.956686C145.18+0.888758+145.219+0.801134+145.182+0.76892C145.155+0.745415+145.056+0.767829+145.024+0.767829Z" fill="#6c7e93" opacity="1"/>
<path opacity="1" stroke-width="0.724251" fill="#d4d4d4" stroke="#d4d4d4" stroke-linejoin="round" d="M90.7217-0.175893C90.7217-0.175893+90.7217-0.106972+90.7217-0.106322L58.4329-0.106322C58.4329-0.106322+58.4329-0.0055432+58.4329-0.0019658L51.2289+0.0328197L51.2659+0.311103C55.3477+0.618744+58.2113+2.05038+58.2113+2.05038L58.2482+2.01559C58.4162+2.1023+66.5645+6.27076+74.0231+1.98081C81.6969-2.43288+90.7217+1.98081+90.7217+1.98081C90.9355+2.08984+94.0311+3.30177+98.0365+3.51137L98.0365+3.54615C98.0647+3.54489+98.0822+3.54751+98.1104+3.54615C98.1385+3.54751+98.156+3.54489+98.1843+3.54615L98.1843+3.51137C102.19+3.30177+105.322+2.08984+105.536+1.98081C105.536+1.98081+114.524-2.43288+122.198+1.98081C129.656+6.27076+137.841+2.1023+138.009+2.01559L138.009+2.05038C138.009+2.05038+140.91+0.618744+144.992+0.311103L144.978+0L137.788-0.0019658C137.788-0.0055432+137.788-0.106322+137.788-0.106322L105.536-0.106322C105.536-0.106972+105.536-0.175893+105.536-0.175893L98.1843-0.175893L98.1104+1.42424L98.0734-0.175893L90.7217-0.175893Z" stroke-linecap="round"/>
<path d="M98.1414+3.81315L98.1547+3.81007C98.0941+3.81007+97.9858+3.80197+97.9609+3.82009C97.9094+3.8574+97.8871+3.98177+97.8871+4.08832L97.9298+6.39009C97.9298+6.45899+97.9325+6.49524+97.9319+6.55838C97.9312+6.63288+97.832+6.69865+97.9367+6.69865L98.1871+6.69812C98.3725+6.69812+98.4072+6.55696+98.4072+6.39869L98.4072+4.08223C98.4072+3.92397+98.3268+3.81315+98.1414+3.81315Z" opacity="1" fill="#6c7e93"/>
<path d="M0+3.57915L0+19.4246L51.0068+19.4246L51.3023+19.4246L97.9878+19.4246L98.2832+19.4246L144.969+19.4246L145.264+19.4246L196.234+19.4246L196.234+3.57915L145.264+3.57915L144.969+3.57915L98.2832+3.57915L97.9878+3.57915L51.3023+3.57915L51.0068+3.57915L0+3.57915Z" fill="#000000" opacity="1"/>
<path stroke-linecap="round" opacity="1" stroke-linejoin="round" fill="#d4d4d4" stroke="#d4d4d4" stroke-width="0.724251" d="M145.016+0.187466L145.022+0.458262C149.452+0.753063+152.576+2.12824+152.576+2.12824L152.598+2.09491C152.78+2.178+161.648+6.17248+169.743+2.06158C178.073-2.16791+187.849+2.06158+187.849+2.06158C188.084+2.16759+191.406+3.32054+195.846+3.49492L195.825-0.00511181L187.849-0.00511181C187.849-0.00511189+187.849+0.0609331+187.849+0.0615555L152.811+0.0615555C152.811+0.0615557+152.811+0.158128+152.811+0.161557L145.016+0.187466Z"/>
<path d="M20.313+0.47346C14.1079+0.0113107+8.68037+1.85198+8.68037+1.85198C8.44121+1.93627+4.7166+3.00798+0.153099+3.09621L0.149801+5.77946C4.63577+5.69258+8.25968+4.90269+8.49572+4.84311L8.49572+4.86911C8.49574+4.86911+18.1771+2.52613+26.4062+4.86911C34.4047+7.14642+43.1764+4.91514+43.3566+4.86911C43.3566+4.86911+46.6939+4.15318+51.1855+4.0368L51.1855+4.01079C55.2757+4.13706+58.3128+4.86911+58.3128+4.86911C58.4791+4.91514+66.5501+7.14642+73.9337+4.86911C81.5301+2.52613+90.4778+4.86911+90.4778+4.86911L90.4778+4.84311C90.6911+4.90143+93.8833+5.64045+97.9005+5.75345L97.9005+5.77946C97.9432+5.77856+97.9688+5.7805+98.0113+5.77946C98.0538+5.7805+98.0794+5.77856+98.1221+5.77946L98.1221+5.75345C102.139+5.64045+105.331+4.90143+105.545+4.84311L105.545+4.86911C105.545+4.86911+114.492+2.52613+122.089+4.86911C129.472+7.14642+137.543+4.91514+137.71+4.86911C137.71+4.86911+140.747+4.13706+144.837+4.01079L144.837+4.0368C149.329+4.15318+152.666+4.86911+152.666+4.86911C152.846+4.91514+161.618+7.14642+169.616+4.86911C177.845+2.52613+187.527+4.86911+187.527+4.86911L187.527+4.84311C187.763+4.90269+191.372+5.67763+195.858+5.76451L195.862+3.11122C191.299+3.02299+187.581+1.93627+187.342+1.85198C187.342+1.85198+181.915+0.0113107+175.71+0.47346C173.641+0.627509+171.498+1.03038+169.432+1.85198C161.397+5.04623+153.069+2.20265+152.888+2.13809L152.371+1.93001C152.371+1.93001+149.305+0.870082+144.985+0.603509C144.985+0.594271+144.985+0.58783+144.985+0.577499C144.955+0.579277+144.963+0.585143+144.933+0.587012C144.896+0.584838+144.837+0.579552+144.8+0.577499C144.8+0.58783+144.8+0.594271+144.8+0.603509C140.821+0.871844+138.005+1.93001+138.005+1.93001L137.525+2.13809C137.358+2.20265+129.654+5.04623+122.237+1.85198C114.606-1.43441+105.692+1.85198+105.692+1.85198C105.474+1.93543+102.165+2.99373+98.0113+3.10045C93.8575+2.99373+90.5486+1.93543+90.3301+1.85198C90.3301+1.85198+81.417-1.43441+73.7859+1.85198C66.3688+5.04623+58.6645+2.20265+58.4974+2.13809L58.0173+1.93001C58.0173+1.93001+55.202+0.871844+51.2224+0.603509C51.2224+0.594271+51.2225+0.58783+51.2224+0.577499C51.1853+0.579552+51.1486+0.601334+51.1116+0.603509C51.082+0.601639+51.0675+0.579277+51.0378+0.577499C51.0377+0.58783+51.0378+0.594271+51.0378+0.603509C46.7178+0.870082+43.652+1.93001+43.652+1.93001L43.135+2.13809C42.954+2.20265+34.6257+5.04623+26.5909+1.85198C24.5242+1.03038+22.3813+0.627509+20.313+0.47346Z" stroke-width="0.82" stroke-linecap="round" stroke="#000000" opacity="1" stroke-linejoin="round" fill="#2b9ddb"/>
<path d="M0.386767+3.49621L0.110331+3.51691C0.18177+3.51691+0.570135+3.48905+0.599567+3.50065C0.660199+3.52453+0.686523+3.60414+0.686523+3.67233L0.636217+5.1456C0.636217+5.1897+0.633007+5.2129+0.633707+5.25332C0.634533+5.301+0.751494+5.3431+0.62806+5.3431L0.332901+5.34276C0.114296+5.34276+0.0734046+5.25241+0.0734046+5.15111L0.0363552+3.68267C0.0363552+3.64482+0.00197836+3.58314+0.0299566+3.55589C0.0768544+3.5102+0.249846+3.49621+0.386767+3.49621Z" opacity="1" fill="#2b9ddb"/>
<path opacity="1" fill="#2b9ddb" d="M145.016+1.04315L145.019+1.05733C145.1+1.05733+145.147+1.04681+145.147+1.11859L145.147+3.19456C145.147+3.22952+145.172+3.28163+145.146+3.30499C145.12+3.3296+145.042+3.32453+145.001+3.32453L145.001+3.32453C144.961+3.32453+144.862+3.32475+144.835+3.3021C144.808+3.27847+144.854+3.2312+144.854+3.19456L144.831+1.104C144.831+1.0625+144.727+1.043+144.767+1.02332C144.797+1.00896+144.981+1.04315+145.016+1.04315Z"/>
<path opacity="1" d="M0.507098+3.49821L0.501609+3.49733C0.392873+3.49733+0.227998+3.49314+0.1832+3.50135C0.0909138+3.51828+0.0508471+3.57469+0.0508471+3.62302L0.127416+4.66708C0.127416+4.69833+0.132302+4.71477+0.131236+4.74342C0.12998+4.77721-0.0480447+4.80704+0.139832+4.80704L0.589087+4.8068C0.921821+4.8068+0.984061+4.74277+0.984061+4.67098L0.984061+3.62026C0.984061+3.57353+0.861668+3.51718+0.815693+3.50643C0.769718+3.49569+0.623231+3.49821+0.507098+3.49821Z" fill="#2b9ddb"/>
<path fill="#2b9ddb" d="M195.748+3.51253L195.258+3.51881C195.365+3.51881+196.154+3.46794+196.198+3.47959C196.226+3.48716+196.197+3.50674+196.198+3.52845C196.2+3.5755+196.198+3.64253+196.198+3.68939L196.198+5.17893C196.198+5.22321+196.197+5.24146+196.198+5.28204C196.199+5.31837+196.222+5.34024+196.192+5.36058C196.183+5.36704+196.242+5.39552+196.198+5.39552L195.668+5.36685C195.34+5.36685+195.279+5.27612+195.279+5.17439L195.279+3.68548C195.279+3.64747+195.153+3.58123+195.195+3.55387C195.265+3.50799+195.543+3.51253+195.748+3.51253Z" opacity="1"/>
<path fill="#2b9ddb" opacity="1" d="M0.244693+3.51898L0.60804+3.52522C0.528764+3.52522+0.0236289+3.47851+0.0236289+3.5125C0.0236289+3.54263+0.00325568+3.72253+0.0517587+3.72802C0.100262+3.73351+0.0236289+3.67833+0.0236289+3.70477L0.0236289+5.11196C0.0236289+5.15593+0.0244055+5.22286+0.0236289+5.26315C0.0231595+5.28751-0.0293006+5.34979+0.0236289+5.33394C0.0765584+5.3181-0.021012+5.37955+0.0457958+5.37955L0.304469+5.36011C0.414668+5.36011+0.612243+5.36801+0.655283+5.33825C0.70699+5.3025+0.592434+5.22414+0.592434+5.16902L0.592434+3.69071C0.592434+3.65297+0.685936+3.58721+0.654889+3.56003C0.602846+3.51448+0.396635+3.51898+0.244693+3.51898Z"/>
</g>
</svg>
